<?xml version="1.0" encoding="utf-8" standalone="no"?>
<!DOCTYPE svg PUBLIC "-//W3C//DTD SVG 1.1//EN"
  "http://www.w3.org/Graphics/SVG/1.1/DTD/svg11.dtd">
<!-- Created with matplotlib (http://matplotlib.org/) -->
<svg height="864pt" version="1.1" viewBox="0 0 1800 864" width="1800pt" xmlns="http://www.w3.org/2000/svg" xmlns:xlink="http://www.w3.org/1999/xlink">
 <defs>
  <style type="text/css">
*{stroke-linecap:butt;stroke-linejoin:round;}
  </style>
 </defs>
 <g id="figure_1">
  <g id="patch_1">
   <path d="M 0 864 
L 1800 864 
L 1800 0 
L 0 0 
z
" style="fill:#ffffff;"/>
  </g>
  <g id="axes_1">
   <g id="patch_2">
    <path d="M 225 768.96 
L 1620 768.96 
L 1620 103.68 
L 225 103.68 
z
" style="fill:#ffffff;"/>
   </g>
   <g id="matplotlib.axis_1">
    <g id="xtick_1">
     <g id="line2d_1">
      <defs>
       <path d="M 0 0 
L 0 3.5 
" id="m3f14b1aa44" style="stroke:#000000;stroke-width:0.8;"/>
      </defs>
      <g>
       <use style="stroke:#000000;stroke-width:0.8;" x="236.646568" xlink:href="#m3f14b1aa44" y="768.96"/>
      </g>
     </g>
     <g id="text_1">
      <!-- 16/09 -->
      <defs>
       <path d="M 12.40625 8.296875 
L 28.515625 8.296875 
L 28.515625 63.921875 
L 10.984375 60.40625 
L 10.984375 69.390625 
L 28.421875 72.90625 
L 38.28125 72.90625 
L 38.28125 8.296875 
L 54.390625 8.296875 
L 54.390625 0 
L 12.40625 0 
z
" id="DejaVuSans-31"/>
       <path d="M 33.015625 40.375 
Q 26.375 40.375 22.484375 35.828125 
Q 18.609375 31.296875 18.609375 23.390625 
Q 18.609375 15.53125 22.484375 10.953125 
Q 26.375 6.390625 33.015625 6.390625 
Q 39.65625 6.390625 43.53125 10.953125 
Q 47.40625 15.53125 47.40625 23.390625 
Q 47.40625 31.296875 43.53125 35.828125 
Q 39.65625 40.375 33.015625 40.375 
z
M 52.59375 71.296875 
L 52.59375 62.3125 
Q 48.875 64.0625 45.09375 64.984375 
Q 41.3125 65.921875 37.59375 65.921875 
Q 27.828125 65.921875 22.671875 59.328125 
Q 17.53125 52.734375 16.796875 39.40625 
Q 19.671875 43.65625 24.015625 45.921875 
Q 28.375 48.1875 33.59375 48.1875 
Q 44.578125 48.1875 50.953125 41.515625 
Q 57.328125 34.859375 57.328125 23.390625 
Q 57.328125 12.15625 50.6875 5.359375 
Q 44.046875 -1.421875 33.015625 -1.421875 
Q 20.359375 -1.421875 13.671875 8.265625 
Q 6.984375 17.96875 6.984375 36.375 
Q 6.984375 53.65625 15.1875 63.9375 
Q 23.390625 74.21875 37.203125 74.21875 
Q 40.921875 74.21875 44.703125 73.484375 
Q 48.484375 72.75 52.59375 71.296875 
z
" id="DejaVuSans-36"/>
       <path d="M 25.390625 72.90625 
L 33.6875 72.90625 
L 8.296875 -9.28125 
L 0 -9.28125 
z
" id="DejaVuSans-2f"/>
       <path d="M 31.78125 66.40625 
Q 24.171875 66.40625 20.328125 58.90625 
Q 16.5 51.421875 16.5 36.375 
Q 16.5 21.390625 20.328125 13.890625 
Q 24.171875 6.390625 31.78125 6.390625 
Q 39.453125 6.390625 43.28125 13.890625 
Q 47.125 21.390625 47.125 36.375 
Q 47.125 51.421875 43.28125 58.90625 
Q 39.453125 66.40625 31.78125 66.40625 
z
M 31.78125 74.21875 
Q 44.046875 74.21875 50.515625 64.515625 
Q 56.984375 54.828125 56.984375 36.375 
Q 56.984375 17.96875 50.515625 8.265625 
Q 44.046875 -1.421875 31.78125 -1.421875 
Q 19.53125 -1.421875 13.0625 8.265625 
Q 6.59375 17.96875 6.59375 36.375 
Q 6.59375 54.828125 13.0625 64.515625 
Q 19.53125 74.21875 31.78125 74.21875 
z
" id="DejaVuSans-30"/>
       <path d="M 10.984375 1.515625 
L 10.984375 10.5 
Q 14.703125 8.734375 18.5 7.8125 
Q 22.3125 6.890625 25.984375 6.890625 
Q 35.75 6.890625 40.890625 13.453125 
Q 46.046875 20.015625 46.78125 33.40625 
Q 43.953125 29.203125 39.59375 26.953125 
Q 35.25 24.703125 29.984375 24.703125 
Q 19.046875 24.703125 12.671875 31.3125 
Q 6.296875 37.9375 6.296875 49.421875 
Q 6.296875 60.640625 12.9375 67.421875 
Q 19.578125 74.21875 30.609375 74.21875 
Q 43.265625 74.21875 49.921875 64.515625 
Q 56.59375 54.828125 56.59375 36.375 
Q 56.59375 19.140625 48.40625 8.859375 
Q 40.234375 -1.421875 26.421875 -1.421875 
Q 22.703125 -1.421875 18.890625 -0.6875 
Q 15.09375 0.046875 10.984375 1.515625 
z
M 30.609375 32.421875 
Q 37.25 32.421875 41.125 36.953125 
Q 45.015625 41.5 45.015625 49.421875 
Q 45.015625 57.28125 41.125 61.84375 
Q 37.25 66.40625 30.609375 66.40625 
Q 23.96875 66.40625 20.09375 61.84375 
Q 16.21875 57.28125 16.21875 49.421875 
Q 16.21875 41.5 20.09375 36.953125 
Q 23.96875 32.421875 30.609375 32.421875 
z
" id="DejaVuSans-39"/>
      </defs>
      <g transform="translate(222.237193 783.558437)scale(0.1 -0.1)">
       <use xlink:href="#DejaVuSans-31"/>
       <use x="63.623047" xlink:href="#DejaVuSans-36"/>
       <use x="127.246094" xlink:href="#DejaVuSans-2f"/>
       <use x="160.9375" xlink:href="#DejaVuSans-30"/>
       <use x="224.560547" xlink:href="#DejaVuSans-39"/>
      </g>
     </g>
    </g>
    <g id="xtick_2">
     <g id="line2d_2">
      <g>
       <use style="stroke:#000000;stroke-width:0.8;" x="262.527829" xlink:href="#m3f14b1aa44" y="768.96"/>
      </g>
     </g>
     <g id="text_2">
      <!-- . -->
      <defs>
       <path d="M 10.6875 12.40625 
L 21 12.40625 
L 21 0 
L 10.6875 0 
z
" id="DejaVuSans-2e"/>
      </defs>
      <g transform="translate(260.938767 783.558437)scale(0.1 -0.1)">
       <use xlink:href="#DejaVuSans-2e"/>
      </g>
     </g>
    </g>
    <g id="xtick_3">
     <g id="line2d_3">
      <g>
       <use style="stroke:#000000;stroke-width:0.8;" x="288.409091" xlink:href="#m3f14b1aa44" y="768.96"/>
      </g>
     </g>
     <g id="text_3">
      <!-- . -->
      <g transform="translate(286.820028 783.558437)scale(0.1 -0.1)">
       <use xlink:href="#DejaVuSans-2e"/>
      </g>
     </g>
    </g>
    <g id="xtick_4">
     <g id="line2d_4">
      <g>
       <use style="stroke:#000000;stroke-width:0.8;" x="314.290353" xlink:href="#m3f14b1aa44" y="768.96"/>
      </g>
     </g>
     <g id="text_4">
      <!-- . -->
      <g transform="translate(312.70129 783.558437)scale(0.1 -0.1)">
       <use xlink:href="#DejaVuSans-2e"/>
      </g>
     </g>
    </g>
    <g id="xtick_5">
     <g id="line2d_5">
      <g>
       <use style="stroke:#000000;stroke-width:0.8;" x="340.171614" xlink:href="#m3f14b1aa44" y="768.96"/>
      </g>
     </g>
     <g id="text_5">
      <!-- 17/01 -->
      <defs>
       <path d="M 8.203125 72.90625 
L 55.078125 72.90625 
L 55.078125 68.703125 
L 28.609375 0 
L 18.3125 0 
L 43.21875 64.59375 
L 8.203125 64.59375 
z
" id="DejaVuSans-37"/>
      </defs>
      <g transform="translate(325.762239 783.558437)scale(0.1 -0.1)">
       <use xlink:href="#DejaVuSans-31"/>
       <use x="63.623047" xlink:href="#DejaVuSans-37"/>
       <use x="127.246094" xlink:href="#DejaVuSans-2f"/>
       <use x="160.9375" xlink:href="#DejaVuSans-30"/>
       <use x="224.560547" xlink:href="#DejaVuSans-31"/>
      </g>
     </g>
    </g>
    <g id="xtick_6">
     <g id="line2d_6">
      <g>
       <use style="stroke:#000000;stroke-width:0.8;" x="366.052876" xlink:href="#m3f14b1aa44" y="768.96"/>
      </g>
     </g>
     <g id="text_6">
      <!-- . -->
      <g transform="translate(364.463813 783.558437)scale(0.1 -0.1)">
       <use xlink:href="#DejaVuSans-2e"/>
      </g>
     </g>
    </g>
    <g id="xtick_7">
     <g id="line2d_7">
      <g>
       <use style="stroke:#000000;stroke-width:0.8;" x="391.934137" xlink:href="#m3f14b1aa44" y="768.96"/>
      </g>
     </g>
     <g id="text_7">
      <!-- . -->
      <g transform="translate(390.345075 783.558437)scale(0.1 -0.1)">
       <use xlink:href="#DejaVuSans-2e"/>
      </g>
     </g>
    </g>
    <g id="xtick_8">
     <g id="line2d_8">
      <g>
       <use style="stroke:#000000;stroke-width:0.8;" x="417.815399" xlink:href="#m3f14b1aa44" y="768.96"/>
      </g>
     </g>
     <g id="text_8">
      <!-- . -->
      <g transform="translate(416.226336 783.558437)scale(0.1 -0.1)">
       <use xlink:href="#DejaVuSans-2e"/>
      </g>
     </g>
    </g>
    <g id="xtick_9">
     <g id="line2d_9">
      <g>
       <use style="stroke:#000000;stroke-width:0.8;" x="443.69666" xlink:href="#m3f14b1aa44" y="768.96"/>
      </g>
     </g>
     <g id="text_9">
      <!-- 17/05 -->
      <defs>
       <path d="M 10.796875 72.90625 
L 49.515625 72.90625 
L 49.515625 64.59375 
L 19.828125 64.59375 
L 19.828125 46.734375 
Q 21.96875 47.46875 24.109375 47.828125 
Q 26.265625 48.1875 28.421875 48.1875 
Q 40.625 48.1875 47.75 41.5 
Q 54.890625 34.8125 54.890625 23.390625 
Q 54.890625 11.625 47.5625 5.09375 
Q 40.234375 -1.421875 26.90625 -1.421875 
Q 22.3125 -1.421875 17.546875 -0.640625 
Q 12.796875 0.140625 7.71875 1.703125 
L 7.71875 11.625 
Q 12.109375 9.234375 16.796875 8.0625 
Q 21.484375 6.890625 26.703125 6.890625 
Q 35.15625 6.890625 40.078125 11.328125 
Q 45.015625 15.765625 45.015625 23.390625 
Q 45.015625 31 40.078125 35.4375 
Q 35.15625 39.890625 26.703125 39.890625 
Q 22.75 39.890625 18.8125 39.015625 
Q 14.890625 38.140625 10.796875 36.28125 
z
" id="DejaVuSans-35"/>
      </defs>
      <g transform="translate(429.287285 783.558437)scale(0.1 -0.1)">
       <use xlink:href="#DejaVuSans-31"/>
       <use x="63.623047" xlink:href="#DejaVuSans-37"/>
       <use x="127.246094" xlink:href="#DejaVuSans-2f"/>
       <use x="160.9375" xlink:href="#DejaVuSans-30"/>
       <use x="224.560547" xlink:href="#DejaVuSans-35"/>
      </g>
     </g>
    </g>
    <g id="xtick_10">
     <g id="line2d_10">
      <g>
       <use style="stroke:#000000;stroke-width:0.8;" x="469.577922" xlink:href="#m3f14b1aa44" y="768.96"/>
      </g>
     </g>
     <g id="text_10">
      <!-- . -->
      <g transform="translate(467.98886 783.558437)scale(0.1 -0.1)">
       <use xlink:href="#DejaVuSans-2e"/>
      </g>
     </g>
    </g>
    <g id="xtick_11">
     <g id="line2d_11">
      <g>
       <use style="stroke:#000000;stroke-width:0.8;" x="495.459184" xlink:href="#m3f14b1aa44" y="768.96"/>
      </g>
     </g>
     <g id="text_11">
      <!-- . -->
      <g transform="translate(493.870121 783.558437)scale(0.1 -0.1)">
       <use xlink:href="#DejaVuSans-2e"/>
      </g>
     </g>
    </g>
    <g id="xtick_12">
     <g id="line2d_12">
      <g>
       <use style="stroke:#000000;stroke-width:0.8;" x="521.340445" xlink:href="#m3f14b1aa44" y="768.96"/>
      </g>
     </g>
     <g id="text_12">
      <!-- . -->
      <g transform="translate(519.751383 783.558437)scale(0.1 -0.1)">
       <use xlink:href="#DejaVuSans-2e"/>
      </g>
     </g>
    </g>
    <g id="xtick_13">
     <g id="line2d_13">
      <g>
       <use style="stroke:#000000;stroke-width:0.8;" x="547.221707" xlink:href="#m3f14b1aa44" y="768.96"/>
      </g>
     </g>
     <g id="text_13">
      <!-- 17/09 -->
      <g transform="translate(532.812332 783.558437)scale(0.1 -0.1)">
       <use xlink:href="#DejaVuSans-31"/>
       <use x="63.623047" xlink:href="#DejaVuSans-37"/>
       <use x="127.246094" xlink:href="#DejaVuSans-2f"/>
       <use x="160.9375" xlink:href="#DejaVuSans-30"/>
       <use x="224.560547" xlink:href="#DejaVuSans-39"/>
      </g>
     </g>
    </g>
    <g id="xtick_14">
     <g id="line2d_14">
      <g>
       <use style="stroke:#000000;stroke-width:0.8;" x="573.102968" xlink:href="#m3f14b1aa44" y="768.96"/>
      </g>
     </g>
     <g id="text_14">
      <!-- . -->
      <g transform="translate(571.513906 783.558437)scale(0.1 -0.1)">
       <use xlink:href="#DejaVuSans-2e"/>
      </g>
     </g>
    </g>
    <g id="xtick_15">
     <g id="line2d_15">
      <g>
       <use style="stroke:#000000;stroke-width:0.8;" x="598.98423" xlink:href="#m3f14b1aa44" y="768.96"/>
      </g>
     </g>
     <g id="text_15">
      <!-- . -->
      <g transform="translate(597.395168 783.558437)scale(0.1 -0.1)">
       <use xlink:href="#DejaVuSans-2e"/>
      </g>
     </g>
    </g>
    <g id="xtick_16">
     <g id="line2d_16">
      <g>
       <use style="stroke:#000000;stroke-width:0.8;" x="624.865492" xlink:href="#m3f14b1aa44" y="768.96"/>
      </g>
     </g>
     <g id="text_16">
      <!-- . -->
      <g transform="translate(623.276429 783.558437)scale(0.1 -0.1)">
       <use xlink:href="#DejaVuSans-2e"/>
      </g>
     </g>
    </g>
    <g id="xtick_17">
     <g id="line2d_17">
      <g>
       <use style="stroke:#000000;stroke-width:0.8;" x="650.746753" xlink:href="#m3f14b1aa44" y="768.96"/>
      </g>
     </g>
     <g id="text_17">
      <!-- 18/01 -->
      <defs>
       <path d="M 31.78125 34.625 
Q 24.75 34.625 20.71875 30.859375 
Q 16.703125 27.09375 16.703125 20.515625 
Q 16.703125 13.921875 20.71875 10.15625 
Q 24.75 6.390625 31.78125 6.390625 
Q 38.8125 6.390625 42.859375 10.171875 
Q 46.921875 13.96875 46.921875 20.515625 
Q 46.921875 27.09375 42.890625 30.859375 
Q 38.875 34.625 31.78125 34.625 
z
M 21.921875 38.8125 
Q 15.578125 40.375 12.03125 44.71875 
Q 8.5 49.078125 8.5 55.328125 
Q 8.5 64.0625 14.71875 69.140625 
Q 20.953125 74.21875 31.78125 74.21875 
Q 42.671875 74.21875 48.875 69.140625 
Q 55.078125 64.0625 55.078125 55.328125 
Q 55.078125 49.078125 51.53125 44.71875 
Q 48 40.375 41.703125 38.8125 
Q 48.828125 37.15625 52.796875 32.3125 
Q 56.78125 27.484375 56.78125 20.515625 
Q 56.78125 9.90625 50.3125 4.234375 
Q 43.84375 -1.421875 31.78125 -1.421875 
Q 19.734375 -1.421875 13.25 4.234375 
Q 6.78125 9.90625 6.78125 20.515625 
Q 6.78125 27.484375 10.78125 32.3125 
Q 14.796875 37.15625 21.921875 38.8125 
z
M 18.3125 54.390625 
Q 18.3125 48.734375 21.84375 45.5625 
Q 25.390625 42.390625 31.78125 42.390625 
Q 38.140625 42.390625 41.71875 45.5625 
Q 45.3125 48.734375 45.3125 54.390625 
Q 45.3125 60.0625 41.71875 63.234375 
Q 38.140625 66.40625 31.78125 66.40625 
Q 25.390625 66.40625 21.84375 63.234375 
Q 18.3125 60.0625 18.3125 54.390625 
z
" id="DejaVuSans-38"/>
      </defs>
      <g transform="translate(636.337378 783.558437)scale(0.1 -0.1)">
       <use xlink:href="#DejaVuSans-31"/>
       <use x="63.623047" xlink:href="#DejaVuSans-38"/>
       <use x="127.246094" xlink:href="#DejaVuSans-2f"/>
       <use x="160.9375" xlink:href="#DejaVuSans-30"/>
       <use x="224.560547" xlink:href="#DejaVuSans-31"/>
      </g>
     </g>
    </g>
    <g id="xtick_18">
     <g id="line2d_18">
      <g>
       <use style="stroke:#000000;stroke-width:0.8;" x="676.628015" xlink:href="#m3f14b1aa44" y="768.96"/>
      </g>
     </g>
     <g id="text_18">
      <!-- . -->
      <g transform="translate(675.038952 783.558437)scale(0.1 -0.1)">
       <use xlink:href="#DejaVuSans-2e"/>
      </g>
     </g>
    </g>
    <g id="xtick_19">
     <g id="line2d_19">
      <g>
       <use style="stroke:#000000;stroke-width:0.8;" x="702.509276" xlink:href="#m3f14b1aa44" y="768.96"/>
      </g>
     </g>
     <g id="text_19">
      <!-- . -->
      <g transform="translate(700.920214 783.558437)scale(0.1 -0.1)">
       <use xlink:href="#DejaVuSans-2e"/>
      </g>
     </g>
    </g>
    <g id="xtick_20">
     <g id="line2d_20">
      <g>
       <use style="stroke:#000000;stroke-width:0.8;" x="728.390538" xlink:href="#m3f14b1aa44" y="768.96"/>
      </g>
     </g>
     <g id="text_20">
      <!-- . -->
      <g transform="translate(726.801476 783.558437)scale(0.1 -0.1)">
       <use xlink:href="#DejaVuSans-2e"/>
      </g>
     </g>
    </g>
    <g id="xtick_21">
     <g id="line2d_21">
      <g>
       <use style="stroke:#000000;stroke-width:0.8;" x="754.2718" xlink:href="#m3f14b1aa44" y="768.96"/>
      </g>
     </g>
     <g id="text_21">
      <!-- 18/05 -->
      <g transform="translate(739.862425 783.558437)scale(0.1 -0.1)">
       <use xlink:href="#DejaVuSans-31"/>
       <use x="63.623047" xlink:href="#DejaVuSans-38"/>
       <use x="127.246094" xlink:href="#DejaVuSans-2f"/>
       <use x="160.9375" xlink:href="#DejaVuSans-30"/>
       <use x="224.560547" xlink:href="#DejaVuSans-35"/>
      </g>
     </g>
    </g>
    <g id="xtick_22">
     <g id="line2d_22">
      <g>
       <use style="stroke:#000000;stroke-width:0.8;" x="780.153061" xlink:href="#m3f14b1aa44" y="768.96"/>
      </g>
     </g>
     <g id="text_22">
      <!-- . -->
      <g transform="translate(778.563999 783.558437)scale(0.1 -0.1)">
       <use xlink:href="#DejaVuSans-2e"/>
      </g>
     </g>
    </g>
    <g id="xtick_23">
     <g id="line2d_23">
      <g>
       <use style="stroke:#000000;stroke-width:0.8;" x="806.034323" xlink:href="#m3f14b1aa44" y="768.96"/>
      </g>
     </g>
     <g id="text_23">
      <!-- . -->
      <g transform="translate(804.44526 783.558437)scale(0.1 -0.1)">
       <use xlink:href="#DejaVuSans-2e"/>
      </g>
     </g>
    </g>
    <g id="xtick_24">
     <g id="line2d_24">
      <g>
       <use style="stroke:#000000;stroke-width:0.8;" x="831.915584" xlink:href="#m3f14b1aa44" y="768.96"/>
      </g>
     </g>
     <g id="text_24">
      <!-- . -->
      <g transform="translate(830.326522 783.558437)scale(0.1 -0.1)">
       <use xlink:href="#DejaVuSans-2e"/>
      </g>
     </g>
    </g>
    <g id="xtick_25">
     <g id="line2d_25">
      <g>
       <use style="stroke:#000000;stroke-width:0.8;" x="857.796846" xlink:href="#m3f14b1aa44" y="768.96"/>
      </g>
     </g>
     <g id="text_25">
      <!-- 18/09 -->
      <g transform="translate(843.387471 783.558437)scale(0.1 -0.1)">
       <use xlink:href="#DejaVuSans-31"/>
       <use x="63.623047" xlink:href="#DejaVuSans-38"/>
       <use x="127.246094" xlink:href="#DejaVuSans-2f"/>
       <use x="160.9375" xlink:href="#DejaVuSans-30"/>
       <use x="224.560547" xlink:href="#DejaVuSans-39"/>
      </g>
     </g>
    </g>
    <g id="xtick_26">
     <g id="line2d_26">
      <g>
       <use style="stroke:#000000;stroke-width:0.8;" x="883.678108" xlink:href="#m3f14b1aa44" y="768.96"/>
      </g>
     </g>
     <g id="text_26">
      <!-- . -->
      <g transform="translate(882.089045 783.558437)scale(0.1 -0.1)">
       <use xlink:href="#DejaVuSans-2e"/>
      </g>
     </g>
    </g>
    <g id="xtick_27">
     <g id="line2d_27">
      <g>
       <use style="stroke:#000000;stroke-width:0.8;" x="909.559369" xlink:href="#m3f14b1aa44" y="768.96"/>
      </g>
     </g>
     <g id="text_27">
      <!-- . -->
      <g transform="translate(907.970307 783.558437)scale(0.1 -0.1)">
       <use xlink:href="#DejaVuSans-2e"/>
      </g>
     </g>
    </g>
    <g id="xtick_28">
     <g id="line2d_28">
      <g>
       <use style="stroke:#000000;stroke-width:0.8;" x="935.440631" xlink:href="#m3f14b1aa44" y="768.96"/>
      </g>
     </g>
     <g id="text_28">
      <!-- . -->
      <g transform="translate(933.851568 783.558437)scale(0.1 -0.1)">
       <use xlink:href="#DejaVuSans-2e"/>
      </g>
     </g>
    </g>
    <g id="xtick_29">
     <g id="line2d_29">
      <g>
       <use style="stroke:#000000;stroke-width:0.8;" x="961.321892" xlink:href="#m3f14b1aa44" y="768.96"/>
      </g>
     </g>
     <g id="text_29">
      <!-- 19/01 -->
      <g transform="translate(946.912517 783.558437)scale(0.1 -0.1)">
       <use xlink:href="#DejaVuSans-31"/>
       <use x="63.623047" xlink:href="#DejaVuSans-39"/>
       <use x="127.246094" xlink:href="#DejaVuSans-2f"/>
       <use x="160.9375" xlink:href="#DejaVuSans-30"/>
       <use x="224.560547" xlink:href="#DejaVuSans-31"/>
      </g>
     </g>
    </g>
    <g id="xtick_30">
     <g id="line2d_30">
      <g>
       <use style="stroke:#000000;stroke-width:0.8;" x="987.203154" xlink:href="#m3f14b1aa44" y="768.96"/>
      </g>
     </g>
     <g id="text_30">
      <!-- . -->
      <g transform="translate(985.614091 783.558437)scale(0.1 -0.1)">
       <use xlink:href="#DejaVuSans-2e"/>
      </g>
     </g>
    </g>
    <g id="xtick_31">
     <g id="line2d_31">
      <g>
       <use style="stroke:#000000;stroke-width:0.8;" x="1013.084416" xlink:href="#m3f14b1aa44" y="768.96"/>
      </g>
     </g>
     <g id="text_31">
      <!-- . -->
      <g transform="translate(1011.495353 783.558437)scale(0.1 -0.1)">
       <use xlink:href="#DejaVuSans-2e"/>
      </g>
     </g>
    </g>
    <g id="xtick_32">
     <g id="line2d_32">
      <g>
       <use style="stroke:#000000;stroke-width:0.8;" x="1038.965677" xlink:href="#m3f14b1aa44" y="768.96"/>
      </g>
     </g>
     <g id="text_32">
      <!-- . -->
      <g transform="translate(1037.376615 783.558437)scale(0.1 -0.1)">
       <use xlink:href="#DejaVuSans-2e"/>
      </g>
     </g>
    </g>
    <g id="xtick_33">
     <g id="line2d_33">
      <g>
       <use style="stroke:#000000;stroke-width:0.8;" x="1064.846939" xlink:href="#m3f14b1aa44" y="768.96"/>
      </g>
     </g>
     <g id="text_33">
      <!-- 19/05 -->
      <g transform="translate(1050.437564 783.558437)scale(0.1 -0.1)">
       <use xlink:href="#DejaVuSans-31"/>
       <use x="63.623047" xlink:href="#DejaVuSans-39"/>
       <use x="127.246094" xlink:href="#DejaVuSans-2f"/>
       <use x="160.9375" xlink:href="#DejaVuSans-30"/>
       <use x="224.560547" xlink:href="#DejaVuSans-35"/>
      </g>
     </g>
    </g>
    <g id="xtick_34">
     <g id="line2d_34">
      <g>
       <use style="stroke:#000000;stroke-width:0.8;" x="1090.7282" xlink:href="#m3f14b1aa44" y="768.96"/>
      </g>
     </g>
     <g id="text_34">
      <!-- . -->
      <g transform="translate(1089.139138 783.558437)scale(0.1 -0.1)">
       <use xlink:href="#DejaVuSans-2e"/>
      </g>
     </g>
    </g>
    <g id="xtick_35">
     <g id="line2d_35">
      <g>
       <use style="stroke:#000000;stroke-width:0.8;" x="1116.609462" xlink:href="#m3f14b1aa44" y="768.96"/>
      </g>
     </g>
     <g id="text_35">
      <!-- . -->
      <g transform="translate(1115.020399 783.558437)scale(0.1 -0.1)">
       <use xlink:href="#DejaVuSans-2e"/>
      </g>
     </g>
    </g>
    <g id="xtick_36">
     <g id="line2d_36">
      <g>
       <use style="stroke:#000000;stroke-width:0.8;" x="1142.490724" xlink:href="#m3f14b1aa44" y="768.96"/>
      </g>
     </g>
     <g id="text_36">
      <!-- . -->
      <g transform="translate(1140.901661 783.558437)scale(0.1 -0.1)">
       <use xlink:href="#DejaVuSans-2e"/>
      </g>
     </g>
    </g>
    <g id="xtick_37">
     <g id="line2d_37">
      <g>
       <use style="stroke:#000000;stroke-width:0.8;" x="1168.371985" xlink:href="#m3f14b1aa44" y="768.96"/>
      </g>
     </g>
     <g id="text_37">
      <!-- 19/09 -->
      <g transform="translate(1153.96261 783.558437)scale(0.1 -0.1)">
       <use xlink:href="#DejaVuSans-31"/>
       <use x="63.623047" xlink:href="#DejaVuSans-39"/>
       <use x="127.246094" xlink:href="#DejaVuSans-2f"/>
       <use x="160.9375" xlink:href="#DejaVuSans-30"/>
       <use x="224.560547" xlink:href="#DejaVuSans-39"/>
      </g>
     </g>
    </g>
    <g id="xtick_38">
     <g id="line2d_38">
      <g>
       <use style="stroke:#000000;stroke-width:0.8;" x="1194.253247" xlink:href="#m3f14b1aa44" y="768.96"/>
      </g>
     </g>
     <g id="text_38">
      <!-- . -->
      <g transform="translate(1192.664184 783.558437)scale(0.1 -0.1)">
       <use xlink:href="#DejaVuSans-2e"/>
      </g>
     </g>
    </g>
    <g id="xtick_39">
     <g id="line2d_39">
      <g>
       <use style="stroke:#000000;stroke-width:0.8;" x="1220.134508" xlink:href="#m3f14b1aa44" y="768.96"/>
      </g>
     </g>
     <g id="text_39">
      <!-- . -->
      <g transform="translate(1218.545446 783.558437)scale(0.1 -0.1)">
       <use xlink:href="#DejaVuSans-2e"/>
      </g>
     </g>
    </g>
    <g id="xtick_40">
     <g id="line2d_40">
      <g>
       <use style="stroke:#000000;stroke-width:0.8;" x="1246.01577" xlink:href="#m3f14b1aa44" y="768.96"/>
      </g>
     </g>
     <g id="text_40">
      <!-- . -->
      <g transform="translate(1244.426707 783.558437)scale(0.1 -0.1)">
       <use xlink:href="#DejaVuSans-2e"/>
      </g>
     </g>
    </g>
    <g id="xtick_41">
     <g id="line2d_41">
      <g>
       <use style="stroke:#000000;stroke-width:0.8;" x="1271.897032" xlink:href="#m3f14b1aa44" y="768.96"/>
      </g>
     </g>
     <g id="text_41">
      <!-- 20/01 -->
      <defs>
       <path d="M 19.1875 8.296875 
L 53.609375 8.296875 
L 53.609375 0 
L 7.328125 0 
L 7.328125 8.296875 
Q 12.9375 14.109375 22.625 23.890625 
Q 32.328125 33.6875 34.8125 36.53125 
Q 39.546875 41.84375 41.421875 45.53125 
Q 43.3125 49.21875 43.3125 52.78125 
Q 43.3125 58.59375 39.234375 62.25 
Q 35.15625 65.921875 28.609375 65.921875 
Q 23.96875 65.921875 18.8125 64.3125 
Q 13.671875 62.703125 7.8125 59.421875 
L 7.8125 69.390625 
Q 13.765625 71.78125 18.9375 73 
Q 24.125 74.21875 28.421875 74.21875 
Q 39.75 74.21875 46.484375 68.546875 
Q 53.21875 62.890625 53.21875 53.421875 
Q 53.21875 48.921875 51.53125 44.890625 
Q 49.859375 40.875 45.40625 35.40625 
Q 44.1875 33.984375 37.640625 27.21875 
Q 31.109375 20.453125 19.1875 8.296875 
z
" id="DejaVuSans-32"/>
      </defs>
      <g transform="translate(1257.487657 783.558437)scale(0.1 -0.1)">
       <use xlink:href="#DejaVuSans-32"/>
       <use x="63.623047" xlink:href="#DejaVuSans-30"/>
       <use x="127.246094" xlink:href="#DejaVuSans-2f"/>
       <use x="160.9375" xlink:href="#DejaVuSans-30"/>
       <use x="224.560547" xlink:href="#DejaVuSans-31"/>
      </g>
     </g>
    </g>
    <g id="xtick_42">
     <g id="line2d_42">
      <g>
       <use style="stroke:#000000;stroke-width:0.8;" x="1297.778293" xlink:href="#m3f14b1aa44" y="768.96"/>
      </g>
     </g>
     <g id="text_42">
      <!-- . -->
      <g transform="translate(1296.189231 783.558437)scale(0.1 -0.1)">
       <use xlink:href="#DejaVuSans-2e"/>
      </g>
     </g>
    </g>
    <g id="xtick_43">
     <g id="line2d_43">
      <g>
       <use style="stroke:#000000;stroke-width:0.8;" x="1323.659555" xlink:href="#m3f14b1aa44" y="768.96"/>
      </g>
     </g>
     <g id="text_43">
      <!-- . -->
      <g transform="translate(1322.070492 783.558437)scale(0.1 -0.1)">
       <use xlink:href="#DejaVuSans-2e"/>
      </g>
     </g>
    </g>
    <g id="xtick_44">
     <g id="line2d_44">
      <g>
       <use style="stroke:#000000;stroke-width:0.8;" x="1349.540816" xlink:href="#m3f14b1aa44" y="768.96"/>
      </g>
     </g>
     <g id="text_44">
      <!-- . -->
      <g transform="translate(1347.951754 783.558437)scale(0.1 -0.1)">
       <use xlink:href="#DejaVuSans-2e"/>
      </g>
     </g>
    </g>
    <g id="xtick_45">
     <g id="line2d_45">
      <g>
       <use style="stroke:#000000;stroke-width:0.8;" x="1375.422078" xlink:href="#m3f14b1aa44" y="768.96"/>
      </g>
     </g>
     <g id="text_45">
      <!-- 20/05 -->
      <g transform="translate(1361.012703 783.558437)scale(0.1 -0.1)">
       <use xlink:href="#DejaVuSans-32"/>
       <use x="63.623047" xlink:href="#DejaVuSans-30"/>
       <use x="127.246094" xlink:href="#DejaVuSans-2f"/>
       <use x="160.9375" xlink:href="#DejaVuSans-30"/>
       <use x="224.560547" xlink:href="#DejaVuSans-35"/>
      </g>
     </g>
    </g>
    <g id="xtick_46">
     <g id="line2d_46">
      <g>
       <use style="stroke:#000000;stroke-width:0.8;" x="1401.30334" xlink:href="#m3f14b1aa44" y="768.96"/>
      </g>
     </g>
     <g id="text_46">
      <!-- . -->
      <g transform="translate(1399.714277 783.558437)scale(0.1 -0.1)">
       <use xlink:href="#DejaVuSans-2e"/>
      </g>
     </g>
    </g>
    <g id="xtick_47">
     <g id="line2d_47">
      <g>
       <use style="stroke:#000000;stroke-width:0.8;" x="1427.184601" xlink:href="#m3f14b1aa44" y="768.96"/>
      </g>
     </g>
     <g id="text_47">
      <!-- . -->
      <g transform="translate(1425.595539 783.558437)scale(0.1 -0.1)">
       <use xlink:href="#DejaVuSans-2e"/>
      </g>
     </g>
    </g>
    <g id="xtick_48">
     <g id="line2d_48">
      <g>
       <use style="stroke:#000000;stroke-width:0.8;" x="1453.065863" xlink:href="#m3f14b1aa44" y="768.96"/>
      </g>
     </g>
     <g id="text_48">
      <!-- . -->
      <g transform="translate(1451.4768 783.558437)scale(0.1 -0.1)">
       <use xlink:href="#DejaVuSans-2e"/>
      </g>
     </g>
    </g>
    <g id="xtick_49">
     <g id="line2d_49">
      <g>
       <use style="stroke:#000000;stroke-width:0.8;" x="1478.947124" xlink:href="#m3f14b1aa44" y="768.96"/>
      </g>
     </g>
     <g id="text_49">
      <!-- 20/09 -->
      <g transform="translate(1464.537749 783.558437)scale(0.1 -0.1)">
       <use xlink:href="#DejaVuSans-32"/>
       <use x="63.623047" xlink:href="#DejaVuSans-30"/>
       <use x="127.246094" xlink:href="#DejaVuSans-2f"/>
       <use x="160.9375" xlink:href="#DejaVuSans-30"/>
       <use x="224.560547" xlink:href="#DejaVuSans-39"/>
      </g>
     </g>
    </g>
    <g id="xtick_50">
     <g id="line2d_50">
      <g>
       <use style="stroke:#000000;stroke-width:0.8;" x="1504.828386" xlink:href="#m3f14b1aa44" y="768.96"/>
      </g>
     </g>
     <g id="text_50">
      <!-- . -->
      <g transform="translate(1503.239323 783.558437)scale(0.1 -0.1)">
       <use xlink:href="#DejaVuSans-2e"/>
      </g>
     </g>
    </g>
    <g id="xtick_51">
     <g id="line2d_51">
      <g>
       <use style="stroke:#000000;stroke-width:0.8;" x="1530.709647" xlink:href="#m3f14b1aa44" y="768.96"/>
      </g>
     </g>
     <g id="text_51">
      <!-- . -->
      <g transform="translate(1529.120585 783.558437)scale(0.1 -0.1)">
       <use xlink:href="#DejaVuSans-2e"/>
      </g>
     </g>
    </g>
    <g id="xtick_52">
     <g id="line2d_52">
      <g>
       <use style="stroke:#000000;stroke-width:0.8;" x="1556.590909" xlink:href="#m3f14b1aa44" y="768.96"/>
      </g>
     </g>
     <g id="text_52">
      <!-- . -->
      <g transform="translate(1555.001847 783.558437)scale(0.1 -0.1)">
       <use xlink:href="#DejaVuSans-2e"/>
      </g>
     </g>
    </g>
    <g id="xtick_53">
     <g id="line2d_53">
      <g>
       <use style="stroke:#000000;stroke-width:0.8;" x="1582.472171" xlink:href="#m3f14b1aa44" y="768.96"/>
      </g>
     </g>
     <g id="text_53">
      <!-- 21/01 -->
      <g transform="translate(1568.062796 783.558437)scale(0.1 -0.1)">
       <use xlink:href="#DejaVuSans-32"/>
       <use x="63.623047" xlink:href="#DejaVuSans-31"/>
       <use x="127.246094" xlink:href="#DejaVuSans-2f"/>
       <use x="160.9375" xlink:href="#DejaVuSans-30"/>
       <use x="224.560547" xlink:href="#DejaVuSans-31"/>
      </g>
     </g>
    </g>
    <g id="text_54">
     <!-- months -->
     <defs>
      <path d="M 52 44.1875 
Q 55.375 50.25 60.0625 53.125 
Q 64.75 56 71.09375 56 
Q 79.640625 56 84.28125 50.015625 
Q 88.921875 44.046875 88.921875 33.015625 
L 88.921875 0 
L 79.890625 0 
L 79.890625 32.71875 
Q 79.890625 40.578125 77.09375 44.375 
Q 74.3125 48.1875 68.609375 48.1875 
Q 61.625 48.1875 57.5625 43.546875 
Q 53.515625 38.921875 53.515625 30.90625 
L 53.515625 0 
L 44.484375 0 
L 44.484375 32.71875 
Q 44.484375 40.625 41.703125 44.40625 
Q 38.921875 48.1875 33.109375 48.1875 
Q 26.21875 48.1875 22.15625 43.53125 
Q 18.109375 38.875 18.109375 30.90625 
L 18.109375 0 
L 9.078125 0 
L 9.078125 54.6875 
L 18.109375 54.6875 
L 18.109375 46.1875 
Q 21.1875 51.21875 25.484375 53.609375 
Q 29.78125 56 35.6875 56 
Q 41.65625 56 45.828125 52.96875 
Q 50 49.953125 52 44.1875 
z
" id="DejaVuSans-6d"/>
      <path d="M 30.609375 48.390625 
Q 23.390625 48.390625 19.1875 42.75 
Q 14.984375 37.109375 14.984375 27.296875 
Q 14.984375 17.484375 19.15625 11.84375 
Q 23.34375 6.203125 30.609375 6.203125 
Q 37.796875 6.203125 41.984375 11.859375 
Q 46.1875 17.53125 46.1875 27.296875 
Q 46.1875 37.015625 41.984375 42.703125 
Q 37.796875 48.390625 30.609375 48.390625 
z
M 30.609375 56 
Q 42.328125 56 49.015625 48.375 
Q 55.71875 40.765625 55.71875 27.296875 
Q 55.71875 13.875 49.015625 6.21875 
Q 42.328125 -1.421875 30.609375 -1.421875 
Q 18.84375 -1.421875 12.171875 6.21875 
Q 5.515625 13.875 5.515625 27.296875 
Q 5.515625 40.765625 12.171875 48.375 
Q 18.84375 56 30.609375 56 
z
" id="DejaVuSans-6f"/>
      <path d="M 54.890625 33.015625 
L 54.890625 0 
L 45.90625 0 
L 45.90625 32.71875 
Q 45.90625 40.484375 42.875 44.328125 
Q 39.84375 48.1875 33.796875 48.1875 
Q 26.515625 48.1875 22.3125 43.546875 
Q 18.109375 38.921875 18.109375 30.90625 
L 18.109375 0 
L 9.078125 0 
L 9.078125 54.6875 
L 18.109375 54.6875 
L 18.109375 46.1875 
Q 21.34375 51.125 25.703125 53.5625 
Q 30.078125 56 35.796875 56 
Q 45.21875 56 50.046875 50.171875 
Q 54.890625 44.34375 54.890625 33.015625 
z
" id="DejaVuSans-6e"/>
      <path d="M 18.3125 70.21875 
L 18.3125 54.6875 
L 36.8125 54.6875 
L 36.8125 47.703125 
L 18.3125 47.703125 
L 18.3125 18.015625 
Q 18.3125 11.328125 20.140625 9.421875 
Q 21.96875 7.515625 27.59375 7.515625 
L 36.8125 7.515625 
L 36.8125 0 
L 27.59375 0 
Q 17.1875 0 13.234375 3.875 
Q 9.28125 7.765625 9.28125 18.015625 
L 9.28125 47.703125 
L 2.6875 47.703125 
L 2.6875 54.6875 
L 9.28125 54.6875 
L 9.28125 70.21875 
z
" id="DejaVuSans-74"/>
      <path d="M 54.890625 33.015625 
L 54.890625 0 
L 45.90625 0 
L 45.90625 32.71875 
Q 45.90625 40.484375 42.875 44.328125 
Q 39.84375 48.1875 33.796875 48.1875 
Q 26.515625 48.1875 22.3125 43.546875 
Q 18.109375 38.921875 18.109375 30.90625 
L 18.109375 0 
L 9.078125 0 
L 9.078125 75.984375 
L 18.109375 75.984375 
L 18.109375 46.1875 
Q 21.34375 51.125 25.703125 53.5625 
Q 30.078125 56 35.796875 56 
Q 45.21875 56 50.046875 50.171875 
Q 54.890625 44.34375 54.890625 33.015625 
z
" id="DejaVuSans-68"/>
      <path d="M 44.28125 53.078125 
L 44.28125 44.578125 
Q 40.484375 46.53125 36.375 47.5 
Q 32.28125 48.484375 27.875 48.484375 
Q 21.1875 48.484375 17.84375 46.4375 
Q 14.5 44.390625 14.5 40.28125 
Q 14.5 37.15625 16.890625 35.375 
Q 19.28125 33.59375 26.515625 31.984375 
L 29.59375 31.296875 
Q 39.15625 29.25 43.1875 25.515625 
Q 47.21875 21.78125 47.21875 15.09375 
Q 47.21875 7.46875 41.1875 3.015625 
Q 35.15625 -1.421875 24.609375 -1.421875 
Q 20.21875 -1.421875 15.453125 -0.5625 
Q 10.6875 0.296875 5.421875 2 
L 5.421875 11.28125 
Q 10.40625 8.6875 15.234375 7.390625 
Q 20.0625 6.109375 24.8125 6.109375 
Q 31.15625 6.109375 34.5625 8.28125 
Q 37.984375 10.453125 37.984375 14.40625 
Q 37.984375 18.0625 35.515625 20.015625 
Q 33.0625 21.96875 24.703125 23.78125 
L 21.578125 24.515625 
Q 13.234375 26.265625 9.515625 29.90625 
Q 5.8125 33.546875 5.8125 39.890625 
Q 5.8125 47.609375 11.28125 51.796875 
Q 16.75 56 26.8125 56 
Q 31.78125 56 36.171875 55.265625 
Q 40.578125 54.546875 44.28125 53.078125 
z
" id="DejaVuSans-73"/>
     </defs>
     <g transform="translate(903.667969 797.236562)scale(0.1 -0.1)">
      <use xlink:href="#DejaVuSans-6d"/>
      <use x="97.412109" xlink:href="#DejaVuSans-6f"/>
      <use x="158.59375" xlink:href="#DejaVuSans-6e"/>
      <use x="221.972656" xlink:href="#DejaVuSans-74"/>
      <use x="261.181641" xlink:href="#DejaVuSans-68"/>
      <use x="324.560547" xlink:href="#DejaVuSans-73"/>
     </g>
    </g>
   </g>
   <g id="matplotlib.axis_2">
    <g id="ytick_1">
     <g id="line2d_54">
      <defs>
       <path d="M 0 0 
L -3.5 0 
" id="m08f70cc96f" style="stroke:#000000;stroke-width:0.8;"/>
      </defs>
      <g>
       <use style="stroke:#000000;stroke-width:0.8;" x="225" xlink:href="#m08f70cc96f" y="768.96"/>
      </g>
     </g>
     <g id="text_55">
      <!-- 0 -->
      <g transform="translate(211.6375 772.759219)scale(0.1 -0.1)">
       <use xlink:href="#DejaVuSans-30"/>
      </g>
     </g>
    </g>
    <g id="ytick_2">
     <g id="line2d_55">
      <g>
       <use style="stroke:#000000;stroke-width:0.8;" x="225" xlink:href="#m08f70cc96f" y="678.778099"/>
      </g>
     </g>
     <g id="text_56">
      <!-- 5000 -->
      <g transform="translate(192.55 682.577318)scale(0.1 -0.1)">
       <use xlink:href="#DejaVuSans-35"/>
       <use x="63.623047" xlink:href="#DejaVuSans-30"/>
       <use x="127.246094" xlink:href="#DejaVuSans-30"/>
       <use x="190.869141" xlink:href="#DejaVuSans-30"/>
      </g>
     </g>
    </g>
    <g id="ytick_3">
     <g id="line2d_56">
      <g>
       <use style="stroke:#000000;stroke-width:0.8;" x="225" xlink:href="#m08f70cc96f" y="588.596198"/>
      </g>
     </g>
     <g id="text_57">
      <!-- 10000 -->
      <g transform="translate(186.1875 592.395417)scale(0.1 -0.1)">
       <use xlink:href="#DejaVuSans-31"/>
       <use x="63.623047" xlink:href="#DejaVuSans-30"/>
       <use x="127.246094" xlink:href="#DejaVuSans-30"/>
       <use x="190.869141" xlink:href="#DejaVuSans-30"/>
       <use x="254.492188" xlink:href="#DejaVuSans-30"/>
      </g>
     </g>
    </g>
    <g id="ytick_4">
     <g id="line2d_57">
      <g>
       <use style="stroke:#000000;stroke-width:0.8;" x="225" xlink:href="#m08f70cc96f" y="498.414297"/>
      </g>
     </g>
     <g id="text_58">
      <!-- 15000 -->
      <g transform="translate(186.1875 502.213516)scale(0.1 -0.1)">
       <use xlink:href="#DejaVuSans-31"/>
       <use x="63.623047" xlink:href="#DejaVuSans-35"/>
       <use x="127.246094" xlink:href="#DejaVuSans-30"/>
       <use x="190.869141" xlink:href="#DejaVuSans-30"/>
       <use x="254.492188" xlink:href="#DejaVuSans-30"/>
      </g>
     </g>
    </g>
    <g id="ytick_5">
     <g id="line2d_58">
      <g>
       <use style="stroke:#000000;stroke-width:0.8;" x="225" xlink:href="#m08f70cc96f" y="408.232396"/>
      </g>
     </g>
     <g id="text_59">
      <!-- 20000 -->
      <g transform="translate(186.1875 412.031615)scale(0.1 -0.1)">
       <use xlink:href="#DejaVuSans-32"/>
       <use x="63.623047" xlink:href="#DejaVuSans-30"/>
       <use x="127.246094" xlink:href="#DejaVuSans-30"/>
       <use x="190.869141" xlink:href="#DejaVuSans-30"/>
       <use x="254.492188" xlink:href="#DejaVuSans-30"/>
      </g>
     </g>
    </g>
    <g id="ytick_6">
     <g id="line2d_59">
      <g>
       <use style="stroke:#000000;stroke-width:0.8;" x="225" xlink:href="#m08f70cc96f" y="318.050495"/>
      </g>
     </g>
     <g id="text_60">
      <!-- 25000 -->
      <g transform="translate(186.1875 321.849714)scale(0.1 -0.1)">
       <use xlink:href="#DejaVuSans-32"/>
       <use x="63.623047" xlink:href="#DejaVuSans-35"/>
       <use x="127.246094" xlink:href="#DejaVuSans-30"/>
       <use x="190.869141" xlink:href="#DejaVuSans-30"/>
       <use x="254.492188" xlink:href="#DejaVuSans-30"/>
      </g>
     </g>
    </g>
    <g id="ytick_7">
     <g id="line2d_60">
      <g>
       <use style="stroke:#000000;stroke-width:0.8;" x="225" xlink:href="#m08f70cc96f" y="227.868594"/>
      </g>
     </g>
     <g id="text_61">
      <!-- 30000 -->
      <defs>
       <path d="M 40.578125 39.3125 
Q 47.65625 37.796875 51.625 33 
Q 55.609375 28.21875 55.609375 21.1875 
Q 55.609375 10.40625 48.1875 4.484375 
Q 40.765625 -1.421875 27.09375 -1.421875 
Q 22.515625 -1.421875 17.65625 -0.515625 
Q 12.796875 0.390625 7.625 2.203125 
L 7.625 11.71875 
Q 11.71875 9.328125 16.59375 8.109375 
Q 21.484375 6.890625 26.8125 6.890625 
Q 36.078125 6.890625 40.9375 10.546875 
Q 45.796875 14.203125 45.796875 21.1875 
Q 45.796875 27.640625 41.28125 31.265625 
Q 36.765625 34.90625 28.71875 34.90625 
L 20.21875 34.90625 
L 20.21875 43.015625 
L 29.109375 43.015625 
Q 36.375 43.015625 40.234375 45.921875 
Q 44.09375 48.828125 44.09375 54.296875 
Q 44.09375 59.90625 40.109375 62.90625 
Q 36.140625 65.921875 28.71875 65.921875 
Q 24.65625 65.921875 20.015625 65.03125 
Q 15.375 64.15625 9.8125 62.3125 
L 9.8125 71.09375 
Q 15.4375 72.65625 20.34375 73.4375 
Q 25.25 74.21875 29.59375 74.21875 
Q 40.828125 74.21875 47.359375 69.109375 
Q 53.90625 64.015625 53.90625 55.328125 
Q 53.90625 49.265625 50.4375 45.09375 
Q 46.96875 40.921875 40.578125 39.3125 
z
" id="DejaVuSans-33"/>
      </defs>
      <g transform="translate(186.1875 231.667813)scale(0.1 -0.1)">
       <use xlink:href="#DejaVuSans-33"/>
       <use x="63.623047" xlink:href="#DejaVuSans-30"/>
       <use x="127.246094" xlink:href="#DejaVuSans-30"/>
       <use x="190.869141" xlink:href="#DejaVuSans-30"/>
       <use x="254.492188" xlink:href="#DejaVuSans-30"/>
      </g>
     </g>
    </g>
    <g id="ytick_8">
     <g id="line2d_61">
      <g>
       <use style="stroke:#000000;stroke-width:0.8;" x="225" xlink:href="#m08f70cc96f" y="137.686693"/>
      </g>
     </g>
     <g id="text_62">
      <!-- 35000 -->
      <g transform="translate(186.1875 141.485912)scale(0.1 -0.1)">
       <use xlink:href="#DejaVuSans-33"/>
       <use x="63.623047" xlink:href="#DejaVuSans-35"/>
       <use x="127.246094" xlink:href="#DejaVuSans-30"/>
       <use x="190.869141" xlink:href="#DejaVuSans-30"/>
       <use x="254.492188" xlink:href="#DejaVuSans-30"/>
      </g>
     </g>
    </g>
    <g id="text_63">
     <!-- downloads -->
     <defs>
      <path d="M 45.40625 46.390625 
L 45.40625 75.984375 
L 54.390625 75.984375 
L 54.390625 0 
L 45.40625 0 
L 45.40625 8.203125 
Q 42.578125 3.328125 38.25 0.953125 
Q 33.9375 -1.421875 27.875 -1.421875 
Q 17.96875 -1.421875 11.734375 6.484375 
Q 5.515625 14.40625 5.515625 27.296875 
Q 5.515625 40.1875 11.734375 48.09375 
Q 17.96875 56 27.875 56 
Q 33.9375 56 38.25 53.625 
Q 42.578125 51.265625 45.40625 46.390625 
z
M 14.796875 27.296875 
Q 14.796875 17.390625 18.875 11.75 
Q 22.953125 6.109375 30.078125 6.109375 
Q 37.203125 6.109375 41.296875 11.75 
Q 45.40625 17.390625 45.40625 27.296875 
Q 45.40625 37.203125 41.296875 42.84375 
Q 37.203125 48.484375 30.078125 48.484375 
Q 22.953125 48.484375 18.875 42.84375 
Q 14.796875 37.203125 14.796875 27.296875 
z
" id="DejaVuSans-64"/>
      <path d="M 4.203125 54.6875 
L 13.1875 54.6875 
L 24.421875 12.015625 
L 35.59375 54.6875 
L 46.1875 54.6875 
L 57.421875 12.015625 
L 68.609375 54.6875 
L 77.59375 54.6875 
L 63.28125 0 
L 52.6875 0 
L 40.921875 44.828125 
L 29.109375 0 
L 18.5 0 
z
" id="DejaVuSans-77"/>
      <path d="M 9.421875 75.984375 
L 18.40625 75.984375 
L 18.40625 0 
L 9.421875 0 
z
" id="DejaVuSans-6c"/>
      <path d="M 34.28125 27.484375 
Q 23.390625 27.484375 19.1875 25 
Q 14.984375 22.515625 14.984375 16.5 
Q 14.984375 11.71875 18.140625 8.90625 
Q 21.296875 6.109375 26.703125 6.109375 
Q 34.1875 6.109375 38.703125 11.40625 
Q 43.21875 16.703125 43.21875 25.484375 
L 43.21875 27.484375 
z
M 52.203125 31.203125 
L 52.203125 0 
L 43.21875 0 
L 43.21875 8.296875 
Q 40.140625 3.328125 35.546875 0.953125 
Q 30.953125 -1.421875 24.3125 -1.421875 
Q 15.921875 -1.421875 10.953125 3.296875 
Q 6 8.015625 6 15.921875 
Q 6 25.140625 12.171875 29.828125 
Q 18.359375 34.515625 30.609375 34.515625 
L 43.21875 34.515625 
L 43.21875 35.40625 
Q 43.21875 41.609375 39.140625 45 
Q 35.0625 48.390625 27.6875 48.390625 
Q 23 48.390625 18.546875 47.265625 
Q 14.109375 46.140625 10.015625 43.890625 
L 10.015625 52.203125 
Q 14.9375 54.109375 19.578125 55.046875 
Q 24.21875 56 28.609375 56 
Q 40.484375 56 46.34375 49.84375 
Q 52.203125 43.703125 52.203125 31.203125 
z
" id="DejaVuSans-61"/>
     </defs>
     <g transform="translate(180.107812 463.102812)rotate(-90)scale(0.1 -0.1)">
      <use xlink:href="#DejaVuSans-64"/>
      <use x="63.476562" xlink:href="#DejaVuSans-6f"/>
      <use x="124.658203" xlink:href="#DejaVuSans-77"/>
      <use x="206.445312" xlink:href="#DejaVuSans-6e"/>
      <use x="269.824219" xlink:href="#DejaVuSans-6c"/>
      <use x="297.607422" xlink:href="#DejaVuSans-6f"/>
      <use x="358.789062" xlink:href="#DejaVuSans-61"/>
      <use x="420.068359" xlink:href="#DejaVuSans-64"/>
      <use x="483.544922" xlink:href="#DejaVuSans-73"/>
     </g>
    </g>
   </g>
   <g id="line2d_62">
    <path clip-path="url(#p23723d5b26)" d="M 288.409091 768.96 
L 314.290353 763.47694 
L 340.171614 748.308345 
L 366.052876 738.406372 
L 391.934137 731.534511 
L 417.815399 725.943233 
L 443.69666 718.025262 
L 469.577922 709.241545 
L 495.459184 703.596158 
L 521.340445 698.762408 
L 547.221707 694.181168 
L 573.102968 684.585813 
L 598.98423 680.455482 
L 624.865492 673.186821 
L 650.746753 669.381145 
L 676.628015 669.381145 
L 702.509276 662.563393 
L 728.390538 652.895893 
L 754.2718 642.488902 
L 780.153061 632.244238 
L 806.034323 624.921468 
L 831.915584 618.103716 
L 857.796846 605.099486 
L 883.678108 592.961002 
L 909.559369 580.227318 
L 935.440631 569.261198 
L 961.321892 556.166786 
L 987.203154 540.114408 
L 1013.084416 523.466829 
L 1038.965677 509.145943 
L 1064.846939 493.526438 
L 1090.7282 477.510132 
L 1116.609462 460.592008 
L 1142.490724 440.914317 
L 1168.371985 416.420913 
L 1194.253247 390.610853 
L 1220.134508 359.660424 
L 1246.01577 331.505635 
L 1271.897032 309.230705 
L 1297.778293 286.198248 
L 1323.659555 260.658733 
L 1349.540816 243.524172 
L 1375.422078 225.668156 
L 1401.30334 213.565745 
L 1427.184601 201.932279 
L 1453.065863 190.425069 
L 1478.947124 177.222438 
L 1504.828386 162.21617 
L 1530.709647 148.742994 
L 1556.590909 135.36 
" style="fill:none;stroke:#0000ff;stroke-linecap:square;stroke-width:1.5;"/>
   </g>
   <g id="patch_3">
    <path d="M 225 768.96 
L 225 103.68 
" style="fill:none;stroke:#000000;stroke-linecap:square;stroke-linejoin:miter;stroke-width:0.8;"/>
   </g>
   <g id="patch_4">
    <path d="M 225 768.96 
L 1620 768.96 
" style="fill:none;stroke:#000000;stroke-linecap:square;stroke-linejoin:miter;stroke-width:0.8;"/>
   </g>
   <g id="text_64">
    <!--       35129 -->
    <defs>
     <path id="DejaVuSans-20"/>
    </defs>
    <g transform="translate(1556.590909 135.36)scale(0.5 -0.5)">
     <use xlink:href="#DejaVuSans-20"/>
     <use x="31.787109" xlink:href="#DejaVuSans-20"/>
     <use x="63.574219" xlink:href="#DejaVuSans-20"/>
     <use x="95.361328" xlink:href="#DejaVuSans-20"/>
     <use x="127.148438" xlink:href="#DejaVuSans-20"/>
     <use x="158.935547" xlink:href="#DejaVuSans-20"/>
     <use x="190.722656" xlink:href="#DejaVuSans-33"/>
     <use x="254.345703" xlink:href="#DejaVuSans-35"/>
     <use x="317.96875" xlink:href="#DejaVuSans-31"/>
     <use x="381.591797" xlink:href="#DejaVuSans-32"/>
     <use x="445.214844" xlink:href="#DejaVuSans-39"/>
    </g>
   </g>
  </g>
 </g>
 <defs>
  <clipPath id="p23723d5b26">
   <rect height="665.28" width="1395" x="225" y="103.68"/>
  </clipPath>
 </defs>
</svg>
