<?xml version="1.0" encoding="utf-8" standalone="no"?>
<!DOCTYPE svg PUBLIC "-//W3C//DTD SVG 1.1//EN"
  "http://www.w3.org/Graphics/SVG/1.1/DTD/svg11.dtd">
<!-- Created with matplotlib (http://matplotlib.org/) -->
<svg height="864pt" version="1.1" viewBox="0 0 2448 864" width="2448pt" xmlns="http://www.w3.org/2000/svg" xmlns:xlink="http://www.w3.org/1999/xlink">
 <defs>
  <style type="text/css">
*{stroke-linecap:butt;stroke-linejoin:round;}
  </style>
 </defs>
 <g id="figure_1">
  <g id="patch_1">
   <path d="M 0 864 
L 2448 864 
L 2448 0 
L 0 0 
z
" style="fill:#ffffff;"/>
  </g>
  <g id="axes_1">
   <g id="patch_2">
    <path d="M 306 768.96 
L 2203.2 768.96 
L 2203.2 103.68 
L 306 103.68 
z
" style="fill:#ffffff;"/>
   </g>
   <g id="matplotlib.axis_1">
    <g id="xtick_1">
     <g id="line2d_1">
      <defs>
       <path d="M 0 0 
L 0 3.5 
" id="m4c7b1581c7" style="stroke:#000000;stroke-width:0.8;"/>
      </defs>
      <g>
       <use style="stroke:#000000;stroke-width:0.8;" x="341.509091" xlink:href="#m4c7b1581c7" y="768.96"/>
      </g>
     </g>
     <g id="text_1">
      <!-- . -->
      <defs>
       <path d="M 10.6875 12.40625 
L 21 12.40625 
L 21 0 
L 10.6875 0 
z
" id="DejaVuSans-2e"/>
      </defs>
      <g transform="translate(339.920028 783.558437)scale(0.1 -0.1)">
       <use xlink:href="#DejaVuSans-2e"/>
      </g>
     </g>
    </g>
    <g id="xtick_2">
     <g id="line2d_2">
      <g>
       <use style="stroke:#000000;stroke-width:0.8;" x="366.872727" xlink:href="#m4c7b1581c7" y="768.96"/>
      </g>
     </g>
     <g id="text_2">
      <!-- . -->
      <g transform="translate(365.283665 783.558437)scale(0.1 -0.1)">
       <use xlink:href="#DejaVuSans-2e"/>
      </g>
     </g>
    </g>
    <g id="xtick_3">
     <g id="line2d_3">
      <g>
       <use style="stroke:#000000;stroke-width:0.8;" x="392.236364" xlink:href="#m4c7b1581c7" y="768.96"/>
      </g>
     </g>
     <g id="text_3">
      <!-- . -->
      <g transform="translate(390.647301 783.558437)scale(0.1 -0.1)">
       <use xlink:href="#DejaVuSans-2e"/>
      </g>
     </g>
    </g>
    <g id="xtick_4">
     <g id="line2d_4">
      <g>
       <use style="stroke:#000000;stroke-width:0.8;" x="417.6" xlink:href="#m4c7b1581c7" y="768.96"/>
      </g>
     </g>
     <g id="text_4">
      <!-- 14/11 -->
      <defs>
       <path d="M 12.40625 8.296875 
L 28.515625 8.296875 
L 28.515625 63.921875 
L 10.984375 60.40625 
L 10.984375 69.390625 
L 28.421875 72.90625 
L 38.28125 72.90625 
L 38.28125 8.296875 
L 54.390625 8.296875 
L 54.390625 0 
L 12.40625 0 
z
" id="DejaVuSans-31"/>
       <path d="M 37.796875 64.3125 
L 12.890625 25.390625 
L 37.796875 25.390625 
z
M 35.203125 72.90625 
L 47.609375 72.90625 
L 47.609375 25.390625 
L 58.015625 25.390625 
L 58.015625 17.1875 
L 47.609375 17.1875 
L 47.609375 0 
L 37.796875 0 
L 37.796875 17.1875 
L 4.890625 17.1875 
L 4.890625 26.703125 
z
" id="DejaVuSans-34"/>
       <path d="M 25.390625 72.90625 
L 33.6875 72.90625 
L 8.296875 -9.28125 
L 0 -9.28125 
z
" id="DejaVuSans-2f"/>
      </defs>
      <g transform="translate(403.190625 783.558437)scale(0.1 -0.1)">
       <use xlink:href="#DejaVuSans-31"/>
       <use x="63.623047" xlink:href="#DejaVuSans-34"/>
       <use x="127.246094" xlink:href="#DejaVuSans-2f"/>
       <use x="160.9375" xlink:href="#DejaVuSans-31"/>
       <use x="224.560547" xlink:href="#DejaVuSans-31"/>
      </g>
     </g>
    </g>
    <g id="xtick_5">
     <g id="line2d_5">
      <g>
       <use style="stroke:#000000;stroke-width:0.8;" x="442.963636" xlink:href="#m4c7b1581c7" y="768.96"/>
      </g>
     </g>
     <g id="text_5">
      <!-- . -->
      <g transform="translate(441.374574 783.558437)scale(0.1 -0.1)">
       <use xlink:href="#DejaVuSans-2e"/>
      </g>
     </g>
    </g>
    <g id="xtick_6">
     <g id="line2d_6">
      <g>
       <use style="stroke:#000000;stroke-width:0.8;" x="468.327273" xlink:href="#m4c7b1581c7" y="768.96"/>
      </g>
     </g>
     <g id="text_6">
      <!-- . -->
      <g transform="translate(466.73821 783.558437)scale(0.1 -0.1)">
       <use xlink:href="#DejaVuSans-2e"/>
      </g>
     </g>
    </g>
    <g id="xtick_7">
     <g id="line2d_7">
      <g>
       <use style="stroke:#000000;stroke-width:0.8;" x="493.690909" xlink:href="#m4c7b1581c7" y="768.96"/>
      </g>
     </g>
     <g id="text_7">
      <!-- . -->
      <g transform="translate(492.101847 783.558437)scale(0.1 -0.1)">
       <use xlink:href="#DejaVuSans-2e"/>
      </g>
     </g>
    </g>
    <g id="xtick_8">
     <g id="line2d_8">
      <g>
       <use style="stroke:#000000;stroke-width:0.8;" x="519.054545" xlink:href="#m4c7b1581c7" y="768.96"/>
      </g>
     </g>
     <g id="text_8">
      <!-- 15/03 -->
      <defs>
       <path d="M 10.796875 72.90625 
L 49.515625 72.90625 
L 49.515625 64.59375 
L 19.828125 64.59375 
L 19.828125 46.734375 
Q 21.96875 47.46875 24.109375 47.828125 
Q 26.265625 48.1875 28.421875 48.1875 
Q 40.625 48.1875 47.75 41.5 
Q 54.890625 34.8125 54.890625 23.390625 
Q 54.890625 11.625 47.5625 5.09375 
Q 40.234375 -1.421875 26.90625 -1.421875 
Q 22.3125 -1.421875 17.546875 -0.640625 
Q 12.796875 0.140625 7.71875 1.703125 
L 7.71875 11.625 
Q 12.109375 9.234375 16.796875 8.0625 
Q 21.484375 6.890625 26.703125 6.890625 
Q 35.15625 6.890625 40.078125 11.328125 
Q 45.015625 15.765625 45.015625 23.390625 
Q 45.015625 31 40.078125 35.4375 
Q 35.15625 39.890625 26.703125 39.890625 
Q 22.75 39.890625 18.8125 39.015625 
Q 14.890625 38.140625 10.796875 36.28125 
z
" id="DejaVuSans-35"/>
       <path d="M 31.78125 66.40625 
Q 24.171875 66.40625 20.328125 58.90625 
Q 16.5 51.421875 16.5 36.375 
Q 16.5 21.390625 20.328125 13.890625 
Q 24.171875 6.390625 31.78125 6.390625 
Q 39.453125 6.390625 43.28125 13.890625 
Q 47.125 21.390625 47.125 36.375 
Q 47.125 51.421875 43.28125 58.90625 
Q 39.453125 66.40625 31.78125 66.40625 
z
M 31.78125 74.21875 
Q 44.046875 74.21875 50.515625 64.515625 
Q 56.984375 54.828125 56.984375 36.375 
Q 56.984375 17.96875 50.515625 8.265625 
Q 44.046875 -1.421875 31.78125 -1.421875 
Q 19.53125 -1.421875 13.0625 8.265625 
Q 6.59375 17.96875 6.59375 36.375 
Q 6.59375 54.828125 13.0625 64.515625 
Q 19.53125 74.21875 31.78125 74.21875 
z
" id="DejaVuSans-30"/>
       <path d="M 40.578125 39.3125 
Q 47.65625 37.796875 51.625 33 
Q 55.609375 28.21875 55.609375 21.1875 
Q 55.609375 10.40625 48.1875 4.484375 
Q 40.765625 -1.421875 27.09375 -1.421875 
Q 22.515625 -1.421875 17.65625 -0.515625 
Q 12.796875 0.390625 7.625 2.203125 
L 7.625 11.71875 
Q 11.71875 9.328125 16.59375 8.109375 
Q 21.484375 6.890625 26.8125 6.890625 
Q 36.078125 6.890625 40.9375 10.546875 
Q 45.796875 14.203125 45.796875 21.1875 
Q 45.796875 27.640625 41.28125 31.265625 
Q 36.765625 34.90625 28.71875 34.90625 
L 20.21875 34.90625 
L 20.21875 43.015625 
L 29.109375 43.015625 
Q 36.375 43.015625 40.234375 45.921875 
Q 44.09375 48.828125 44.09375 54.296875 
Q 44.09375 59.90625 40.109375 62.90625 
Q 36.140625 65.921875 28.71875 65.921875 
Q 24.65625 65.921875 20.015625 65.03125 
Q 15.375 64.15625 9.8125 62.3125 
L 9.8125 71.09375 
Q 15.4375 72.65625 20.34375 73.4375 
Q 25.25 74.21875 29.59375 74.21875 
Q 40.828125 74.21875 47.359375 69.109375 
Q 53.90625 64.015625 53.90625 55.328125 
Q 53.90625 49.265625 50.4375 45.09375 
Q 46.96875 40.921875 40.578125 39.3125 
z
" id="DejaVuSans-33"/>
      </defs>
      <g transform="translate(504.64517 783.558437)scale(0.1 -0.1)">
       <use xlink:href="#DejaVuSans-31"/>
       <use x="63.623047" xlink:href="#DejaVuSans-35"/>
       <use x="127.246094" xlink:href="#DejaVuSans-2f"/>
       <use x="160.9375" xlink:href="#DejaVuSans-30"/>
       <use x="224.560547" xlink:href="#DejaVuSans-33"/>
      </g>
     </g>
    </g>
    <g id="xtick_9">
     <g id="line2d_9">
      <g>
       <use style="stroke:#000000;stroke-width:0.8;" x="544.418182" xlink:href="#m4c7b1581c7" y="768.96"/>
      </g>
     </g>
     <g id="text_9">
      <!-- . -->
      <g transform="translate(542.829119 783.558437)scale(0.1 -0.1)">
       <use xlink:href="#DejaVuSans-2e"/>
      </g>
     </g>
    </g>
    <g id="xtick_10">
     <g id="line2d_10">
      <g>
       <use style="stroke:#000000;stroke-width:0.8;" x="569.781818" xlink:href="#m4c7b1581c7" y="768.96"/>
      </g>
     </g>
     <g id="text_10">
      <!-- . -->
      <g transform="translate(568.192756 783.558437)scale(0.1 -0.1)">
       <use xlink:href="#DejaVuSans-2e"/>
      </g>
     </g>
    </g>
    <g id="xtick_11">
     <g id="line2d_11">
      <g>
       <use style="stroke:#000000;stroke-width:0.8;" x="595.145455" xlink:href="#m4c7b1581c7" y="768.96"/>
      </g>
     </g>
     <g id="text_11">
      <!-- . -->
      <g transform="translate(593.556392 783.558437)scale(0.1 -0.1)">
       <use xlink:href="#DejaVuSans-2e"/>
      </g>
     </g>
    </g>
    <g id="xtick_12">
     <g id="line2d_12">
      <g>
       <use style="stroke:#000000;stroke-width:0.8;" x="620.509091" xlink:href="#m4c7b1581c7" y="768.96"/>
      </g>
     </g>
     <g id="text_12">
      <!-- 15/07 -->
      <defs>
       <path d="M 8.203125 72.90625 
L 55.078125 72.90625 
L 55.078125 68.703125 
L 28.609375 0 
L 18.3125 0 
L 43.21875 64.59375 
L 8.203125 64.59375 
z
" id="DejaVuSans-37"/>
      </defs>
      <g transform="translate(606.099716 783.558437)scale(0.1 -0.1)">
       <use xlink:href="#DejaVuSans-31"/>
       <use x="63.623047" xlink:href="#DejaVuSans-35"/>
       <use x="127.246094" xlink:href="#DejaVuSans-2f"/>
       <use x="160.9375" xlink:href="#DejaVuSans-30"/>
       <use x="224.560547" xlink:href="#DejaVuSans-37"/>
      </g>
     </g>
    </g>
    <g id="xtick_13">
     <g id="line2d_13">
      <g>
       <use style="stroke:#000000;stroke-width:0.8;" x="645.872727" xlink:href="#m4c7b1581c7" y="768.96"/>
      </g>
     </g>
     <g id="text_13">
      <!-- . -->
      <g transform="translate(644.283665 783.558437)scale(0.1 -0.1)">
       <use xlink:href="#DejaVuSans-2e"/>
      </g>
     </g>
    </g>
    <g id="xtick_14">
     <g id="line2d_14">
      <g>
       <use style="stroke:#000000;stroke-width:0.8;" x="671.236364" xlink:href="#m4c7b1581c7" y="768.96"/>
      </g>
     </g>
     <g id="text_14">
      <!-- . -->
      <g transform="translate(669.647301 783.558437)scale(0.1 -0.1)">
       <use xlink:href="#DejaVuSans-2e"/>
      </g>
     </g>
    </g>
    <g id="xtick_15">
     <g id="line2d_15">
      <g>
       <use style="stroke:#000000;stroke-width:0.8;" x="696.6" xlink:href="#m4c7b1581c7" y="768.96"/>
      </g>
     </g>
     <g id="text_15">
      <!-- . -->
      <g transform="translate(695.010937 783.558437)scale(0.1 -0.1)">
       <use xlink:href="#DejaVuSans-2e"/>
      </g>
     </g>
    </g>
    <g id="xtick_16">
     <g id="line2d_16">
      <g>
       <use style="stroke:#000000;stroke-width:0.8;" x="721.963636" xlink:href="#m4c7b1581c7" y="768.96"/>
      </g>
     </g>
     <g id="text_16">
      <!-- 15/11 -->
      <g transform="translate(707.554261 783.558437)scale(0.1 -0.1)">
       <use xlink:href="#DejaVuSans-31"/>
       <use x="63.623047" xlink:href="#DejaVuSans-35"/>
       <use x="127.246094" xlink:href="#DejaVuSans-2f"/>
       <use x="160.9375" xlink:href="#DejaVuSans-31"/>
       <use x="224.560547" xlink:href="#DejaVuSans-31"/>
      </g>
     </g>
    </g>
    <g id="xtick_17">
     <g id="line2d_17">
      <g>
       <use style="stroke:#000000;stroke-width:0.8;" x="747.327273" xlink:href="#m4c7b1581c7" y="768.96"/>
      </g>
     </g>
     <g id="text_17">
      <!-- . -->
      <g transform="translate(745.73821 783.558437)scale(0.1 -0.1)">
       <use xlink:href="#DejaVuSans-2e"/>
      </g>
     </g>
    </g>
    <g id="xtick_18">
     <g id="line2d_18">
      <g>
       <use style="stroke:#000000;stroke-width:0.8;" x="772.690909" xlink:href="#m4c7b1581c7" y="768.96"/>
      </g>
     </g>
     <g id="text_18">
      <!-- . -->
      <g transform="translate(771.101847 783.558437)scale(0.1 -0.1)">
       <use xlink:href="#DejaVuSans-2e"/>
      </g>
     </g>
    </g>
    <g id="xtick_19">
     <g id="line2d_19">
      <g>
       <use style="stroke:#000000;stroke-width:0.8;" x="798.054545" xlink:href="#m4c7b1581c7" y="768.96"/>
      </g>
     </g>
     <g id="text_19">
      <!-- . -->
      <g transform="translate(796.465483 783.558437)scale(0.1 -0.1)">
       <use xlink:href="#DejaVuSans-2e"/>
      </g>
     </g>
    </g>
    <g id="xtick_20">
     <g id="line2d_20">
      <g>
       <use style="stroke:#000000;stroke-width:0.8;" x="823.418182" xlink:href="#m4c7b1581c7" y="768.96"/>
      </g>
     </g>
     <g id="text_20">
      <!-- 16/03 -->
      <defs>
       <path d="M 33.015625 40.375 
Q 26.375 40.375 22.484375 35.828125 
Q 18.609375 31.296875 18.609375 23.390625 
Q 18.609375 15.53125 22.484375 10.953125 
Q 26.375 6.390625 33.015625 6.390625 
Q 39.65625 6.390625 43.53125 10.953125 
Q 47.40625 15.53125 47.40625 23.390625 
Q 47.40625 31.296875 43.53125 35.828125 
Q 39.65625 40.375 33.015625 40.375 
z
M 52.59375 71.296875 
L 52.59375 62.3125 
Q 48.875 64.0625 45.09375 64.984375 
Q 41.3125 65.921875 37.59375 65.921875 
Q 27.828125 65.921875 22.671875 59.328125 
Q 17.53125 52.734375 16.796875 39.40625 
Q 19.671875 43.65625 24.015625 45.921875 
Q 28.375 48.1875 33.59375 48.1875 
Q 44.578125 48.1875 50.953125 41.515625 
Q 57.328125 34.859375 57.328125 23.390625 
Q 57.328125 12.15625 50.6875 5.359375 
Q 44.046875 -1.421875 33.015625 -1.421875 
Q 20.359375 -1.421875 13.671875 8.265625 
Q 6.984375 17.96875 6.984375 36.375 
Q 6.984375 53.65625 15.1875 63.9375 
Q 23.390625 74.21875 37.203125 74.21875 
Q 40.921875 74.21875 44.703125 73.484375 
Q 48.484375 72.75 52.59375 71.296875 
z
" id="DejaVuSans-36"/>
      </defs>
      <g transform="translate(809.008807 783.558437)scale(0.1 -0.1)">
       <use xlink:href="#DejaVuSans-31"/>
       <use x="63.623047" xlink:href="#DejaVuSans-36"/>
       <use x="127.246094" xlink:href="#DejaVuSans-2f"/>
       <use x="160.9375" xlink:href="#DejaVuSans-30"/>
       <use x="224.560547" xlink:href="#DejaVuSans-33"/>
      </g>
     </g>
    </g>
    <g id="xtick_21">
     <g id="line2d_21">
      <g>
       <use style="stroke:#000000;stroke-width:0.8;" x="848.781818" xlink:href="#m4c7b1581c7" y="768.96"/>
      </g>
     </g>
     <g id="text_21">
      <!-- . -->
      <g transform="translate(847.192756 783.558437)scale(0.1 -0.1)">
       <use xlink:href="#DejaVuSans-2e"/>
      </g>
     </g>
    </g>
    <g id="xtick_22">
     <g id="line2d_22">
      <g>
       <use style="stroke:#000000;stroke-width:0.8;" x="874.145455" xlink:href="#m4c7b1581c7" y="768.96"/>
      </g>
     </g>
     <g id="text_22">
      <!-- . -->
      <g transform="translate(872.556392 783.558437)scale(0.1 -0.1)">
       <use xlink:href="#DejaVuSans-2e"/>
      </g>
     </g>
    </g>
    <g id="xtick_23">
     <g id="line2d_23">
      <g>
       <use style="stroke:#000000;stroke-width:0.8;" x="899.509091" xlink:href="#m4c7b1581c7" y="768.96"/>
      </g>
     </g>
     <g id="text_23">
      <!-- . -->
      <g transform="translate(897.920028 783.558437)scale(0.1 -0.1)">
       <use xlink:href="#DejaVuSans-2e"/>
      </g>
     </g>
    </g>
    <g id="xtick_24">
     <g id="line2d_24">
      <g>
       <use style="stroke:#000000;stroke-width:0.8;" x="924.872727" xlink:href="#m4c7b1581c7" y="768.96"/>
      </g>
     </g>
     <g id="text_24">
      <!-- 16/07 -->
      <g transform="translate(910.463352 783.558437)scale(0.1 -0.1)">
       <use xlink:href="#DejaVuSans-31"/>
       <use x="63.623047" xlink:href="#DejaVuSans-36"/>
       <use x="127.246094" xlink:href="#DejaVuSans-2f"/>
       <use x="160.9375" xlink:href="#DejaVuSans-30"/>
       <use x="224.560547" xlink:href="#DejaVuSans-37"/>
      </g>
     </g>
    </g>
    <g id="xtick_25">
     <g id="line2d_25">
      <g>
       <use style="stroke:#000000;stroke-width:0.8;" x="950.236364" xlink:href="#m4c7b1581c7" y="768.96"/>
      </g>
     </g>
     <g id="text_25">
      <!-- . -->
      <g transform="translate(948.647301 783.558437)scale(0.1 -0.1)">
       <use xlink:href="#DejaVuSans-2e"/>
      </g>
     </g>
    </g>
    <g id="xtick_26">
     <g id="line2d_26">
      <g>
       <use style="stroke:#000000;stroke-width:0.8;" x="975.6" xlink:href="#m4c7b1581c7" y="768.96"/>
      </g>
     </g>
     <g id="text_26">
      <!-- . -->
      <g transform="translate(974.010938 783.558437)scale(0.1 -0.1)">
       <use xlink:href="#DejaVuSans-2e"/>
      </g>
     </g>
    </g>
    <g id="xtick_27">
     <g id="line2d_27">
      <g>
       <use style="stroke:#000000;stroke-width:0.8;" x="1000.963636" xlink:href="#m4c7b1581c7" y="768.96"/>
      </g>
     </g>
     <g id="text_27">
      <!-- . -->
      <g transform="translate(999.374574 783.558437)scale(0.1 -0.1)">
       <use xlink:href="#DejaVuSans-2e"/>
      </g>
     </g>
    </g>
    <g id="xtick_28">
     <g id="line2d_28">
      <g>
       <use style="stroke:#000000;stroke-width:0.8;" x="1026.327273" xlink:href="#m4c7b1581c7" y="768.96"/>
      </g>
     </g>
     <g id="text_28">
      <!-- 16/11 -->
      <g transform="translate(1011.917898 783.558437)scale(0.1 -0.1)">
       <use xlink:href="#DejaVuSans-31"/>
       <use x="63.623047" xlink:href="#DejaVuSans-36"/>
       <use x="127.246094" xlink:href="#DejaVuSans-2f"/>
       <use x="160.9375" xlink:href="#DejaVuSans-31"/>
       <use x="224.560547" xlink:href="#DejaVuSans-31"/>
      </g>
     </g>
    </g>
    <g id="xtick_29">
     <g id="line2d_29">
      <g>
       <use style="stroke:#000000;stroke-width:0.8;" x="1051.690909" xlink:href="#m4c7b1581c7" y="768.96"/>
      </g>
     </g>
     <g id="text_29">
      <!-- . -->
      <g transform="translate(1050.101847 783.558437)scale(0.1 -0.1)">
       <use xlink:href="#DejaVuSans-2e"/>
      </g>
     </g>
    </g>
    <g id="xtick_30">
     <g id="line2d_30">
      <g>
       <use style="stroke:#000000;stroke-width:0.8;" x="1077.054545" xlink:href="#m4c7b1581c7" y="768.96"/>
      </g>
     </g>
     <g id="text_30">
      <!-- . -->
      <g transform="translate(1075.465483 783.558437)scale(0.1 -0.1)">
       <use xlink:href="#DejaVuSans-2e"/>
      </g>
     </g>
    </g>
    <g id="xtick_31">
     <g id="line2d_31">
      <g>
       <use style="stroke:#000000;stroke-width:0.8;" x="1102.418182" xlink:href="#m4c7b1581c7" y="768.96"/>
      </g>
     </g>
     <g id="text_31">
      <!-- . -->
      <g transform="translate(1100.829119 783.558437)scale(0.1 -0.1)">
       <use xlink:href="#DejaVuSans-2e"/>
      </g>
     </g>
    </g>
    <g id="xtick_32">
     <g id="line2d_32">
      <g>
       <use style="stroke:#000000;stroke-width:0.8;" x="1127.781818" xlink:href="#m4c7b1581c7" y="768.96"/>
      </g>
     </g>
     <g id="text_32">
      <!-- 17/03 -->
      <g transform="translate(1113.372443 783.558437)scale(0.1 -0.1)">
       <use xlink:href="#DejaVuSans-31"/>
       <use x="63.623047" xlink:href="#DejaVuSans-37"/>
       <use x="127.246094" xlink:href="#DejaVuSans-2f"/>
       <use x="160.9375" xlink:href="#DejaVuSans-30"/>
       <use x="224.560547" xlink:href="#DejaVuSans-33"/>
      </g>
     </g>
    </g>
    <g id="xtick_33">
     <g id="line2d_33">
      <g>
       <use style="stroke:#000000;stroke-width:0.8;" x="1153.145455" xlink:href="#m4c7b1581c7" y="768.96"/>
      </g>
     </g>
     <g id="text_33">
      <!-- . -->
      <g transform="translate(1151.556392 783.558437)scale(0.1 -0.1)">
       <use xlink:href="#DejaVuSans-2e"/>
      </g>
     </g>
    </g>
    <g id="xtick_34">
     <g id="line2d_34">
      <g>
       <use style="stroke:#000000;stroke-width:0.8;" x="1178.509091" xlink:href="#m4c7b1581c7" y="768.96"/>
      </g>
     </g>
     <g id="text_34">
      <!-- . -->
      <g transform="translate(1176.920028 783.558437)scale(0.1 -0.1)">
       <use xlink:href="#DejaVuSans-2e"/>
      </g>
     </g>
    </g>
    <g id="xtick_35">
     <g id="line2d_35">
      <g>
       <use style="stroke:#000000;stroke-width:0.8;" x="1203.872727" xlink:href="#m4c7b1581c7" y="768.96"/>
      </g>
     </g>
     <g id="text_35">
      <!-- . -->
      <g transform="translate(1202.283665 783.558437)scale(0.1 -0.1)">
       <use xlink:href="#DejaVuSans-2e"/>
      </g>
     </g>
    </g>
    <g id="xtick_36">
     <g id="line2d_36">
      <g>
       <use style="stroke:#000000;stroke-width:0.8;" x="1229.236364" xlink:href="#m4c7b1581c7" y="768.96"/>
      </g>
     </g>
     <g id="text_36">
      <!-- 17/07 -->
      <g transform="translate(1214.826989 783.558437)scale(0.1 -0.1)">
       <use xlink:href="#DejaVuSans-31"/>
       <use x="63.623047" xlink:href="#DejaVuSans-37"/>
       <use x="127.246094" xlink:href="#DejaVuSans-2f"/>
       <use x="160.9375" xlink:href="#DejaVuSans-30"/>
       <use x="224.560547" xlink:href="#DejaVuSans-37"/>
      </g>
     </g>
    </g>
    <g id="xtick_37">
     <g id="line2d_37">
      <g>
       <use style="stroke:#000000;stroke-width:0.8;" x="1254.6" xlink:href="#m4c7b1581c7" y="768.96"/>
      </g>
     </g>
     <g id="text_37">
      <!-- . -->
      <g transform="translate(1253.010937 783.558437)scale(0.1 -0.1)">
       <use xlink:href="#DejaVuSans-2e"/>
      </g>
     </g>
    </g>
    <g id="xtick_38">
     <g id="line2d_38">
      <g>
       <use style="stroke:#000000;stroke-width:0.8;" x="1279.963636" xlink:href="#m4c7b1581c7" y="768.96"/>
      </g>
     </g>
     <g id="text_38">
      <!-- . -->
      <g transform="translate(1278.374574 783.558437)scale(0.1 -0.1)">
       <use xlink:href="#DejaVuSans-2e"/>
      </g>
     </g>
    </g>
    <g id="xtick_39">
     <g id="line2d_39">
      <g>
       <use style="stroke:#000000;stroke-width:0.8;" x="1305.327273" xlink:href="#m4c7b1581c7" y="768.96"/>
      </g>
     </g>
     <g id="text_39">
      <!-- . -->
      <g transform="translate(1303.73821 783.558437)scale(0.1 -0.1)">
       <use xlink:href="#DejaVuSans-2e"/>
      </g>
     </g>
    </g>
    <g id="xtick_40">
     <g id="line2d_40">
      <g>
       <use style="stroke:#000000;stroke-width:0.8;" x="1330.690909" xlink:href="#m4c7b1581c7" y="768.96"/>
      </g>
     </g>
     <g id="text_40">
      <!-- 17/11 -->
      <g transform="translate(1316.281534 783.558437)scale(0.1 -0.1)">
       <use xlink:href="#DejaVuSans-31"/>
       <use x="63.623047" xlink:href="#DejaVuSans-37"/>
       <use x="127.246094" xlink:href="#DejaVuSans-2f"/>
       <use x="160.9375" xlink:href="#DejaVuSans-31"/>
       <use x="224.560547" xlink:href="#DejaVuSans-31"/>
      </g>
     </g>
    </g>
    <g id="xtick_41">
     <g id="line2d_41">
      <g>
       <use style="stroke:#000000;stroke-width:0.8;" x="1356.054545" xlink:href="#m4c7b1581c7" y="768.96"/>
      </g>
     </g>
     <g id="text_41">
      <!-- . -->
      <g transform="translate(1354.465483 783.558437)scale(0.1 -0.1)">
       <use xlink:href="#DejaVuSans-2e"/>
      </g>
     </g>
    </g>
    <g id="xtick_42">
     <g id="line2d_42">
      <g>
       <use style="stroke:#000000;stroke-width:0.8;" x="1381.418182" xlink:href="#m4c7b1581c7" y="768.96"/>
      </g>
     </g>
     <g id="text_42">
      <!-- . -->
      <g transform="translate(1379.829119 783.558437)scale(0.1 -0.1)">
       <use xlink:href="#DejaVuSans-2e"/>
      </g>
     </g>
    </g>
    <g id="xtick_43">
     <g id="line2d_43">
      <g>
       <use style="stroke:#000000;stroke-width:0.8;" x="1406.781818" xlink:href="#m4c7b1581c7" y="768.96"/>
      </g>
     </g>
     <g id="text_43">
      <!-- . -->
      <g transform="translate(1405.192756 783.558437)scale(0.1 -0.1)">
       <use xlink:href="#DejaVuSans-2e"/>
      </g>
     </g>
    </g>
    <g id="xtick_44">
     <g id="line2d_44">
      <g>
       <use style="stroke:#000000;stroke-width:0.8;" x="1432.145455" xlink:href="#m4c7b1581c7" y="768.96"/>
      </g>
     </g>
     <g id="text_44">
      <!-- 18/03 -->
      <defs>
       <path d="M 31.78125 34.625 
Q 24.75 34.625 20.71875 30.859375 
Q 16.703125 27.09375 16.703125 20.515625 
Q 16.703125 13.921875 20.71875 10.15625 
Q 24.75 6.390625 31.78125 6.390625 
Q 38.8125 6.390625 42.859375 10.171875 
Q 46.921875 13.96875 46.921875 20.515625 
Q 46.921875 27.09375 42.890625 30.859375 
Q 38.875 34.625 31.78125 34.625 
z
M 21.921875 38.8125 
Q 15.578125 40.375 12.03125 44.71875 
Q 8.5 49.078125 8.5 55.328125 
Q 8.5 64.0625 14.71875 69.140625 
Q 20.953125 74.21875 31.78125 74.21875 
Q 42.671875 74.21875 48.875 69.140625 
Q 55.078125 64.0625 55.078125 55.328125 
Q 55.078125 49.078125 51.53125 44.71875 
Q 48 40.375 41.703125 38.8125 
Q 48.828125 37.15625 52.796875 32.3125 
Q 56.78125 27.484375 56.78125 20.515625 
Q 56.78125 9.90625 50.3125 4.234375 
Q 43.84375 -1.421875 31.78125 -1.421875 
Q 19.734375 -1.421875 13.25 4.234375 
Q 6.78125 9.90625 6.78125 20.515625 
Q 6.78125 27.484375 10.78125 32.3125 
Q 14.796875 37.15625 21.921875 38.8125 
z
M 18.3125 54.390625 
Q 18.3125 48.734375 21.84375 45.5625 
Q 25.390625 42.390625 31.78125 42.390625 
Q 38.140625 42.390625 41.71875 45.5625 
Q 45.3125 48.734375 45.3125 54.390625 
Q 45.3125 60.0625 41.71875 63.234375 
Q 38.140625 66.40625 31.78125 66.40625 
Q 25.390625 66.40625 21.84375 63.234375 
Q 18.3125 60.0625 18.3125 54.390625 
z
" id="DejaVuSans-38"/>
      </defs>
      <g transform="translate(1417.73608 783.558437)scale(0.1 -0.1)">
       <use xlink:href="#DejaVuSans-31"/>
       <use x="63.623047" xlink:href="#DejaVuSans-38"/>
       <use x="127.246094" xlink:href="#DejaVuSans-2f"/>
       <use x="160.9375" xlink:href="#DejaVuSans-30"/>
       <use x="224.560547" xlink:href="#DejaVuSans-33"/>
      </g>
     </g>
    </g>
    <g id="xtick_45">
     <g id="line2d_45">
      <g>
       <use style="stroke:#000000;stroke-width:0.8;" x="1457.509091" xlink:href="#m4c7b1581c7" y="768.96"/>
      </g>
     </g>
     <g id="text_45">
      <!-- . -->
      <g transform="translate(1455.920028 783.558437)scale(0.1 -0.1)">
       <use xlink:href="#DejaVuSans-2e"/>
      </g>
     </g>
    </g>
    <g id="xtick_46">
     <g id="line2d_46">
      <g>
       <use style="stroke:#000000;stroke-width:0.8;" x="1482.872727" xlink:href="#m4c7b1581c7" y="768.96"/>
      </g>
     </g>
     <g id="text_46">
      <!-- . -->
      <g transform="translate(1481.283665 783.558437)scale(0.1 -0.1)">
       <use xlink:href="#DejaVuSans-2e"/>
      </g>
     </g>
    </g>
    <g id="xtick_47">
     <g id="line2d_47">
      <g>
       <use style="stroke:#000000;stroke-width:0.8;" x="1508.236364" xlink:href="#m4c7b1581c7" y="768.96"/>
      </g>
     </g>
     <g id="text_47">
      <!-- . -->
      <g transform="translate(1506.647301 783.558437)scale(0.1 -0.1)">
       <use xlink:href="#DejaVuSans-2e"/>
      </g>
     </g>
    </g>
    <g id="xtick_48">
     <g id="line2d_48">
      <g>
       <use style="stroke:#000000;stroke-width:0.8;" x="1533.6" xlink:href="#m4c7b1581c7" y="768.96"/>
      </g>
     </g>
     <g id="text_48">
      <!-- 18/07 -->
      <g transform="translate(1519.190625 783.558437)scale(0.1 -0.1)">
       <use xlink:href="#DejaVuSans-31"/>
       <use x="63.623047" xlink:href="#DejaVuSans-38"/>
       <use x="127.246094" xlink:href="#DejaVuSans-2f"/>
       <use x="160.9375" xlink:href="#DejaVuSans-30"/>
       <use x="224.560547" xlink:href="#DejaVuSans-37"/>
      </g>
     </g>
    </g>
    <g id="xtick_49">
     <g id="line2d_49">
      <g>
       <use style="stroke:#000000;stroke-width:0.8;" x="1558.963636" xlink:href="#m4c7b1581c7" y="768.96"/>
      </g>
     </g>
     <g id="text_49">
      <!-- . -->
      <g transform="translate(1557.374574 783.558437)scale(0.1 -0.1)">
       <use xlink:href="#DejaVuSans-2e"/>
      </g>
     </g>
    </g>
    <g id="xtick_50">
     <g id="line2d_50">
      <g>
       <use style="stroke:#000000;stroke-width:0.8;" x="1584.327273" xlink:href="#m4c7b1581c7" y="768.96"/>
      </g>
     </g>
     <g id="text_50">
      <!-- . -->
      <g transform="translate(1582.73821 783.558437)scale(0.1 -0.1)">
       <use xlink:href="#DejaVuSans-2e"/>
      </g>
     </g>
    </g>
    <g id="xtick_51">
     <g id="line2d_51">
      <g>
       <use style="stroke:#000000;stroke-width:0.8;" x="1609.690909" xlink:href="#m4c7b1581c7" y="768.96"/>
      </g>
     </g>
     <g id="text_51">
      <!-- . -->
      <g transform="translate(1608.101847 783.558437)scale(0.1 -0.1)">
       <use xlink:href="#DejaVuSans-2e"/>
      </g>
     </g>
    </g>
    <g id="xtick_52">
     <g id="line2d_52">
      <g>
       <use style="stroke:#000000;stroke-width:0.8;" x="1635.054545" xlink:href="#m4c7b1581c7" y="768.96"/>
      </g>
     </g>
     <g id="text_52">
      <!-- 18/11 -->
      <g transform="translate(1620.64517 783.558437)scale(0.1 -0.1)">
       <use xlink:href="#DejaVuSans-31"/>
       <use x="63.623047" xlink:href="#DejaVuSans-38"/>
       <use x="127.246094" xlink:href="#DejaVuSans-2f"/>
       <use x="160.9375" xlink:href="#DejaVuSans-31"/>
       <use x="224.560547" xlink:href="#DejaVuSans-31"/>
      </g>
     </g>
    </g>
    <g id="xtick_53">
     <g id="line2d_53">
      <g>
       <use style="stroke:#000000;stroke-width:0.8;" x="1660.418182" xlink:href="#m4c7b1581c7" y="768.96"/>
      </g>
     </g>
     <g id="text_53">
      <!-- . -->
      <g transform="translate(1658.829119 783.558437)scale(0.1 -0.1)">
       <use xlink:href="#DejaVuSans-2e"/>
      </g>
     </g>
    </g>
    <g id="xtick_54">
     <g id="line2d_54">
      <g>
       <use style="stroke:#000000;stroke-width:0.8;" x="1685.781818" xlink:href="#m4c7b1581c7" y="768.96"/>
      </g>
     </g>
     <g id="text_54">
      <!-- . -->
      <g transform="translate(1684.192756 783.558437)scale(0.1 -0.1)">
       <use xlink:href="#DejaVuSans-2e"/>
      </g>
     </g>
    </g>
    <g id="xtick_55">
     <g id="line2d_55">
      <g>
       <use style="stroke:#000000;stroke-width:0.8;" x="1711.145455" xlink:href="#m4c7b1581c7" y="768.96"/>
      </g>
     </g>
     <g id="text_55">
      <!-- . -->
      <g transform="translate(1709.556392 783.558437)scale(0.1 -0.1)">
       <use xlink:href="#DejaVuSans-2e"/>
      </g>
     </g>
    </g>
    <g id="xtick_56">
     <g id="line2d_56">
      <g>
       <use style="stroke:#000000;stroke-width:0.8;" x="1736.509091" xlink:href="#m4c7b1581c7" y="768.96"/>
      </g>
     </g>
     <g id="text_56">
      <!-- 19/03 -->
      <defs>
       <path d="M 10.984375 1.515625 
L 10.984375 10.5 
Q 14.703125 8.734375 18.5 7.8125 
Q 22.3125 6.890625 25.984375 6.890625 
Q 35.75 6.890625 40.890625 13.453125 
Q 46.046875 20.015625 46.78125 33.40625 
Q 43.953125 29.203125 39.59375 26.953125 
Q 35.25 24.703125 29.984375 24.703125 
Q 19.046875 24.703125 12.671875 31.3125 
Q 6.296875 37.9375 6.296875 49.421875 
Q 6.296875 60.640625 12.9375 67.421875 
Q 19.578125 74.21875 30.609375 74.21875 
Q 43.265625 74.21875 49.921875 64.515625 
Q 56.59375 54.828125 56.59375 36.375 
Q 56.59375 19.140625 48.40625 8.859375 
Q 40.234375 -1.421875 26.421875 -1.421875 
Q 22.703125 -1.421875 18.890625 -0.6875 
Q 15.09375 0.046875 10.984375 1.515625 
z
M 30.609375 32.421875 
Q 37.25 32.421875 41.125 36.953125 
Q 45.015625 41.5 45.015625 49.421875 
Q 45.015625 57.28125 41.125 61.84375 
Q 37.25 66.40625 30.609375 66.40625 
Q 23.96875 66.40625 20.09375 61.84375 
Q 16.21875 57.28125 16.21875 49.421875 
Q 16.21875 41.5 20.09375 36.953125 
Q 23.96875 32.421875 30.609375 32.421875 
z
" id="DejaVuSans-39"/>
      </defs>
      <g transform="translate(1722.099716 783.558437)scale(0.1 -0.1)">
       <use xlink:href="#DejaVuSans-31"/>
       <use x="63.623047" xlink:href="#DejaVuSans-39"/>
       <use x="127.246094" xlink:href="#DejaVuSans-2f"/>
       <use x="160.9375" xlink:href="#DejaVuSans-30"/>
       <use x="224.560547" xlink:href="#DejaVuSans-33"/>
      </g>
     </g>
    </g>
    <g id="xtick_57">
     <g id="line2d_57">
      <g>
       <use style="stroke:#000000;stroke-width:0.8;" x="1761.872727" xlink:href="#m4c7b1581c7" y="768.96"/>
      </g>
     </g>
     <g id="text_57">
      <!-- . -->
      <g transform="translate(1760.283665 783.558437)scale(0.1 -0.1)">
       <use xlink:href="#DejaVuSans-2e"/>
      </g>
     </g>
    </g>
    <g id="xtick_58">
     <g id="line2d_58">
      <g>
       <use style="stroke:#000000;stroke-width:0.8;" x="1787.236364" xlink:href="#m4c7b1581c7" y="768.96"/>
      </g>
     </g>
     <g id="text_58">
      <!-- . -->
      <g transform="translate(1785.647301 783.558437)scale(0.1 -0.1)">
       <use xlink:href="#DejaVuSans-2e"/>
      </g>
     </g>
    </g>
    <g id="xtick_59">
     <g id="line2d_59">
      <g>
       <use style="stroke:#000000;stroke-width:0.8;" x="1812.6" xlink:href="#m4c7b1581c7" y="768.96"/>
      </g>
     </g>
     <g id="text_59">
      <!-- . -->
      <g transform="translate(1811.010937 783.558437)scale(0.1 -0.1)">
       <use xlink:href="#DejaVuSans-2e"/>
      </g>
     </g>
    </g>
    <g id="xtick_60">
     <g id="line2d_60">
      <g>
       <use style="stroke:#000000;stroke-width:0.8;" x="1837.963636" xlink:href="#m4c7b1581c7" y="768.96"/>
      </g>
     </g>
     <g id="text_60">
      <!-- 19/07 -->
      <g transform="translate(1823.554261 783.558437)scale(0.1 -0.1)">
       <use xlink:href="#DejaVuSans-31"/>
       <use x="63.623047" xlink:href="#DejaVuSans-39"/>
       <use x="127.246094" xlink:href="#DejaVuSans-2f"/>
       <use x="160.9375" xlink:href="#DejaVuSans-30"/>
       <use x="224.560547" xlink:href="#DejaVuSans-37"/>
      </g>
     </g>
    </g>
    <g id="xtick_61">
     <g id="line2d_61">
      <g>
       <use style="stroke:#000000;stroke-width:0.8;" x="1863.327273" xlink:href="#m4c7b1581c7" y="768.96"/>
      </g>
     </g>
     <g id="text_61">
      <!-- . -->
      <g transform="translate(1861.73821 783.558437)scale(0.1 -0.1)">
       <use xlink:href="#DejaVuSans-2e"/>
      </g>
     </g>
    </g>
    <g id="xtick_62">
     <g id="line2d_62">
      <g>
       <use style="stroke:#000000;stroke-width:0.8;" x="1888.690909" xlink:href="#m4c7b1581c7" y="768.96"/>
      </g>
     </g>
     <g id="text_62">
      <!-- . -->
      <g transform="translate(1887.101847 783.558437)scale(0.1 -0.1)">
       <use xlink:href="#DejaVuSans-2e"/>
      </g>
     </g>
    </g>
    <g id="xtick_63">
     <g id="line2d_63">
      <g>
       <use style="stroke:#000000;stroke-width:0.8;" x="1914.054545" xlink:href="#m4c7b1581c7" y="768.96"/>
      </g>
     </g>
     <g id="text_63">
      <!-- . -->
      <g transform="translate(1912.465483 783.558437)scale(0.1 -0.1)">
       <use xlink:href="#DejaVuSans-2e"/>
      </g>
     </g>
    </g>
    <g id="xtick_64">
     <g id="line2d_64">
      <g>
       <use style="stroke:#000000;stroke-width:0.8;" x="1939.418182" xlink:href="#m4c7b1581c7" y="768.96"/>
      </g>
     </g>
     <g id="text_64">
      <!-- 19/11 -->
      <g transform="translate(1925.008807 783.558437)scale(0.1 -0.1)">
       <use xlink:href="#DejaVuSans-31"/>
       <use x="63.623047" xlink:href="#DejaVuSans-39"/>
       <use x="127.246094" xlink:href="#DejaVuSans-2f"/>
       <use x="160.9375" xlink:href="#DejaVuSans-31"/>
       <use x="224.560547" xlink:href="#DejaVuSans-31"/>
      </g>
     </g>
    </g>
    <g id="xtick_65">
     <g id="line2d_65">
      <g>
       <use style="stroke:#000000;stroke-width:0.8;" x="1964.781818" xlink:href="#m4c7b1581c7" y="768.96"/>
      </g>
     </g>
     <g id="text_65">
      <!-- . -->
      <g transform="translate(1963.192756 783.558437)scale(0.1 -0.1)">
       <use xlink:href="#DejaVuSans-2e"/>
      </g>
     </g>
    </g>
    <g id="xtick_66">
     <g id="line2d_66">
      <g>
       <use style="stroke:#000000;stroke-width:0.8;" x="1990.145455" xlink:href="#m4c7b1581c7" y="768.96"/>
      </g>
     </g>
     <g id="text_66">
      <!-- . -->
      <g transform="translate(1988.556392 783.558437)scale(0.1 -0.1)">
       <use xlink:href="#DejaVuSans-2e"/>
      </g>
     </g>
    </g>
    <g id="xtick_67">
     <g id="line2d_67">
      <g>
       <use style="stroke:#000000;stroke-width:0.8;" x="2015.509091" xlink:href="#m4c7b1581c7" y="768.96"/>
      </g>
     </g>
     <g id="text_67">
      <!-- . -->
      <g transform="translate(2013.920028 783.558437)scale(0.1 -0.1)">
       <use xlink:href="#DejaVuSans-2e"/>
      </g>
     </g>
    </g>
    <g id="xtick_68">
     <g id="line2d_68">
      <g>
       <use style="stroke:#000000;stroke-width:0.8;" x="2040.872727" xlink:href="#m4c7b1581c7" y="768.96"/>
      </g>
     </g>
     <g id="text_68">
      <!-- 20/03 -->
      <defs>
       <path d="M 19.1875 8.296875 
L 53.609375 8.296875 
L 53.609375 0 
L 7.328125 0 
L 7.328125 8.296875 
Q 12.9375 14.109375 22.625 23.890625 
Q 32.328125 33.6875 34.8125 36.53125 
Q 39.546875 41.84375 41.421875 45.53125 
Q 43.3125 49.21875 43.3125 52.78125 
Q 43.3125 58.59375 39.234375 62.25 
Q 35.15625 65.921875 28.609375 65.921875 
Q 23.96875 65.921875 18.8125 64.3125 
Q 13.671875 62.703125 7.8125 59.421875 
L 7.8125 69.390625 
Q 13.765625 71.78125 18.9375 73 
Q 24.125 74.21875 28.421875 74.21875 
Q 39.75 74.21875 46.484375 68.546875 
Q 53.21875 62.890625 53.21875 53.421875 
Q 53.21875 48.921875 51.53125 44.890625 
Q 49.859375 40.875 45.40625 35.40625 
Q 44.1875 33.984375 37.640625 27.21875 
Q 31.109375 20.453125 19.1875 8.296875 
z
" id="DejaVuSans-32"/>
      </defs>
      <g transform="translate(2026.463352 783.558437)scale(0.1 -0.1)">
       <use xlink:href="#DejaVuSans-32"/>
       <use x="63.623047" xlink:href="#DejaVuSans-30"/>
       <use x="127.246094" xlink:href="#DejaVuSans-2f"/>
       <use x="160.9375" xlink:href="#DejaVuSans-30"/>
       <use x="224.560547" xlink:href="#DejaVuSans-33"/>
      </g>
     </g>
    </g>
    <g id="xtick_69">
     <g id="line2d_69">
      <g>
       <use style="stroke:#000000;stroke-width:0.8;" x="2066.236364" xlink:href="#m4c7b1581c7" y="768.96"/>
      </g>
     </g>
     <g id="text_69">
      <!-- . -->
      <g transform="translate(2064.647301 783.558437)scale(0.1 -0.1)">
       <use xlink:href="#DejaVuSans-2e"/>
      </g>
     </g>
    </g>
    <g id="xtick_70">
     <g id="line2d_70">
      <g>
       <use style="stroke:#000000;stroke-width:0.8;" x="2091.6" xlink:href="#m4c7b1581c7" y="768.96"/>
      </g>
     </g>
     <g id="text_70">
      <!-- . -->
      <g transform="translate(2090.010937 783.558437)scale(0.1 -0.1)">
       <use xlink:href="#DejaVuSans-2e"/>
      </g>
     </g>
    </g>
    <g id="xtick_71">
     <g id="line2d_71">
      <g>
       <use style="stroke:#000000;stroke-width:0.8;" x="2116.963636" xlink:href="#m4c7b1581c7" y="768.96"/>
      </g>
     </g>
     <g id="text_71">
      <!-- . -->
      <g transform="translate(2115.374574 783.558437)scale(0.1 -0.1)">
       <use xlink:href="#DejaVuSans-2e"/>
      </g>
     </g>
    </g>
    <g id="xtick_72">
     <g id="line2d_72">
      <g>
       <use style="stroke:#000000;stroke-width:0.8;" x="2142.327273" xlink:href="#m4c7b1581c7" y="768.96"/>
      </g>
     </g>
     <g id="text_72">
      <!-- 20/07 -->
      <g transform="translate(2127.917898 783.558437)scale(0.1 -0.1)">
       <use xlink:href="#DejaVuSans-32"/>
       <use x="63.623047" xlink:href="#DejaVuSans-30"/>
       <use x="127.246094" xlink:href="#DejaVuSans-2f"/>
       <use x="160.9375" xlink:href="#DejaVuSans-30"/>
       <use x="224.560547" xlink:href="#DejaVuSans-37"/>
      </g>
     </g>
    </g>
    <g id="text_73">
     <!-- months -->
     <defs>
      <path d="M 52 44.1875 
Q 55.375 50.25 60.0625 53.125 
Q 64.75 56 71.09375 56 
Q 79.640625 56 84.28125 50.015625 
Q 88.921875 44.046875 88.921875 33.015625 
L 88.921875 0 
L 79.890625 0 
L 79.890625 32.71875 
Q 79.890625 40.578125 77.09375 44.375 
Q 74.3125 48.1875 68.609375 48.1875 
Q 61.625 48.1875 57.5625 43.546875 
Q 53.515625 38.921875 53.515625 30.90625 
L 53.515625 0 
L 44.484375 0 
L 44.484375 32.71875 
Q 44.484375 40.625 41.703125 44.40625 
Q 38.921875 48.1875 33.109375 48.1875 
Q 26.21875 48.1875 22.15625 43.53125 
Q 18.109375 38.875 18.109375 30.90625 
L 18.109375 0 
L 9.078125 0 
L 9.078125 54.6875 
L 18.109375 54.6875 
L 18.109375 46.1875 
Q 21.1875 51.21875 25.484375 53.609375 
Q 29.78125 56 35.6875 56 
Q 41.65625 56 45.828125 52.96875 
Q 50 49.953125 52 44.1875 
z
" id="DejaVuSans-6d"/>
      <path d="M 30.609375 48.390625 
Q 23.390625 48.390625 19.1875 42.75 
Q 14.984375 37.109375 14.984375 27.296875 
Q 14.984375 17.484375 19.15625 11.84375 
Q 23.34375 6.203125 30.609375 6.203125 
Q 37.796875 6.203125 41.984375 11.859375 
Q 46.1875 17.53125 46.1875 27.296875 
Q 46.1875 37.015625 41.984375 42.703125 
Q 37.796875 48.390625 30.609375 48.390625 
z
M 30.609375 56 
Q 42.328125 56 49.015625 48.375 
Q 55.71875 40.765625 55.71875 27.296875 
Q 55.71875 13.875 49.015625 6.21875 
Q 42.328125 -1.421875 30.609375 -1.421875 
Q 18.84375 -1.421875 12.171875 6.21875 
Q 5.515625 13.875 5.515625 27.296875 
Q 5.515625 40.765625 12.171875 48.375 
Q 18.84375 56 30.609375 56 
z
" id="DejaVuSans-6f"/>
      <path d="M 54.890625 33.015625 
L 54.890625 0 
L 45.90625 0 
L 45.90625 32.71875 
Q 45.90625 40.484375 42.875 44.328125 
Q 39.84375 48.1875 33.796875 48.1875 
Q 26.515625 48.1875 22.3125 43.546875 
Q 18.109375 38.921875 18.109375 30.90625 
L 18.109375 0 
L 9.078125 0 
L 9.078125 54.6875 
L 18.109375 54.6875 
L 18.109375 46.1875 
Q 21.34375 51.125 25.703125 53.5625 
Q 30.078125 56 35.796875 56 
Q 45.21875 56 50.046875 50.171875 
Q 54.890625 44.34375 54.890625 33.015625 
z
" id="DejaVuSans-6e"/>
      <path d="M 18.3125 70.21875 
L 18.3125 54.6875 
L 36.8125 54.6875 
L 36.8125 47.703125 
L 18.3125 47.703125 
L 18.3125 18.015625 
Q 18.3125 11.328125 20.140625 9.421875 
Q 21.96875 7.515625 27.59375 7.515625 
L 36.8125 7.515625 
L 36.8125 0 
L 27.59375 0 
Q 17.1875 0 13.234375 3.875 
Q 9.28125 7.765625 9.28125 18.015625 
L 9.28125 47.703125 
L 2.6875 47.703125 
L 2.6875 54.6875 
L 9.28125 54.6875 
L 9.28125 70.21875 
z
" id="DejaVuSans-74"/>
      <path d="M 54.890625 33.015625 
L 54.890625 0 
L 45.90625 0 
L 45.90625 32.71875 
Q 45.90625 40.484375 42.875 44.328125 
Q 39.84375 48.1875 33.796875 48.1875 
Q 26.515625 48.1875 22.3125 43.546875 
Q 18.109375 38.921875 18.109375 30.90625 
L 18.109375 0 
L 9.078125 0 
L 9.078125 75.984375 
L 18.109375 75.984375 
L 18.109375 46.1875 
Q 21.34375 51.125 25.703125 53.5625 
Q 30.078125 56 35.796875 56 
Q 45.21875 56 50.046875 50.171875 
Q 54.890625 44.34375 54.890625 33.015625 
z
" id="DejaVuSans-68"/>
      <path d="M 44.28125 53.078125 
L 44.28125 44.578125 
Q 40.484375 46.53125 36.375 47.5 
Q 32.28125 48.484375 27.875 48.484375 
Q 21.1875 48.484375 17.84375 46.4375 
Q 14.5 44.390625 14.5 40.28125 
Q 14.5 37.15625 16.890625 35.375 
Q 19.28125 33.59375 26.515625 31.984375 
L 29.59375 31.296875 
Q 39.15625 29.25 43.1875 25.515625 
Q 47.21875 21.78125 47.21875 15.09375 
Q 47.21875 7.46875 41.1875 3.015625 
Q 35.15625 -1.421875 24.609375 -1.421875 
Q 20.21875 -1.421875 15.453125 -0.5625 
Q 10.6875 0.296875 5.421875 2 
L 5.421875 11.28125 
Q 10.40625 8.6875 15.234375 7.390625 
Q 20.0625 6.109375 24.8125 6.109375 
Q 31.15625 6.109375 34.5625 8.28125 
Q 37.984375 10.453125 37.984375 14.40625 
Q 37.984375 18.0625 35.515625 20.015625 
Q 33.0625 21.96875 24.703125 23.78125 
L 21.578125 24.515625 
Q 13.234375 26.265625 9.515625 29.90625 
Q 5.8125 33.546875 5.8125 39.890625 
Q 5.8125 47.609375 11.28125 51.796875 
Q 16.75 56 26.8125 56 
Q 31.78125 56 36.171875 55.265625 
Q 40.578125 54.546875 44.28125 53.078125 
z
" id="DejaVuSans-73"/>
     </defs>
     <g transform="translate(1235.767969 797.236562)scale(0.1 -0.1)">
      <use xlink:href="#DejaVuSans-6d"/>
      <use x="97.412109" xlink:href="#DejaVuSans-6f"/>
      <use x="158.59375" xlink:href="#DejaVuSans-6e"/>
      <use x="221.972656" xlink:href="#DejaVuSans-74"/>
      <use x="261.181641" xlink:href="#DejaVuSans-68"/>
      <use x="324.560547" xlink:href="#DejaVuSans-73"/>
     </g>
    </g>
   </g>
   <g id="matplotlib.axis_2">
    <g id="ytick_1">
     <g id="line2d_73">
      <defs>
       <path d="M 0 0 
L -3.5 0 
" id="me626a9f52f" style="stroke:#000000;stroke-width:0.8;"/>
      </defs>
      <g>
       <use style="stroke:#000000;stroke-width:0.8;" x="306" xlink:href="#me626a9f52f" y="768.96"/>
      </g>
     </g>
     <g id="text_74">
      <!-- 0 -->
      <g transform="translate(292.6375 772.759219)scale(0.1 -0.1)">
       <use xlink:href="#DejaVuSans-30"/>
      </g>
     </g>
    </g>
    <g id="ytick_2">
     <g id="line2d_74">
      <g>
       <use style="stroke:#000000;stroke-width:0.8;" x="306" xlink:href="#me626a9f52f" y="640.10094"/>
      </g>
     </g>
     <g id="text_75">
      <!-- 2000 -->
      <g transform="translate(273.55 643.900158)scale(0.1 -0.1)">
       <use xlink:href="#DejaVuSans-32"/>
       <use x="63.623047" xlink:href="#DejaVuSans-30"/>
       <use x="127.246094" xlink:href="#DejaVuSans-30"/>
       <use x="190.869141" xlink:href="#DejaVuSans-30"/>
      </g>
     </g>
    </g>
    <g id="ytick_3">
     <g id="line2d_75">
      <g>
       <use style="stroke:#000000;stroke-width:0.8;" x="306" xlink:href="#me626a9f52f" y="511.241879"/>
      </g>
     </g>
     <g id="text_76">
      <!-- 4000 -->
      <g transform="translate(273.55 515.041098)scale(0.1 -0.1)">
       <use xlink:href="#DejaVuSans-34"/>
       <use x="63.623047" xlink:href="#DejaVuSans-30"/>
       <use x="127.246094" xlink:href="#DejaVuSans-30"/>
       <use x="190.869141" xlink:href="#DejaVuSans-30"/>
      </g>
     </g>
    </g>
    <g id="ytick_4">
     <g id="line2d_76">
      <g>
       <use style="stroke:#000000;stroke-width:0.8;" x="306" xlink:href="#me626a9f52f" y="382.382819"/>
      </g>
     </g>
     <g id="text_77">
      <!-- 6000 -->
      <g transform="translate(273.55 386.182038)scale(0.1 -0.1)">
       <use xlink:href="#DejaVuSans-36"/>
       <use x="63.623047" xlink:href="#DejaVuSans-30"/>
       <use x="127.246094" xlink:href="#DejaVuSans-30"/>
       <use x="190.869141" xlink:href="#DejaVuSans-30"/>
      </g>
     </g>
    </g>
    <g id="ytick_5">
     <g id="line2d_77">
      <g>
       <use style="stroke:#000000;stroke-width:0.8;" x="306" xlink:href="#me626a9f52f" y="253.523758"/>
      </g>
     </g>
     <g id="text_78">
      <!-- 8000 -->
      <g transform="translate(273.55 257.322977)scale(0.1 -0.1)">
       <use xlink:href="#DejaVuSans-38"/>
       <use x="63.623047" xlink:href="#DejaVuSans-30"/>
       <use x="127.246094" xlink:href="#DejaVuSans-30"/>
       <use x="190.869141" xlink:href="#DejaVuSans-30"/>
      </g>
     </g>
    </g>
    <g id="ytick_6">
     <g id="line2d_78">
      <g>
       <use style="stroke:#000000;stroke-width:0.8;" x="306" xlink:href="#me626a9f52f" y="124.664698"/>
      </g>
     </g>
     <g id="text_79">
      <!-- 10000 -->
      <g transform="translate(267.1875 128.463917)scale(0.1 -0.1)">
       <use xlink:href="#DejaVuSans-31"/>
       <use x="63.623047" xlink:href="#DejaVuSans-30"/>
       <use x="127.246094" xlink:href="#DejaVuSans-30"/>
       <use x="190.869141" xlink:href="#DejaVuSans-30"/>
       <use x="254.492188" xlink:href="#DejaVuSans-30"/>
      </g>
     </g>
    </g>
    <g id="text_80">
     <!-- downloads -->
     <defs>
      <path d="M 45.40625 46.390625 
L 45.40625 75.984375 
L 54.390625 75.984375 
L 54.390625 0 
L 45.40625 0 
L 45.40625 8.203125 
Q 42.578125 3.328125 38.25 0.953125 
Q 33.9375 -1.421875 27.875 -1.421875 
Q 17.96875 -1.421875 11.734375 6.484375 
Q 5.515625 14.40625 5.515625 27.296875 
Q 5.515625 40.1875 11.734375 48.09375 
Q 17.96875 56 27.875 56 
Q 33.9375 56 38.25 53.625 
Q 42.578125 51.265625 45.40625 46.390625 
z
M 14.796875 27.296875 
Q 14.796875 17.390625 18.875 11.75 
Q 22.953125 6.109375 30.078125 6.109375 
Q 37.203125 6.109375 41.296875 11.75 
Q 45.40625 17.390625 45.40625 27.296875 
Q 45.40625 37.203125 41.296875 42.84375 
Q 37.203125 48.484375 30.078125 48.484375 
Q 22.953125 48.484375 18.875 42.84375 
Q 14.796875 37.203125 14.796875 27.296875 
z
" id="DejaVuSans-64"/>
      <path d="M 4.203125 54.6875 
L 13.1875 54.6875 
L 24.421875 12.015625 
L 35.59375 54.6875 
L 46.1875 54.6875 
L 57.421875 12.015625 
L 68.609375 54.6875 
L 77.59375 54.6875 
L 63.28125 0 
L 52.6875 0 
L 40.921875 44.828125 
L 29.109375 0 
L 18.5 0 
z
" id="DejaVuSans-77"/>
      <path d="M 9.421875 75.984375 
L 18.40625 75.984375 
L 18.40625 0 
L 9.421875 0 
z
" id="DejaVuSans-6c"/>
      <path d="M 34.28125 27.484375 
Q 23.390625 27.484375 19.1875 25 
Q 14.984375 22.515625 14.984375 16.5 
Q 14.984375 11.71875 18.140625 8.90625 
Q 21.296875 6.109375 26.703125 6.109375 
Q 34.1875 6.109375 38.703125 11.40625 
Q 43.21875 16.703125 43.21875 25.484375 
L 43.21875 27.484375 
z
M 52.203125 31.203125 
L 52.203125 0 
L 43.21875 0 
L 43.21875 8.296875 
Q 40.140625 3.328125 35.546875 0.953125 
Q 30.953125 -1.421875 24.3125 -1.421875 
Q 15.921875 -1.421875 10.953125 3.296875 
Q 6 8.015625 6 15.921875 
Q 6 25.140625 12.171875 29.828125 
Q 18.359375 34.515625 30.609375 34.515625 
L 43.21875 34.515625 
L 43.21875 35.40625 
Q 43.21875 41.609375 39.140625 45 
Q 35.0625 48.390625 27.6875 48.390625 
Q 23 48.390625 18.546875 47.265625 
Q 14.109375 46.140625 10.015625 43.890625 
L 10.015625 52.203125 
Q 14.9375 54.109375 19.578125 55.046875 
Q 24.21875 56 28.609375 56 
Q 40.484375 56 46.34375 49.84375 
Q 52.203125 43.703125 52.203125 31.203125 
z
" id="DejaVuSans-61"/>
     </defs>
     <g transform="translate(261.107813 463.102812)rotate(-90)scale(0.1 -0.1)">
      <use xlink:href="#DejaVuSans-64"/>
      <use x="63.476562" xlink:href="#DejaVuSans-6f"/>
      <use x="124.658203" xlink:href="#DejaVuSans-77"/>
      <use x="206.445312" xlink:href="#DejaVuSans-6e"/>
      <use x="269.824219" xlink:href="#DejaVuSans-6c"/>
      <use x="297.607422" xlink:href="#DejaVuSans-6f"/>
      <use x="358.789062" xlink:href="#DejaVuSans-61"/>
      <use x="420.068359" xlink:href="#DejaVuSans-64"/>
      <use x="483.544922" xlink:href="#DejaVuSans-73"/>
     </g>
    </g>
   </g>
   <g id="line2d_79">
    <path clip-path="url(#pa4c7f8ec44)" d="M 392.236364 768.96 
L 417.6 732.364027 
L 442.963636 723.021745 
L 468.327273 717.287517 
L 493.690909 696.670067 
L 519.054545 687.521074 
L 544.418182 676.568054 
L 569.781818 658.205638 
L 595.145455 651.247248 
L 620.509091 644.997584 
L 645.872727 633.980134 
L 671.236364 619.547919 
L 696.6 613.749262 
L 721.963636 601.314362 
L 747.327273 596.288859 
L 772.690909 591.714362 
L 798.054545 582.951946 
L 823.418182 576.380134 
L 848.781818 570.194899 
L 874.145455 568.519732 
L 899.509091 565.233826 
L 924.872727 561.625772 
L 950.236364 559.692886 
L 975.6 453.126443 
L 1000.963636 448.616376 
L 1026.327273 443.848591 
L 1051.690909 440.691544 
L 1077.054545 432.831141 
L 1102.418182 418.270067 
L 1127.781818 409.63651 
L 1153.145455 401.969396 
L 1178.509091 394.62443 
L 1203.872727 389.276779 
L 1229.236364 378.903624 
L 1254.6 375.36 
L 1279.963636 368.981477 
L 1305.327273 358.801611 
L 1330.690909 353.002953 
L 1356.054545 348.235168 
L 1381.418182 343.660671 
L 1406.781818 343.660671 
L 1432.145455 339.408322 
L 1457.509091 332.772081 
L 1482.872727 326.329128 
L 1508.236364 321.496913 
L 1533.6 318.404295 
L 1558.963636 314.667383 
L 1584.327273 309.57745 
L 1609.690909 302.232483 
L 1635.054545 295.78953 
L 1660.418182 292.052617 
L 1685.781818 286.25396 
L 1711.145455 279.682148 
L 1736.509091 274.656644 
L 1761.872727 268.535839 
L 1787.236364 262.350604 
L 1812.6 259.064698 
L 1837.963636 250.56 
L 1863.327273 243.086174 
L 1888.690909 232.584161 
L 1914.054545 220.729128 
L 1939.418182 208.938523 
L 1964.781818 203.139866 
L 1990.145455 194.635168 
L 2015.509091 182.264698 
L 2040.872727 172.922416 
L 2066.236364 162.098255 
L 2091.6 144.637852 
L 2116.963636 135.36 
" style="fill:none;stroke:#0000ff;stroke-linecap:square;stroke-width:1.5;"/>
   </g>
   <g id="patch_3">
    <path d="M 306 768.96 
L 306 103.68 
" style="fill:none;stroke:#000000;stroke-linecap:square;stroke-linejoin:miter;stroke-width:0.8;"/>
   </g>
   <g id="patch_4">
    <path d="M 306 768.96 
L 2203.2 768.96 
" style="fill:none;stroke:#000000;stroke-linecap:square;stroke-linejoin:miter;stroke-width:0.8;"/>
   </g>
   <g id="text_81">
    <!--       9834 -->
    <defs>
     <path id="DejaVuSans-20"/>
    </defs>
    <g transform="translate(2116.963636 135.36)scale(0.68 -0.68)">
     <use xlink:href="#DejaVuSans-20"/>
     <use x="31.787109" xlink:href="#DejaVuSans-20"/>
     <use x="63.574219" xlink:href="#DejaVuSans-20"/>
     <use x="95.361328" xlink:href="#DejaVuSans-20"/>
     <use x="127.148438" xlink:href="#DejaVuSans-20"/>
     <use x="158.935547" xlink:href="#DejaVuSans-20"/>
     <use x="190.722656" xlink:href="#DejaVuSans-39"/>
     <use x="254.345703" xlink:href="#DejaVuSans-38"/>
     <use x="317.96875" xlink:href="#DejaVuSans-33"/>
     <use x="381.591797" xlink:href="#DejaVuSans-34"/>
    </g>
   </g>
  </g>
 </g>
 <defs>
  <clipPath id="pa4c7f8ec44">
   <rect height="665.28" width="1897.2" x="306" y="103.68"/>
  </clipPath>
 </defs>
</svg>
