<?xml version="1.0" encoding="utf-8" standalone="no"?>
<!DOCTYPE svg PUBLIC "-//W3C//DTD SVG 1.1//EN"
  "http://www.w3.org/Graphics/SVG/1.1/DTD/svg11.dtd">
<!-- Created with matplotlib (http://matplotlib.org/) -->
<svg height="345pt" version="1.1" viewBox="0 0 864 345" width="864pt" xmlns="http://www.w3.org/2000/svg" xmlns:xlink="http://www.w3.org/1999/xlink">
 <defs>
  <style type="text/css">
*{stroke-linecap:butt;stroke-linejoin:round;}
  </style>
 </defs>
 <g id="figure_1">
  <g id="patch_1">
   <path d="M 0 345.6 
L 864 345.6 
L 864 0 
L 0 0 
z
" style="fill:#ffffff;"/>
  </g>
  <g id="axes_1">
   <g id="patch_2">
    <path d="M 435.4128 174.528 
C 435.4128 158.82184 431.936583 143.308618 425.234222 129.104329 
C 418.531861 114.90004 408.768024 102.353661 396.645102 92.367759 
C 384.522181 82.381856 370.338019 75.201768 355.112999 71.344016 
C 339.887979 67.486265 323.996158 67.045631 308.580766 70.053811 
L 328.968 174.528 
L 435.4128 174.528 
z
" style="fill:#a6cee3;"/>
   </g>
   <g id="patch_3">
    <path d="M 308.580766 70.053811 
C 289.749637 73.728543 272.257771 82.427183 257.96375 95.225465 
C 243.669729 108.023748 233.098409 124.451739 227.373034 142.763897 
L 328.968 174.528 
L 308.580766 70.053811 
z
" style="fill:#a6cee3;"/>
   </g>
   <g id="patch_4">
    <path d="M 227.373034 142.763897 
C 225.057446 150.170119 223.558651 157.807393 222.90339 165.53945 
C 222.24813 173.271507 222.440324 181.052085 223.476543 188.74236 
L 328.968 174.528 
L 227.373034 142.763897 
z
" style="fill:#1f78b4;"/>
   </g>
   <g id="patch_5">
    <path d="M 223.476543 188.74236 
C 224.039859 192.922994 224.851196 197.066448 225.906259 201.150793 
C 226.961323 205.235137 228.258248 209.253154 229.790172 213.183579 
L 328.968 174.528 
L 223.476543 188.74236 
z
" style="fill:#1f78b4;"/>
   </g>
   <g id="patch_6">
    <path d="M 229.790172 213.183579 
C 230.891379 216.008925 232.112815 218.785925 233.451137 221.506978 
C 234.789459 224.228031 236.243445 226.890654 237.809115 229.487558 
L 328.968 174.528 
L 229.790172 213.183579 
z
" style="fill:#b2df8a;"/>
   </g>
   <g id="patch_7">
    <path d="M 237.809115 229.487558 
C 238.81345 231.153402 239.863258 232.791404 240.957358 234.399716 
C 242.051458 236.008029 243.189439 237.586049 244.370017 239.131999 
L 328.968 174.528 
L 237.809115 229.487558 
z
" style="fill:#33a02c;"/>
   </g>
   <g id="patch_8">
    <path d="M 244.370017 239.131999 
C 245.45479 240.552494 246.575169 241.945442 247.730088 243.309517 
C 248.885007 244.673593 250.074099 246.008364 251.296234 247.31256 
L 328.968 174.528 
L 244.370017 239.131999 
z
" style="fill:#33a02c;"/>
   </g>
   <g id="patch_9">
    <path d="M 251.296234 247.31256 
C 252.497871 248.594883 253.73108 249.847252 254.994727 251.068514 
C 256.258373 252.289777 257.55207 253.479559 258.874626 254.636766 
L 328.968 174.528 
L 251.296234 247.31256 
z
" style="fill:#fb9a99;"/>
   </g>
   <g id="patch_10">
    <path d="M 258.874626 254.636766 
C 260.19582 255.792781 261.545409 256.915934 262.922157 258.005195 
C 264.298904 259.094456 265.702388 260.149491 267.131319 261.169332 
L 328.968 174.528 
L 258.874626 254.636766 
z
" style="fill:#fb9a99;"/>
   </g>
   <g id="patch_11">
    <path d="M 267.131319 261.169332 
C 268.468184 262.123464 269.826953 263.046527 271.206535 263.937779 
C 272.586117 264.829031 273.986142 265.688234 275.405485 266.514697 
L 328.968 174.528 
L 267.131319 261.169332 
z
" style="fill:#e31a1c;"/>
   </g>
   <g id="patch_12">
    <path d="M 275.405485 266.514697 
C 276.748917 267.296958 278.109325 268.049695 279.485729 268.772365 
C 280.862134 269.495036 282.254205 270.187467 283.66094 270.84916 
L 328.968 174.528 
L 275.405485 266.514697 
z
" style="fill:#fdbf6f;"/>
   </g>
   <g id="patch_13">
    <path d="M 283.66094 270.84916 
C 284.943938 271.45265 286.238866 272.030445 287.544949 272.582201 
C 288.851031 273.133956 290.168007 273.65956 291.495088 274.1587 
L 328.968 174.528 
L 283.66094 270.84916 
z
" style="fill:#fdbf6f;"/>
   </g>
   <g id="patch_14">
    <path d="M 291.495088 274.1587 
C 292.806489 274.651941 294.127501 275.119243 295.457351 275.560331 
C 296.787201 276.001418 298.12563 276.416207 299.471856 276.804453 
L 328.968 174.528 
L 291.495088 274.1587 
z
" style="fill:#ff7f00;"/>
   </g>
   <g id="patch_15">
    <path d="M 299.471856 276.804453 
C 300.779362 277.181533 302.093979 277.533506 303.414981 277.860176 
C 304.735984 278.186847 306.06313 278.488156 307.395686 278.763938 
L 328.968 174.528 
L 299.471856 276.804453 
z
" style="fill:#ff7f00;"/>
   </g>
   <g id="patch_16">
    <path d="M 307.395686 278.763938 
C 308.708645 279.035663 310.02662 279.282557 311.348907 279.504488 
C 312.671194 279.726419 313.997556 279.923346 315.327283 280.095165 
L 328.968 174.528 
L 307.395686 278.763938 
z
" style="fill:#cab2d6;"/>
   </g>
   <g id="patch_17">
    <path d="M 315.327283 280.095165 
C 316.599353 280.259534 317.874289 280.400896 319.151468 280.519184 
C 320.428647 280.637472 321.70786 280.732666 322.988479 280.804718 
L 328.968 174.528 
L 315.327283 280.095165 
z
" style="fill:#6a3d9a;"/>
   </g>
   <g id="patch_18">
    <path d="M 322.988479 280.804718 
C 324.260872 280.876307 325.534447 280.925041 326.808589 280.950894 
C 328.082732 280.976748 329.357235 280.979717 330.631484 280.959801 
L 328.968 174.528 
L 322.988479 280.804718 
z
" style="fill:#6a3d9a;"/>
   </g>
   <g id="patch_19">
    <path d="M 330.631484 280.959801 
C 331.774445 280.941937 332.917044 280.905663 334.058837 280.850993 
C 335.20063 280.796323 336.341467 280.723264 337.480907 280.631845 
L 328.968 174.528 
L 330.631484 280.959801 
z
" style="fill:#ffff99;"/>
   </g>
   <g id="patch_20">
    <path d="M 337.480907 280.631845 
C 338.562487 280.545068 339.642677 280.441758 340.721098 280.321951 
C 341.79952 280.202145 342.876046 280.065856 343.9503 279.913132 
L 328.968 174.528 
L 337.480907 280.631845 
z
" style="fill:#ffff99;"/>
   </g>
   <g id="patch_21">
    <path d="M 343.9503 279.913132 
C 344.844356 279.786027 345.736758 279.64755 346.62729 279.497733 
C 347.517822 279.347917 348.406411 279.186775 349.292842 279.014345 
L 328.968 174.528 
L 343.9503 279.913132 
z
" style="fill:#b15928;"/>
   </g>
   <g id="patch_22">
    <path d="M 349.292842 279.014345 
C 373.53667 274.298399 395.399314 261.288471 411.108033 242.229628 
C 426.816752 223.170785 435.412802 199.226238 435.4128 174.527992 
L 328.968 174.528 
L 349.292842 279.014345 
z
" style="fill:#b15928;"/>
   </g>
   <g id="matplotlib.axis_1"/>
   <g id="matplotlib.axis_2"/>
   <g id="text_1">
    <!-- us: 345521 -->
    <defs>
     <path d="M 8.5 21.578125 
L 8.5 54.6875 
L 17.484375 54.6875 
L 17.484375 21.921875 
Q 17.484375 14.15625 20.5 10.265625 
Q 23.53125 6.390625 29.59375 6.390625 
Q 36.859375 6.390625 41.078125 11.03125 
Q 45.3125 15.671875 45.3125 23.6875 
L 45.3125 54.6875 
L 54.296875 54.6875 
L 54.296875 0 
L 45.3125 0 
L 45.3125 8.40625 
Q 42.046875 3.421875 37.71875 1 
Q 33.40625 -1.421875 27.6875 -1.421875 
Q 18.265625 -1.421875 13.375 4.4375 
Q 8.5 10.296875 8.5 21.578125 
z
M 31.109375 56 
z
" id="DejaVuSans-75"/>
     <path d="M 44.28125 53.078125 
L 44.28125 44.578125 
Q 40.484375 46.53125 36.375 47.5 
Q 32.28125 48.484375 27.875 48.484375 
Q 21.1875 48.484375 17.84375 46.4375 
Q 14.5 44.390625 14.5 40.28125 
Q 14.5 37.15625 16.890625 35.375 
Q 19.28125 33.59375 26.515625 31.984375 
L 29.59375 31.296875 
Q 39.15625 29.25 43.1875 25.515625 
Q 47.21875 21.78125 47.21875 15.09375 
Q 47.21875 7.46875 41.1875 3.015625 
Q 35.15625 -1.421875 24.609375 -1.421875 
Q 20.21875 -1.421875 15.453125 -0.5625 
Q 10.6875 0.296875 5.421875 2 
L 5.421875 11.28125 
Q 10.40625 8.6875 15.234375 7.390625 
Q 20.0625 6.109375 24.8125 6.109375 
Q 31.15625 6.109375 34.5625 8.28125 
Q 37.984375 10.453125 37.984375 14.40625 
Q 37.984375 18.0625 35.515625 20.015625 
Q 33.0625 21.96875 24.703125 23.78125 
L 21.578125 24.515625 
Q 13.234375 26.265625 9.515625 29.90625 
Q 5.8125 33.546875 5.8125 39.890625 
Q 5.8125 47.609375 11.28125 51.796875 
Q 16.75 56 26.8125 56 
Q 31.78125 56 36.171875 55.265625 
Q 40.578125 54.546875 44.28125 53.078125 
z
" id="DejaVuSans-73"/>
     <path d="M 11.71875 12.40625 
L 22.015625 12.40625 
L 22.015625 0 
L 11.71875 0 
z
M 11.71875 51.703125 
L 22.015625 51.703125 
L 22.015625 39.3125 
L 11.71875 39.3125 
z
" id="DejaVuSans-3a"/>
     <path id="DejaVuSans-20"/>
     <path d="M 40.578125 39.3125 
Q 47.65625 37.796875 51.625 33 
Q 55.609375 28.21875 55.609375 21.1875 
Q 55.609375 10.40625 48.1875 4.484375 
Q 40.765625 -1.421875 27.09375 -1.421875 
Q 22.515625 -1.421875 17.65625 -0.515625 
Q 12.796875 0.390625 7.625 2.203125 
L 7.625 11.71875 
Q 11.71875 9.328125 16.59375 8.109375 
Q 21.484375 6.890625 26.8125 6.890625 
Q 36.078125 6.890625 40.9375 10.546875 
Q 45.796875 14.203125 45.796875 21.1875 
Q 45.796875 27.640625 41.28125 31.265625 
Q 36.765625 34.90625 28.71875 34.90625 
L 20.21875 34.90625 
L 20.21875 43.015625 
L 29.109375 43.015625 
Q 36.375 43.015625 40.234375 45.921875 
Q 44.09375 48.828125 44.09375 54.296875 
Q 44.09375 59.90625 40.109375 62.90625 
Q 36.140625 65.921875 28.71875 65.921875 
Q 24.65625 65.921875 20.015625 65.03125 
Q 15.375 64.15625 9.8125 62.3125 
L 9.8125 71.09375 
Q 15.4375 72.65625 20.34375 73.4375 
Q 25.25 74.21875 29.59375 74.21875 
Q 40.828125 74.21875 47.359375 69.109375 
Q 53.90625 64.015625 53.90625 55.328125 
Q 53.90625 49.265625 50.4375 45.09375 
Q 46.96875 40.921875 40.578125 39.3125 
z
" id="DejaVuSans-33"/>
     <path d="M 37.796875 64.3125 
L 12.890625 25.390625 
L 37.796875 25.390625 
z
M 35.203125 72.90625 
L 47.609375 72.90625 
L 47.609375 25.390625 
L 58.015625 25.390625 
L 58.015625 17.1875 
L 47.609375 17.1875 
L 47.609375 0 
L 37.796875 0 
L 37.796875 17.1875 
L 4.890625 17.1875 
L 4.890625 26.703125 
z
" id="DejaVuSans-34"/>
     <path d="M 10.796875 72.90625 
L 49.515625 72.90625 
L 49.515625 64.59375 
L 19.828125 64.59375 
L 19.828125 46.734375 
Q 21.96875 47.46875 24.109375 47.828125 
Q 26.265625 48.1875 28.421875 48.1875 
Q 40.625 48.1875 47.75 41.5 
Q 54.890625 34.8125 54.890625 23.390625 
Q 54.890625 11.625 47.5625 5.09375 
Q 40.234375 -1.421875 26.90625 -1.421875 
Q 22.3125 -1.421875 17.546875 -0.640625 
Q 12.796875 0.140625 7.71875 1.703125 
L 7.71875 11.625 
Q 12.109375 9.234375 16.796875 8.0625 
Q 21.484375 6.890625 26.703125 6.890625 
Q 35.15625 6.890625 40.078125 11.328125 
Q 45.015625 15.765625 45.015625 23.390625 
Q 45.015625 31 40.078125 35.4375 
Q 35.15625 39.890625 26.703125 39.890625 
Q 22.75 39.890625 18.8125 39.015625 
Q 14.890625 38.140625 10.796875 36.28125 
z
" id="DejaVuSans-35"/>
     <path d="M 19.1875 8.296875 
L 53.609375 8.296875 
L 53.609375 0 
L 7.328125 0 
L 7.328125 8.296875 
Q 12.9375 14.109375 22.625 23.890625 
Q 32.328125 33.6875 34.8125 36.53125 
Q 39.546875 41.84375 41.421875 45.53125 
Q 43.3125 49.21875 43.3125 52.78125 
Q 43.3125 58.59375 39.234375 62.25 
Q 35.15625 65.921875 28.609375 65.921875 
Q 23.96875 65.921875 18.8125 64.3125 
Q 13.671875 62.703125 7.8125 59.421875 
L 7.8125 69.390625 
Q 13.765625 71.78125 18.9375 73 
Q 24.125 74.21875 28.421875 74.21875 
Q 39.75 74.21875 46.484375 68.546875 
Q 53.21875 62.890625 53.21875 53.421875 
Q 53.21875 48.921875 51.53125 44.890625 
Q 49.859375 40.875 45.40625 35.40625 
Q 44.1875 33.984375 37.640625 27.21875 
Q 31.109375 20.453125 19.1875 8.296875 
z
" id="DejaVuSans-32"/>
     <path d="M 12.40625 8.296875 
L 28.515625 8.296875 
L 28.515625 63.921875 
L 10.984375 60.40625 
L 10.984375 69.390625 
L 28.421875 72.90625 
L 38.28125 72.90625 
L 38.28125 8.296875 
L 54.390625 8.296875 
L 54.390625 0 
L 12.40625 0 
z
" id="DejaVuSans-31"/>
    </defs>
    <g transform="translate(423.715943 62.263037)scale(0.1 -0.1)">
     <use xlink:href="#DejaVuSans-75"/>
     <use x="63.378906" xlink:href="#DejaVuSans-73"/>
     <use x="115.478516" xlink:href="#DejaVuSans-3a"/>
     <use x="149.169922" xlink:href="#DejaVuSans-20"/>
     <use x="180.957031" xlink:href="#DejaVuSans-33"/>
     <use x="244.580078" xlink:href="#DejaVuSans-34"/>
     <use x="308.203125" xlink:href="#DejaVuSans-35"/>
     <use x="371.826172" xlink:href="#DejaVuSans-35"/>
     <use x="435.449219" xlink:href="#DejaVuSans-32"/>
     <use x="499.072266" xlink:href="#DejaVuSans-31"/>
    </g>
   </g>
   <g id="text_2">
    <!-- de: 210632 -->
    <defs>
     <path d="M 45.40625 46.390625 
L 45.40625 75.984375 
L 54.390625 75.984375 
L 54.390625 0 
L 45.40625 0 
L 45.40625 8.203125 
Q 42.578125 3.328125 38.25 0.953125 
Q 33.9375 -1.421875 27.875 -1.421875 
Q 17.96875 -1.421875 11.734375 6.484375 
Q 5.515625 14.40625 5.515625 27.296875 
Q 5.515625 40.1875 11.734375 48.09375 
Q 17.96875 56 27.875 56 
Q 33.9375 56 38.25 53.625 
Q 42.578125 51.265625 45.40625 46.390625 
z
M 14.796875 27.296875 
Q 14.796875 17.390625 18.875 11.75 
Q 22.953125 6.109375 30.078125 6.109375 
Q 37.203125 6.109375 41.296875 11.75 
Q 45.40625 17.390625 45.40625 27.296875 
Q 45.40625 37.203125 41.296875 42.84375 
Q 37.203125 48.484375 30.078125 48.484375 
Q 22.953125 48.484375 18.875 42.84375 
Q 14.796875 37.203125 14.796875 27.296875 
z
" id="DejaVuSans-64"/>
     <path d="M 56.203125 29.59375 
L 56.203125 25.203125 
L 14.890625 25.203125 
Q 15.484375 15.921875 20.484375 11.0625 
Q 25.484375 6.203125 34.421875 6.203125 
Q 39.59375 6.203125 44.453125 7.46875 
Q 49.3125 8.734375 54.109375 11.28125 
L 54.109375 2.78125 
Q 49.265625 0.734375 44.1875 -0.34375 
Q 39.109375 -1.421875 33.890625 -1.421875 
Q 20.796875 -1.421875 13.15625 6.1875 
Q 5.515625 13.8125 5.515625 26.8125 
Q 5.515625 40.234375 12.765625 48.109375 
Q 20.015625 56 32.328125 56 
Q 43.359375 56 49.78125 48.890625 
Q 56.203125 41.796875 56.203125 29.59375 
z
M 47.21875 32.234375 
Q 47.125 39.59375 43.09375 43.984375 
Q 39.0625 48.390625 32.421875 48.390625 
Q 24.90625 48.390625 20.390625 44.140625 
Q 15.875 39.890625 15.1875 32.171875 
z
" id="DejaVuSans-65"/>
     <path d="M 31.78125 66.40625 
Q 24.171875 66.40625 20.328125 58.90625 
Q 16.5 51.421875 16.5 36.375 
Q 16.5 21.390625 20.328125 13.890625 
Q 24.171875 6.390625 31.78125 6.390625 
Q 39.453125 6.390625 43.28125 13.890625 
Q 47.125 21.390625 47.125 36.375 
Q 47.125 51.421875 43.28125 58.90625 
Q 39.453125 66.40625 31.78125 66.40625 
z
M 31.78125 74.21875 
Q 44.046875 74.21875 50.515625 64.515625 
Q 56.984375 54.828125 56.984375 36.375 
Q 56.984375 17.96875 50.515625 8.265625 
Q 44.046875 -1.421875 31.78125 -1.421875 
Q 19.53125 -1.421875 13.0625 8.265625 
Q 6.59375 17.96875 6.59375 36.375 
Q 6.59375 54.828125 13.0625 64.515625 
Q 19.53125 74.21875 31.78125 74.21875 
z
" id="DejaVuSans-30"/>
     <path d="M 33.015625 40.375 
Q 26.375 40.375 22.484375 35.828125 
Q 18.609375 31.296875 18.609375 23.390625 
Q 18.609375 15.53125 22.484375 10.953125 
Q 26.375 6.390625 33.015625 6.390625 
Q 39.65625 6.390625 43.53125 10.953125 
Q 47.40625 15.53125 47.40625 23.390625 
Q 47.40625 31.296875 43.53125 35.828125 
Q 39.65625 40.375 33.015625 40.375 
z
M 52.59375 71.296875 
L 52.59375 62.3125 
Q 48.875 64.0625 45.09375 64.984375 
Q 41.3125 65.921875 37.59375 65.921875 
Q 27.828125 65.921875 22.671875 59.328125 
Q 17.53125 52.734375 16.796875 39.40625 
Q 19.671875 43.65625 24.015625 45.921875 
Q 28.375 48.1875 33.59375 48.1875 
Q 44.578125 48.1875 50.953125 41.515625 
Q 57.328125 34.859375 57.328125 23.390625 
Q 57.328125 12.15625 50.6875 5.359375 
Q 44.046875 -1.421875 33.015625 -1.421875 
Q 20.359375 -1.421875 13.671875 8.265625 
Q 6.984375 17.96875 6.984375 36.375 
Q 6.984375 53.65625 15.1875 63.9375 
Q 23.390625 74.21875 37.203125 74.21875 
Q 40.921875 74.21875 44.703125 73.484375 
Q 48.484375 72.75 52.59375 71.296875 
z
" id="DejaVuSans-36"/>
    </defs>
    <g transform="translate(172.338613 66.263827)scale(0.1 -0.1)">
     <use xlink:href="#DejaVuSans-64"/>
     <use x="63.476562" xlink:href="#DejaVuSans-65"/>
     <use x="125" xlink:href="#DejaVuSans-3a"/>
     <use x="158.691406" xlink:href="#DejaVuSans-20"/>
     <use x="190.478516" xlink:href="#DejaVuSans-32"/>
     <use x="254.101562" xlink:href="#DejaVuSans-31"/>
     <use x="317.724609" xlink:href="#DejaVuSans-30"/>
     <use x="381.347656" xlink:href="#DejaVuSans-36"/>
     <use x="444.970703" xlink:href="#DejaVuSans-33"/>
     <use x="508.59375" xlink:href="#DejaVuSans-32"/>
    </g>
   </g>
   <g id="text_3">
    <!-- cn: 85613 -->
    <defs>
     <path d="M 48.78125 52.59375 
L 48.78125 44.1875 
Q 44.96875 46.296875 41.140625 47.34375 
Q 37.3125 48.390625 33.40625 48.390625 
Q 24.65625 48.390625 19.8125 42.84375 
Q 14.984375 37.3125 14.984375 27.296875 
Q 14.984375 17.28125 19.8125 11.734375 
Q 24.65625 6.203125 33.40625 6.203125 
Q 37.3125 6.203125 41.140625 7.25 
Q 44.96875 8.296875 48.78125 10.40625 
L 48.78125 2.09375 
Q 45.015625 0.34375 40.984375 -0.53125 
Q 36.96875 -1.421875 32.421875 -1.421875 
Q 20.0625 -1.421875 12.78125 6.34375 
Q 5.515625 14.109375 5.515625 27.296875 
Q 5.515625 40.671875 12.859375 48.328125 
Q 20.21875 56 33.015625 56 
Q 37.15625 56 41.109375 55.140625 
Q 45.0625 54.296875 48.78125 52.59375 
z
" id="DejaVuSans-63"/>
     <path d="M 54.890625 33.015625 
L 54.890625 0 
L 45.90625 0 
L 45.90625 32.71875 
Q 45.90625 40.484375 42.875 44.328125 
Q 39.84375 48.1875 33.796875 48.1875 
Q 26.515625 48.1875 22.3125 43.546875 
Q 18.109375 38.921875 18.109375 30.90625 
L 18.109375 0 
L 9.078125 0 
L 9.078125 54.6875 
L 18.109375 54.6875 
L 18.109375 46.1875 
Q 21.34375 51.125 25.703125 53.5625 
Q 30.078125 56 35.796875 56 
Q 45.21875 56 50.046875 50.171875 
Q 54.890625 44.34375 54.890625 33.015625 
z
" id="DejaVuSans-6e"/>
     <path d="M 31.78125 34.625 
Q 24.75 34.625 20.71875 30.859375 
Q 16.703125 27.09375 16.703125 20.515625 
Q 16.703125 13.921875 20.71875 10.15625 
Q 24.75 6.390625 31.78125 6.390625 
Q 38.8125 6.390625 42.859375 10.171875 
Q 46.921875 13.96875 46.921875 20.515625 
Q 46.921875 27.09375 42.890625 30.859375 
Q 38.875 34.625 31.78125 34.625 
z
M 21.921875 38.8125 
Q 15.578125 40.375 12.03125 44.71875 
Q 8.5 49.078125 8.5 55.328125 
Q 8.5 64.0625 14.71875 69.140625 
Q 20.953125 74.21875 31.78125 74.21875 
Q 42.671875 74.21875 48.875 69.140625 
Q 55.078125 64.0625 55.078125 55.328125 
Q 55.078125 49.078125 51.53125 44.71875 
Q 48 40.375 41.703125 38.8125 
Q 48.828125 37.15625 52.796875 32.3125 
Q 56.78125 27.484375 56.78125 20.515625 
Q 56.78125 9.90625 50.3125 4.234375 
Q 43.84375 -1.421875 31.78125 -1.421875 
Q 19.734375 -1.421875 13.25 4.234375 
Q 6.78125 9.90625 6.78125 20.515625 
Q 6.78125 27.484375 10.78125 32.3125 
Q 14.796875 37.15625 21.921875 38.8125 
z
M 18.3125 54.390625 
Q 18.3125 48.734375 21.84375 45.5625 
Q 25.390625 42.390625 31.78125 42.390625 
Q 38.140625 42.390625 41.71875 45.5625 
Q 45.3125 48.734375 45.3125 54.390625 
Q 45.3125 60.0625 41.71875 63.234375 
Q 38.140625 66.40625 31.78125 66.40625 
Q 25.390625 66.40625 21.84375 63.234375 
Q 18.3125 60.0625 18.3125 54.390625 
z
" id="DejaVuSans-38"/>
    </defs>
    <g transform="translate(130.282234 164.703405)scale(0.1 -0.1)">
     <use xlink:href="#DejaVuSans-63"/>
     <use x="54.980469" xlink:href="#DejaVuSans-6e"/>
     <use x="118.359375" xlink:href="#DejaVuSans-3a"/>
     <use x="152.050781" xlink:href="#DejaVuSans-20"/>
     <use x="183.837891" xlink:href="#DejaVuSans-38"/>
     <use x="247.460938" xlink:href="#DejaVuSans-35"/>
     <use x="311.083984" xlink:href="#DejaVuSans-36"/>
     <use x="374.707031" xlink:href="#DejaVuSans-31"/>
     <use x="438.330078" xlink:href="#DejaVuSans-33"/>
    </g>
   </g>
   <g id="text_4">
    <!-- fr: 46574 -->
    <defs>
     <path d="M 37.109375 75.984375 
L 37.109375 68.5 
L 28.515625 68.5 
Q 23.6875 68.5 21.796875 66.546875 
Q 19.921875 64.59375 19.921875 59.515625 
L 19.921875 54.6875 
L 34.71875 54.6875 
L 34.71875 47.703125 
L 19.921875 47.703125 
L 19.921875 0 
L 10.890625 0 
L 10.890625 47.703125 
L 2.296875 47.703125 
L 2.296875 54.6875 
L 10.890625 54.6875 
L 10.890625 58.5 
Q 10.890625 67.625 15.140625 71.796875 
Q 19.390625 75.984375 28.609375 75.984375 
z
" id="DejaVuSans-66"/>
     <path d="M 41.109375 46.296875 
Q 39.59375 47.171875 37.8125 47.578125 
Q 36.03125 48 33.890625 48 
Q 26.265625 48 22.1875 43.046875 
Q 18.109375 38.09375 18.109375 28.8125 
L 18.109375 0 
L 9.078125 0 
L 9.078125 54.6875 
L 18.109375 54.6875 
L 18.109375 46.1875 
Q 20.953125 51.171875 25.484375 53.578125 
Q 30.03125 56 36.53125 56 
Q 37.453125 56 38.578125 55.875 
Q 39.703125 55.765625 41.0625 55.515625 
z
" id="DejaVuSans-72"/>
     <path d="M 8.203125 72.90625 
L 55.078125 72.90625 
L 55.078125 68.703125 
L 28.609375 0 
L 18.3125 0 
L 43.21875 64.59375 
L 8.203125 64.59375 
z
" id="DejaVuSans-37"/>
    </defs>
    <g transform="translate(138.692501 214.559285)scale(0.1 -0.1)">
     <use xlink:href="#DejaVuSans-66"/>
     <use x="35.205078" xlink:href="#DejaVuSans-72"/>
     <use x="76.302734" xlink:href="#DejaVuSans-3a"/>
     <use x="109.994141" xlink:href="#DejaVuSans-20"/>
     <use x="141.78125" xlink:href="#DejaVuSans-34"/>
     <use x="205.404297" xlink:href="#DejaVuSans-36"/>
     <use x="269.027344" xlink:href="#DejaVuSans-35"/>
     <use x="332.650391" xlink:href="#DejaVuSans-37"/>
     <use x="396.273438" xlink:href="#DejaVuSans-34"/>
    </g>
   </g>
   <g id="text_5">
    <!-- gb: 33484 -->
    <defs>
     <path d="M 45.40625 27.984375 
Q 45.40625 37.75 41.375 43.109375 
Q 37.359375 48.484375 30.078125 48.484375 
Q 22.859375 48.484375 18.828125 43.109375 
Q 14.796875 37.75 14.796875 27.984375 
Q 14.796875 18.265625 18.828125 12.890625 
Q 22.859375 7.515625 30.078125 7.515625 
Q 37.359375 7.515625 41.375 12.890625 
Q 45.40625 18.265625 45.40625 27.984375 
z
M 54.390625 6.78125 
Q 54.390625 -7.171875 48.1875 -13.984375 
Q 42 -20.796875 29.203125 -20.796875 
Q 24.46875 -20.796875 20.265625 -20.09375 
Q 16.0625 -19.390625 12.109375 -17.921875 
L 12.109375 -9.1875 
Q 16.0625 -11.328125 19.921875 -12.34375 
Q 23.78125 -13.375 27.78125 -13.375 
Q 36.625 -13.375 41.015625 -8.765625 
Q 45.40625 -4.15625 45.40625 5.171875 
L 45.40625 9.625 
Q 42.625 4.78125 38.28125 2.390625 
Q 33.9375 0 27.875 0 
Q 17.828125 0 11.671875 7.65625 
Q 5.515625 15.328125 5.515625 27.984375 
Q 5.515625 40.671875 11.671875 48.328125 
Q 17.828125 56 27.875 56 
Q 33.9375 56 38.28125 53.609375 
Q 42.625 51.21875 45.40625 46.390625 
L 45.40625 54.6875 
L 54.390625 54.6875 
z
" id="DejaVuSans-67"/>
     <path d="M 48.6875 27.296875 
Q 48.6875 37.203125 44.609375 42.84375 
Q 40.53125 48.484375 33.40625 48.484375 
Q 26.265625 48.484375 22.1875 42.84375 
Q 18.109375 37.203125 18.109375 27.296875 
Q 18.109375 17.390625 22.1875 11.75 
Q 26.265625 6.109375 33.40625 6.109375 
Q 40.53125 6.109375 44.609375 11.75 
Q 48.6875 17.390625 48.6875 27.296875 
z
M 18.109375 46.390625 
Q 20.953125 51.265625 25.265625 53.625 
Q 29.59375 56 35.59375 56 
Q 45.5625 56 51.78125 48.09375 
Q 58.015625 40.1875 58.015625 27.296875 
Q 58.015625 14.40625 51.78125 6.484375 
Q 45.5625 -1.421875 35.59375 -1.421875 
Q 29.59375 -1.421875 25.265625 0.953125 
Q 20.953125 3.328125 18.109375 8.203125 
L 18.109375 0 
L 9.078125 0 
L 9.078125 75.984375 
L 18.109375 75.984375 
z
" id="DejaVuSans-62"/>
    </defs>
    <g transform="translate(144.188142 243.057944)scale(0.1 -0.1)">
     <use xlink:href="#DejaVuSans-67"/>
     <use x="63.476562" xlink:href="#DejaVuSans-62"/>
     <use x="126.953125" xlink:href="#DejaVuSans-3a"/>
     <use x="160.644531" xlink:href="#DejaVuSans-20"/>
     <use x="192.431641" xlink:href="#DejaVuSans-33"/>
     <use x="256.054688" xlink:href="#DejaVuSans-33"/>
     <use x="319.677734" xlink:href="#DejaVuSans-34"/>
     <use x="383.300781" xlink:href="#DejaVuSans-38"/>
     <use x="446.923828" xlink:href="#DejaVuSans-34"/>
    </g>
   </g>
   <g id="text_6">
    <!-- it: 21481 -->
    <defs>
     <path d="M 9.421875 54.6875 
L 18.40625 54.6875 
L 18.40625 0 
L 9.421875 0 
z
M 9.421875 75.984375 
L 18.40625 75.984375 
L 18.40625 64.59375 
L 9.421875 64.59375 
z
" id="DejaVuSans-69"/>
     <path d="M 18.3125 70.21875 
L 18.3125 54.6875 
L 36.8125 54.6875 
L 36.8125 47.703125 
L 18.3125 47.703125 
L 18.3125 18.015625 
Q 18.3125 11.328125 20.140625 9.421875 
Q 21.96875 7.515625 27.59375 7.515625 
L 36.8125 7.515625 
L 36.8125 0 
L 27.59375 0 
Q 17.1875 0 13.234375 3.875 
Q 9.28125 7.765625 9.28125 18.015625 
L 9.28125 47.703125 
L 2.6875 47.703125 
L 2.6875 54.6875 
L 9.28125 54.6875 
L 9.28125 70.21875 
z
" id="DejaVuSans-74"/>
    </defs>
    <g transform="translate(160.695289 261.107778)scale(0.1 -0.1)">
     <use xlink:href="#DejaVuSans-69"/>
     <use x="27.783203" xlink:href="#DejaVuSans-74"/>
     <use x="66.992188" xlink:href="#DejaVuSans-3a"/>
     <use x="100.683594" xlink:href="#DejaVuSans-20"/>
     <use x="132.470703" xlink:href="#DejaVuSans-32"/>
     <use x="196.09375" xlink:href="#DejaVuSans-31"/>
     <use x="259.716797" xlink:href="#DejaVuSans-34"/>
     <use x="323.339844" xlink:href="#DejaVuSans-38"/>
     <use x="386.962891" xlink:href="#DejaVuSans-31"/>
    </g>
   </g>
   <g id="text_7">
    <!-- ru: 19738 -->
    <defs>
     <path d="M 10.984375 1.515625 
L 10.984375 10.5 
Q 14.703125 8.734375 18.5 7.8125 
Q 22.3125 6.890625 25.984375 6.890625 
Q 35.75 6.890625 40.890625 13.453125 
Q 46.046875 20.015625 46.78125 33.40625 
Q 43.953125 29.203125 39.59375 26.953125 
Q 35.25 24.703125 29.984375 24.703125 
Q 19.046875 24.703125 12.671875 31.3125 
Q 6.296875 37.9375 6.296875 49.421875 
Q 6.296875 60.640625 12.9375 67.421875 
Q 19.578125 74.21875 30.609375 74.21875 
Q 43.265625 74.21875 49.921875 64.515625 
Q 56.59375 54.828125 56.59375 36.375 
Q 56.59375 19.140625 48.40625 8.859375 
Q 40.234375 -1.421875 26.421875 -1.421875 
Q 22.703125 -1.421875 18.890625 -0.6875 
Q 15.09375 0.046875 10.984375 1.515625 
z
M 30.609375 32.421875 
Q 37.25 32.421875 41.125 36.953125 
Q 45.015625 41.5 45.015625 49.421875 
Q 45.015625 57.28125 41.125 61.84375 
Q 37.25 66.40625 30.609375 66.40625 
Q 23.96875 66.40625 20.09375 61.84375 
Q 16.21875 57.28125 16.21875 49.421875 
Q 16.21875 41.5 20.09375 36.953125 
Q 23.96875 32.421875 30.609375 32.421875 
z
" id="DejaVuSans-39"/>
    </defs>
    <g transform="translate(166.427111 273.581499)scale(0.1 -0.1)">
     <use xlink:href="#DejaVuSans-72"/>
     <use x="41.113281" xlink:href="#DejaVuSans-75"/>
     <use x="104.492188" xlink:href="#DejaVuSans-3a"/>
     <use x="138.183594" xlink:href="#DejaVuSans-20"/>
     <use x="169.970703" xlink:href="#DejaVuSans-31"/>
     <use x="233.59375" xlink:href="#DejaVuSans-39"/>
     <use x="297.216797" xlink:href="#DejaVuSans-37"/>
     <use x="360.839844" xlink:href="#DejaVuSans-33"/>
     <use x="424.462891" xlink:href="#DejaVuSans-38"/>
    </g>
   </g>
   <g id="text_8">
    <!-- nl: 19407 -->
    <defs>
     <path d="M 9.421875 75.984375 
L 18.40625 75.984375 
L 18.40625 0 
L 9.421875 0 
z
" id="DejaVuSans-6c"/>
    </defs>
    <g transform="translate(177.930418 284.444095)scale(0.1 -0.1)">
     <use xlink:href="#DejaVuSans-6e"/>
     <use x="63.378906" xlink:href="#DejaVuSans-6c"/>
     <use x="91.162109" xlink:href="#DejaVuSans-3a"/>
     <use x="124.853516" xlink:href="#DejaVuSans-20"/>
     <use x="156.640625" xlink:href="#DejaVuSans-31"/>
     <use x="220.263672" xlink:href="#DejaVuSans-39"/>
     <use x="283.886719" xlink:href="#DejaVuSans-34"/>
     <use x="347.509766" xlink:href="#DejaVuSans-30"/>
     <use x="411.132812" xlink:href="#DejaVuSans-37"/>
    </g>
   </g>
   <g id="text_9">
    <!-- br: 19387 -->
    <g transform="translate(187.686632 294.155448)scale(0.1 -0.1)">
     <use xlink:href="#DejaVuSans-62"/>
     <use x="63.476562" xlink:href="#DejaVuSans-72"/>
     <use x="104.574219" xlink:href="#DejaVuSans-3a"/>
     <use x="138.265625" xlink:href="#DejaVuSans-20"/>
     <use x="170.052734" xlink:href="#DejaVuSans-31"/>
     <use x="233.675781" xlink:href="#DejaVuSans-39"/>
     <use x="297.298828" xlink:href="#DejaVuSans-33"/>
     <use x="360.921875" xlink:href="#DejaVuSans-38"/>
     <use x="424.544922" xlink:href="#DejaVuSans-37"/>
    </g>
   </g>
   <g id="text_10">
    <!-- ca: 18138 -->
    <defs>
     <path d="M 34.28125 27.484375 
Q 23.390625 27.484375 19.1875 25 
Q 14.984375 22.515625 14.984375 16.5 
Q 14.984375 11.71875 18.140625 8.90625 
Q 21.296875 6.109375 26.703125 6.109375 
Q 34.1875 6.109375 38.703125 11.40625 
Q 43.21875 16.703125 43.21875 25.484375 
L 43.21875 27.484375 
z
M 52.203125 31.203125 
L 52.203125 0 
L 43.21875 0 
L 43.21875 8.296875 
Q 40.140625 3.328125 35.546875 0.953125 
Q 30.953125 -1.421875 24.3125 -1.421875 
Q 15.921875 -1.421875 10.953125 3.296875 
Q 6 8.015625 6 15.921875 
Q 6 25.140625 12.171875 29.828125 
Q 18.359375 34.515625 30.609375 34.515625 
L 43.21875 34.515625 
L 43.21875 35.40625 
Q 43.21875 41.609375 39.140625 45 
Q 35.0625 48.390625 27.6875 48.390625 
Q 23 48.390625 18.546875 47.265625 
Q 14.109375 46.140625 10.015625 43.890625 
L 10.015625 52.203125 
Q 14.9375 54.109375 19.578125 55.046875 
Q 24.21875 56 28.609375 56 
Q 40.484375 56 46.34375 49.84375 
Q 52.203125 43.703125 52.203125 31.203125 
z
" id="DejaVuSans-61"/>
    </defs>
    <g transform="translate(198.116012 302.461066)scale(0.1 -0.1)">
     <use xlink:href="#DejaVuSans-63"/>
     <use x="54.980469" xlink:href="#DejaVuSans-61"/>
     <use x="116.259766" xlink:href="#DejaVuSans-3a"/>
     <use x="149.951172" xlink:href="#DejaVuSans-20"/>
     <use x="181.738281" xlink:href="#DejaVuSans-31"/>
     <use x="245.361328" xlink:href="#DejaVuSans-38"/>
     <use x="308.984375" xlink:href="#DejaVuSans-31"/>
     <use x="372.607422" xlink:href="#DejaVuSans-33"/>
     <use x="436.230469" xlink:href="#DejaVuSans-38"/>
    </g>
   </g>
   <g id="text_11">
    <!-- eu: 17168 -->
    <g transform="translate(208.842821 309.229486)scale(0.1 -0.1)">
     <use xlink:href="#DejaVuSans-65"/>
     <use x="61.523438" xlink:href="#DejaVuSans-75"/>
     <use x="124.902344" xlink:href="#DejaVuSans-3a"/>
     <use x="158.59375" xlink:href="#DejaVuSans-20"/>
     <use x="190.380859" xlink:href="#DejaVuSans-31"/>
     <use x="254.003906" xlink:href="#DejaVuSans-37"/>
     <use x="317.626953" xlink:href="#DejaVuSans-31"/>
     <use x="381.25" xlink:href="#DejaVuSans-36"/>
     <use x="444.873047" xlink:href="#DejaVuSans-38"/>
    </g>
   </g>
   <g id="text_12">
    <!-- pt: 15658 -->
    <defs>
     <path d="M 18.109375 8.203125 
L 18.109375 -20.796875 
L 9.078125 -20.796875 
L 9.078125 54.6875 
L 18.109375 54.6875 
L 18.109375 46.390625 
Q 20.953125 51.265625 25.265625 53.625 
Q 29.59375 56 35.59375 56 
Q 45.5625 56 51.78125 48.09375 
Q 58.015625 40.1875 58.015625 27.296875 
Q 58.015625 14.40625 51.78125 6.484375 
Q 45.5625 -1.421875 35.59375 -1.421875 
Q 29.59375 -1.421875 25.265625 0.953125 
Q 20.953125 3.328125 18.109375 8.203125 
z
M 48.6875 27.296875 
Q 48.6875 37.203125 44.609375 42.84375 
Q 40.53125 48.484375 33.40625 48.484375 
Q 26.265625 48.484375 22.1875 42.84375 
Q 18.109375 37.203125 18.109375 27.296875 
Q 18.109375 17.390625 22.1875 11.75 
Q 26.265625 6.109375 33.40625 6.109375 
Q 40.53125 6.109375 44.609375 11.75 
Q 48.6875 17.390625 48.6875 27.296875 
z
" id="DejaVuSans-70"/>
    </defs>
    <g transform="translate(222.347603 314.563256)scale(0.1 -0.1)">
     <use xlink:href="#DejaVuSans-70"/>
     <use x="63.476562" xlink:href="#DejaVuSans-74"/>
     <use x="102.685547" xlink:href="#DejaVuSans-3a"/>
     <use x="136.376953" xlink:href="#DejaVuSans-20"/>
     <use x="168.164062" xlink:href="#DejaVuSans-31"/>
     <use x="231.787109" xlink:href="#DejaVuSans-35"/>
     <use x="295.410156" xlink:href="#DejaVuSans-36"/>
     <use x="359.033203" xlink:href="#DejaVuSans-35"/>
     <use x="422.65625" xlink:href="#DejaVuSans-38"/>
    </g>
   </g>
   <g id="text_13">
    <!-- jp: 15473 -->
    <defs>
     <path d="M 9.421875 54.6875 
L 18.40625 54.6875 
L 18.40625 -0.984375 
Q 18.40625 -11.421875 14.421875 -16.109375 
Q 10.453125 -20.796875 1.609375 -20.796875 
L -1.8125 -20.796875 
L -1.8125 -13.1875 
L 0.59375 -13.1875 
Q 5.71875 -13.1875 7.5625 -10.8125 
Q 9.421875 -8.453125 9.421875 -0.984375 
z
M 9.421875 75.984375 
L 18.40625 75.984375 
L 18.40625 64.59375 
L 9.421875 64.59375 
z
" id="DejaVuSans-6a"/>
    </defs>
    <g transform="translate(234.567153 318.732638)scale(0.1 -0.1)">
     <use xlink:href="#DejaVuSans-6a"/>
     <use x="27.783203" xlink:href="#DejaVuSans-70"/>
     <use x="91.259766" xlink:href="#DejaVuSans-3a"/>
     <use x="124.951172" xlink:href="#DejaVuSans-20"/>
     <use x="156.738281" xlink:href="#DejaVuSans-31"/>
     <use x="220.361328" xlink:href="#DejaVuSans-35"/>
     <use x="283.984375" xlink:href="#DejaVuSans-34"/>
     <use x="347.607422" xlink:href="#DejaVuSans-37"/>
     <use x="411.230469" xlink:href="#DejaVuSans-33"/>
    </g>
   </g>
   <g id="text_14">
    <!-- ua: 15028 -->
    <g transform="translate(242.368774 321.952422)scale(0.1 -0.1)">
     <use xlink:href="#DejaVuSans-75"/>
     <use x="63.378906" xlink:href="#DejaVuSans-61"/>
     <use x="124.658203" xlink:href="#DejaVuSans-3a"/>
     <use x="158.349609" xlink:href="#DejaVuSans-20"/>
     <use x="190.136719" xlink:href="#DejaVuSans-31"/>
     <use x="253.759766" xlink:href="#DejaVuSans-35"/>
     <use x="317.382812" xlink:href="#DejaVuSans-30"/>
     <use x="381.005859" xlink:href="#DejaVuSans-32"/>
     <use x="444.628906" xlink:href="#DejaVuSans-38"/>
    </g>
   </g>
   <g id="text_15">
    <!-- es: 14807 -->
    <g transform="translate(254.579395 324.254458)scale(0.1 -0.1)">
     <use xlink:href="#DejaVuSans-65"/>
     <use x="61.523438" xlink:href="#DejaVuSans-73"/>
     <use x="113.623047" xlink:href="#DejaVuSans-3a"/>
     <use x="147.314453" xlink:href="#DejaVuSans-20"/>
     <use x="179.101562" xlink:href="#DejaVuSans-31"/>
     <use x="242.724609" xlink:href="#DejaVuSans-34"/>
     <use x="306.347656" xlink:href="#DejaVuSans-38"/>
     <use x="369.970703" xlink:href="#DejaVuSans-30"/>
     <use x="433.59375" xlink:href="#DejaVuSans-37"/>
    </g>
   </g>
   <g id="text_16">
    <!-- ph: 14165 -->
    <defs>
     <path d="M 54.890625 33.015625 
L 54.890625 0 
L 45.90625 0 
L 45.90625 32.71875 
Q 45.90625 40.484375 42.875 44.328125 
Q 39.84375 48.1875 33.796875 48.1875 
Q 26.515625 48.1875 22.3125 43.546875 
Q 18.109375 38.921875 18.109375 30.90625 
L 18.109375 0 
L 9.078125 0 
L 9.078125 75.984375 
L 18.109375 75.984375 
L 18.109375 46.1875 
Q 21.34375 51.125 25.703125 53.5625 
Q 30.078125 56 35.796875 56 
Q 45.21875 56 50.046875 50.171875 
Q 54.890625 44.34375 54.890625 33.015625 
z
" id="DejaVuSans-68"/>
    </defs>
    <g transform="translate(264.179543 325.675033)scale(0.1 -0.1)">
     <use xlink:href="#DejaVuSans-70"/>
     <use x="63.476562" xlink:href="#DejaVuSans-68"/>
     <use x="126.855469" xlink:href="#DejaVuSans-3a"/>
     <use x="160.546875" xlink:href="#DejaVuSans-20"/>
     <use x="192.333984" xlink:href="#DejaVuSans-31"/>
     <use x="255.957031" xlink:href="#DejaVuSans-34"/>
     <use x="319.580078" xlink:href="#DejaVuSans-31"/>
     <use x="383.203125" xlink:href="#DejaVuSans-36"/>
     <use x="446.826172" xlink:href="#DejaVuSans-35"/>
    </g>
   </g>
   <g id="text_17">
    <!-- id: 14074 -->
    <g transform="translate(278.458887 326.279427)scale(0.1 -0.1)">
     <use xlink:href="#DejaVuSans-69"/>
     <use x="27.783203" xlink:href="#DejaVuSans-64"/>
     <use x="91.259766" xlink:href="#DejaVuSans-3a"/>
     <use x="124.951172" xlink:href="#DejaVuSans-20"/>
     <use x="156.738281" xlink:href="#DejaVuSans-31"/>
     <use x="220.361328" xlink:href="#DejaVuSans-34"/>
     <use x="283.984375" xlink:href="#DejaVuSans-30"/>
     <use x="347.607422" xlink:href="#DejaVuSans-37"/>
     <use x="411.230469" xlink:href="#DejaVuSans-34"/>
    </g>
   </g>
   <g id="text_18">
    <!-- ng: 12624 -->
    <g transform="translate(336.095172 326.139565)scale(0.1 -0.1)">
     <use xlink:href="#DejaVuSans-6e"/>
     <use x="63.378906" xlink:href="#DejaVuSans-67"/>
     <use x="126.855469" xlink:href="#DejaVuSans-3a"/>
     <use x="160.546875" xlink:href="#DejaVuSans-20"/>
     <use x="192.333984" xlink:href="#DejaVuSans-31"/>
     <use x="255.957031" xlink:href="#DejaVuSans-32"/>
     <use x="319.580078" xlink:href="#DejaVuSans-36"/>
     <use x="383.203125" xlink:href="#DejaVuSans-32"/>
     <use x="446.826172" xlink:href="#DejaVuSans-34"/>
    </g>
   </g>
   <g id="text_19">
    <!-- in: 11983 -->
    <g transform="translate(345.422338 325.398907)scale(0.1 -0.1)">
     <use xlink:href="#DejaVuSans-69"/>
     <use x="27.783203" xlink:href="#DejaVuSans-6e"/>
     <use x="91.162109" xlink:href="#DejaVuSans-3a"/>
     <use x="124.853516" xlink:href="#DejaVuSans-20"/>
     <use x="156.640625" xlink:href="#DejaVuSans-31"/>
     <use x="220.263672" xlink:href="#DejaVuSans-31"/>
     <use x="283.886719" xlink:href="#DejaVuSans-39"/>
     <use x="347.509766" xlink:href="#DejaVuSans-38"/>
     <use x="411.132812" xlink:href="#DejaVuSans-33"/>
    </g>
   </g>
   <g id="text_20">
    <!-- se: 9973 -->
    <g transform="translate(353.691006 324.245002)scale(0.1 -0.1)">
     <use xlink:href="#DejaVuSans-73"/>
     <use x="52.099609" xlink:href="#DejaVuSans-65"/>
     <use x="113.623047" xlink:href="#DejaVuSans-3a"/>
     <use x="147.314453" xlink:href="#DejaVuSans-20"/>
     <use x="179.101562" xlink:href="#DejaVuSans-39"/>
     <use x="242.724609" xlink:href="#DejaVuSans-39"/>
     <use x="306.347656" xlink:href="#DejaVuSans-37"/>
     <use x="369.970703" xlink:href="#DejaVuSans-33"/>
    </g>
   </g>
   <g id="text_21">
    <!-- Other:270120 -->
    <defs>
     <path d="M 39.40625 66.21875 
Q 28.65625 66.21875 22.328125 58.203125 
Q 16.015625 50.203125 16.015625 36.375 
Q 16.015625 22.609375 22.328125 14.59375 
Q 28.65625 6.59375 39.40625 6.59375 
Q 50.140625 6.59375 56.421875 14.59375 
Q 62.703125 22.609375 62.703125 36.375 
Q 62.703125 50.203125 56.421875 58.203125 
Q 50.140625 66.21875 39.40625 66.21875 
z
M 39.40625 74.21875 
Q 54.734375 74.21875 63.90625 63.9375 
Q 73.09375 53.65625 73.09375 36.375 
Q 73.09375 19.140625 63.90625 8.859375 
Q 54.734375 -1.421875 39.40625 -1.421875 
Q 24.03125 -1.421875 14.8125 8.828125 
Q 5.609375 19.09375 5.609375 36.375 
Q 5.609375 53.65625 14.8125 63.9375 
Q 24.03125 74.21875 39.40625 74.21875 
z
" id="DejaVuSans-4f"/>
    </defs>
    <g transform="translate(443.964046 272.069654)scale(0.1 -0.1)">
     <use xlink:href="#DejaVuSans-4f"/>
     <use x="78.710938" xlink:href="#DejaVuSans-74"/>
     <use x="117.919922" xlink:href="#DejaVuSans-68"/>
     <use x="181.298828" xlink:href="#DejaVuSans-65"/>
     <use x="242.822266" xlink:href="#DejaVuSans-72"/>
     <use x="283.919922" xlink:href="#DejaVuSans-3a"/>
     <use x="317.611328" xlink:href="#DejaVuSans-32"/>
     <use x="381.234375" xlink:href="#DejaVuSans-37"/>
     <use x="444.857422" xlink:href="#DejaVuSans-30"/>
     <use x="508.480469" xlink:href="#DejaVuSans-31"/>
     <use x="572.103516" xlink:href="#DejaVuSans-32"/>
     <use x="635.726562" xlink:href="#DejaVuSans-30"/>
    </g>
   </g>
   <g id="legend_1">
    <g id="patch_23">
     <path d="M 558.936 30.506125 
L 578.936 30.506125 
L 578.936 23.506125 
L 558.936 23.506125 
z
" style="fill:#a6cee3;"/>
    </g>
    <g id="text_22">
     <!-- us: 345521 -->
     <g transform="translate(586.936 30.506125)scale(0.1 -0.1)">
      <use xlink:href="#DejaVuSans-75"/>
      <use x="63.378906" xlink:href="#DejaVuSans-73"/>
      <use x="115.478516" xlink:href="#DejaVuSans-3a"/>
      <use x="149.169922" xlink:href="#DejaVuSans-20"/>
      <use x="180.957031" xlink:href="#DejaVuSans-33"/>
      <use x="244.580078" xlink:href="#DejaVuSans-34"/>
      <use x="308.203125" xlink:href="#DejaVuSans-35"/>
      <use x="371.826172" xlink:href="#DejaVuSans-35"/>
      <use x="435.449219" xlink:href="#DejaVuSans-32"/>
      <use x="499.072266" xlink:href="#DejaVuSans-31"/>
     </g>
    </g>
    <g id="patch_24">
     <path d="M 558.936 45.18425 
L 578.936 45.18425 
L 578.936 38.18425 
L 558.936 38.18425 
z
" style="fill:#a6cee3;"/>
    </g>
    <g id="text_23">
     <!-- de: 210632 -->
     <g transform="translate(586.936 45.18425)scale(0.1 -0.1)">
      <use xlink:href="#DejaVuSans-64"/>
      <use x="63.476562" xlink:href="#DejaVuSans-65"/>
      <use x="125" xlink:href="#DejaVuSans-3a"/>
      <use x="158.691406" xlink:href="#DejaVuSans-20"/>
      <use x="190.478516" xlink:href="#DejaVuSans-32"/>
      <use x="254.101562" xlink:href="#DejaVuSans-31"/>
      <use x="317.724609" xlink:href="#DejaVuSans-30"/>
      <use x="381.347656" xlink:href="#DejaVuSans-36"/>
      <use x="444.970703" xlink:href="#DejaVuSans-33"/>
      <use x="508.59375" xlink:href="#DejaVuSans-32"/>
     </g>
    </g>
    <g id="patch_25">
     <path d="M 558.936 59.862375 
L 578.936 59.862375 
L 578.936 52.862375 
L 558.936 52.862375 
z
" style="fill:#1f78b4;"/>
    </g>
    <g id="text_24">
     <!-- cn: 85613 -->
     <g transform="translate(586.936 59.862375)scale(0.1 -0.1)">
      <use xlink:href="#DejaVuSans-63"/>
      <use x="54.980469" xlink:href="#DejaVuSans-6e"/>
      <use x="118.359375" xlink:href="#DejaVuSans-3a"/>
      <use x="152.050781" xlink:href="#DejaVuSans-20"/>
      <use x="183.837891" xlink:href="#DejaVuSans-38"/>
      <use x="247.460938" xlink:href="#DejaVuSans-35"/>
      <use x="311.083984" xlink:href="#DejaVuSans-36"/>
      <use x="374.707031" xlink:href="#DejaVuSans-31"/>
      <use x="438.330078" xlink:href="#DejaVuSans-33"/>
     </g>
    </g>
    <g id="patch_26">
     <path d="M 558.936 74.5405 
L 578.936 74.5405 
L 578.936 67.5405 
L 558.936 67.5405 
z
" style="fill:#1f78b4;"/>
    </g>
    <g id="text_25">
     <!-- fr: 46574 -->
     <g transform="translate(586.936 74.5405)scale(0.1 -0.1)">
      <use xlink:href="#DejaVuSans-66"/>
      <use x="35.205078" xlink:href="#DejaVuSans-72"/>
      <use x="76.302734" xlink:href="#DejaVuSans-3a"/>
      <use x="109.994141" xlink:href="#DejaVuSans-20"/>
      <use x="141.78125" xlink:href="#DejaVuSans-34"/>
      <use x="205.404297" xlink:href="#DejaVuSans-36"/>
      <use x="269.027344" xlink:href="#DejaVuSans-35"/>
      <use x="332.650391" xlink:href="#DejaVuSans-37"/>
      <use x="396.273438" xlink:href="#DejaVuSans-34"/>
     </g>
    </g>
    <g id="patch_27">
     <path d="M 558.936 89.218625 
L 578.936 89.218625 
L 578.936 82.218625 
L 558.936 82.218625 
z
" style="fill:#b2df8a;"/>
    </g>
    <g id="text_26">
     <!-- gb: 33484 -->
     <g transform="translate(586.936 89.218625)scale(0.1 -0.1)">
      <use xlink:href="#DejaVuSans-67"/>
      <use x="63.476562" xlink:href="#DejaVuSans-62"/>
      <use x="126.953125" xlink:href="#DejaVuSans-3a"/>
      <use x="160.644531" xlink:href="#DejaVuSans-20"/>
      <use x="192.431641" xlink:href="#DejaVuSans-33"/>
      <use x="256.054688" xlink:href="#DejaVuSans-33"/>
      <use x="319.677734" xlink:href="#DejaVuSans-34"/>
      <use x="383.300781" xlink:href="#DejaVuSans-38"/>
      <use x="446.923828" xlink:href="#DejaVuSans-34"/>
     </g>
    </g>
    <g id="patch_28">
     <path d="M 558.936 103.89675 
L 578.936 103.89675 
L 578.936 96.89675 
L 558.936 96.89675 
z
" style="fill:#33a02c;"/>
    </g>
    <g id="text_27">
     <!-- it: 21481 -->
     <g transform="translate(586.936 103.89675)scale(0.1 -0.1)">
      <use xlink:href="#DejaVuSans-69"/>
      <use x="27.783203" xlink:href="#DejaVuSans-74"/>
      <use x="66.992188" xlink:href="#DejaVuSans-3a"/>
      <use x="100.683594" xlink:href="#DejaVuSans-20"/>
      <use x="132.470703" xlink:href="#DejaVuSans-32"/>
      <use x="196.09375" xlink:href="#DejaVuSans-31"/>
      <use x="259.716797" xlink:href="#DejaVuSans-34"/>
      <use x="323.339844" xlink:href="#DejaVuSans-38"/>
      <use x="386.962891" xlink:href="#DejaVuSans-31"/>
     </g>
    </g>
    <g id="patch_29">
     <path d="M 558.936 118.574875 
L 578.936 118.574875 
L 578.936 111.574875 
L 558.936 111.574875 
z
" style="fill:#33a02c;"/>
    </g>
    <g id="text_28">
     <!-- ru: 19738 -->
     <g transform="translate(586.936 118.574875)scale(0.1 -0.1)">
      <use xlink:href="#DejaVuSans-72"/>
      <use x="41.113281" xlink:href="#DejaVuSans-75"/>
      <use x="104.492188" xlink:href="#DejaVuSans-3a"/>
      <use x="138.183594" xlink:href="#DejaVuSans-20"/>
      <use x="169.970703" xlink:href="#DejaVuSans-31"/>
      <use x="233.59375" xlink:href="#DejaVuSans-39"/>
      <use x="297.216797" xlink:href="#DejaVuSans-37"/>
      <use x="360.839844" xlink:href="#DejaVuSans-33"/>
      <use x="424.462891" xlink:href="#DejaVuSans-38"/>
     </g>
    </g>
    <g id="patch_30">
     <path d="M 558.936 133.253 
L 578.936 133.253 
L 578.936 126.253 
L 558.936 126.253 
z
" style="fill:#fb9a99;"/>
    </g>
    <g id="text_29">
     <!-- nl: 19407 -->
     <g transform="translate(586.936 133.253)scale(0.1 -0.1)">
      <use xlink:href="#DejaVuSans-6e"/>
      <use x="63.378906" xlink:href="#DejaVuSans-6c"/>
      <use x="91.162109" xlink:href="#DejaVuSans-3a"/>
      <use x="124.853516" xlink:href="#DejaVuSans-20"/>
      <use x="156.640625" xlink:href="#DejaVuSans-31"/>
      <use x="220.263672" xlink:href="#DejaVuSans-39"/>
      <use x="283.886719" xlink:href="#DejaVuSans-34"/>
      <use x="347.509766" xlink:href="#DejaVuSans-30"/>
      <use x="411.132812" xlink:href="#DejaVuSans-37"/>
     </g>
    </g>
    <g id="patch_31">
     <path d="M 558.936 147.931125 
L 578.936 147.931125 
L 578.936 140.931125 
L 558.936 140.931125 
z
" style="fill:#fb9a99;"/>
    </g>
    <g id="text_30">
     <!-- br: 19387 -->
     <g transform="translate(586.936 147.931125)scale(0.1 -0.1)">
      <use xlink:href="#DejaVuSans-62"/>
      <use x="63.476562" xlink:href="#DejaVuSans-72"/>
      <use x="104.574219" xlink:href="#DejaVuSans-3a"/>
      <use x="138.265625" xlink:href="#DejaVuSans-20"/>
      <use x="170.052734" xlink:href="#DejaVuSans-31"/>
      <use x="233.675781" xlink:href="#DejaVuSans-39"/>
      <use x="297.298828" xlink:href="#DejaVuSans-33"/>
      <use x="360.921875" xlink:href="#DejaVuSans-38"/>
      <use x="424.544922" xlink:href="#DejaVuSans-37"/>
     </g>
    </g>
    <g id="patch_32">
     <path d="M 558.936 162.60925 
L 578.936 162.60925 
L 578.936 155.60925 
L 558.936 155.60925 
z
" style="fill:#e31a1c;"/>
    </g>
    <g id="text_31">
     <!-- ca: 18138 -->
     <g transform="translate(586.936 162.60925)scale(0.1 -0.1)">
      <use xlink:href="#DejaVuSans-63"/>
      <use x="54.980469" xlink:href="#DejaVuSans-61"/>
      <use x="116.259766" xlink:href="#DejaVuSans-3a"/>
      <use x="149.951172" xlink:href="#DejaVuSans-20"/>
      <use x="181.738281" xlink:href="#DejaVuSans-31"/>
      <use x="245.361328" xlink:href="#DejaVuSans-38"/>
      <use x="308.984375" xlink:href="#DejaVuSans-31"/>
      <use x="372.607422" xlink:href="#DejaVuSans-33"/>
      <use x="436.230469" xlink:href="#DejaVuSans-38"/>
     </g>
    </g>
    <g id="patch_33">
     <path d="M 558.936 177.287375 
L 578.936 177.287375 
L 578.936 170.287375 
L 558.936 170.287375 
z
" style="fill:#fdbf6f;"/>
    </g>
    <g id="text_32">
     <!-- eu: 17168 -->
     <g transform="translate(586.936 177.287375)scale(0.1 -0.1)">
      <use xlink:href="#DejaVuSans-65"/>
      <use x="61.523438" xlink:href="#DejaVuSans-75"/>
      <use x="124.902344" xlink:href="#DejaVuSans-3a"/>
      <use x="158.59375" xlink:href="#DejaVuSans-20"/>
      <use x="190.380859" xlink:href="#DejaVuSans-31"/>
      <use x="254.003906" xlink:href="#DejaVuSans-37"/>
      <use x="317.626953" xlink:href="#DejaVuSans-31"/>
      <use x="381.25" xlink:href="#DejaVuSans-36"/>
      <use x="444.873047" xlink:href="#DejaVuSans-38"/>
     </g>
    </g>
    <g id="patch_34">
     <path d="M 558.936 191.9655 
L 578.936 191.9655 
L 578.936 184.9655 
L 558.936 184.9655 
z
" style="fill:#fdbf6f;"/>
    </g>
    <g id="text_33">
     <!-- pt: 15658 -->
     <g transform="translate(586.936 191.9655)scale(0.1 -0.1)">
      <use xlink:href="#DejaVuSans-70"/>
      <use x="63.476562" xlink:href="#DejaVuSans-74"/>
      <use x="102.685547" xlink:href="#DejaVuSans-3a"/>
      <use x="136.376953" xlink:href="#DejaVuSans-20"/>
      <use x="168.164062" xlink:href="#DejaVuSans-31"/>
      <use x="231.787109" xlink:href="#DejaVuSans-35"/>
      <use x="295.410156" xlink:href="#DejaVuSans-36"/>
      <use x="359.033203" xlink:href="#DejaVuSans-35"/>
      <use x="422.65625" xlink:href="#DejaVuSans-38"/>
     </g>
    </g>
    <g id="patch_35">
     <path d="M 558.936 206.643625 
L 578.936 206.643625 
L 578.936 199.643625 
L 558.936 199.643625 
z
" style="fill:#ff7f00;"/>
    </g>
    <g id="text_34">
     <!-- jp: 15473 -->
     <g transform="translate(586.936 206.643625)scale(0.1 -0.1)">
      <use xlink:href="#DejaVuSans-6a"/>
      <use x="27.783203" xlink:href="#DejaVuSans-70"/>
      <use x="91.259766" xlink:href="#DejaVuSans-3a"/>
      <use x="124.951172" xlink:href="#DejaVuSans-20"/>
      <use x="156.738281" xlink:href="#DejaVuSans-31"/>
      <use x="220.361328" xlink:href="#DejaVuSans-35"/>
      <use x="283.984375" xlink:href="#DejaVuSans-34"/>
      <use x="347.607422" xlink:href="#DejaVuSans-37"/>
      <use x="411.230469" xlink:href="#DejaVuSans-33"/>
     </g>
    </g>
    <g id="patch_36">
     <path d="M 558.936 221.32175 
L 578.936 221.32175 
L 578.936 214.32175 
L 558.936 214.32175 
z
" style="fill:#ff7f00;"/>
    </g>
    <g id="text_35">
     <!-- ua: 15028 -->
     <g transform="translate(586.936 221.32175)scale(0.1 -0.1)">
      <use xlink:href="#DejaVuSans-75"/>
      <use x="63.378906" xlink:href="#DejaVuSans-61"/>
      <use x="124.658203" xlink:href="#DejaVuSans-3a"/>
      <use x="158.349609" xlink:href="#DejaVuSans-20"/>
      <use x="190.136719" xlink:href="#DejaVuSans-31"/>
      <use x="253.759766" xlink:href="#DejaVuSans-35"/>
      <use x="317.382812" xlink:href="#DejaVuSans-30"/>
      <use x="381.005859" xlink:href="#DejaVuSans-32"/>
      <use x="444.628906" xlink:href="#DejaVuSans-38"/>
     </g>
    </g>
    <g id="patch_37">
     <path d="M 558.936 235.999875 
L 578.936 235.999875 
L 578.936 228.999875 
L 558.936 228.999875 
z
" style="fill:#cab2d6;"/>
    </g>
    <g id="text_36">
     <!-- es: 14807 -->
     <g transform="translate(586.936 235.999875)scale(0.1 -0.1)">
      <use xlink:href="#DejaVuSans-65"/>
      <use x="61.523438" xlink:href="#DejaVuSans-73"/>
      <use x="113.623047" xlink:href="#DejaVuSans-3a"/>
      <use x="147.314453" xlink:href="#DejaVuSans-20"/>
      <use x="179.101562" xlink:href="#DejaVuSans-31"/>
      <use x="242.724609" xlink:href="#DejaVuSans-34"/>
      <use x="306.347656" xlink:href="#DejaVuSans-38"/>
      <use x="369.970703" xlink:href="#DejaVuSans-30"/>
      <use x="433.59375" xlink:href="#DejaVuSans-37"/>
     </g>
    </g>
    <g id="patch_38">
     <path d="M 558.936 250.678 
L 578.936 250.678 
L 578.936 243.678 
L 558.936 243.678 
z
" style="fill:#6a3d9a;"/>
    </g>
    <g id="text_37">
     <!-- ph: 14165 -->
     <g transform="translate(586.936 250.678)scale(0.1 -0.1)">
      <use xlink:href="#DejaVuSans-70"/>
      <use x="63.476562" xlink:href="#DejaVuSans-68"/>
      <use x="126.855469" xlink:href="#DejaVuSans-3a"/>
      <use x="160.546875" xlink:href="#DejaVuSans-20"/>
      <use x="192.333984" xlink:href="#DejaVuSans-31"/>
      <use x="255.957031" xlink:href="#DejaVuSans-34"/>
      <use x="319.580078" xlink:href="#DejaVuSans-31"/>
      <use x="383.203125" xlink:href="#DejaVuSans-36"/>
      <use x="446.826172" xlink:href="#DejaVuSans-35"/>
     </g>
    </g>
    <g id="patch_39">
     <path d="M 558.936 265.356125 
L 578.936 265.356125 
L 578.936 258.356125 
L 558.936 258.356125 
z
" style="fill:#6a3d9a;"/>
    </g>
    <g id="text_38">
     <!-- id: 14074 -->
     <g transform="translate(586.936 265.356125)scale(0.1 -0.1)">
      <use xlink:href="#DejaVuSans-69"/>
      <use x="27.783203" xlink:href="#DejaVuSans-64"/>
      <use x="91.259766" xlink:href="#DejaVuSans-3a"/>
      <use x="124.951172" xlink:href="#DejaVuSans-20"/>
      <use x="156.738281" xlink:href="#DejaVuSans-31"/>
      <use x="220.361328" xlink:href="#DejaVuSans-34"/>
      <use x="283.984375" xlink:href="#DejaVuSans-30"/>
      <use x="347.607422" xlink:href="#DejaVuSans-37"/>
      <use x="411.230469" xlink:href="#DejaVuSans-34"/>
     </g>
    </g>
    <g id="patch_40">
     <path d="M 558.936 280.03425 
L 578.936 280.03425 
L 578.936 273.03425 
L 558.936 273.03425 
z
" style="fill:#ffff99;"/>
    </g>
    <g id="text_39">
     <!-- ng: 12624 -->
     <g transform="translate(586.936 280.03425)scale(0.1 -0.1)">
      <use xlink:href="#DejaVuSans-6e"/>
      <use x="63.378906" xlink:href="#DejaVuSans-67"/>
      <use x="126.855469" xlink:href="#DejaVuSans-3a"/>
      <use x="160.546875" xlink:href="#DejaVuSans-20"/>
      <use x="192.333984" xlink:href="#DejaVuSans-31"/>
      <use x="255.957031" xlink:href="#DejaVuSans-32"/>
      <use x="319.580078" xlink:href="#DejaVuSans-36"/>
      <use x="383.203125" xlink:href="#DejaVuSans-32"/>
      <use x="446.826172" xlink:href="#DejaVuSans-34"/>
     </g>
    </g>
    <g id="patch_41">
     <path d="M 558.936 294.712375 
L 578.936 294.712375 
L 578.936 287.712375 
L 558.936 287.712375 
z
" style="fill:#ffff99;"/>
    </g>
    <g id="text_40">
     <!-- in: 11983 -->
     <g transform="translate(586.936 294.712375)scale(0.1 -0.1)">
      <use xlink:href="#DejaVuSans-69"/>
      <use x="27.783203" xlink:href="#DejaVuSans-6e"/>
      <use x="91.162109" xlink:href="#DejaVuSans-3a"/>
      <use x="124.853516" xlink:href="#DejaVuSans-20"/>
      <use x="156.640625" xlink:href="#DejaVuSans-31"/>
      <use x="220.263672" xlink:href="#DejaVuSans-31"/>
      <use x="283.886719" xlink:href="#DejaVuSans-39"/>
      <use x="347.509766" xlink:href="#DejaVuSans-38"/>
      <use x="411.132812" xlink:href="#DejaVuSans-33"/>
     </g>
    </g>
    <g id="patch_42">
     <path d="M 558.936 309.3905 
L 578.936 309.3905 
L 578.936 302.3905 
L 558.936 302.3905 
z
" style="fill:#b15928;"/>
    </g>
    <g id="text_41">
     <!-- se: 9973 -->
     <g transform="translate(586.936 309.3905)scale(0.1 -0.1)">
      <use xlink:href="#DejaVuSans-73"/>
      <use x="52.099609" xlink:href="#DejaVuSans-65"/>
      <use x="113.623047" xlink:href="#DejaVuSans-3a"/>
      <use x="147.314453" xlink:href="#DejaVuSans-20"/>
      <use x="179.101562" xlink:href="#DejaVuSans-39"/>
      <use x="242.724609" xlink:href="#DejaVuSans-39"/>
      <use x="306.347656" xlink:href="#DejaVuSans-37"/>
      <use x="369.970703" xlink:href="#DejaVuSans-33"/>
     </g>
    </g>
    <g id="patch_43">
     <path d="M 558.936 324.068625 
L 578.936 324.068625 
L 578.936 317.068625 
L 558.936 317.068625 
z
" style="fill:#b15928;"/>
    </g>
    <g id="text_42">
     <!-- Other:270120 -->
     <g transform="translate(586.936 324.068625)scale(0.1 -0.1)">
      <use xlink:href="#DejaVuSans-4f"/>
      <use x="78.710938" xlink:href="#DejaVuSans-74"/>
      <use x="117.919922" xlink:href="#DejaVuSans-68"/>
      <use x="181.298828" xlink:href="#DejaVuSans-65"/>
      <use x="242.822266" xlink:href="#DejaVuSans-72"/>
      <use x="283.919922" xlink:href="#DejaVuSans-3a"/>
      <use x="317.611328" xlink:href="#DejaVuSans-32"/>
      <use x="381.234375" xlink:href="#DejaVuSans-37"/>
      <use x="444.857422" xlink:href="#DejaVuSans-30"/>
      <use x="508.480469" xlink:href="#DejaVuSans-31"/>
      <use x="572.103516" xlink:href="#DejaVuSans-32"/>
      <use x="635.726562" xlink:href="#DejaVuSans-30"/>
     </g>
    </g>
   </g>
  </g>
 </g>
</svg>
