<?xml version="1.0" encoding="utf-8" standalone="no"?>
<!DOCTYPE svg PUBLIC "-//W3C//DTD SVG 1.1//EN"
  "http://www.w3.org/Graphics/SVG/1.1/DTD/svg11.dtd">
<!-- Created with matplotlib (http://matplotlib.org/) -->
<svg height="432pt" version="1.1" viewBox="0 0 864 432" width="864pt" xmlns="http://www.w3.org/2000/svg" xmlns:xlink="http://www.w3.org/1999/xlink">
 <defs>
  <style type="text/css">
*{stroke-linecap:butt;stroke-linejoin:round;stroke-miterlimit:100000;}
  </style>
 </defs>
 <g id="figure_1">
  <g id="patch_1">
   <path d="M 0 432 
L 864 432 
L 864 0 
L 0 0 
z
" style="fill:#ffffff;"/>
  </g>
  <g id="axes_1">
   <g id="patch_2">
    <path d="M 467.208 216 
C 467.208 185.363315 457.023468 155.578968 438.264848 131.356651 
C 419.506228 107.134334 393.21728 89.821816 363.554982 82.156665 
L 328.968 216 
L 467.208 216 
z
" style="fill:#a6cee3;stroke:#000000;stroke-linejoin:miter;"/>
   </g>
   <g id="patch_3">
    <path d="M 363.554982 82.156665 
C 337.386513 75.394368 309.800582 76.452785 284.227194 85.200314 
C 258.653805 93.947843 236.198711 110.006254 219.653953 131.378863 
L 328.968 216 
L 363.554982 82.156665 
z
" style="fill:#60a1cb;stroke:#000000;stroke-linejoin:miter;"/>
   </g>
   <g id="patch_4">
    <path d="M 219.653953 131.378863 
C 211.405294 142.034527 204.758812 153.83925 199.925679 166.417977 
C 195.092546 178.996704 192.124494 192.214792 191.115824 205.652282 
L 328.968 216 
L 219.653953 131.378863 
z
" style="fill:#2b80b1;stroke:#000000;stroke-linejoin:miter;"/>
   </g>
   <g id="patch_5">
    <path d="M 191.115824 205.652282 
C 190.641702 211.968534 190.602246 218.30991 190.997737 224.631572 
C 191.393227 230.953234 192.222728 237.240247 193.480376 243.448157 
L 328.968 216 
L 191.115824 205.652282 
z
" style="fill:#7dba99;stroke:#000000;stroke-linejoin:miter;"/>
   </g>
   <g id="patch_6">
    <path d="M 193.480376 243.448157 
C 194.383667 247.906917 195.506507 252.318371 196.844798 256.666412 
C 198.183088 261.014452 199.735197 265.29378 201.495459 269.488772 
L 328.968 216 
L 193.480376 243.448157 
z
" style="fill:#99d277;stroke:#000000;stroke-linejoin:miter;"/>
   </g>
   <g id="patch_7">
    <path d="M 201.495459 269.488772 
C 202.711679 272.387226 204.026403 275.243355 205.437337 278.052179 
C 206.848271 280.861002 208.354595 283.620887 209.953681 286.327018 
L 328.968 216 
L 201.495459 269.488772 
z
" style="fill:#51af42;stroke:#000000;stroke-linejoin:miter;"/>
   </g>
   <g id="patch_8">
    <path d="M 209.953681 286.327018 
C 211.431143 288.827325 212.98703 291.280453 214.619025 293.682749 
C 216.251019 296.085044 217.958312 298.435315 219.73836 300.730061 
L 328.968 216 
L 209.953681 286.327018 
z
" style="fill:#6b9e4a;stroke:#000000;stroke-linejoin:miter;"/>
   </g>
   <g id="patch_9">
    <path d="M 219.73836 300.730061 
C 221.241603 302.667965 222.796152 304.565522 224.400357 306.420715 
C 226.004562 308.275908 227.657853 310.088081 229.358476 311.855309 
L 328.968 216 
L 219.73836 300.730061 
z
" style="fill:#db9b87;stroke:#000000;stroke-linejoin:miter;"/>
   </g>
   <g id="patch_10">
    <path d="M 229.358476 311.855309 
C 230.964031 313.523746 232.611251 315.151581 234.298578 316.737273 
C 235.985904 318.322964 237.712805 319.866012 239.477644 321.364955 
L 328.968 216 
L 229.358476 311.855309 
z
" style="fill:#f16767;stroke:#000000;stroke-linejoin:miter;"/>
   </g>
   <g id="patch_11">
    <path d="M 239.477644 321.364955 
C 241.168689 322.801222 242.894065 324.19657 244.652274 325.549787 
C 246.410482 326.903004 248.201014 328.213698 250.022312 329.480729 
L 328.968 216 
L 239.477644 321.364955 
z
" style="fill:#e41f21;stroke:#000000;stroke-linejoin:miter;"/>
   </g>
   <g id="patch_12">
    <path d="M 250.022312 329.480729 
C 251.784146 330.706393 253.574285 331.890861 255.391273 333.03317 
C 257.20826 334.175478 259.051604 335.275318 260.919804 336.331794 
L 328.968 216 
L 250.022312 329.480729 
z
" style="fill:#f17047;stroke:#000000;stroke-linejoin:miter;"/>
   </g>
   <g id="patch_13">
    <path d="M 260.919804 336.331794 
C 262.772625 337.379573 264.649399 338.384419 266.548625 339.345528 
C 268.44785 340.306636 270.369021 341.223752 272.310599 342.09614 
L 328.968 216 
L 260.919804 336.331794 
z
" style="fill:#fdbc6b;stroke:#000000;stroke-linejoin:miter;"/>
   </g>
   <g id="patch_14">
    <path d="M 272.310599 342.09614 
C 274.11971 342.909008 275.946104 343.682848 277.788514 344.417124 
C 279.630924 345.1514 281.488922 345.845941 283.361219 346.500265 
L 328.968 216 
L 272.310599 342.09614 
z
" style="fill:#fe992c;stroke:#000000;stroke-linejoin:miter;"/>
   </g>
   <g id="patch_15">
    <path d="M 283.361219 346.500265 
C 285.056898 347.092865 286.763965 347.652359 288.48145 348.178428 
C 290.198934 348.704497 291.926508 349.197042 293.663188 349.655781 
L 328.968 216 
L 283.361219 346.500265 
z
" style="fill:#f68722;stroke:#000000;stroke-linejoin:miter;"/>
   </g>
   <g id="patch_16">
    <path d="M 293.663188 349.655781 
C 295.395598 350.113393 297.136742 350.537278 298.885631 350.927198 
C 300.634521 351.317117 302.390827 351.672997 304.153552 351.994635 
L 328.968 216 
L 293.663188 349.655781 
z
" style="fill:#d9a49a;stroke:#000000;stroke-linejoin:miter;"/>
   </g>
   <g id="patch_17">
    <path d="M 304.153552 351.994635 
C 305.701987 352.277172 307.255134 352.533243 308.812314 352.762736 
C 310.369494 352.992228 311.93048 353.195109 313.49459 353.371289 
L 328.968 216 
L 304.153552 351.994635 
z
" style="fill:#af91c5;stroke:#000000;stroke-linejoin:miter;"/>
   </g>
   <g id="patch_18">
    <path d="M 313.49459 353.371289 
C 315.01955 353.54306 316.547266 353.689426 318.0771 353.810326 
C 319.606935 353.931226 321.138676 354.026643 322.671688 354.096539 
L 328.968 216 
L 313.49459 353.371289 
z
" style="fill:#7d54a6;stroke:#000000;stroke-linejoin:miter;"/>
   </g>
   <g id="patch_19">
    <path d="M 322.671688 354.096539 
C 324.10393 354.16184 325.537102 354.204856 326.970682 354.22557 
C 328.404262 354.246285 329.838078 354.244697 331.271609 354.220805 
L 328.968 216 
L 322.671688 354.096539 
z
" style="fill:#a0839a;stroke:#000000;stroke-linejoin:miter;"/>
   </g>
   <g id="patch_20">
    <path d="M 331.271609 354.220805 
C 332.648616 354.197856 334.025203 354.15433 335.40091 354.090243 
C 336.776616 354.026156 338.151288 353.941515 339.524465 353.836347 
L 328.968 216 
L 331.271609 354.220805 
z
" style="fill:#f3f099;stroke:#000000;stroke-linejoin:miter;"/>
   </g>
   <g id="patch_21">
    <path d="M 339.524465 353.836347 
C 340.863117 353.733824 342.200205 353.611805 343.535303 353.470329 
C 344.870401 353.328853 346.203367 353.167934 347.533776 352.987626 
L 328.968 216 
L 339.524465 353.836347 
z
" style="fill:#d9af62;stroke:#000000;stroke-linejoin:miter;"/>
   </g>
   <g id="patch_22">
    <path d="M 347.533776 352.987626 
C 380.669448 348.496786 411.076021 332.132299 433.075713 306.949886 
C 455.075404 281.767473 467.208002 249.438598 467.208 215.999992 
L 328.968 216 
L 347.533776 352.987626 
z
" style="fill:#b15928;stroke:#000000;stroke-linejoin:miter;"/>
   </g>
   <g id="matplotlib.axis_1"/>
   <g id="matplotlib.axis_2"/>
   <g id="text_1">
    <!-- de: 171891 -->
    <defs>
     <path id="BitstreamVeraSans-Roman-20"/>
     <path d="M 12.40625 8.296875 
L 28.515625 8.296875 
L 28.515625 63.921875 
L 10.984375 60.40625 
L 10.984375 69.390625 
L 28.421875 72.90625 
L 38.28125 72.90625 
L 38.28125 8.296875 
L 54.390625 8.296875 
L 54.390625 0 
L 12.40625 0 
z
" id="BitstreamVeraSans-Roman-31"/>
     <path d="M 8.203125 72.90625 
L 55.078125 72.90625 
L 55.078125 68.703125 
L 28.609375 0 
L 18.3125 0 
L 43.21875 64.59375 
L 8.203125 64.59375 
z
" id="BitstreamVeraSans-Roman-37"/>
     <path d="M 31.78125 34.625 
Q 24.75 34.625 20.71875 30.859375 
Q 16.703125 27.09375 16.703125 20.515625 
Q 16.703125 13.921875 20.71875 10.15625 
Q 24.75 6.390625 31.78125 6.390625 
Q 38.8125 6.390625 42.859375 10.171875 
Q 46.921875 13.96875 46.921875 20.515625 
Q 46.921875 27.09375 42.890625 30.859375 
Q 38.875 34.625 31.78125 34.625 
M 21.921875 38.8125 
Q 15.578125 40.375 12.03125 44.71875 
Q 8.5 49.078125 8.5 55.328125 
Q 8.5 64.0625 14.71875 69.140625 
Q 20.953125 74.21875 31.78125 74.21875 
Q 42.671875 74.21875 48.875 69.140625 
Q 55.078125 64.0625 55.078125 55.328125 
Q 55.078125 49.078125 51.53125 44.71875 
Q 48 40.375 41.703125 38.8125 
Q 48.828125 37.15625 52.796875 32.3125 
Q 56.78125 27.484375 56.78125 20.515625 
Q 56.78125 9.90625 50.3125 4.234375 
Q 43.84375 -1.421875 31.78125 -1.421875 
Q 19.734375 -1.421875 13.25 4.234375 
Q 6.78125 9.90625 6.78125 20.515625 
Q 6.78125 27.484375 10.78125 32.3125 
Q 14.796875 37.15625 21.921875 38.8125 
M 18.3125 54.390625 
Q 18.3125 48.734375 21.84375 45.5625 
Q 25.390625 42.390625 31.78125 42.390625 
Q 38.140625 42.390625 41.71875 45.5625 
Q 45.3125 48.734375 45.3125 54.390625 
Q 45.3125 60.0625 41.71875 63.234375 
Q 38.140625 66.40625 31.78125 66.40625 
Q 25.390625 66.40625 21.84375 63.234375 
Q 18.3125 60.0625 18.3125 54.390625 
" id="BitstreamVeraSans-Roman-38"/>
     <path d="M 10.984375 1.515625 
L 10.984375 10.5 
Q 14.703125 8.734375 18.5 7.8125 
Q 22.3125 6.890625 25.984375 6.890625 
Q 35.75 6.890625 40.890625 13.453125 
Q 46.046875 20.015625 46.78125 33.40625 
Q 43.953125 29.203125 39.59375 26.953125 
Q 35.25 24.703125 29.984375 24.703125 
Q 19.046875 24.703125 12.671875 31.3125 
Q 6.296875 37.9375 6.296875 49.421875 
Q 6.296875 60.640625 12.9375 67.421875 
Q 19.578125 74.21875 30.609375 74.21875 
Q 43.265625 74.21875 49.921875 64.515625 
Q 56.59375 54.828125 56.59375 36.375 
Q 56.59375 19.140625 48.40625 8.859375 
Q 40.234375 -1.421875 26.421875 -1.421875 
Q 22.703125 -1.421875 18.890625 -0.6875 
Q 15.09375 0.046875 10.984375 1.515625 
M 30.609375 32.421875 
Q 37.25 32.421875 41.125 36.953125 
Q 45.015625 41.5 45.015625 49.421875 
Q 45.015625 57.28125 41.125 61.84375 
Q 37.25 66.40625 30.609375 66.40625 
Q 23.96875 66.40625 20.09375 61.84375 
Q 16.21875 57.28125 16.21875 49.421875 
Q 16.21875 41.5 20.09375 36.953125 
Q 23.96875 32.421875 30.609375 32.421875 
" id="BitstreamVeraSans-Roman-39"/>
     <path d="M 11.71875 12.40625 
L 22.015625 12.40625 
L 22.015625 0 
L 11.71875 0 
z
M 11.71875 51.703125 
L 22.015625 51.703125 
L 22.015625 39.3125 
L 11.71875 39.3125 
z
" id="BitstreamVeraSans-Roman-3a"/>
     <path d="M 56.203125 29.59375 
L 56.203125 25.203125 
L 14.890625 25.203125 
Q 15.484375 15.921875 20.484375 11.0625 
Q 25.484375 6.203125 34.421875 6.203125 
Q 39.59375 6.203125 44.453125 7.46875 
Q 49.3125 8.734375 54.109375 11.28125 
L 54.109375 2.78125 
Q 49.265625 0.734375 44.1875 -0.34375 
Q 39.109375 -1.421875 33.890625 -1.421875 
Q 20.796875 -1.421875 13.15625 6.1875 
Q 5.515625 13.8125 5.515625 26.8125 
Q 5.515625 40.234375 12.765625 48.109375 
Q 20.015625 56 32.328125 56 
Q 43.359375 56 49.78125 48.890625 
Q 56.203125 41.796875 56.203125 29.59375 
M 47.21875 32.234375 
Q 47.125 39.59375 43.09375 43.984375 
Q 39.0625 48.390625 32.421875 48.390625 
Q 24.90625 48.390625 20.390625 44.140625 
Q 15.875 39.890625 15.1875 32.171875 
z
" id="BitstreamVeraSans-Roman-65"/>
     <path d="M 45.40625 46.390625 
L 45.40625 75.984375 
L 54.390625 75.984375 
L 54.390625 0 
L 45.40625 0 
L 45.40625 8.203125 
Q 42.578125 3.328125 38.25 0.953125 
Q 33.9375 -1.421875 27.875 -1.421875 
Q 17.96875 -1.421875 11.734375 6.484375 
Q 5.515625 14.40625 5.515625 27.296875 
Q 5.515625 40.1875 11.734375 48.09375 
Q 17.96875 56 27.875 56 
Q 33.9375 56 38.25 53.625 
Q 42.578125 51.265625 45.40625 46.390625 
M 14.796875 27.296875 
Q 14.796875 17.390625 18.875 11.75 
Q 22.953125 6.109375 30.078125 6.109375 
Q 37.203125 6.109375 41.296875 11.75 
Q 45.40625 17.390625 45.40625 27.296875 
Q 45.40625 37.203125 41.296875 42.84375 
Q 37.203125 48.484375 30.078125 48.484375 
Q 22.953125 48.484375 18.875 42.84375 
Q 14.796875 37.203125 14.796875 27.296875 
" id="BitstreamVeraSans-Roman-64"/>
    </defs>
    <g transform="translate(481.98358735 100.810560871)scale(0.12 -0.12)">
     <use xlink:href="#BitstreamVeraSans-Roman-64"/>
     <use x="63.4765625" xlink:href="#BitstreamVeraSans-Roman-65"/>
     <use x="125.0" xlink:href="#BitstreamVeraSans-Roman-3a"/>
     <use x="158.69140625" xlink:href="#BitstreamVeraSans-Roman-20"/>
     <use x="190.478515625" xlink:href="#BitstreamVeraSans-Roman-31"/>
     <use x="254.1015625" xlink:href="#BitstreamVeraSans-Roman-37"/>
     <use x="317.724609375" xlink:href="#BitstreamVeraSans-Roman-31"/>
     <use x="381.34765625" xlink:href="#BitstreamVeraSans-Roman-38"/>
     <use x="444.970703125" xlink:href="#BitstreamVeraSans-Roman-39"/>
     <use x="508.59375" xlink:href="#BitstreamVeraSans-Roman-31"/>
    </g>
   </g>
   <g id="text_2">
    <!-- us: 151937 -->
    <defs>
     <path d="M 40.578125 39.3125 
Q 47.65625 37.796875 51.625 33 
Q 55.609375 28.21875 55.609375 21.1875 
Q 55.609375 10.40625 48.1875 4.484375 
Q 40.765625 -1.421875 27.09375 -1.421875 
Q 22.515625 -1.421875 17.65625 -0.515625 
Q 12.796875 0.390625 7.625 2.203125 
L 7.625 11.71875 
Q 11.71875 9.328125 16.59375 8.109375 
Q 21.484375 6.890625 26.8125 6.890625 
Q 36.078125 6.890625 40.9375 10.546875 
Q 45.796875 14.203125 45.796875 21.1875 
Q 45.796875 27.640625 41.28125 31.265625 
Q 36.765625 34.90625 28.71875 34.90625 
L 20.21875 34.90625 
L 20.21875 43.015625 
L 29.109375 43.015625 
Q 36.375 43.015625 40.234375 45.921875 
Q 44.09375 48.828125 44.09375 54.296875 
Q 44.09375 59.90625 40.109375 62.90625 
Q 36.140625 65.921875 28.71875 65.921875 
Q 24.65625 65.921875 20.015625 65.03125 
Q 15.375 64.15625 9.8125 62.3125 
L 9.8125 71.09375 
Q 15.4375 72.65625 20.34375 73.4375 
Q 25.25 74.21875 29.59375 74.21875 
Q 40.828125 74.21875 47.359375 69.109375 
Q 53.90625 64.015625 53.90625 55.328125 
Q 53.90625 49.265625 50.4375 45.09375 
Q 46.96875 40.921875 40.578125 39.3125 
" id="BitstreamVeraSans-Roman-33"/>
     <path d="M 8.5 21.578125 
L 8.5 54.6875 
L 17.484375 54.6875 
L 17.484375 21.921875 
Q 17.484375 14.15625 20.5 10.265625 
Q 23.53125 6.390625 29.59375 6.390625 
Q 36.859375 6.390625 41.078125 11.03125 
Q 45.3125 15.671875 45.3125 23.6875 
L 45.3125 54.6875 
L 54.296875 54.6875 
L 54.296875 0 
L 45.3125 0 
L 45.3125 8.40625 
Q 42.046875 3.421875 37.71875 1 
Q 33.40625 -1.421875 27.6875 -1.421875 
Q 18.265625 -1.421875 13.375 4.4375 
Q 8.5 10.296875 8.5 21.578125 
" id="BitstreamVeraSans-Roman-75"/>
     <path d="M 44.28125 53.078125 
L 44.28125 44.578125 
Q 40.484375 46.53125 36.375 47.5 
Q 32.28125 48.484375 27.875 48.484375 
Q 21.1875 48.484375 17.84375 46.4375 
Q 14.5 44.390625 14.5 40.28125 
Q 14.5 37.15625 16.890625 35.375 
Q 19.28125 33.59375 26.515625 31.984375 
L 29.59375 31.296875 
Q 39.15625 29.25 43.1875 25.515625 
Q 47.21875 21.78125 47.21875 15.09375 
Q 47.21875 7.46875 41.1875 3.015625 
Q 35.15625 -1.421875 24.609375 -1.421875 
Q 20.21875 -1.421875 15.453125 -0.5625 
Q 10.6875 0.296875 5.421875 2 
L 5.421875 11.28125 
Q 10.40625 8.6875 15.234375 7.390625 
Q 20.0625 6.109375 24.8125 6.109375 
Q 31.15625 6.109375 34.5625 8.28125 
Q 37.984375 10.453125 37.984375 14.40625 
Q 37.984375 18.0625 35.515625 20.015625 
Q 33.0625 21.96875 24.703125 23.78125 
L 21.578125 24.515625 
Q 13.234375 26.265625 9.515625 29.90625 
Q 5.8125 33.546875 5.8125 39.890625 
Q 5.8125 47.609375 11.28125 51.796875 
Q 16.75 56 26.8125 56 
Q 31.78125 56 36.171875 55.265625 
Q 40.578125 54.546875 44.28125 53.078125 
" id="BitstreamVeraSans-Roman-73"/>
     <path d="M 10.796875 72.90625 
L 49.515625 72.90625 
L 49.515625 64.59375 
L 19.828125 64.59375 
L 19.828125 46.734375 
Q 21.96875 47.46875 24.109375 47.828125 
Q 26.265625 48.1875 28.421875 48.1875 
Q 40.625 48.1875 47.75 41.5 
Q 54.890625 34.8125 54.890625 23.390625 
Q 54.890625 11.625 47.5625 5.09375 
Q 40.234375 -1.421875 26.90625 -1.421875 
Q 22.3125 -1.421875 17.546875 -0.640625 
Q 12.796875 0.140625 7.71875 1.703125 
L 7.71875 11.625 
Q 12.109375 9.234375 16.796875 8.0625 
Q 21.484375 6.890625 26.703125 6.890625 
Q 35.15625 6.890625 40.078125 11.328125 
Q 45.015625 15.765625 45.015625 23.390625 
Q 45.015625 31 40.078125 35.4375 
Q 35.15625 39.890625 26.703125 39.890625 
Q 22.75 39.890625 18.8125 39.015625 
Q 14.890625 38.140625 10.796875 36.28125 
z
" id="BitstreamVeraSans-Roman-35"/>
    </defs>
    <g transform="translate(198.808371233 36.1916896144)scale(0.12 -0.12)">
     <use xlink:href="#BitstreamVeraSans-Roman-75"/>
     <use x="63.37890625" xlink:href="#BitstreamVeraSans-Roman-73"/>
     <use x="115.478515625" xlink:href="#BitstreamVeraSans-Roman-3a"/>
     <use x="149.169921875" xlink:href="#BitstreamVeraSans-Roman-20"/>
     <use x="180.95703125" xlink:href="#BitstreamVeraSans-Roman-31"/>
     <use x="244.580078125" xlink:href="#BitstreamVeraSans-Roman-35"/>
     <use x="308.203125" xlink:href="#BitstreamVeraSans-Roman-31"/>
     <use x="371.826171875" xlink:href="#BitstreamVeraSans-Roman-39"/>
     <use x="435.44921875" xlink:href="#BitstreamVeraSans-Roman-33"/>
     <use x="499.072265625" xlink:href="#BitstreamVeraSans-Roman-37"/>
    </g>
   </g>
   <g id="text_3">
    <!-- cn: 76147 -->
    <defs>
     <path d="M 54.890625 33.015625 
L 54.890625 0 
L 45.90625 0 
L 45.90625 32.71875 
Q 45.90625 40.484375 42.875 44.328125 
Q 39.84375 48.1875 33.796875 48.1875 
Q 26.515625 48.1875 22.3125 43.546875 
Q 18.109375 38.921875 18.109375 30.90625 
L 18.109375 0 
L 9.078125 0 
L 9.078125 54.6875 
L 18.109375 54.6875 
L 18.109375 46.1875 
Q 21.34375 51.125 25.703125 53.5625 
Q 30.078125 56 35.796875 56 
Q 45.21875 56 50.046875 50.171875 
Q 54.890625 44.34375 54.890625 33.015625 
" id="BitstreamVeraSans-Roman-6e"/>
     <path d="M 33.015625 40.375 
Q 26.375 40.375 22.484375 35.828125 
Q 18.609375 31.296875 18.609375 23.390625 
Q 18.609375 15.53125 22.484375 10.953125 
Q 26.375 6.390625 33.015625 6.390625 
Q 39.65625 6.390625 43.53125 10.953125 
Q 47.40625 15.53125 47.40625 23.390625 
Q 47.40625 31.296875 43.53125 35.828125 
Q 39.65625 40.375 33.015625 40.375 
M 52.59375 71.296875 
L 52.59375 62.3125 
Q 48.875 64.0625 45.09375 64.984375 
Q 41.3125 65.921875 37.59375 65.921875 
Q 27.828125 65.921875 22.671875 59.328125 
Q 17.53125 52.734375 16.796875 39.40625 
Q 19.671875 43.65625 24.015625 45.921875 
Q 28.375 48.1875 33.59375 48.1875 
Q 44.578125 48.1875 50.953125 41.515625 
Q 57.328125 34.859375 57.328125 23.390625 
Q 57.328125 12.15625 50.6875 5.359375 
Q 44.046875 -1.421875 33.015625 -1.421875 
Q 20.359375 -1.421875 13.671875 8.265625 
Q 6.984375 17.96875 6.984375 36.375 
Q 6.984375 53.65625 15.1875 63.9375 
Q 23.390625 74.21875 37.203125 74.21875 
Q 40.921875 74.21875 44.703125 73.484375 
Q 48.484375 72.75 52.59375 71.296875 
" id="BitstreamVeraSans-Roman-36"/>
     <path d="M 37.796875 64.3125 
L 12.890625 25.390625 
L 37.796875 25.390625 
z
M 35.203125 72.90625 
L 47.609375 72.90625 
L 47.609375 25.390625 
L 58.015625 25.390625 
L 58.015625 17.1875 
L 47.609375 17.1875 
L 47.609375 0 
L 37.796875 0 
L 37.796875 17.1875 
L 4.890625 17.1875 
L 4.890625 26.703125 
z
" id="BitstreamVeraSans-Roman-34"/>
     <path d="M 48.78125 52.59375 
L 48.78125 44.1875 
Q 44.96875 46.296875 41.140625 47.34375 
Q 37.3125 48.390625 33.40625 48.390625 
Q 24.65625 48.390625 19.8125 42.84375 
Q 14.984375 37.3125 14.984375 27.296875 
Q 14.984375 17.28125 19.8125 11.734375 
Q 24.65625 6.203125 33.40625 6.203125 
Q 37.3125 6.203125 41.140625 7.25 
Q 44.96875 8.296875 48.78125 10.40625 
L 48.78125 2.09375 
Q 45.015625 0.34375 40.984375 -0.53125 
Q 36.96875 -1.421875 32.421875 -1.421875 
Q 20.0625 -1.421875 12.78125 6.34375 
Q 5.515625 14.109375 5.515625 27.296875 
Q 5.515625 40.671875 12.859375 48.328125 
Q 20.21875 56 33.015625 56 
Q 37.15625 56 41.109375 55.140625 
Q 45.0625 54.296875 48.78125 52.59375 
" id="BitstreamVeraSans-Roman-63"/>
    </defs>
    <g transform="translate(88.074375841 149.896417368)scale(0.12 -0.12)">
     <use xlink:href="#BitstreamVeraSans-Roman-63"/>
     <use x="54.98046875" xlink:href="#BitstreamVeraSans-Roman-6e"/>
     <use x="118.359375" xlink:href="#BitstreamVeraSans-Roman-3a"/>
     <use x="152.05078125" xlink:href="#BitstreamVeraSans-Roman-20"/>
     <use x="183.837890625" xlink:href="#BitstreamVeraSans-Roman-37"/>
     <use x="247.4609375" xlink:href="#BitstreamVeraSans-Roman-36"/>
     <use x="311.083984375" xlink:href="#BitstreamVeraSans-Roman-31"/>
     <use x="374.70703125" xlink:href="#BitstreamVeraSans-Roman-34"/>
     <use x="438.330078125" xlink:href="#BitstreamVeraSans-Roman-37"/>
    </g>
   </g>
   <g id="text_4">
    <!-- fr: 35842 -->
    <defs>
     <path d="M 19.1875 8.296875 
L 53.609375 8.296875 
L 53.609375 0 
L 7.328125 0 
L 7.328125 8.296875 
Q 12.9375 14.109375 22.625 23.890625 
Q 32.328125 33.6875 34.8125 36.53125 
Q 39.546875 41.84375 41.421875 45.53125 
Q 43.3125 49.21875 43.3125 52.78125 
Q 43.3125 58.59375 39.234375 62.25 
Q 35.15625 65.921875 28.609375 65.921875 
Q 23.96875 65.921875 18.8125 64.3125 
Q 13.671875 62.703125 7.8125 59.421875 
L 7.8125 69.390625 
Q 13.765625 71.78125 18.9375 73 
Q 24.125 74.21875 28.421875 74.21875 
Q 39.75 74.21875 46.484375 68.546875 
Q 53.21875 62.890625 53.21875 53.421875 
Q 53.21875 48.921875 51.53125 44.890625 
Q 49.859375 40.875 45.40625 35.40625 
Q 44.1875 33.984375 37.640625 27.21875 
Q 31.109375 20.453125 19.1875 8.296875 
" id="BitstreamVeraSans-Roman-32"/>
     <path d="M 37.109375 75.984375 
L 37.109375 68.5 
L 28.515625 68.5 
Q 23.6875 68.5 21.796875 66.546875 
Q 19.921875 64.59375 19.921875 59.515625 
L 19.921875 54.6875 
L 34.71875 54.6875 
L 34.71875 47.703125 
L 19.921875 47.703125 
L 19.921875 0 
L 10.890625 0 
L 10.890625 47.703125 
L 2.296875 47.703125 
L 2.296875 54.6875 
L 10.890625 54.6875 
L 10.890625 58.5 
Q 10.890625 67.625 15.140625 71.796875 
Q 19.390625 75.984375 28.609375 75.984375 
z
" id="BitstreamVeraSans-Roman-66"/>
     <path d="M 41.109375 46.296875 
Q 39.59375 47.171875 37.8125 47.578125 
Q 36.03125 48 33.890625 48 
Q 26.265625 48 22.1875 43.046875 
Q 18.109375 38.09375 18.109375 28.8125 
L 18.109375 0 
L 9.078125 0 
L 9.078125 54.6875 
L 18.109375 54.6875 
L 18.109375 46.1875 
Q 20.953125 51.171875 25.484375 53.578125 
Q 30.03125 56 36.53125 56 
Q 37.453125 56 38.578125 55.875 
Q 39.703125 55.765625 41.0625 55.515625 
z
" id="BitstreamVeraSans-Roman-72"/>
    </defs>
    <g transform="translate(80.6227563133 231.395450523)scale(0.12 -0.12)">
     <use xlink:href="#BitstreamVeraSans-Roman-66"/>
     <use x="35.205078125" xlink:href="#BitstreamVeraSans-Roman-72"/>
     <use x="76.302734375" xlink:href="#BitstreamVeraSans-Roman-3a"/>
     <use x="109.994140625" xlink:href="#BitstreamVeraSans-Roman-20"/>
     <use x="141.78125" xlink:href="#BitstreamVeraSans-Roman-33"/>
     <use x="205.404296875" xlink:href="#BitstreamVeraSans-Roman-35"/>
     <use x="269.02734375" xlink:href="#BitstreamVeraSans-Roman-38"/>
     <use x="332.650390625" xlink:href="#BitstreamVeraSans-Roman-34"/>
     <use x="396.2734375" xlink:href="#BitstreamVeraSans-Roman-32"/>
    </g>
   </g>
   <g id="text_5">
    <!-- gb: 25748 -->
    <defs>
     <path d="M 45.40625 27.984375 
Q 45.40625 37.75 41.375 43.109375 
Q 37.359375 48.484375 30.078125 48.484375 
Q 22.859375 48.484375 18.828125 43.109375 
Q 14.796875 37.75 14.796875 27.984375 
Q 14.796875 18.265625 18.828125 12.890625 
Q 22.859375 7.515625 30.078125 7.515625 
Q 37.359375 7.515625 41.375 12.890625 
Q 45.40625 18.265625 45.40625 27.984375 
M 54.390625 6.78125 
Q 54.390625 -7.171875 48.1875 -13.984375 
Q 42 -20.796875 29.203125 -20.796875 
Q 24.46875 -20.796875 20.265625 -20.09375 
Q 16.0625 -19.390625 12.109375 -17.921875 
L 12.109375 -9.1875 
Q 16.0625 -11.328125 19.921875 -12.34375 
Q 23.78125 -13.375 27.78125 -13.375 
Q 36.625 -13.375 41.015625 -8.765625 
Q 45.40625 -4.15625 45.40625 5.171875 
L 45.40625 9.625 
Q 42.625 4.78125 38.28125 2.390625 
Q 33.9375 0 27.875 0 
Q 17.828125 0 11.671875 7.65625 
Q 5.515625 15.328125 5.515625 27.984375 
Q 5.515625 40.671875 11.671875 48.328125 
Q 17.828125 56 27.875 56 
Q 33.9375 56 38.28125 53.609375 
Q 42.625 51.21875 45.40625 46.390625 
L 45.40625 54.6875 
L 54.390625 54.6875 
z
" id="BitstreamVeraSans-Roman-67"/>
     <path d="M 48.6875 27.296875 
Q 48.6875 37.203125 44.609375 42.84375 
Q 40.53125 48.484375 33.40625 48.484375 
Q 26.265625 48.484375 22.1875 42.84375 
Q 18.109375 37.203125 18.109375 27.296875 
Q 18.109375 17.390625 22.1875 11.75 
Q 26.265625 6.109375 33.40625 6.109375 
Q 40.53125 6.109375 44.609375 11.75 
Q 48.6875 17.390625 48.6875 27.296875 
M 18.109375 46.390625 
Q 20.953125 51.265625 25.265625 53.625 
Q 29.59375 56 35.59375 56 
Q 45.5625 56 51.78125 48.09375 
Q 58.015625 40.1875 58.015625 27.296875 
Q 58.015625 14.40625 51.78125 6.484375 
Q 45.5625 -1.421875 35.59375 -1.421875 
Q 29.59375 -1.421875 25.265625 0.953125 
Q 20.953125 3.328125 18.109375 8.203125 
L 18.109375 0 
L 9.078125 0 
L 9.078125 75.984375 
L 18.109375 75.984375 
z
" id="BitstreamVeraSans-Roman-62"/>
    </defs>
    <g transform="translate(82.7280168448 276.244226133)scale(0.12 -0.12)">
     <use xlink:href="#BitstreamVeraSans-Roman-67"/>
     <use x="63.4765625" xlink:href="#BitstreamVeraSans-Roman-62"/>
     <use x="126.953125" xlink:href="#BitstreamVeraSans-Roman-3a"/>
     <use x="160.64453125" xlink:href="#BitstreamVeraSans-Roman-20"/>
     <use x="192.431640625" xlink:href="#BitstreamVeraSans-Roman-32"/>
     <use x="256.0546875" xlink:href="#BitstreamVeraSans-Roman-35"/>
     <use x="319.677734375" xlink:href="#BitstreamVeraSans-Roman-37"/>
     <use x="383.30078125" xlink:href="#BitstreamVeraSans-Roman-34"/>
     <use x="446.923828125" xlink:href="#BitstreamVeraSans-Roman-38"/>
    </g>
   </g>
   <g id="text_6">
    <!-- it: 17792 -->
    <defs>
     <path d="M 18.3125 70.21875 
L 18.3125 54.6875 
L 36.8125 54.6875 
L 36.8125 47.703125 
L 18.3125 47.703125 
L 18.3125 18.015625 
Q 18.3125 11.328125 20.140625 9.421875 
Q 21.96875 7.515625 27.59375 7.515625 
L 36.8125 7.515625 
L 36.8125 0 
L 27.59375 0 
Q 17.1875 0 13.234375 3.875 
Q 9.28125 7.765625 9.28125 18.015625 
L 9.28125 47.703125 
L 2.6875 47.703125 
L 2.6875 54.6875 
L 9.28125 54.6875 
L 9.28125 70.21875 
z
" id="BitstreamVeraSans-Roman-74"/>
     <path d="M 9.421875 54.6875 
L 18.40625 54.6875 
L 18.40625 0 
L 9.421875 0 
z
M 9.421875 75.984375 
L 18.40625 75.984375 
L 18.40625 64.59375 
L 9.421875 64.59375 
z
" id="BitstreamVeraSans-Roman-69"/>
    </defs>
    <g transform="translate(101.955696658 306.184300093)scale(0.12 -0.12)">
     <use xlink:href="#BitstreamVeraSans-Roman-69"/>
     <use x="27.783203125" xlink:href="#BitstreamVeraSans-Roman-74"/>
     <use x="66.9921875" xlink:href="#BitstreamVeraSans-Roman-3a"/>
     <use x="100.68359375" xlink:href="#BitstreamVeraSans-Roman-20"/>
     <use x="132.470703125" xlink:href="#BitstreamVeraSans-Roman-31"/>
     <use x="196.09375" xlink:href="#BitstreamVeraSans-Roman-37"/>
     <use x="259.716796875" xlink:href="#BitstreamVeraSans-Roman-37"/>
     <use x="323.33984375" xlink:href="#BitstreamVeraSans-Roman-39"/>
     <use x="386.962890625" xlink:href="#BitstreamVeraSans-Roman-32"/>
    </g>
   </g>
   <g id="text_7">
    <!-- nl: 16439 -->
    <defs>
     <path d="M 9.421875 75.984375 
L 18.40625 75.984375 
L 18.40625 0 
L 9.421875 0 
z
" id="BitstreamVeraSans-Roman-6c"/>
    </defs>
    <g transform="translate(111.909434532 328.06709813)scale(0.12 -0.12)">
     <use xlink:href="#BitstreamVeraSans-Roman-6e"/>
     <use x="63.37890625" xlink:href="#BitstreamVeraSans-Roman-6c"/>
     <use x="91.162109375" xlink:href="#BitstreamVeraSans-Roman-3a"/>
     <use x="124.853515625" xlink:href="#BitstreamVeraSans-Roman-20"/>
     <use x="156.640625" xlink:href="#BitstreamVeraSans-Roman-31"/>
     <use x="220.263671875" xlink:href="#BitstreamVeraSans-Roman-36"/>
     <use x="283.88671875" xlink:href="#BitstreamVeraSans-Roman-34"/>
     <use x="347.509765625" xlink:href="#BitstreamVeraSans-Roman-33"/>
     <use x="411.1328125" xlink:href="#BitstreamVeraSans-Roman-39"/>
    </g>
   </g>
   <g id="text_8">
    <!-- br: 13883 -->
    <g transform="translate(123.992674804 345.900250511)scale(0.12 -0.12)">
     <use xlink:href="#BitstreamVeraSans-Roman-62"/>
     <use x="63.4765625" xlink:href="#BitstreamVeraSans-Roman-72"/>
     <use x="104.57421875" xlink:href="#BitstreamVeraSans-Roman-3a"/>
     <use x="138.265625" xlink:href="#BitstreamVeraSans-Roman-20"/>
     <use x="170.052734375" xlink:href="#BitstreamVeraSans-Roman-31"/>
     <use x="233.67578125" xlink:href="#BitstreamVeraSans-Roman-33"/>
     <use x="297.298828125" xlink:href="#BitstreamVeraSans-Roman-38"/>
     <use x="360.921875" xlink:href="#BitstreamVeraSans-Roman-38"/>
     <use x="424.544921875" xlink:href="#BitstreamVeraSans-Roman-33"/>
    </g>
   </g>
   <g id="text_9">
    <!-- ru: 13107 -->
    <defs>
     <path d="M 31.78125 66.40625 
Q 24.171875 66.40625 20.328125 58.90625 
Q 16.5 51.421875 16.5 36.375 
Q 16.5 21.390625 20.328125 13.890625 
Q 24.171875 6.390625 31.78125 6.390625 
Q 39.453125 6.390625 43.28125 13.890625 
Q 47.125 21.390625 47.125 36.375 
Q 47.125 51.421875 43.28125 58.90625 
Q 39.453125 66.40625 31.78125 66.40625 
M 31.78125 74.21875 
Q 44.046875 74.21875 50.515625 64.515625 
Q 56.984375 54.828125 56.984375 36.375 
Q 56.984375 17.96875 50.515625 8.265625 
Q 44.046875 -1.421875 31.78125 -1.421875 
Q 19.53125 -1.421875 13.0625 8.265625 
Q 6.59375 17.96875 6.59375 36.375 
Q 6.59375 54.828125 13.0625 64.515625 
Q 19.53125 74.21875 31.78125 74.21875 
" id="BitstreamVeraSans-Roman-30"/>
    </defs>
    <g transform="translate(137.861433845 360.343431635)scale(0.12 -0.12)">
     <use xlink:href="#BitstreamVeraSans-Roman-72"/>
     <use x="41.11328125" xlink:href="#BitstreamVeraSans-Roman-75"/>
     <use x="104.4921875" xlink:href="#BitstreamVeraSans-Roman-3a"/>
     <use x="138.18359375" xlink:href="#BitstreamVeraSans-Roman-20"/>
     <use x="169.970703125" xlink:href="#BitstreamVeraSans-Roman-31"/>
     <use x="233.59375" xlink:href="#BitstreamVeraSans-Roman-33"/>
     <use x="297.216796875" xlink:href="#BitstreamVeraSans-Roman-31"/>
     <use x="360.83984375" xlink:href="#BitstreamVeraSans-Roman-30"/>
     <use x="424.462890625" xlink:href="#BitstreamVeraSans-Roman-37"/>
    </g>
   </g>
   <g id="text_10">
    <!-- ua: 12559 -->
    <defs>
     <path d="M 34.28125 27.484375 
Q 23.390625 27.484375 19.1875 25 
Q 14.984375 22.515625 14.984375 16.5 
Q 14.984375 11.71875 18.140625 8.90625 
Q 21.296875 6.109375 26.703125 6.109375 
Q 34.1875 6.109375 38.703125 11.40625 
Q 43.21875 16.703125 43.21875 25.484375 
L 43.21875 27.484375 
z
M 52.203125 31.203125 
L 52.203125 0 
L 43.21875 0 
L 43.21875 8.296875 
Q 40.140625 3.328125 35.546875 0.953125 
Q 30.953125 -1.421875 24.3125 -1.421875 
Q 15.921875 -1.421875 10.953125 3.296875 
Q 6 8.015625 6 15.921875 
Q 6 25.140625 12.171875 29.828125 
Q 18.359375 34.515625 30.609375 34.515625 
L 43.21875 34.515625 
L 43.21875 35.40625 
Q 43.21875 41.609375 39.140625 45 
Q 35.0625 48.390625 27.6875 48.390625 
Q 23 48.390625 18.546875 47.265625 
Q 14.109375 46.140625 10.015625 43.890625 
L 10.015625 52.203125 
Q 14.9375 54.109375 19.578125 55.046875 
Q 24.21875 56 28.609375 56 
Q 40.484375 56 46.34375 49.84375 
Q 52.203125 43.703125 52.203125 31.203125 
" id="BitstreamVeraSans-Roman-61"/>
    </defs>
    <g transform="translate(149.935983341 372.680952351)scale(0.12 -0.12)">
     <use xlink:href="#BitstreamVeraSans-Roman-75"/>
     <use x="63.37890625" xlink:href="#BitstreamVeraSans-Roman-61"/>
     <use x="124.658203125" xlink:href="#BitstreamVeraSans-Roman-3a"/>
     <use x="158.349609375" xlink:href="#BitstreamVeraSans-Roman-20"/>
     <use x="190.13671875" xlink:href="#BitstreamVeraSans-Roman-31"/>
     <use x="253.759765625" xlink:href="#BitstreamVeraSans-Roman-32"/>
     <use x="317.3828125" xlink:href="#BitstreamVeraSans-Roman-35"/>
     <use x="381.005859375" xlink:href="#BitstreamVeraSans-Roman-35"/>
     <use x="444.62890625" xlink:href="#BitstreamVeraSans-Roman-39"/>
    </g>
   </g>
   <g id="text_11">
    <!-- ca: 12149 -->
    <g transform="translate(165.977456917 383.157687605)scale(0.12 -0.12)">
     <use xlink:href="#BitstreamVeraSans-Roman-63"/>
     <use x="54.98046875" xlink:href="#BitstreamVeraSans-Roman-61"/>
     <use x="116.259765625" xlink:href="#BitstreamVeraSans-Roman-3a"/>
     <use x="149.951171875" xlink:href="#BitstreamVeraSans-Roman-20"/>
     <use x="181.73828125" xlink:href="#BitstreamVeraSans-Roman-31"/>
     <use x="245.361328125" xlink:href="#BitstreamVeraSans-Roman-32"/>
     <use x="308.984375" xlink:href="#BitstreamVeraSans-Roman-31"/>
     <use x="372.607421875" xlink:href="#BitstreamVeraSans-Roman-34"/>
     <use x="436.23046875" xlink:href="#BitstreamVeraSans-Roman-39"/>
    </g>
   </g>
   <g id="text_12">
    <!-- jp: 12049 -->
    <defs>
     <path d="M 9.421875 54.6875 
L 18.40625 54.6875 
L 18.40625 -0.984375 
Q 18.40625 -11.421875 14.421875 -16.109375 
Q 10.453125 -20.796875 1.609375 -20.796875 
L -1.8125 -20.796875 
L -1.8125 -13.1875 
L 0.59375 -13.1875 
Q 5.71875 -13.1875 7.5625 -10.8125 
Q 9.421875 -8.453125 9.421875 -0.984375 
z
M 9.421875 75.984375 
L 18.40625 75.984375 
L 18.40625 64.59375 
L 9.421875 64.59375 
z
" id="BitstreamVeraSans-Roman-6a"/>
     <path d="M 18.109375 8.203125 
L 18.109375 -20.796875 
L 9.078125 -20.796875 
L 9.078125 54.6875 
L 18.109375 54.6875 
L 18.109375 46.390625 
Q 20.953125 51.265625 25.265625 53.625 
Q 29.59375 56 35.59375 56 
Q 45.5625 56 51.78125 48.09375 
Q 58.015625 40.1875 58.015625 27.296875 
Q 58.015625 14.40625 51.78125 6.484375 
Q 45.5625 -1.421875 35.59375 -1.421875 
Q 29.59375 -1.421875 25.265625 0.953125 
Q 20.953125 3.328125 18.109375 8.203125 
M 48.6875 27.296875 
Q 48.6875 37.203125 44.609375 42.84375 
Q 40.53125 48.484375 33.40625 48.484375 
Q 26.265625 48.484375 22.1875 42.84375 
Q 18.109375 37.203125 18.109375 27.296875 
Q 18.109375 17.390625 22.1875 11.75 
Q 26.265625 6.109375 33.40625 6.109375 
Q 40.53125 6.109375 44.609375 11.75 
Q 48.6875 17.390625 48.6875 27.296875 
" id="BitstreamVeraSans-Roman-70"/>
    </defs>
    <g transform="translate(184.597749531 391.994988662)scale(0.12 -0.12)">
     <use xlink:href="#BitstreamVeraSans-Roman-6a"/>
     <use x="27.783203125" xlink:href="#BitstreamVeraSans-Roman-70"/>
     <use x="91.259765625" xlink:href="#BitstreamVeraSans-Roman-3a"/>
     <use x="124.951171875" xlink:href="#BitstreamVeraSans-Roman-20"/>
     <use x="156.73828125" xlink:href="#BitstreamVeraSans-Roman-31"/>
     <use x="220.361328125" xlink:href="#BitstreamVeraSans-Roman-32"/>
     <use x="283.984375" xlink:href="#BitstreamVeraSans-Roman-30"/>
     <use x="347.607421875" xlink:href="#BitstreamVeraSans-Roman-34"/>
     <use x="411.23046875" xlink:href="#BitstreamVeraSans-Roman-39"/>
    </g>
   </g>
   <g id="text_13">
    <!-- es: 11227 -->
    <g transform="translate(197.650469521 399.095223985)scale(0.12 -0.12)">
     <use xlink:href="#BitstreamVeraSans-Roman-65"/>
     <use x="61.5234375" xlink:href="#BitstreamVeraSans-Roman-73"/>
     <use x="113.623046875" xlink:href="#BitstreamVeraSans-Roman-3a"/>
     <use x="147.314453125" xlink:href="#BitstreamVeraSans-Roman-20"/>
     <use x="179.1015625" xlink:href="#BitstreamVeraSans-Roman-31"/>
     <use x="242.724609375" xlink:href="#BitstreamVeraSans-Roman-31"/>
     <use x="306.34765625" xlink:href="#BitstreamVeraSans-Roman-32"/>
     <use x="369.970703125" xlink:href="#BitstreamVeraSans-Roman-32"/>
     <use x="433.59375" xlink:href="#BitstreamVeraSans-Roman-37"/>
    </g>
   </g>
   <g id="text_14">
    <!-- ph: 10168 -->
    <defs>
     <path d="M 54.890625 33.015625 
L 54.890625 0 
L 45.90625 0 
L 45.90625 32.71875 
Q 45.90625 40.484375 42.875 44.328125 
Q 39.84375 48.1875 33.796875 48.1875 
Q 26.515625 48.1875 22.3125 43.546875 
Q 18.109375 38.921875 18.109375 30.90625 
L 18.109375 0 
L 9.078125 0 
L 9.078125 75.984375 
L 18.109375 75.984375 
L 18.109375 46.1875 
Q 21.34375 51.125 25.703125 53.5625 
Q 30.078125 56 35.796875 56 
Q 45.21875 56 50.046875 50.171875 
Q 54.890625 44.34375 54.890625 33.015625 
" id="BitstreamVeraSans-Roman-68"/>
    </defs>
    <g transform="translate(211.03245439 404.361049228)scale(0.12 -0.12)">
     <use xlink:href="#BitstreamVeraSans-Roman-70"/>
     <use x="63.4765625" xlink:href="#BitstreamVeraSans-Roman-68"/>
     <use x="126.85546875" xlink:href="#BitstreamVeraSans-Roman-3a"/>
     <use x="160.546875" xlink:href="#BitstreamVeraSans-Roman-20"/>
     <use x="192.333984375" xlink:href="#BitstreamVeraSans-Roman-31"/>
     <use x="255.95703125" xlink:href="#BitstreamVeraSans-Roman-30"/>
     <use x="319.580078125" xlink:href="#BitstreamVeraSans-Roman-31"/>
     <use x="383.203125" xlink:href="#BitstreamVeraSans-Roman-36"/>
     <use x="446.826171875" xlink:href="#BitstreamVeraSans-Roman-38"/>
    </g>
   </g>
   <g id="text_15">
    <!-- id: 10143 -->
    <g transform="translate(229.869559028 408.2093269)scale(0.12 -0.12)">
     <use xlink:href="#BitstreamVeraSans-Roman-69"/>
     <use x="27.783203125" xlink:href="#BitstreamVeraSans-Roman-64"/>
     <use x="91.259765625" xlink:href="#BitstreamVeraSans-Roman-3a"/>
     <use x="124.951171875" xlink:href="#BitstreamVeraSans-Roman-20"/>
     <use x="156.73828125" xlink:href="#BitstreamVeraSans-Roman-31"/>
     <use x="220.361328125" xlink:href="#BitstreamVeraSans-Roman-30"/>
     <use x="283.984375" xlink:href="#BitstreamVeraSans-Roman-31"/>
     <use x="347.607421875" xlink:href="#BitstreamVeraSans-Roman-34"/>
     <use x="411.23046875" xlink:href="#BitstreamVeraSans-Roman-33"/>
    </g>
   </g>
   <g id="text_16">
    <!-- pt: 8910 -->
    <g transform="translate(250.031289796 410.779080243)scale(0.12 -0.12)">
     <use xlink:href="#BitstreamVeraSans-Roman-70"/>
     <use x="63.4765625" xlink:href="#BitstreamVeraSans-Roman-74"/>
     <use x="102.685546875" xlink:href="#BitstreamVeraSans-Roman-3a"/>
     <use x="136.376953125" xlink:href="#BitstreamVeraSans-Roman-20"/>
     <use x="168.1640625" xlink:href="#BitstreamVeraSans-Roman-38"/>
     <use x="231.787109375" xlink:href="#BitstreamVeraSans-Roman-39"/>
     <use x="295.41015625" xlink:href="#BitstreamVeraSans-Roman-31"/>
     <use x="359.033203125" xlink:href="#BitstreamVeraSans-Roman-30"/>
    </g>
   </g>
   <g id="text_17">
    <!-- eu: 8687 -->
    <g transform="translate(260.335740357 412.245706149)scale(0.12 -0.12)">
     <use xlink:href="#BitstreamVeraSans-Roman-65"/>
     <use x="61.5234375" xlink:href="#BitstreamVeraSans-Roman-75"/>
     <use x="124.90234375" xlink:href="#BitstreamVeraSans-Roman-3a"/>
     <use x="158.59375" xlink:href="#BitstreamVeraSans-Roman-20"/>
     <use x="190.380859375" xlink:href="#BitstreamVeraSans-Roman-38"/>
     <use x="254.00390625" xlink:href="#BitstreamVeraSans-Roman-36"/>
     <use x="317.626953125" xlink:href="#BitstreamVeraSans-Roman-38"/>
     <use x="381.25" xlink:href="#BitstreamVeraSans-Roman-37"/>
    </g>
   </g>
   <g id="text_18">
    <!-- se: 8116 -->
    <g transform="translate(274.140504711 412.827048601)scale(0.12 -0.12)">
     <use xlink:href="#BitstreamVeraSans-Roman-73"/>
     <use x="52.099609375" xlink:href="#BitstreamVeraSans-Roman-65"/>
     <use x="113.623046875" xlink:href="#BitstreamVeraSans-Roman-3a"/>
     <use x="147.314453125" xlink:href="#BitstreamVeraSans-Roman-20"/>
     <use x="179.1015625" xlink:href="#BitstreamVeraSans-Roman-38"/>
     <use x="242.724609375" xlink:href="#BitstreamVeraSans-Roman-31"/>
     <use x="306.34765625" xlink:href="#BitstreamVeraSans-Roman-31"/>
     <use x="369.970703125" xlink:href="#BitstreamVeraSans-Roman-36"/>
    </g>
   </g>
   <g id="text_19">
    <!-- no: 7796 -->
    <defs>
     <path d="M 30.609375 48.390625 
Q 23.390625 48.390625 19.1875 42.75 
Q 14.984375 37.109375 14.984375 27.296875 
Q 14.984375 17.484375 19.15625 11.84375 
Q 23.34375 6.203125 30.609375 6.203125 
Q 37.796875 6.203125 41.984375 11.859375 
Q 46.1875 17.53125 46.1875 27.296875 
Q 46.1875 37.015625 41.984375 42.703125 
Q 37.796875 48.390625 30.609375 48.390625 
M 30.609375 56 
Q 42.328125 56 49.015625 48.375 
Q 55.71875 40.765625 55.71875 27.296875 
Q 55.71875 13.875 49.015625 6.21875 
Q 42.328125 -1.421875 30.609375 -1.421875 
Q 18.84375 -1.421875 12.171875 6.21875 
Q 5.515625 13.875 5.515625 27.296875 
Q 5.515625 40.765625 12.171875 48.375 
Q 18.84375 56 30.609375 56 
" id="BitstreamVeraSans-Roman-6f"/>
    </defs>
    <g transform="translate(337.974073322 412.637590521)scale(0.12 -0.12)">
     <use xlink:href="#BitstreamVeraSans-Roman-6e"/>
     <use x="63.37890625" xlink:href="#BitstreamVeraSans-Roman-6f"/>
     <use x="124.560546875" xlink:href="#BitstreamVeraSans-Roman-3a"/>
     <use x="158.251953125" xlink:href="#BitstreamVeraSans-Roman-20"/>
     <use x="190.0390625" xlink:href="#BitstreamVeraSans-Roman-37"/>
     <use x="253.662109375" xlink:href="#BitstreamVeraSans-Roman-37"/>
     <use x="317.28515625" xlink:href="#BitstreamVeraSans-Roman-39"/>
     <use x="380.908203125" xlink:href="#BitstreamVeraSans-Roman-36"/>
    </g>
   </g>
   <g id="text_20">
    <!-- ch: 7600 -->
    <g transform="translate(349.36222401 411.769710253)scale(0.12 -0.12)">
     <use xlink:href="#BitstreamVeraSans-Roman-63"/>
     <use x="54.98046875" xlink:href="#BitstreamVeraSans-Roman-68"/>
     <use x="118.359375" xlink:href="#BitstreamVeraSans-Roman-3a"/>
     <use x="152.05078125" xlink:href="#BitstreamVeraSans-Roman-20"/>
     <use x="183.837890625" xlink:href="#BitstreamVeraSans-Roman-37"/>
     <use x="247.4609375" xlink:href="#BitstreamVeraSans-Roman-36"/>
     <use x="311.083984375" xlink:href="#BitstreamVeraSans-Roman-30"/>
     <use x="374.70703125" xlink:href="#BitstreamVeraSans-Roman-30"/>
    </g>
   </g>
   <g id="text_21">
    <!-- Other:187304 -->
    <defs>
     <path d="M 39.40625 66.21875 
Q 28.65625 66.21875 22.328125 58.203125 
Q 16.015625 50.203125 16.015625 36.375 
Q 16.015625 22.609375 22.328125 14.59375 
Q 28.65625 6.59375 39.40625 6.59375 
Q 50.140625 6.59375 56.421875 14.59375 
Q 62.703125 22.609375 62.703125 36.375 
Q 62.703125 50.203125 56.421875 58.203125 
Q 50.140625 66.21875 39.40625 66.21875 
M 39.40625 74.21875 
Q 54.734375 74.21875 63.90625 63.9375 
Q 73.09375 53.65625 73.09375 36.375 
Q 73.09375 19.140625 63.90625 8.859375 
Q 54.734375 -1.421875 39.40625 -1.421875 
Q 24.03125 -1.421875 14.8125 8.828125 
Q 5.609375 19.09375 5.609375 36.375 
Q 5.609375 53.65625 14.8125 63.9375 
Q 24.03125 74.21875 39.40625 74.21875 
" id="BitstreamVeraSans-Roman-4f"/>
    </defs>
    <g transform="translate(474.71879761 346.64109054)scale(0.12 -0.12)">
     <use xlink:href="#BitstreamVeraSans-Roman-4f"/>
     <use x="78.7109375" xlink:href="#BitstreamVeraSans-Roman-74"/>
     <use x="117.919921875" xlink:href="#BitstreamVeraSans-Roman-68"/>
     <use x="181.298828125" xlink:href="#BitstreamVeraSans-Roman-65"/>
     <use x="242.822265625" xlink:href="#BitstreamVeraSans-Roman-72"/>
     <use x="283.919921875" xlink:href="#BitstreamVeraSans-Roman-3a"/>
     <use x="317.611328125" xlink:href="#BitstreamVeraSans-Roman-31"/>
     <use x="381.234375" xlink:href="#BitstreamVeraSans-Roman-38"/>
     <use x="444.857421875" xlink:href="#BitstreamVeraSans-Roman-37"/>
     <use x="508.48046875" xlink:href="#BitstreamVeraSans-Roman-33"/>
     <use x="572.103515625" xlink:href="#BitstreamVeraSans-Roman-30"/>
     <use x="635.7265625" xlink:href="#BitstreamVeraSans-Roman-34"/>
    </g>
   </g>
   <g id="legend_1">
    <g id="patch_23">
     <path d="M 562.896 8.6085 
L 591.696 8.6085 
L 591.696 -1.4715 
L 562.896 -1.4715 
z
" style="fill:#a6cee3;stroke:#000000;stroke-linejoin:miter;"/>
    </g>
    <g id="text_22">
     <!-- de: 171891 -->
     <g transform="translate(603.216 8.6085)scale(0.144 -0.144)">
      <use xlink:href="#BitstreamVeraSans-Roman-64"/>
      <use x="63.4765625" xlink:href="#BitstreamVeraSans-Roman-65"/>
      <use x="125.0" xlink:href="#BitstreamVeraSans-Roman-3a"/>
      <use x="158.69140625" xlink:href="#BitstreamVeraSans-Roman-20"/>
      <use x="190.478515625" xlink:href="#BitstreamVeraSans-Roman-31"/>
      <use x="254.1015625" xlink:href="#BitstreamVeraSans-Roman-37"/>
      <use x="317.724609375" xlink:href="#BitstreamVeraSans-Roman-31"/>
      <use x="381.34765625" xlink:href="#BitstreamVeraSans-Roman-38"/>
      <use x="444.970703125" xlink:href="#BitstreamVeraSans-Roman-39"/>
      <use x="508.59375" xlink:href="#BitstreamVeraSans-Roman-31"/>
     </g>
    </g>
    <g id="patch_24">
     <path d="M 562.896 29.745 
L 591.696 29.745 
L 591.696 19.665 
L 562.896 19.665 
z
" style="fill:#60a1cb;stroke:#000000;stroke-linejoin:miter;"/>
    </g>
    <g id="text_23">
     <!-- us: 151937 -->
     <g transform="translate(603.216 29.745)scale(0.144 -0.144)">
      <use xlink:href="#BitstreamVeraSans-Roman-75"/>
      <use x="63.37890625" xlink:href="#BitstreamVeraSans-Roman-73"/>
      <use x="115.478515625" xlink:href="#BitstreamVeraSans-Roman-3a"/>
      <use x="149.169921875" xlink:href="#BitstreamVeraSans-Roman-20"/>
      <use x="180.95703125" xlink:href="#BitstreamVeraSans-Roman-31"/>
      <use x="244.580078125" xlink:href="#BitstreamVeraSans-Roman-35"/>
      <use x="308.203125" xlink:href="#BitstreamVeraSans-Roman-31"/>
      <use x="371.826171875" xlink:href="#BitstreamVeraSans-Roman-39"/>
      <use x="435.44921875" xlink:href="#BitstreamVeraSans-Roman-33"/>
      <use x="499.072265625" xlink:href="#BitstreamVeraSans-Roman-37"/>
     </g>
    </g>
    <g id="patch_25">
     <path d="M 562.896 50.8815 
L 591.696 50.8815 
L 591.696 40.8015 
L 562.896 40.8015 
z
" style="fill:#2b80b1;stroke:#000000;stroke-linejoin:miter;"/>
    </g>
    <g id="text_24">
     <!-- cn: 76147 -->
     <g transform="translate(603.216 50.8815)scale(0.144 -0.144)">
      <use xlink:href="#BitstreamVeraSans-Roman-63"/>
      <use x="54.98046875" xlink:href="#BitstreamVeraSans-Roman-6e"/>
      <use x="118.359375" xlink:href="#BitstreamVeraSans-Roman-3a"/>
      <use x="152.05078125" xlink:href="#BitstreamVeraSans-Roman-20"/>
      <use x="183.837890625" xlink:href="#BitstreamVeraSans-Roman-37"/>
      <use x="247.4609375" xlink:href="#BitstreamVeraSans-Roman-36"/>
      <use x="311.083984375" xlink:href="#BitstreamVeraSans-Roman-31"/>
      <use x="374.70703125" xlink:href="#BitstreamVeraSans-Roman-34"/>
      <use x="438.330078125" xlink:href="#BitstreamVeraSans-Roman-37"/>
     </g>
    </g>
    <g id="patch_26">
     <path d="M 562.896 72.018 
L 591.696 72.018 
L 591.696 61.938 
L 562.896 61.938 
z
" style="fill:#7dba99;stroke:#000000;stroke-linejoin:miter;"/>
    </g>
    <g id="text_25">
     <!-- fr: 35842 -->
     <g transform="translate(603.216 72.018)scale(0.144 -0.144)">
      <use xlink:href="#BitstreamVeraSans-Roman-66"/>
      <use x="35.205078125" xlink:href="#BitstreamVeraSans-Roman-72"/>
      <use x="76.302734375" xlink:href="#BitstreamVeraSans-Roman-3a"/>
      <use x="109.994140625" xlink:href="#BitstreamVeraSans-Roman-20"/>
      <use x="141.78125" xlink:href="#BitstreamVeraSans-Roman-33"/>
      <use x="205.404296875" xlink:href="#BitstreamVeraSans-Roman-35"/>
      <use x="269.02734375" xlink:href="#BitstreamVeraSans-Roman-38"/>
      <use x="332.650390625" xlink:href="#BitstreamVeraSans-Roman-34"/>
      <use x="396.2734375" xlink:href="#BitstreamVeraSans-Roman-32"/>
     </g>
    </g>
    <g id="patch_27">
     <path d="M 562.896 93.1545 
L 591.696 93.1545 
L 591.696 83.0745 
L 562.896 83.0745 
z
" style="fill:#99d277;stroke:#000000;stroke-linejoin:miter;"/>
    </g>
    <g id="text_26">
     <!-- gb: 25748 -->
     <g transform="translate(603.216 93.1545)scale(0.144 -0.144)">
      <use xlink:href="#BitstreamVeraSans-Roman-67"/>
      <use x="63.4765625" xlink:href="#BitstreamVeraSans-Roman-62"/>
      <use x="126.953125" xlink:href="#BitstreamVeraSans-Roman-3a"/>
      <use x="160.64453125" xlink:href="#BitstreamVeraSans-Roman-20"/>
      <use x="192.431640625" xlink:href="#BitstreamVeraSans-Roman-32"/>
      <use x="256.0546875" xlink:href="#BitstreamVeraSans-Roman-35"/>
      <use x="319.677734375" xlink:href="#BitstreamVeraSans-Roman-37"/>
      <use x="383.30078125" xlink:href="#BitstreamVeraSans-Roman-34"/>
      <use x="446.923828125" xlink:href="#BitstreamVeraSans-Roman-38"/>
     </g>
    </g>
    <g id="patch_28">
     <path d="M 562.896 114.291 
L 591.696 114.291 
L 591.696 104.211 
L 562.896 104.211 
z
" style="fill:#51af42;stroke:#000000;stroke-linejoin:miter;"/>
    </g>
    <g id="text_27">
     <!-- it: 17792 -->
     <g transform="translate(603.216 114.291)scale(0.144 -0.144)">
      <use xlink:href="#BitstreamVeraSans-Roman-69"/>
      <use x="27.783203125" xlink:href="#BitstreamVeraSans-Roman-74"/>
      <use x="66.9921875" xlink:href="#BitstreamVeraSans-Roman-3a"/>
      <use x="100.68359375" xlink:href="#BitstreamVeraSans-Roman-20"/>
      <use x="132.470703125" xlink:href="#BitstreamVeraSans-Roman-31"/>
      <use x="196.09375" xlink:href="#BitstreamVeraSans-Roman-37"/>
      <use x="259.716796875" xlink:href="#BitstreamVeraSans-Roman-37"/>
      <use x="323.33984375" xlink:href="#BitstreamVeraSans-Roman-39"/>
      <use x="386.962890625" xlink:href="#BitstreamVeraSans-Roman-32"/>
     </g>
    </g>
    <g id="patch_29">
     <path d="M 562.896 135.4275 
L 591.696 135.4275 
L 591.696 125.3475 
L 562.896 125.3475 
z
" style="fill:#6b9e4a;stroke:#000000;stroke-linejoin:miter;"/>
    </g>
    <g id="text_28">
     <!-- nl: 16439 -->
     <g transform="translate(603.216 135.4275)scale(0.144 -0.144)">
      <use xlink:href="#BitstreamVeraSans-Roman-6e"/>
      <use x="63.37890625" xlink:href="#BitstreamVeraSans-Roman-6c"/>
      <use x="91.162109375" xlink:href="#BitstreamVeraSans-Roman-3a"/>
      <use x="124.853515625" xlink:href="#BitstreamVeraSans-Roman-20"/>
      <use x="156.640625" xlink:href="#BitstreamVeraSans-Roman-31"/>
      <use x="220.263671875" xlink:href="#BitstreamVeraSans-Roman-36"/>
      <use x="283.88671875" xlink:href="#BitstreamVeraSans-Roman-34"/>
      <use x="347.509765625" xlink:href="#BitstreamVeraSans-Roman-33"/>
      <use x="411.1328125" xlink:href="#BitstreamVeraSans-Roman-39"/>
     </g>
    </g>
    <g id="patch_30">
     <path d="M 562.896 156.564 
L 591.696 156.564 
L 591.696 146.484 
L 562.896 146.484 
z
" style="fill:#db9b87;stroke:#000000;stroke-linejoin:miter;"/>
    </g>
    <g id="text_29">
     <!-- br: 13883 -->
     <g transform="translate(603.216 156.564)scale(0.144 -0.144)">
      <use xlink:href="#BitstreamVeraSans-Roman-62"/>
      <use x="63.4765625" xlink:href="#BitstreamVeraSans-Roman-72"/>
      <use x="104.57421875" xlink:href="#BitstreamVeraSans-Roman-3a"/>
      <use x="138.265625" xlink:href="#BitstreamVeraSans-Roman-20"/>
      <use x="170.052734375" xlink:href="#BitstreamVeraSans-Roman-31"/>
      <use x="233.67578125" xlink:href="#BitstreamVeraSans-Roman-33"/>
      <use x="297.298828125" xlink:href="#BitstreamVeraSans-Roman-38"/>
      <use x="360.921875" xlink:href="#BitstreamVeraSans-Roman-38"/>
      <use x="424.544921875" xlink:href="#BitstreamVeraSans-Roman-33"/>
     </g>
    </g>
    <g id="patch_31">
     <path d="M 562.896 177.7005 
L 591.696 177.7005 
L 591.696 167.6205 
L 562.896 167.6205 
z
" style="fill:#f16767;stroke:#000000;stroke-linejoin:miter;"/>
    </g>
    <g id="text_30">
     <!-- ru: 13107 -->
     <g transform="translate(603.216 177.7005)scale(0.144 -0.144)">
      <use xlink:href="#BitstreamVeraSans-Roman-72"/>
      <use x="41.11328125" xlink:href="#BitstreamVeraSans-Roman-75"/>
      <use x="104.4921875" xlink:href="#BitstreamVeraSans-Roman-3a"/>
      <use x="138.18359375" xlink:href="#BitstreamVeraSans-Roman-20"/>
      <use x="169.970703125" xlink:href="#BitstreamVeraSans-Roman-31"/>
      <use x="233.59375" xlink:href="#BitstreamVeraSans-Roman-33"/>
      <use x="297.216796875" xlink:href="#BitstreamVeraSans-Roman-31"/>
      <use x="360.83984375" xlink:href="#BitstreamVeraSans-Roman-30"/>
      <use x="424.462890625" xlink:href="#BitstreamVeraSans-Roman-37"/>
     </g>
    </g>
    <g id="patch_32">
     <path d="M 562.896 198.837 
L 591.696 198.837 
L 591.696 188.757 
L 562.896 188.757 
z
" style="fill:#e41f21;stroke:#000000;stroke-linejoin:miter;"/>
    </g>
    <g id="text_31">
     <!-- ua: 12559 -->
     <g transform="translate(603.216 198.837)scale(0.144 -0.144)">
      <use xlink:href="#BitstreamVeraSans-Roman-75"/>
      <use x="63.37890625" xlink:href="#BitstreamVeraSans-Roman-61"/>
      <use x="124.658203125" xlink:href="#BitstreamVeraSans-Roman-3a"/>
      <use x="158.349609375" xlink:href="#BitstreamVeraSans-Roman-20"/>
      <use x="190.13671875" xlink:href="#BitstreamVeraSans-Roman-31"/>
      <use x="253.759765625" xlink:href="#BitstreamVeraSans-Roman-32"/>
      <use x="317.3828125" xlink:href="#BitstreamVeraSans-Roman-35"/>
      <use x="381.005859375" xlink:href="#BitstreamVeraSans-Roman-35"/>
      <use x="444.62890625" xlink:href="#BitstreamVeraSans-Roman-39"/>
     </g>
    </g>
    <g id="patch_33">
     <path d="M 562.896 219.9735 
L 591.696 219.9735 
L 591.696 209.8935 
L 562.896 209.8935 
z
" style="fill:#f17047;stroke:#000000;stroke-linejoin:miter;"/>
    </g>
    <g id="text_32">
     <!-- ca: 12149 -->
     <g transform="translate(603.216 219.9735)scale(0.144 -0.144)">
      <use xlink:href="#BitstreamVeraSans-Roman-63"/>
      <use x="54.98046875" xlink:href="#BitstreamVeraSans-Roman-61"/>
      <use x="116.259765625" xlink:href="#BitstreamVeraSans-Roman-3a"/>
      <use x="149.951171875" xlink:href="#BitstreamVeraSans-Roman-20"/>
      <use x="181.73828125" xlink:href="#BitstreamVeraSans-Roman-31"/>
      <use x="245.361328125" xlink:href="#BitstreamVeraSans-Roman-32"/>
      <use x="308.984375" xlink:href="#BitstreamVeraSans-Roman-31"/>
      <use x="372.607421875" xlink:href="#BitstreamVeraSans-Roman-34"/>
      <use x="436.23046875" xlink:href="#BitstreamVeraSans-Roman-39"/>
     </g>
    </g>
    <g id="patch_34">
     <path d="M 562.896 241.11 
L 591.696 241.11 
L 591.696 231.03 
L 562.896 231.03 
z
" style="fill:#fdbc6b;stroke:#000000;stroke-linejoin:miter;"/>
    </g>
    <g id="text_33">
     <!-- jp: 12049 -->
     <g transform="translate(603.216 241.11)scale(0.144 -0.144)">
      <use xlink:href="#BitstreamVeraSans-Roman-6a"/>
      <use x="27.783203125" xlink:href="#BitstreamVeraSans-Roman-70"/>
      <use x="91.259765625" xlink:href="#BitstreamVeraSans-Roman-3a"/>
      <use x="124.951171875" xlink:href="#BitstreamVeraSans-Roman-20"/>
      <use x="156.73828125" xlink:href="#BitstreamVeraSans-Roman-31"/>
      <use x="220.361328125" xlink:href="#BitstreamVeraSans-Roman-32"/>
      <use x="283.984375" xlink:href="#BitstreamVeraSans-Roman-30"/>
      <use x="347.607421875" xlink:href="#BitstreamVeraSans-Roman-34"/>
      <use x="411.23046875" xlink:href="#BitstreamVeraSans-Roman-39"/>
     </g>
    </g>
    <g id="patch_35">
     <path d="M 562.896 262.2465 
L 591.696 262.2465 
L 591.696 252.1665 
L 562.896 252.1665 
z
" style="fill:#fe992c;stroke:#000000;stroke-linejoin:miter;"/>
    </g>
    <g id="text_34">
     <!-- es: 11227 -->
     <g transform="translate(603.216 262.2465)scale(0.144 -0.144)">
      <use xlink:href="#BitstreamVeraSans-Roman-65"/>
      <use x="61.5234375" xlink:href="#BitstreamVeraSans-Roman-73"/>
      <use x="113.623046875" xlink:href="#BitstreamVeraSans-Roman-3a"/>
      <use x="147.314453125" xlink:href="#BitstreamVeraSans-Roman-20"/>
      <use x="179.1015625" xlink:href="#BitstreamVeraSans-Roman-31"/>
      <use x="242.724609375" xlink:href="#BitstreamVeraSans-Roman-31"/>
      <use x="306.34765625" xlink:href="#BitstreamVeraSans-Roman-32"/>
      <use x="369.970703125" xlink:href="#BitstreamVeraSans-Roman-32"/>
      <use x="433.59375" xlink:href="#BitstreamVeraSans-Roman-37"/>
     </g>
    </g>
    <g id="patch_36">
     <path d="M 562.896 283.383 
L 591.696 283.383 
L 591.696 273.303 
L 562.896 273.303 
z
" style="fill:#f68722;stroke:#000000;stroke-linejoin:miter;"/>
    </g>
    <g id="text_35">
     <!-- ph: 10168 -->
     <g transform="translate(603.216 283.383)scale(0.144 -0.144)">
      <use xlink:href="#BitstreamVeraSans-Roman-70"/>
      <use x="63.4765625" xlink:href="#BitstreamVeraSans-Roman-68"/>
      <use x="126.85546875" xlink:href="#BitstreamVeraSans-Roman-3a"/>
      <use x="160.546875" xlink:href="#BitstreamVeraSans-Roman-20"/>
      <use x="192.333984375" xlink:href="#BitstreamVeraSans-Roman-31"/>
      <use x="255.95703125" xlink:href="#BitstreamVeraSans-Roman-30"/>
      <use x="319.580078125" xlink:href="#BitstreamVeraSans-Roman-31"/>
      <use x="383.203125" xlink:href="#BitstreamVeraSans-Roman-36"/>
      <use x="446.826171875" xlink:href="#BitstreamVeraSans-Roman-38"/>
     </g>
    </g>
    <g id="patch_37">
     <path d="M 562.896 304.5195 
L 591.696 304.5195 
L 591.696 294.4395 
L 562.896 294.4395 
z
" style="fill:#d9a49a;stroke:#000000;stroke-linejoin:miter;"/>
    </g>
    <g id="text_36">
     <!-- id: 10143 -->
     <g transform="translate(603.216 304.5195)scale(0.144 -0.144)">
      <use xlink:href="#BitstreamVeraSans-Roman-69"/>
      <use x="27.783203125" xlink:href="#BitstreamVeraSans-Roman-64"/>
      <use x="91.259765625" xlink:href="#BitstreamVeraSans-Roman-3a"/>
      <use x="124.951171875" xlink:href="#BitstreamVeraSans-Roman-20"/>
      <use x="156.73828125" xlink:href="#BitstreamVeraSans-Roman-31"/>
      <use x="220.361328125" xlink:href="#BitstreamVeraSans-Roman-30"/>
      <use x="283.984375" xlink:href="#BitstreamVeraSans-Roman-31"/>
      <use x="347.607421875" xlink:href="#BitstreamVeraSans-Roman-34"/>
      <use x="411.23046875" xlink:href="#BitstreamVeraSans-Roman-33"/>
     </g>
    </g>
    <g id="patch_38">
     <path d="M 562.896 325.656 
L 591.696 325.656 
L 591.696 315.576 
L 562.896 315.576 
z
" style="fill:#af91c5;stroke:#000000;stroke-linejoin:miter;"/>
    </g>
    <g id="text_37">
     <!-- pt: 8910 -->
     <g transform="translate(603.216 325.656)scale(0.144 -0.144)">
      <use xlink:href="#BitstreamVeraSans-Roman-70"/>
      <use x="63.4765625" xlink:href="#BitstreamVeraSans-Roman-74"/>
      <use x="102.685546875" xlink:href="#BitstreamVeraSans-Roman-3a"/>
      <use x="136.376953125" xlink:href="#BitstreamVeraSans-Roman-20"/>
      <use x="168.1640625" xlink:href="#BitstreamVeraSans-Roman-38"/>
      <use x="231.787109375" xlink:href="#BitstreamVeraSans-Roman-39"/>
      <use x="295.41015625" xlink:href="#BitstreamVeraSans-Roman-31"/>
      <use x="359.033203125" xlink:href="#BitstreamVeraSans-Roman-30"/>
     </g>
    </g>
    <g id="patch_39">
     <path d="M 562.896 346.7925 
L 591.696 346.7925 
L 591.696 336.7125 
L 562.896 336.7125 
z
" style="fill:#7d54a6;stroke:#000000;stroke-linejoin:miter;"/>
    </g>
    <g id="text_38">
     <!-- eu: 8687 -->
     <g transform="translate(603.216 346.7925)scale(0.144 -0.144)">
      <use xlink:href="#BitstreamVeraSans-Roman-65"/>
      <use x="61.5234375" xlink:href="#BitstreamVeraSans-Roman-75"/>
      <use x="124.90234375" xlink:href="#BitstreamVeraSans-Roman-3a"/>
      <use x="158.59375" xlink:href="#BitstreamVeraSans-Roman-20"/>
      <use x="190.380859375" xlink:href="#BitstreamVeraSans-Roman-38"/>
      <use x="254.00390625" xlink:href="#BitstreamVeraSans-Roman-36"/>
      <use x="317.626953125" xlink:href="#BitstreamVeraSans-Roman-38"/>
      <use x="381.25" xlink:href="#BitstreamVeraSans-Roman-37"/>
     </g>
    </g>
    <g id="patch_40">
     <path d="M 562.896 367.929 
L 591.696 367.929 
L 591.696 357.849 
L 562.896 357.849 
z
" style="fill:#a0839a;stroke:#000000;stroke-linejoin:miter;"/>
    </g>
    <g id="text_39">
     <!-- se: 8116 -->
     <g transform="translate(603.216 367.929)scale(0.144 -0.144)">
      <use xlink:href="#BitstreamVeraSans-Roman-73"/>
      <use x="52.099609375" xlink:href="#BitstreamVeraSans-Roman-65"/>
      <use x="113.623046875" xlink:href="#BitstreamVeraSans-Roman-3a"/>
      <use x="147.314453125" xlink:href="#BitstreamVeraSans-Roman-20"/>
      <use x="179.1015625" xlink:href="#BitstreamVeraSans-Roman-38"/>
      <use x="242.724609375" xlink:href="#BitstreamVeraSans-Roman-31"/>
      <use x="306.34765625" xlink:href="#BitstreamVeraSans-Roman-31"/>
      <use x="369.970703125" xlink:href="#BitstreamVeraSans-Roman-36"/>
     </g>
    </g>
    <g id="patch_41">
     <path d="M 562.896 389.0655 
L 591.696 389.0655 
L 591.696 378.9855 
L 562.896 378.9855 
z
" style="fill:#f3f099;stroke:#000000;stroke-linejoin:miter;"/>
    </g>
    <g id="text_40">
     <!-- no: 7796 -->
     <g transform="translate(603.216 389.0655)scale(0.144 -0.144)">
      <use xlink:href="#BitstreamVeraSans-Roman-6e"/>
      <use x="63.37890625" xlink:href="#BitstreamVeraSans-Roman-6f"/>
      <use x="124.560546875" xlink:href="#BitstreamVeraSans-Roman-3a"/>
      <use x="158.251953125" xlink:href="#BitstreamVeraSans-Roman-20"/>
      <use x="190.0390625" xlink:href="#BitstreamVeraSans-Roman-37"/>
      <use x="253.662109375" xlink:href="#BitstreamVeraSans-Roman-37"/>
      <use x="317.28515625" xlink:href="#BitstreamVeraSans-Roman-39"/>
      <use x="380.908203125" xlink:href="#BitstreamVeraSans-Roman-36"/>
     </g>
    </g>
    <g id="patch_42">
     <path d="M 562.896 410.202 
L 591.696 410.202 
L 591.696 400.122 
L 562.896 400.122 
z
" style="fill:#d9af62;stroke:#000000;stroke-linejoin:miter;"/>
    </g>
    <g id="text_41">
     <!-- ch: 7600 -->
     <g transform="translate(603.216 410.202)scale(0.144 -0.144)">
      <use xlink:href="#BitstreamVeraSans-Roman-63"/>
      <use x="54.98046875" xlink:href="#BitstreamVeraSans-Roman-68"/>
      <use x="118.359375" xlink:href="#BitstreamVeraSans-Roman-3a"/>
      <use x="152.05078125" xlink:href="#BitstreamVeraSans-Roman-20"/>
      <use x="183.837890625" xlink:href="#BitstreamVeraSans-Roman-37"/>
      <use x="247.4609375" xlink:href="#BitstreamVeraSans-Roman-36"/>
      <use x="311.083984375" xlink:href="#BitstreamVeraSans-Roman-30"/>
      <use x="374.70703125" xlink:href="#BitstreamVeraSans-Roman-30"/>
     </g>
    </g>
    <g id="patch_43">
     <path d="M 562.896 431.3385 
L 591.696 431.3385 
L 591.696 421.2585 
L 562.896 421.2585 
z
" style="fill:#b15928;stroke:#000000;stroke-linejoin:miter;"/>
    </g>
    <g id="text_42">
     <!-- Other:187304 -->
     <g transform="translate(603.216 431.3385)scale(0.144 -0.144)">
      <use xlink:href="#BitstreamVeraSans-Roman-4f"/>
      <use x="78.7109375" xlink:href="#BitstreamVeraSans-Roman-74"/>
      <use x="117.919921875" xlink:href="#BitstreamVeraSans-Roman-68"/>
      <use x="181.298828125" xlink:href="#BitstreamVeraSans-Roman-65"/>
      <use x="242.822265625" xlink:href="#BitstreamVeraSans-Roman-72"/>
      <use x="283.919921875" xlink:href="#BitstreamVeraSans-Roman-3a"/>
      <use x="317.611328125" xlink:href="#BitstreamVeraSans-Roman-31"/>
      <use x="381.234375" xlink:href="#BitstreamVeraSans-Roman-38"/>
      <use x="444.857421875" xlink:href="#BitstreamVeraSans-Roman-37"/>
      <use x="508.48046875" xlink:href="#BitstreamVeraSans-Roman-33"/>
      <use x="572.103515625" xlink:href="#BitstreamVeraSans-Roman-30"/>
      <use x="635.7265625" xlink:href="#BitstreamVeraSans-Roman-34"/>
     </g>
    </g>
   </g>
  </g>
 </g>
</svg>
