<?xml version="1.0" encoding="utf-8" standalone="no"?>
<!DOCTYPE svg PUBLIC "-//W3C//DTD SVG 1.1//EN"
  "http://www.w3.org/Graphics/SVG/1.1/DTD/svg11.dtd">
<!-- Created with matplotlib (http://matplotlib.org/) -->
<svg height="432pt" version="1.1" viewBox="0 0 864 432" width="864pt" xmlns="http://www.w3.org/2000/svg" xmlns:xlink="http://www.w3.org/1999/xlink">
 <defs>
  <style type="text/css">
*{stroke-linecap:butt;stroke-linejoin:round;stroke-miterlimit:100000;}
  </style>
 </defs>
 <g id="figure_1">
  <g id="patch_1">
   <path d="M 0 432 
L 864 432 
L 864 0 
L 0 0 
z
" style="fill:#ffffff;"/>
  </g>
  <g id="axes_1">
   <g id="patch_2">
    <path d="M 108 388.8 
L 549.936 388.8 
L 549.936 43.2 
L 108 43.2 
z
" style="fill:#ffffff;"/>
   </g>
   <g id="line2d_1">
    <path clip-path="url(#pf7e24a6f15)" d="M 108 138.9312 
L 141.995077 132.907886 
L 175.990154 121.749943 
L 209.985231 115.134171 
L 243.980308 109.258971 
L 277.975385 103.630629 
L 311.970462 99.5328 
L 345.965538 91.584 
L 379.960615 88.868571 
L 413.955692 83.9808 
L 447.950769 76.180114 
L 481.945846 71.736686 
L 515.940923 68.0832 
L 549.936 64.577829 
" style="fill:none;stroke:#419487;stroke-linecap:square;stroke-width:1.5;"/>
   </g>
   <g id="line2d_2">
    <defs>
     <path d="M 0 -3 
L -0.673542 -0.927051 
L -2.85317 -0.927051 
L -1.089814 0.354102 
L -1.763356 2.427051 
L -0 1.145898 
L 1.763356 2.427051 
L 1.089814 0.354102 
L 2.85317 -0.927051 
L 0.673542 -0.927051 
z
" id="mbf752c02b5" style="stroke:#000000;stroke-linejoin:bevel;stroke-width:0.5;"/>
    </defs>
    <g clip-path="url(#pf7e24a6f15)">
     <use style="fill:#419487;stroke:#000000;stroke-linejoin:bevel;stroke-width:0.5;" x="108.0" xlink:href="#mbf752c02b5" y="138.9312"/>
     <use style="fill:#419487;stroke:#000000;stroke-linejoin:bevel;stroke-width:0.5;" x="141.995076923" xlink:href="#mbf752c02b5" y="132.907885714"/>
     <use style="fill:#419487;stroke:#000000;stroke-linejoin:bevel;stroke-width:0.5;" x="175.990153846" xlink:href="#mbf752c02b5" y="121.749942857"/>
     <use style="fill:#419487;stroke:#000000;stroke-linejoin:bevel;stroke-width:0.5;" x="209.985230769" xlink:href="#mbf752c02b5" y="115.134171429"/>
     <use style="fill:#419487;stroke:#000000;stroke-linejoin:bevel;stroke-width:0.5;" x="243.980307692" xlink:href="#mbf752c02b5" y="109.258971429"/>
     <use style="fill:#419487;stroke:#000000;stroke-linejoin:bevel;stroke-width:0.5;" x="277.975384615" xlink:href="#mbf752c02b5" y="103.630628571"/>
     <use style="fill:#419487;stroke:#000000;stroke-linejoin:bevel;stroke-width:0.5;" x="311.970461538" xlink:href="#mbf752c02b5" y="99.5328"/>
     <use style="fill:#419487;stroke:#000000;stroke-linejoin:bevel;stroke-width:0.5;" x="345.965538462" xlink:href="#mbf752c02b5" y="91.584"/>
     <use style="fill:#419487;stroke:#000000;stroke-linejoin:bevel;stroke-width:0.5;" x="379.960615385" xlink:href="#mbf752c02b5" y="88.8685714286"/>
     <use style="fill:#419487;stroke:#000000;stroke-linejoin:bevel;stroke-width:0.5;" x="413.955692308" xlink:href="#mbf752c02b5" y="83.9808"/>
     <use style="fill:#419487;stroke:#000000;stroke-linejoin:bevel;stroke-width:0.5;" x="447.950769231" xlink:href="#mbf752c02b5" y="76.1801142857"/>
     <use style="fill:#419487;stroke:#000000;stroke-linejoin:bevel;stroke-width:0.5;" x="481.945846154" xlink:href="#mbf752c02b5" y="71.7366857143"/>
     <use style="fill:#419487;stroke:#000000;stroke-linejoin:bevel;stroke-width:0.5;" x="515.940923077" xlink:href="#mbf752c02b5" y="68.0832"/>
     <use style="fill:#419487;stroke:#000000;stroke-linejoin:bevel;stroke-width:0.5;" x="549.936" xlink:href="#mbf752c02b5" y="64.5778285714"/>
    </g>
   </g>
   <g id="line2d_3">
    <path clip-path="url(#pf7e24a6f15)" d="M 108 125.354057 
L 141.995077 121.256229 
L 175.990154 116.220343 
L 209.985231 113.949257 
L 243.980308 111.727543 
L 277.975385 94.595657 
L 311.970462 92.818286 
L 345.965538 89.707886 
L 379.960615 87.634286 
L 413.955692 85.955657 
L 447.950769 82.005943 
L 481.945846 78.303086 
L 515.940923 71.588571 
L 549.936 69.564343 
" style="fill:none;stroke:#49a65e;stroke-linecap:square;stroke-width:1.5;"/>
   </g>
   <g id="line2d_4">
    <defs>
     <path d="M -0 3 
L 3 -3 
L -3 -3 
z
" id="m911261afbf" style="stroke:#000000;stroke-linejoin:miter;stroke-width:0.5;"/>
    </defs>
    <g clip-path="url(#pf7e24a6f15)">
     <use style="fill:#49a65e;stroke:#000000;stroke-linejoin:miter;stroke-width:0.5;" x="108.0" xlink:href="#m911261afbf" y="125.354057143"/>
     <use style="fill:#49a65e;stroke:#000000;stroke-linejoin:miter;stroke-width:0.5;" x="141.995076923" xlink:href="#m911261afbf" y="121.256228571"/>
     <use style="fill:#49a65e;stroke:#000000;stroke-linejoin:miter;stroke-width:0.5;" x="175.990153846" xlink:href="#m911261afbf" y="116.220342857"/>
     <use style="fill:#49a65e;stroke:#000000;stroke-linejoin:miter;stroke-width:0.5;" x="209.985230769" xlink:href="#m911261afbf" y="113.949257143"/>
     <use style="fill:#49a65e;stroke:#000000;stroke-linejoin:miter;stroke-width:0.5;" x="243.980307692" xlink:href="#m911261afbf" y="111.727542857"/>
     <use style="fill:#49a65e;stroke:#000000;stroke-linejoin:miter;stroke-width:0.5;" x="277.975384615" xlink:href="#m911261afbf" y="94.5956571429"/>
     <use style="fill:#49a65e;stroke:#000000;stroke-linejoin:miter;stroke-width:0.5;" x="311.970461538" xlink:href="#m911261afbf" y="92.8182857143"/>
     <use style="fill:#49a65e;stroke:#000000;stroke-linejoin:miter;stroke-width:0.5;" x="345.965538462" xlink:href="#m911261afbf" y="89.7078857143"/>
     <use style="fill:#49a65e;stroke:#000000;stroke-linejoin:miter;stroke-width:0.5;" x="379.960615385" xlink:href="#m911261afbf" y="87.6342857143"/>
     <use style="fill:#49a65e;stroke:#000000;stroke-linejoin:miter;stroke-width:0.5;" x="413.955692308" xlink:href="#m911261afbf" y="85.9556571429"/>
     <use style="fill:#49a65e;stroke:#000000;stroke-linejoin:miter;stroke-width:0.5;" x="447.950769231" xlink:href="#m911261afbf" y="82.0059428571"/>
     <use style="fill:#49a65e;stroke:#000000;stroke-linejoin:miter;stroke-width:0.5;" x="481.945846154" xlink:href="#m911261afbf" y="78.3030857143"/>
     <use style="fill:#49a65e;stroke:#000000;stroke-linejoin:miter;stroke-width:0.5;" x="515.940923077" xlink:href="#m911261afbf" y="71.5885714286"/>
     <use style="fill:#49a65e;stroke:#000000;stroke-linejoin:miter;stroke-width:0.5;" x="549.936" xlink:href="#m911261afbf" y="69.5643428571"/>
    </g>
   </g>
   <g id="line2d_5">
    <path clip-path="url(#pf7e24a6f15)" d="M 108 373.791086 
L 141.995077 332.269714 
L 175.990154 305.1648 
L 209.985231 286.354286 
L 243.980308 271.049143 
L 277.975385 249.375086 
L 311.970462 225.3312 
L 345.965538 209.877943 
L 379.960615 196.6464 
L 413.955692 184.106057 
L 447.950769 157.840457 
L 481.945846 146.5344 
L 515.940923 126.637714 
L 549.936 116.220343 
" style="fill:none;stroke:#ffdd26;stroke-linecap:square;stroke-width:1.5;"/>
   </g>
   <g id="line2d_6">
    <defs>
     <path d="M -0 3 
L 3 -3 
L -3 -3 
z
" id="mc940fec689" style="stroke:#000000;stroke-linejoin:miter;stroke-width:0.5;"/>
    </defs>
    <g clip-path="url(#pf7e24a6f15)">
     <use style="fill:#ffdd26;stroke:#000000;stroke-linejoin:miter;stroke-width:0.5;" x="108.0" xlink:href="#mc940fec689" y="373.791085714"/>
     <use style="fill:#ffdd26;stroke:#000000;stroke-linejoin:miter;stroke-width:0.5;" x="141.995076923" xlink:href="#mc940fec689" y="332.269714286"/>
     <use style="fill:#ffdd26;stroke:#000000;stroke-linejoin:miter;stroke-width:0.5;" x="175.990153846" xlink:href="#mc940fec689" y="305.1648"/>
     <use style="fill:#ffdd26;stroke:#000000;stroke-linejoin:miter;stroke-width:0.5;" x="209.985230769" xlink:href="#mc940fec689" y="286.354285714"/>
     <use style="fill:#ffdd26;stroke:#000000;stroke-linejoin:miter;stroke-width:0.5;" x="243.980307692" xlink:href="#mc940fec689" y="271.049142857"/>
     <use style="fill:#ffdd26;stroke:#000000;stroke-linejoin:miter;stroke-width:0.5;" x="277.975384615" xlink:href="#mc940fec689" y="249.375085714"/>
     <use style="fill:#ffdd26;stroke:#000000;stroke-linejoin:miter;stroke-width:0.5;" x="311.970461538" xlink:href="#mc940fec689" y="225.3312"/>
     <use style="fill:#ffdd26;stroke:#000000;stroke-linejoin:miter;stroke-width:0.5;" x="345.965538462" xlink:href="#mc940fec689" y="209.877942857"/>
     <use style="fill:#ffdd26;stroke:#000000;stroke-linejoin:miter;stroke-width:0.5;" x="379.960615385" xlink:href="#mc940fec689" y="196.6464"/>
     <use style="fill:#ffdd26;stroke:#000000;stroke-linejoin:miter;stroke-width:0.5;" x="413.955692308" xlink:href="#mc940fec689" y="184.106057143"/>
     <use style="fill:#ffdd26;stroke:#000000;stroke-linejoin:miter;stroke-width:0.5;" x="447.950769231" xlink:href="#mc940fec689" y="157.840457143"/>
     <use style="fill:#ffdd26;stroke:#000000;stroke-linejoin:miter;stroke-width:0.5;" x="481.945846154" xlink:href="#mc940fec689" y="146.5344"/>
     <use style="fill:#ffdd26;stroke:#000000;stroke-linejoin:miter;stroke-width:0.5;" x="515.940923077" xlink:href="#mc940fec689" y="126.637714286"/>
     <use style="fill:#ffdd26;stroke:#000000;stroke-linejoin:miter;stroke-width:0.5;" x="549.936" xlink:href="#mc940fec689" y="116.220342857"/>
    </g>
   </g>
   <g id="line2d_7">
    <path clip-path="url(#pf7e24a6f15)" d="M 108 293.167543 
L 141.995077 284.971886 
L 175.990154 270.357943 
L 209.985231 253.077943 
L 243.980308 241.327543 
L 277.975385 224.146286 
L 311.970462 216.049371 
L 345.965538 205.9776 
L 379.960615 195.214629 
L 413.955692 180.501943 
L 447.950769 166.677943 
L 481.945846 151.817143 
L 515.940923 144.411429 
L 549.936 137.696914 
" style="fill:none;stroke:#a05297;stroke-linecap:square;stroke-width:1.5;"/>
   </g>
   <g id="line2d_8">
    <defs>
     <path d="M 0 3 
C 0.795609 3 1.55874 2.683901 2.12132 2.12132 
C 2.683901 1.55874 3 0.795609 3 0 
C 3 -0.795609 2.683901 -1.55874 2.12132 -2.12132 
C 1.55874 -2.683901 0.795609 -3 0 -3 
C -0.795609 -3 -1.55874 -2.683901 -2.12132 -2.12132 
C -2.683901 -1.55874 -3 -0.795609 -3 0 
C -3 0.795609 -2.683901 1.55874 -2.12132 2.12132 
C -1.55874 2.683901 -0.795609 3 0 3 
z
" id="m05a41c8330" style="stroke:#000000;stroke-width:0.5;"/>
    </defs>
    <g clip-path="url(#pf7e24a6f15)">
     <use style="fill:#a05297;stroke:#000000;stroke-width:0.5;" x="108.0" xlink:href="#m05a41c8330" y="293.167542857"/>
     <use style="fill:#a05297;stroke:#000000;stroke-width:0.5;" x="141.995076923" xlink:href="#m05a41c8330" y="284.971885714"/>
     <use style="fill:#a05297;stroke:#000000;stroke-width:0.5;" x="175.990153846" xlink:href="#m05a41c8330" y="270.357942857"/>
     <use style="fill:#a05297;stroke:#000000;stroke-width:0.5;" x="209.985230769" xlink:href="#m05a41c8330" y="253.077942857"/>
     <use style="fill:#a05297;stroke:#000000;stroke-width:0.5;" x="243.980307692" xlink:href="#m05a41c8330" y="241.327542857"/>
     <use style="fill:#a05297;stroke:#000000;stroke-width:0.5;" x="277.975384615" xlink:href="#m05a41c8330" y="224.146285714"/>
     <use style="fill:#a05297;stroke:#000000;stroke-width:0.5;" x="311.970461538" xlink:href="#m05a41c8330" y="216.049371429"/>
     <use style="fill:#a05297;stroke:#000000;stroke-width:0.5;" x="345.965538462" xlink:href="#m05a41c8330" y="205.9776"/>
     <use style="fill:#a05297;stroke:#000000;stroke-width:0.5;" x="379.960615385" xlink:href="#m05a41c8330" y="195.214628571"/>
     <use style="fill:#a05297;stroke:#000000;stroke-width:0.5;" x="413.955692308" xlink:href="#m05a41c8330" y="180.501942857"/>
     <use style="fill:#a05297;stroke:#000000;stroke-width:0.5;" x="447.950769231" xlink:href="#m05a41c8330" y="166.677942857"/>
     <use style="fill:#a05297;stroke:#000000;stroke-width:0.5;" x="481.945846154" xlink:href="#m05a41c8330" y="151.817142857"/>
     <use style="fill:#a05297;stroke:#000000;stroke-width:0.5;" x="515.940923077" xlink:href="#m05a41c8330" y="144.411428571"/>
     <use style="fill:#a05297;stroke:#000000;stroke-width:0.5;" x="549.936" xlink:href="#m05a41c8330" y="137.696914286"/>
    </g>
   </g>
   <g id="line2d_9">
    <path clip-path="url(#pf7e24a6f15)" d="M 108 181.637486 
L 141.995077 178.6752 
L 175.990154 175.268571 
L 209.985231 173.096229 
L 243.980308 170.677029 
L 277.975385 168.899657 
L 311.970462 167.023543 
L 345.965538 164.061257 
L 379.960615 161.790171 
L 413.955692 159.6672 
L 447.950769 155.52 
L 481.945846 145.695086 
L 515.940923 140.757943 
L 549.936 137.943771 
" style="fill:none;stroke:#67628d;stroke-linecap:square;stroke-width:1.5;"/>
   </g>
   <g id="line2d_10">
    <defs>
     <path d="M -3 3 
L 3 3 
L 3 -3 
L -3 -3 
z
" id="ma3594b346d" style="stroke:#000000;stroke-linejoin:miter;stroke-width:0.5;"/>
    </defs>
    <g clip-path="url(#pf7e24a6f15)">
     <use style="fill:#67628d;stroke:#000000;stroke-linejoin:miter;stroke-width:0.5;" x="108.0" xlink:href="#ma3594b346d" y="181.637485714"/>
     <use style="fill:#67628d;stroke:#000000;stroke-linejoin:miter;stroke-width:0.5;" x="141.995076923" xlink:href="#ma3594b346d" y="178.6752"/>
     <use style="fill:#67628d;stroke:#000000;stroke-linejoin:miter;stroke-width:0.5;" x="175.990153846" xlink:href="#ma3594b346d" y="175.268571429"/>
     <use style="fill:#67628d;stroke:#000000;stroke-linejoin:miter;stroke-width:0.5;" x="209.985230769" xlink:href="#ma3594b346d" y="173.096228571"/>
     <use style="fill:#67628d;stroke:#000000;stroke-linejoin:miter;stroke-width:0.5;" x="243.980307692" xlink:href="#ma3594b346d" y="170.677028571"/>
     <use style="fill:#67628d;stroke:#000000;stroke-linejoin:miter;stroke-width:0.5;" x="277.975384615" xlink:href="#ma3594b346d" y="168.899657143"/>
     <use style="fill:#67628d;stroke:#000000;stroke-linejoin:miter;stroke-width:0.5;" x="311.970461538" xlink:href="#ma3594b346d" y="167.023542857"/>
     <use style="fill:#67628d;stroke:#000000;stroke-linejoin:miter;stroke-width:0.5;" x="345.965538462" xlink:href="#ma3594b346d" y="164.061257143"/>
     <use style="fill:#67628d;stroke:#000000;stroke-linejoin:miter;stroke-width:0.5;" x="379.960615385" xlink:href="#ma3594b346d" y="161.790171429"/>
     <use style="fill:#67628d;stroke:#000000;stroke-linejoin:miter;stroke-width:0.5;" x="413.955692308" xlink:href="#ma3594b346d" y="159.6672"/>
     <use style="fill:#67628d;stroke:#000000;stroke-linejoin:miter;stroke-width:0.5;" x="447.950769231" xlink:href="#ma3594b346d" y="155.52"/>
     <use style="fill:#67628d;stroke:#000000;stroke-linejoin:miter;stroke-width:0.5;" x="481.945846154" xlink:href="#ma3594b346d" y="145.695085714"/>
     <use style="fill:#67628d;stroke:#000000;stroke-linejoin:miter;stroke-width:0.5;" x="515.940923077" xlink:href="#ma3594b346d" y="140.757942857"/>
     <use style="fill:#67628d;stroke:#000000;stroke-linejoin:miter;stroke-width:0.5;" x="549.936" xlink:href="#ma3594b346d" y="137.943771429"/>
    </g>
   </g>
   <g id="line2d_11">
    <path clip-path="url(#pf7e24a6f15)" d="M 108 296.8704 
L 141.995077 289.464686 
L 175.990154 262.804114 
L 209.985231 242.759314 
L 243.980308 224.936229 
L 277.975385 214.370743 
L 311.970462 206.471314 
L 345.965538 198.078171 
L 379.960615 191.067429 
L 413.955692 184.007314 
L 447.950769 174.626743 
L 481.945846 165.344914 
L 515.940923 159.222857 
L 549.936 153.792 
" style="fill:none;stroke:#a83d52;stroke-linecap:square;stroke-width:1.5;"/>
   </g>
   <g id="line2d_12">
    <defs>
     <path d="M 0 -3 
L -0.673542 -0.927051 
L -2.85317 -0.927051 
L -1.089814 0.354102 
L -1.763356 2.427051 
L -0 1.145898 
L 1.763356 2.427051 
L 1.089814 0.354102 
L 2.85317 -0.927051 
L 0.673542 -0.927051 
z
" id="m7c98f2aa5a" style="stroke:#000000;stroke-linejoin:bevel;stroke-width:0.5;"/>
    </defs>
    <g clip-path="url(#pf7e24a6f15)">
     <use style="fill:#a83d52;stroke:#000000;stroke-linejoin:bevel;stroke-width:0.5;" x="108.0" xlink:href="#m7c98f2aa5a" y="296.8704"/>
     <use style="fill:#a83d52;stroke:#000000;stroke-linejoin:bevel;stroke-width:0.5;" x="141.995076923" xlink:href="#m7c98f2aa5a" y="289.464685714"/>
     <use style="fill:#a83d52;stroke:#000000;stroke-linejoin:bevel;stroke-width:0.5;" x="175.990153846" xlink:href="#m7c98f2aa5a" y="262.804114286"/>
     <use style="fill:#a83d52;stroke:#000000;stroke-linejoin:bevel;stroke-width:0.5;" x="209.985230769" xlink:href="#m7c98f2aa5a" y="242.759314286"/>
     <use style="fill:#a83d52;stroke:#000000;stroke-linejoin:bevel;stroke-width:0.5;" x="243.980307692" xlink:href="#m7c98f2aa5a" y="224.936228571"/>
     <use style="fill:#a83d52;stroke:#000000;stroke-linejoin:bevel;stroke-width:0.5;" x="277.975384615" xlink:href="#m7c98f2aa5a" y="214.370742857"/>
     <use style="fill:#a83d52;stroke:#000000;stroke-linejoin:bevel;stroke-width:0.5;" x="311.970461538" xlink:href="#m7c98f2aa5a" y="206.471314286"/>
     <use style="fill:#a83d52;stroke:#000000;stroke-linejoin:bevel;stroke-width:0.5;" x="345.965538462" xlink:href="#m7c98f2aa5a" y="198.078171429"/>
     <use style="fill:#a83d52;stroke:#000000;stroke-linejoin:bevel;stroke-width:0.5;" x="379.960615385" xlink:href="#m7c98f2aa5a" y="191.067428571"/>
     <use style="fill:#a83d52;stroke:#000000;stroke-linejoin:bevel;stroke-width:0.5;" x="413.955692308" xlink:href="#m7c98f2aa5a" y="184.007314286"/>
     <use style="fill:#a83d52;stroke:#000000;stroke-linejoin:bevel;stroke-width:0.5;" x="447.950769231" xlink:href="#m7c98f2aa5a" y="174.626742857"/>
     <use style="fill:#a83d52;stroke:#000000;stroke-linejoin:bevel;stroke-width:0.5;" x="481.945846154" xlink:href="#m7c98f2aa5a" y="165.344914286"/>
     <use style="fill:#a83d52;stroke:#000000;stroke-linejoin:bevel;stroke-width:0.5;" x="515.940923077" xlink:href="#m7c98f2aa5a" y="159.222857143"/>
     <use style="fill:#a83d52;stroke:#000000;stroke-linejoin:bevel;stroke-width:0.5;" x="549.936" xlink:href="#m7c98f2aa5a" y="153.792"/>
    </g>
   </g>
   <g id="line2d_13">
    <path clip-path="url(#pf7e24a6f15)" d="M 108 232.095086 
L 141.995077 225.232457 
L 175.990154 216.444343 
L 209.985231 211.112229 
L 243.980308 204.842057 
L 277.975385 200.1024 
L 311.970462 195.115886 
L 345.965538 192.252343 
L 379.960615 189.290057 
L 413.955692 186.179657 
L 447.950769 181.736229 
L 481.945846 178.3296 
L 515.940923 175.416686 
L 549.936 172.355657 
" style="fill:none;stroke:#e27699;stroke-linecap:square;stroke-width:1.5;"/>
   </g>
   <g id="line2d_14">
    <defs>
     <path d="M -0 3 
L 3 -3 
L -3 -3 
z
" id="m2f7480bde3" style="stroke:#000000;stroke-linejoin:miter;stroke-width:0.5;"/>
    </defs>
    <g clip-path="url(#pf7e24a6f15)">
     <use style="fill:#e27699;stroke:#000000;stroke-linejoin:miter;stroke-width:0.5;" x="108.0" xlink:href="#m2f7480bde3" y="232.095085714"/>
     <use style="fill:#e27699;stroke:#000000;stroke-linejoin:miter;stroke-width:0.5;" x="141.995076923" xlink:href="#m2f7480bde3" y="225.232457143"/>
     <use style="fill:#e27699;stroke:#000000;stroke-linejoin:miter;stroke-width:0.5;" x="175.990153846" xlink:href="#m2f7480bde3" y="216.444342857"/>
     <use style="fill:#e27699;stroke:#000000;stroke-linejoin:miter;stroke-width:0.5;" x="209.985230769" xlink:href="#m2f7480bde3" y="211.112228571"/>
     <use style="fill:#e27699;stroke:#000000;stroke-linejoin:miter;stroke-width:0.5;" x="243.980307692" xlink:href="#m2f7480bde3" y="204.842057143"/>
     <use style="fill:#e27699;stroke:#000000;stroke-linejoin:miter;stroke-width:0.5;" x="277.975384615" xlink:href="#m2f7480bde3" y="200.1024"/>
     <use style="fill:#e27699;stroke:#000000;stroke-linejoin:miter;stroke-width:0.5;" x="311.970461538" xlink:href="#m2f7480bde3" y="195.115885714"/>
     <use style="fill:#e27699;stroke:#000000;stroke-linejoin:miter;stroke-width:0.5;" x="345.965538462" xlink:href="#m2f7480bde3" y="192.252342857"/>
     <use style="fill:#e27699;stroke:#000000;stroke-linejoin:miter;stroke-width:0.5;" x="379.960615385" xlink:href="#m2f7480bde3" y="189.290057143"/>
     <use style="fill:#e27699;stroke:#000000;stroke-linejoin:miter;stroke-width:0.5;" x="413.955692308" xlink:href="#m2f7480bde3" y="186.179657143"/>
     <use style="fill:#e27699;stroke:#000000;stroke-linejoin:miter;stroke-width:0.5;" x="447.950769231" xlink:href="#m2f7480bde3" y="181.736228571"/>
     <use style="fill:#e27699;stroke:#000000;stroke-linejoin:miter;stroke-width:0.5;" x="481.945846154" xlink:href="#m2f7480bde3" y="178.3296"/>
     <use style="fill:#e27699;stroke:#000000;stroke-linejoin:miter;stroke-width:0.5;" x="515.940923077" xlink:href="#m2f7480bde3" y="175.416685714"/>
     <use style="fill:#e27699;stroke:#000000;stroke-linejoin:miter;stroke-width:0.5;" x="549.936" xlink:href="#m2f7480bde3" y="172.355657143"/>
    </g>
   </g>
   <g id="line2d_15">
    <path clip-path="url(#pf7e24a6f15)" d="M 345.965538 388.8 
L 379.960615 339.774171 
L 413.955692 264.384 
L 447.950769 237.032229 
L 481.945846 218.517943 
L 515.940923 192.400457 
L 549.936 174.478629 
" style="fill:none;stroke:#599f59;stroke-linecap:square;stroke-width:1.5;"/>
   </g>
   <g id="line2d_16">
    <defs>
     <path d="M 0 -3 
L -2.85317 -0.927051 
L -1.763356 2.427051 
L 1.763356 2.427051 
L 2.85317 -0.927051 
z
" id="m62b14721a3" style="stroke:#000000;stroke-linejoin:miter;stroke-width:0.5;"/>
    </defs>
    <g clip-path="url(#pf7e24a6f15)">
     <use style="fill:#599f59;stroke:#000000;stroke-linejoin:miter;stroke-width:0.5;" x="345.965538462" xlink:href="#m62b14721a3" y="388.8"/>
     <use style="fill:#599f59;stroke:#000000;stroke-linejoin:miter;stroke-width:0.5;" x="379.960615385" xlink:href="#m62b14721a3" y="339.774171429"/>
     <use style="fill:#599f59;stroke:#000000;stroke-linejoin:miter;stroke-width:0.5;" x="413.955692308" xlink:href="#m62b14721a3" y="264.384"/>
     <use style="fill:#599f59;stroke:#000000;stroke-linejoin:miter;stroke-width:0.5;" x="447.950769231" xlink:href="#m62b14721a3" y="237.032228571"/>
     <use style="fill:#599f59;stroke:#000000;stroke-linejoin:miter;stroke-width:0.5;" x="481.945846154" xlink:href="#m62b14721a3" y="218.517942857"/>
     <use style="fill:#599f59;stroke:#000000;stroke-linejoin:miter;stroke-width:0.5;" x="515.940923077" xlink:href="#m62b14721a3" y="192.400457143"/>
     <use style="fill:#599f59;stroke:#000000;stroke-linejoin:miter;stroke-width:0.5;" x="549.936" xlink:href="#m62b14721a3" y="174.478628571"/>
    </g>
   </g>
   <g id="line2d_17">
    <path clip-path="url(#pf7e24a6f15)" d="M 209.985231 388.8 
L 243.980308 352.956343 
L 277.975385 326.542629 
L 311.970462 312.027429 
L 345.965538 298.2528 
L 379.960615 284.231314 
L 413.955692 260.335543 
L 447.950769 239.402057 
L 481.945846 218.468571 
L 515.940923 202.176 
L 549.936 189.290057 
" style="fill:none;stroke:#4eae4b;stroke-linecap:square;stroke-width:1.5;"/>
   </g>
   <g id="line2d_18">
    <defs>
     <path d="M 0 3 
C 0.795609 3 1.55874 2.683901 2.12132 2.12132 
C 2.683901 1.55874 3 0.795609 3 0 
C 3 -0.795609 2.683901 -1.55874 2.12132 -2.12132 
C 1.55874 -2.683901 0.795609 -3 0 -3 
C -0.795609 -3 -1.55874 -2.683901 -2.12132 -2.12132 
C -2.683901 -1.55874 -3 -0.795609 -3 0 
C -3 0.795609 -2.683901 1.55874 -2.12132 2.12132 
C -1.55874 2.683901 -0.795609 3 0 3 
z
" id="mcf4ad48d4f" style="stroke:#000000;stroke-width:0.5;"/>
    </defs>
    <g clip-path="url(#pf7e24a6f15)">
     <use style="fill:#4eae4b;stroke:#000000;stroke-width:0.5;" x="209.985230769" xlink:href="#mcf4ad48d4f" y="388.8"/>
     <use style="fill:#4eae4b;stroke:#000000;stroke-width:0.5;" x="243.980307692" xlink:href="#mcf4ad48d4f" y="352.956342857"/>
     <use style="fill:#4eae4b;stroke:#000000;stroke-width:0.5;" x="277.975384615" xlink:href="#mcf4ad48d4f" y="326.542628571"/>
     <use style="fill:#4eae4b;stroke:#000000;stroke-width:0.5;" x="311.970461538" xlink:href="#mcf4ad48d4f" y="312.027428571"/>
     <use style="fill:#4eae4b;stroke:#000000;stroke-width:0.5;" x="345.965538462" xlink:href="#mcf4ad48d4f" y="298.2528"/>
     <use style="fill:#4eae4b;stroke:#000000;stroke-width:0.5;" x="379.960615385" xlink:href="#mcf4ad48d4f" y="284.231314286"/>
     <use style="fill:#4eae4b;stroke:#000000;stroke-width:0.5;" x="413.955692308" xlink:href="#mcf4ad48d4f" y="260.335542857"/>
     <use style="fill:#4eae4b;stroke:#000000;stroke-width:0.5;" x="447.950769231" xlink:href="#mcf4ad48d4f" y="239.402057143"/>
     <use style="fill:#4eae4b;stroke:#000000;stroke-width:0.5;" x="481.945846154" xlink:href="#mcf4ad48d4f" y="218.468571429"/>
     <use style="fill:#4eae4b;stroke:#000000;stroke-width:0.5;" x="515.940923077" xlink:href="#mcf4ad48d4f" y="202.176"/>
     <use style="fill:#4eae4b;stroke:#000000;stroke-width:0.5;" x="549.936" xlink:href="#mcf4ad48d4f" y="189.290057143"/>
    </g>
   </g>
   <g id="patch_3">
    <path d="M 108 388.8 
L 549.936 388.8 
" style="fill:none;stroke:#000000;stroke-linecap:square;stroke-linejoin:miter;"/>
   </g>
   <g id="patch_4">
    <path d="M 108 388.8 
L 108 43.2 
" style="fill:none;stroke:#000000;stroke-linecap:square;stroke-linejoin:miter;"/>
   </g>
   <g id="matplotlib.axis_1">
    <g id="xtick_1">
     <g id="line2d_19">
      <defs>
       <path d="M 0 0 
L 0 -4 
" id="m5508d52024" style="stroke:#000000;stroke-width:0.5;"/>
      </defs>
      <g>
       <use style="stroke:#000000;stroke-width:0.5;" x="141.995076923" xlink:href="#m5508d52024" y="388.8"/>
      </g>
     </g>
     <g id="text_1">
      <!-- 17/02 -->
      <defs>
       <path d="M 19.1875 8.296875 
L 53.609375 8.296875 
L 53.609375 0 
L 7.328125 0 
L 7.328125 8.296875 
Q 12.9375 14.109375 22.625 23.890625 
Q 32.328125 33.6875 34.8125 36.53125 
Q 39.546875 41.84375 41.421875 45.53125 
Q 43.3125 49.21875 43.3125 52.78125 
Q 43.3125 58.59375 39.234375 62.25 
Q 35.15625 65.921875 28.609375 65.921875 
Q 23.96875 65.921875 18.8125 64.3125 
Q 13.671875 62.703125 7.8125 59.421875 
L 7.8125 69.390625 
Q 13.765625 71.78125 18.9375 73 
Q 24.125 74.21875 28.421875 74.21875 
Q 39.75 74.21875 46.484375 68.546875 
Q 53.21875 62.890625 53.21875 53.421875 
Q 53.21875 48.921875 51.53125 44.890625 
Q 49.859375 40.875 45.40625 35.40625 
Q 44.1875 33.984375 37.640625 27.21875 
Q 31.109375 20.453125 19.1875 8.296875 
" id="BitstreamVeraSans-Roman-32"/>
       <path d="M 31.78125 66.40625 
Q 24.171875 66.40625 20.328125 58.90625 
Q 16.5 51.421875 16.5 36.375 
Q 16.5 21.390625 20.328125 13.890625 
Q 24.171875 6.390625 31.78125 6.390625 
Q 39.453125 6.390625 43.28125 13.890625 
Q 47.125 21.390625 47.125 36.375 
Q 47.125 51.421875 43.28125 58.90625 
Q 39.453125 66.40625 31.78125 66.40625 
M 31.78125 74.21875 
Q 44.046875 74.21875 50.515625 64.515625 
Q 56.984375 54.828125 56.984375 36.375 
Q 56.984375 17.96875 50.515625 8.265625 
Q 44.046875 -1.421875 31.78125 -1.421875 
Q 19.53125 -1.421875 13.0625 8.265625 
Q 6.59375 17.96875 6.59375 36.375 
Q 6.59375 54.828125 13.0625 64.515625 
Q 19.53125 74.21875 31.78125 74.21875 
" id="BitstreamVeraSans-Roman-30"/>
       <path d="M 12.40625 8.296875 
L 28.515625 8.296875 
L 28.515625 63.921875 
L 10.984375 60.40625 
L 10.984375 69.390625 
L 28.421875 72.90625 
L 38.28125 72.90625 
L 38.28125 8.296875 
L 54.390625 8.296875 
L 54.390625 0 
L 12.40625 0 
z
" id="BitstreamVeraSans-Roman-31"/>
       <path d="M 8.203125 72.90625 
L 55.078125 72.90625 
L 55.078125 68.703125 
L 28.609375 0 
L 18.3125 0 
L 43.21875 64.59375 
L 8.203125 64.59375 
z
" id="BitstreamVeraSans-Roman-37"/>
       <path d="M 25.390625 72.90625 
L 33.6875 72.90625 
L 8.296875 -9.28125 
L 0 -9.28125 
z
" id="BitstreamVeraSans-Roman-2f"/>
      </defs>
      <g transform="translate(127.585701923 400.3984375)scale(0.1 -0.1)">
       <use xlink:href="#BitstreamVeraSans-Roman-31"/>
       <use x="63.623046875" xlink:href="#BitstreamVeraSans-Roman-37"/>
       <use x="127.24609375" xlink:href="#BitstreamVeraSans-Roman-2f"/>
       <use x="160.9375" xlink:href="#BitstreamVeraSans-Roman-30"/>
       <use x="224.560546875" xlink:href="#BitstreamVeraSans-Roman-32"/>
      </g>
     </g>
    </g>
    <g id="xtick_2">
     <g id="line2d_20">
      <g>
       <use style="stroke:#000000;stroke-width:0.5;" x="175.990153846" xlink:href="#m5508d52024" y="388.8"/>
      </g>
     </g>
     <g id="text_2">
      <!-- 17/03 -->
      <defs>
       <path d="M 40.578125 39.3125 
Q 47.65625 37.796875 51.625 33 
Q 55.609375 28.21875 55.609375 21.1875 
Q 55.609375 10.40625 48.1875 4.484375 
Q 40.765625 -1.421875 27.09375 -1.421875 
Q 22.515625 -1.421875 17.65625 -0.515625 
Q 12.796875 0.390625 7.625 2.203125 
L 7.625 11.71875 
Q 11.71875 9.328125 16.59375 8.109375 
Q 21.484375 6.890625 26.8125 6.890625 
Q 36.078125 6.890625 40.9375 10.546875 
Q 45.796875 14.203125 45.796875 21.1875 
Q 45.796875 27.640625 41.28125 31.265625 
Q 36.765625 34.90625 28.71875 34.90625 
L 20.21875 34.90625 
L 20.21875 43.015625 
L 29.109375 43.015625 
Q 36.375 43.015625 40.234375 45.921875 
Q 44.09375 48.828125 44.09375 54.296875 
Q 44.09375 59.90625 40.109375 62.90625 
Q 36.140625 65.921875 28.71875 65.921875 
Q 24.65625 65.921875 20.015625 65.03125 
Q 15.375 64.15625 9.8125 62.3125 
L 9.8125 71.09375 
Q 15.4375 72.65625 20.34375 73.4375 
Q 25.25 74.21875 29.59375 74.21875 
Q 40.828125 74.21875 47.359375 69.109375 
Q 53.90625 64.015625 53.90625 55.328125 
Q 53.90625 49.265625 50.4375 45.09375 
Q 46.96875 40.921875 40.578125 39.3125 
" id="BitstreamVeraSans-Roman-33"/>
      </defs>
      <g transform="translate(161.580778846 400.3984375)scale(0.1 -0.1)">
       <use xlink:href="#BitstreamVeraSans-Roman-31"/>
       <use x="63.623046875" xlink:href="#BitstreamVeraSans-Roman-37"/>
       <use x="127.24609375" xlink:href="#BitstreamVeraSans-Roman-2f"/>
       <use x="160.9375" xlink:href="#BitstreamVeraSans-Roman-30"/>
       <use x="224.560546875" xlink:href="#BitstreamVeraSans-Roman-33"/>
      </g>
     </g>
    </g>
    <g id="xtick_3">
     <g id="line2d_21">
      <g>
       <use style="stroke:#000000;stroke-width:0.5;" x="209.985230769" xlink:href="#m5508d52024" y="388.8"/>
      </g>
     </g>
     <g id="text_3">
      <!-- 17/04 -->
      <defs>
       <path d="M 37.796875 64.3125 
L 12.890625 25.390625 
L 37.796875 25.390625 
z
M 35.203125 72.90625 
L 47.609375 72.90625 
L 47.609375 25.390625 
L 58.015625 25.390625 
L 58.015625 17.1875 
L 47.609375 17.1875 
L 47.609375 0 
L 37.796875 0 
L 37.796875 17.1875 
L 4.890625 17.1875 
L 4.890625 26.703125 
z
" id="BitstreamVeraSans-Roman-34"/>
      </defs>
      <g transform="translate(195.575855769 400.3984375)scale(0.1 -0.1)">
       <use xlink:href="#BitstreamVeraSans-Roman-31"/>
       <use x="63.623046875" xlink:href="#BitstreamVeraSans-Roman-37"/>
       <use x="127.24609375" xlink:href="#BitstreamVeraSans-Roman-2f"/>
       <use x="160.9375" xlink:href="#BitstreamVeraSans-Roman-30"/>
       <use x="224.560546875" xlink:href="#BitstreamVeraSans-Roman-34"/>
      </g>
     </g>
    </g>
    <g id="xtick_4">
     <g id="line2d_22">
      <g>
       <use style="stroke:#000000;stroke-width:0.5;" x="243.980307692" xlink:href="#m5508d52024" y="388.8"/>
      </g>
     </g>
     <g id="text_4">
      <!-- 17/05 -->
      <defs>
       <path d="M 10.796875 72.90625 
L 49.515625 72.90625 
L 49.515625 64.59375 
L 19.828125 64.59375 
L 19.828125 46.734375 
Q 21.96875 47.46875 24.109375 47.828125 
Q 26.265625 48.1875 28.421875 48.1875 
Q 40.625 48.1875 47.75 41.5 
Q 54.890625 34.8125 54.890625 23.390625 
Q 54.890625 11.625 47.5625 5.09375 
Q 40.234375 -1.421875 26.90625 -1.421875 
Q 22.3125 -1.421875 17.546875 -0.640625 
Q 12.796875 0.140625 7.71875 1.703125 
L 7.71875 11.625 
Q 12.109375 9.234375 16.796875 8.0625 
Q 21.484375 6.890625 26.703125 6.890625 
Q 35.15625 6.890625 40.078125 11.328125 
Q 45.015625 15.765625 45.015625 23.390625 
Q 45.015625 31 40.078125 35.4375 
Q 35.15625 39.890625 26.703125 39.890625 
Q 22.75 39.890625 18.8125 39.015625 
Q 14.890625 38.140625 10.796875 36.28125 
z
" id="BitstreamVeraSans-Roman-35"/>
      </defs>
      <g transform="translate(229.570932692 400.3984375)scale(0.1 -0.1)">
       <use xlink:href="#BitstreamVeraSans-Roman-31"/>
       <use x="63.623046875" xlink:href="#BitstreamVeraSans-Roman-37"/>
       <use x="127.24609375" xlink:href="#BitstreamVeraSans-Roman-2f"/>
       <use x="160.9375" xlink:href="#BitstreamVeraSans-Roman-30"/>
       <use x="224.560546875" xlink:href="#BitstreamVeraSans-Roman-35"/>
      </g>
     </g>
    </g>
    <g id="xtick_5">
     <g id="line2d_23">
      <g>
       <use style="stroke:#000000;stroke-width:0.5;" x="277.975384615" xlink:href="#m5508d52024" y="388.8"/>
      </g>
     </g>
     <g id="text_5">
      <!-- 17/06 -->
      <defs>
       <path d="M 33.015625 40.375 
Q 26.375 40.375 22.484375 35.828125 
Q 18.609375 31.296875 18.609375 23.390625 
Q 18.609375 15.53125 22.484375 10.953125 
Q 26.375 6.390625 33.015625 6.390625 
Q 39.65625 6.390625 43.53125 10.953125 
Q 47.40625 15.53125 47.40625 23.390625 
Q 47.40625 31.296875 43.53125 35.828125 
Q 39.65625 40.375 33.015625 40.375 
M 52.59375 71.296875 
L 52.59375 62.3125 
Q 48.875 64.0625 45.09375 64.984375 
Q 41.3125 65.921875 37.59375 65.921875 
Q 27.828125 65.921875 22.671875 59.328125 
Q 17.53125 52.734375 16.796875 39.40625 
Q 19.671875 43.65625 24.015625 45.921875 
Q 28.375 48.1875 33.59375 48.1875 
Q 44.578125 48.1875 50.953125 41.515625 
Q 57.328125 34.859375 57.328125 23.390625 
Q 57.328125 12.15625 50.6875 5.359375 
Q 44.046875 -1.421875 33.015625 -1.421875 
Q 20.359375 -1.421875 13.671875 8.265625 
Q 6.984375 17.96875 6.984375 36.375 
Q 6.984375 53.65625 15.1875 63.9375 
Q 23.390625 74.21875 37.203125 74.21875 
Q 40.921875 74.21875 44.703125 73.484375 
Q 48.484375 72.75 52.59375 71.296875 
" id="BitstreamVeraSans-Roman-36"/>
      </defs>
      <g transform="translate(263.566009615 400.3984375)scale(0.1 -0.1)">
       <use xlink:href="#BitstreamVeraSans-Roman-31"/>
       <use x="63.623046875" xlink:href="#BitstreamVeraSans-Roman-37"/>
       <use x="127.24609375" xlink:href="#BitstreamVeraSans-Roman-2f"/>
       <use x="160.9375" xlink:href="#BitstreamVeraSans-Roman-30"/>
       <use x="224.560546875" xlink:href="#BitstreamVeraSans-Roman-36"/>
      </g>
     </g>
    </g>
    <g id="xtick_6">
     <g id="line2d_24">
      <g>
       <use style="stroke:#000000;stroke-width:0.5;" x="311.970461538" xlink:href="#m5508d52024" y="388.8"/>
      </g>
     </g>
     <g id="text_6">
      <!-- 17/07 -->
      <g transform="translate(297.561086538 400.3984375)scale(0.1 -0.1)">
       <use xlink:href="#BitstreamVeraSans-Roman-31"/>
       <use x="63.623046875" xlink:href="#BitstreamVeraSans-Roman-37"/>
       <use x="127.24609375" xlink:href="#BitstreamVeraSans-Roman-2f"/>
       <use x="160.9375" xlink:href="#BitstreamVeraSans-Roman-30"/>
       <use x="224.560546875" xlink:href="#BitstreamVeraSans-Roman-37"/>
      </g>
     </g>
    </g>
    <g id="xtick_7">
     <g id="line2d_25">
      <g>
       <use style="stroke:#000000;stroke-width:0.5;" x="345.965538462" xlink:href="#m5508d52024" y="388.8"/>
      </g>
     </g>
     <g id="text_7">
      <!-- 17/08 -->
      <defs>
       <path d="M 31.78125 34.625 
Q 24.75 34.625 20.71875 30.859375 
Q 16.703125 27.09375 16.703125 20.515625 
Q 16.703125 13.921875 20.71875 10.15625 
Q 24.75 6.390625 31.78125 6.390625 
Q 38.8125 6.390625 42.859375 10.171875 
Q 46.921875 13.96875 46.921875 20.515625 
Q 46.921875 27.09375 42.890625 30.859375 
Q 38.875 34.625 31.78125 34.625 
M 21.921875 38.8125 
Q 15.578125 40.375 12.03125 44.71875 
Q 8.5 49.078125 8.5 55.328125 
Q 8.5 64.0625 14.71875 69.140625 
Q 20.953125 74.21875 31.78125 74.21875 
Q 42.671875 74.21875 48.875 69.140625 
Q 55.078125 64.0625 55.078125 55.328125 
Q 55.078125 49.078125 51.53125 44.71875 
Q 48 40.375 41.703125 38.8125 
Q 48.828125 37.15625 52.796875 32.3125 
Q 56.78125 27.484375 56.78125 20.515625 
Q 56.78125 9.90625 50.3125 4.234375 
Q 43.84375 -1.421875 31.78125 -1.421875 
Q 19.734375 -1.421875 13.25 4.234375 
Q 6.78125 9.90625 6.78125 20.515625 
Q 6.78125 27.484375 10.78125 32.3125 
Q 14.796875 37.15625 21.921875 38.8125 
M 18.3125 54.390625 
Q 18.3125 48.734375 21.84375 45.5625 
Q 25.390625 42.390625 31.78125 42.390625 
Q 38.140625 42.390625 41.71875 45.5625 
Q 45.3125 48.734375 45.3125 54.390625 
Q 45.3125 60.0625 41.71875 63.234375 
Q 38.140625 66.40625 31.78125 66.40625 
Q 25.390625 66.40625 21.84375 63.234375 
Q 18.3125 60.0625 18.3125 54.390625 
" id="BitstreamVeraSans-Roman-38"/>
      </defs>
      <g transform="translate(331.556163462 400.3984375)scale(0.1 -0.1)">
       <use xlink:href="#BitstreamVeraSans-Roman-31"/>
       <use x="63.623046875" xlink:href="#BitstreamVeraSans-Roman-37"/>
       <use x="127.24609375" xlink:href="#BitstreamVeraSans-Roman-2f"/>
       <use x="160.9375" xlink:href="#BitstreamVeraSans-Roman-30"/>
       <use x="224.560546875" xlink:href="#BitstreamVeraSans-Roman-38"/>
      </g>
     </g>
    </g>
    <g id="xtick_8">
     <g id="line2d_26">
      <g>
       <use style="stroke:#000000;stroke-width:0.5;" x="379.960615385" xlink:href="#m5508d52024" y="388.8"/>
      </g>
     </g>
     <g id="text_8">
      <!-- 17/09 -->
      <defs>
       <path d="M 10.984375 1.515625 
L 10.984375 10.5 
Q 14.703125 8.734375 18.5 7.8125 
Q 22.3125 6.890625 25.984375 6.890625 
Q 35.75 6.890625 40.890625 13.453125 
Q 46.046875 20.015625 46.78125 33.40625 
Q 43.953125 29.203125 39.59375 26.953125 
Q 35.25 24.703125 29.984375 24.703125 
Q 19.046875 24.703125 12.671875 31.3125 
Q 6.296875 37.9375 6.296875 49.421875 
Q 6.296875 60.640625 12.9375 67.421875 
Q 19.578125 74.21875 30.609375 74.21875 
Q 43.265625 74.21875 49.921875 64.515625 
Q 56.59375 54.828125 56.59375 36.375 
Q 56.59375 19.140625 48.40625 8.859375 
Q 40.234375 -1.421875 26.421875 -1.421875 
Q 22.703125 -1.421875 18.890625 -0.6875 
Q 15.09375 0.046875 10.984375 1.515625 
M 30.609375 32.421875 
Q 37.25 32.421875 41.125 36.953125 
Q 45.015625 41.5 45.015625 49.421875 
Q 45.015625 57.28125 41.125 61.84375 
Q 37.25 66.40625 30.609375 66.40625 
Q 23.96875 66.40625 20.09375 61.84375 
Q 16.21875 57.28125 16.21875 49.421875 
Q 16.21875 41.5 20.09375 36.953125 
Q 23.96875 32.421875 30.609375 32.421875 
" id="BitstreamVeraSans-Roman-39"/>
      </defs>
      <g transform="translate(365.551240385 400.3984375)scale(0.1 -0.1)">
       <use xlink:href="#BitstreamVeraSans-Roman-31"/>
       <use x="63.623046875" xlink:href="#BitstreamVeraSans-Roman-37"/>
       <use x="127.24609375" xlink:href="#BitstreamVeraSans-Roman-2f"/>
       <use x="160.9375" xlink:href="#BitstreamVeraSans-Roman-30"/>
       <use x="224.560546875" xlink:href="#BitstreamVeraSans-Roman-39"/>
      </g>
     </g>
    </g>
    <g id="xtick_9">
     <g id="line2d_27">
      <g>
       <use style="stroke:#000000;stroke-width:0.5;" x="413.955692308" xlink:href="#m5508d52024" y="388.8"/>
      </g>
     </g>
     <g id="text_9">
      <!-- 17/10 -->
      <g transform="translate(399.546317308 400.3984375)scale(0.1 -0.1)">
       <use xlink:href="#BitstreamVeraSans-Roman-31"/>
       <use x="63.623046875" xlink:href="#BitstreamVeraSans-Roman-37"/>
       <use x="127.24609375" xlink:href="#BitstreamVeraSans-Roman-2f"/>
       <use x="160.9375" xlink:href="#BitstreamVeraSans-Roman-31"/>
       <use x="224.560546875" xlink:href="#BitstreamVeraSans-Roman-30"/>
      </g>
     </g>
    </g>
    <g id="xtick_10">
     <g id="line2d_28">
      <g>
       <use style="stroke:#000000;stroke-width:0.5;" x="447.950769231" xlink:href="#m5508d52024" y="388.8"/>
      </g>
     </g>
     <g id="text_10">
      <!-- 17/11 -->
      <g transform="translate(433.541394231 400.3984375)scale(0.1 -0.1)">
       <use xlink:href="#BitstreamVeraSans-Roman-31"/>
       <use x="63.623046875" xlink:href="#BitstreamVeraSans-Roman-37"/>
       <use x="127.24609375" xlink:href="#BitstreamVeraSans-Roman-2f"/>
       <use x="160.9375" xlink:href="#BitstreamVeraSans-Roman-31"/>
       <use x="224.560546875" xlink:href="#BitstreamVeraSans-Roman-31"/>
      </g>
     </g>
    </g>
    <g id="xtick_11">
     <g id="line2d_29">
      <g>
       <use style="stroke:#000000;stroke-width:0.5;" x="481.945846154" xlink:href="#m5508d52024" y="388.8"/>
      </g>
     </g>
     <g id="text_11">
      <!-- 17/12 -->
      <g transform="translate(467.536471154 400.3984375)scale(0.1 -0.1)">
       <use xlink:href="#BitstreamVeraSans-Roman-31"/>
       <use x="63.623046875" xlink:href="#BitstreamVeraSans-Roman-37"/>
       <use x="127.24609375" xlink:href="#BitstreamVeraSans-Roman-2f"/>
       <use x="160.9375" xlink:href="#BitstreamVeraSans-Roman-31"/>
       <use x="224.560546875" xlink:href="#BitstreamVeraSans-Roman-32"/>
      </g>
     </g>
    </g>
    <g id="xtick_12">
     <g id="line2d_30">
      <g>
       <use style="stroke:#000000;stroke-width:0.5;" x="515.940923077" xlink:href="#m5508d52024" y="388.8"/>
      </g>
     </g>
     <g id="text_12">
      <!-- 18/01 -->
      <g transform="translate(501.531548077 400.3984375)scale(0.1 -0.1)">
       <use xlink:href="#BitstreamVeraSans-Roman-31"/>
       <use x="63.623046875" xlink:href="#BitstreamVeraSans-Roman-38"/>
       <use x="127.24609375" xlink:href="#BitstreamVeraSans-Roman-2f"/>
       <use x="160.9375" xlink:href="#BitstreamVeraSans-Roman-30"/>
       <use x="224.560546875" xlink:href="#BitstreamVeraSans-Roman-31"/>
      </g>
     </g>
    </g>
    <g id="xtick_13">
     <g id="line2d_31">
      <g>
       <use style="stroke:#000000;stroke-width:0.5;" x="549.936" xlink:href="#m5508d52024" y="388.8"/>
      </g>
     </g>
     <g id="text_13">
      <!-- 18/02 -->
      <g transform="translate(535.526625 400.3984375)scale(0.1 -0.1)">
       <use xlink:href="#BitstreamVeraSans-Roman-31"/>
       <use x="63.623046875" xlink:href="#BitstreamVeraSans-Roman-38"/>
       <use x="127.24609375" xlink:href="#BitstreamVeraSans-Roman-2f"/>
       <use x="160.9375" xlink:href="#BitstreamVeraSans-Roman-30"/>
       <use x="224.560546875" xlink:href="#BitstreamVeraSans-Roman-32"/>
      </g>
     </g>
    </g>
    <g id="text_14">
     <!-- months -->
     <defs>
      <path d="M 54.890625 33.015625 
L 54.890625 0 
L 45.90625 0 
L 45.90625 32.71875 
Q 45.90625 40.484375 42.875 44.328125 
Q 39.84375 48.1875 33.796875 48.1875 
Q 26.515625 48.1875 22.3125 43.546875 
Q 18.109375 38.921875 18.109375 30.90625 
L 18.109375 0 
L 9.078125 0 
L 9.078125 54.6875 
L 18.109375 54.6875 
L 18.109375 46.1875 
Q 21.34375 51.125 25.703125 53.5625 
Q 30.078125 56 35.796875 56 
Q 45.21875 56 50.046875 50.171875 
Q 54.890625 44.34375 54.890625 33.015625 
" id="BitstreamVeraSans-Roman-6e"/>
      <path d="M 52 44.1875 
Q 55.375 50.25 60.0625 53.125 
Q 64.75 56 71.09375 56 
Q 79.640625 56 84.28125 50.015625 
Q 88.921875 44.046875 88.921875 33.015625 
L 88.921875 0 
L 79.890625 0 
L 79.890625 32.71875 
Q 79.890625 40.578125 77.09375 44.375 
Q 74.3125 48.1875 68.609375 48.1875 
Q 61.625 48.1875 57.5625 43.546875 
Q 53.515625 38.921875 53.515625 30.90625 
L 53.515625 0 
L 44.484375 0 
L 44.484375 32.71875 
Q 44.484375 40.625 41.703125 44.40625 
Q 38.921875 48.1875 33.109375 48.1875 
Q 26.21875 48.1875 22.15625 43.53125 
Q 18.109375 38.875 18.109375 30.90625 
L 18.109375 0 
L 9.078125 0 
L 9.078125 54.6875 
L 18.109375 54.6875 
L 18.109375 46.1875 
Q 21.1875 51.21875 25.484375 53.609375 
Q 29.78125 56 35.6875 56 
Q 41.65625 56 45.828125 52.96875 
Q 50 49.953125 52 44.1875 
" id="BitstreamVeraSans-Roman-6d"/>
      <path d="M 30.609375 48.390625 
Q 23.390625 48.390625 19.1875 42.75 
Q 14.984375 37.109375 14.984375 27.296875 
Q 14.984375 17.484375 19.15625 11.84375 
Q 23.34375 6.203125 30.609375 6.203125 
Q 37.796875 6.203125 41.984375 11.859375 
Q 46.1875 17.53125 46.1875 27.296875 
Q 46.1875 37.015625 41.984375 42.703125 
Q 37.796875 48.390625 30.609375 48.390625 
M 30.609375 56 
Q 42.328125 56 49.015625 48.375 
Q 55.71875 40.765625 55.71875 27.296875 
Q 55.71875 13.875 49.015625 6.21875 
Q 42.328125 -1.421875 30.609375 -1.421875 
Q 18.84375 -1.421875 12.171875 6.21875 
Q 5.515625 13.875 5.515625 27.296875 
Q 5.515625 40.765625 12.171875 48.375 
Q 18.84375 56 30.609375 56 
" id="BitstreamVeraSans-Roman-6f"/>
      <path d="M 54.890625 33.015625 
L 54.890625 0 
L 45.90625 0 
L 45.90625 32.71875 
Q 45.90625 40.484375 42.875 44.328125 
Q 39.84375 48.1875 33.796875 48.1875 
Q 26.515625 48.1875 22.3125 43.546875 
Q 18.109375 38.921875 18.109375 30.90625 
L 18.109375 0 
L 9.078125 0 
L 9.078125 75.984375 
L 18.109375 75.984375 
L 18.109375 46.1875 
Q 21.34375 51.125 25.703125 53.5625 
Q 30.078125 56 35.796875 56 
Q 45.21875 56 50.046875 50.171875 
Q 54.890625 44.34375 54.890625 33.015625 
" id="BitstreamVeraSans-Roman-68"/>
      <path d="M 18.3125 70.21875 
L 18.3125 54.6875 
L 36.8125 54.6875 
L 36.8125 47.703125 
L 18.3125 47.703125 
L 18.3125 18.015625 
Q 18.3125 11.328125 20.140625 9.421875 
Q 21.96875 7.515625 27.59375 7.515625 
L 36.8125 7.515625 
L 36.8125 0 
L 27.59375 0 
Q 17.1875 0 13.234375 3.875 
Q 9.28125 7.765625 9.28125 18.015625 
L 9.28125 47.703125 
L 2.6875 47.703125 
L 2.6875 54.6875 
L 9.28125 54.6875 
L 9.28125 70.21875 
z
" id="BitstreamVeraSans-Roman-74"/>
      <path d="M 44.28125 53.078125 
L 44.28125 44.578125 
Q 40.484375 46.53125 36.375 47.5 
Q 32.28125 48.484375 27.875 48.484375 
Q 21.1875 48.484375 17.84375 46.4375 
Q 14.5 44.390625 14.5 40.28125 
Q 14.5 37.15625 16.890625 35.375 
Q 19.28125 33.59375 26.515625 31.984375 
L 29.59375 31.296875 
Q 39.15625 29.25 43.1875 25.515625 
Q 47.21875 21.78125 47.21875 15.09375 
Q 47.21875 7.46875 41.1875 3.015625 
Q 35.15625 -1.421875 24.609375 -1.421875 
Q 20.21875 -1.421875 15.453125 -0.5625 
Q 10.6875 0.296875 5.421875 2 
L 5.421875 11.28125 
Q 10.40625 8.6875 15.234375 7.390625 
Q 20.0625 6.109375 24.8125 6.109375 
Q 31.15625 6.109375 34.5625 8.28125 
Q 37.984375 10.453125 37.984375 14.40625 
Q 37.984375 18.0625 35.515625 20.015625 
Q 33.0625 21.96875 24.703125 23.78125 
L 21.578125 24.515625 
Q 13.234375 26.265625 9.515625 29.90625 
Q 5.8125 33.546875 5.8125 39.890625 
Q 5.8125 47.609375 11.28125 51.796875 
Q 16.75 56 26.8125 56 
Q 31.78125 56 36.171875 55.265625 
Q 40.578125 54.546875 44.28125 53.078125 
" id="BitstreamVeraSans-Roman-73"/>
     </defs>
     <g transform="translate(306.3695625 416.59625)scale(0.12 -0.12)">
      <use xlink:href="#BitstreamVeraSans-Roman-6d"/>
      <use x="97.412109375" xlink:href="#BitstreamVeraSans-Roman-6f"/>
      <use x="158.59375" xlink:href="#BitstreamVeraSans-Roman-6e"/>
      <use x="221.97265625" xlink:href="#BitstreamVeraSans-Roman-74"/>
      <use x="261.181640625" xlink:href="#BitstreamVeraSans-Roman-68"/>
      <use x="324.560546875" xlink:href="#BitstreamVeraSans-Roman-73"/>
     </g>
    </g>
   </g>
   <g id="matplotlib.axis_2">
    <g id="ytick_1">
     <g id="line2d_32">
      <defs>
       <path d="M 0 0 
L 4 0 
" id="m520a5afd39" style="stroke:#000000;stroke-width:0.5;"/>
      </defs>
      <g>
       <use style="stroke:#000000;stroke-width:0.5;" x="108.0" xlink:href="#m520a5afd39" y="388.8"/>
      </g>
     </g>
     <g id="text_15">
      <!-- 0 -->
      <g transform="translate(96.365 392.11125)scale(0.12 -0.12)">
       <use xlink:href="#BitstreamVeraSans-Roman-30"/>
      </g>
     </g>
    </g>
    <g id="ytick_2">
     <g id="line2d_33">
      <g>
       <use style="stroke:#000000;stroke-width:0.5;" x="108.0" xlink:href="#m520a5afd39" y="339.428571429"/>
      </g>
     </g>
     <g id="text_16">
      <!-- 1000 -->
      <g transform="translate(73.46 342.739821429)scale(0.12 -0.12)">
       <use xlink:href="#BitstreamVeraSans-Roman-31"/>
       <use x="63.623046875" xlink:href="#BitstreamVeraSans-Roman-30"/>
       <use x="127.24609375" xlink:href="#BitstreamVeraSans-Roman-30"/>
       <use x="190.869140625" xlink:href="#BitstreamVeraSans-Roman-30"/>
      </g>
     </g>
    </g>
    <g id="ytick_3">
     <g id="line2d_34">
      <g>
       <use style="stroke:#000000;stroke-width:0.5;" x="108.0" xlink:href="#m520a5afd39" y="290.057142857"/>
      </g>
     </g>
     <g id="text_17">
      <!-- 2000 -->
      <g transform="translate(73.46 293.368392857)scale(0.12 -0.12)">
       <use xlink:href="#BitstreamVeraSans-Roman-32"/>
       <use x="63.623046875" xlink:href="#BitstreamVeraSans-Roman-30"/>
       <use x="127.24609375" xlink:href="#BitstreamVeraSans-Roman-30"/>
       <use x="190.869140625" xlink:href="#BitstreamVeraSans-Roman-30"/>
      </g>
     </g>
    </g>
    <g id="ytick_4">
     <g id="line2d_35">
      <g>
       <use style="stroke:#000000;stroke-width:0.5;" x="108.0" xlink:href="#m520a5afd39" y="240.685714286"/>
      </g>
     </g>
     <g id="text_18">
      <!-- 3000 -->
      <g transform="translate(73.46 243.996964286)scale(0.12 -0.12)">
       <use xlink:href="#BitstreamVeraSans-Roman-33"/>
       <use x="63.623046875" xlink:href="#BitstreamVeraSans-Roman-30"/>
       <use x="127.24609375" xlink:href="#BitstreamVeraSans-Roman-30"/>
       <use x="190.869140625" xlink:href="#BitstreamVeraSans-Roman-30"/>
      </g>
     </g>
    </g>
    <g id="ytick_5">
     <g id="line2d_36">
      <g>
       <use style="stroke:#000000;stroke-width:0.5;" x="108.0" xlink:href="#m520a5afd39" y="191.314285714"/>
      </g>
     </g>
     <g id="text_19">
      <!-- 4000 -->
      <g transform="translate(73.46 194.625535714)scale(0.12 -0.12)">
       <use xlink:href="#BitstreamVeraSans-Roman-34"/>
       <use x="63.623046875" xlink:href="#BitstreamVeraSans-Roman-30"/>
       <use x="127.24609375" xlink:href="#BitstreamVeraSans-Roman-30"/>
       <use x="190.869140625" xlink:href="#BitstreamVeraSans-Roman-30"/>
      </g>
     </g>
    </g>
    <g id="ytick_6">
     <g id="line2d_37">
      <g>
       <use style="stroke:#000000;stroke-width:0.5;" x="108.0" xlink:href="#m520a5afd39" y="141.942857143"/>
      </g>
     </g>
     <g id="text_20">
      <!-- 5000 -->
      <g transform="translate(73.46 145.254107143)scale(0.12 -0.12)">
       <use xlink:href="#BitstreamVeraSans-Roman-35"/>
       <use x="63.623046875" xlink:href="#BitstreamVeraSans-Roman-30"/>
       <use x="127.24609375" xlink:href="#BitstreamVeraSans-Roman-30"/>
       <use x="190.869140625" xlink:href="#BitstreamVeraSans-Roman-30"/>
      </g>
     </g>
    </g>
    <g id="ytick_7">
     <g id="line2d_38">
      <g>
       <use style="stroke:#000000;stroke-width:0.5;" x="108.0" xlink:href="#m520a5afd39" y="92.5714285714"/>
      </g>
     </g>
     <g id="text_21">
      <!-- 6000 -->
      <g transform="translate(73.46 95.8826785714)scale(0.12 -0.12)">
       <use xlink:href="#BitstreamVeraSans-Roman-36"/>
       <use x="63.623046875" xlink:href="#BitstreamVeraSans-Roman-30"/>
       <use x="127.24609375" xlink:href="#BitstreamVeraSans-Roman-30"/>
       <use x="190.869140625" xlink:href="#BitstreamVeraSans-Roman-30"/>
      </g>
     </g>
    </g>
    <g id="ytick_8">
     <g id="line2d_39">
      <g>
       <use style="stroke:#000000;stroke-width:0.5;" x="108.0" xlink:href="#m520a5afd39" y="43.2"/>
      </g>
     </g>
     <g id="text_22">
      <!-- 7000 -->
      <g transform="translate(73.46 46.51125)scale(0.12 -0.12)">
       <use xlink:href="#BitstreamVeraSans-Roman-37"/>
       <use x="63.623046875" xlink:href="#BitstreamVeraSans-Roman-30"/>
       <use x="127.24609375" xlink:href="#BitstreamVeraSans-Roman-30"/>
       <use x="190.869140625" xlink:href="#BitstreamVeraSans-Roman-30"/>
      </g>
     </g>
    </g>
    <g id="text_23">
     <!-- downloads -->
     <defs>
      <path d="M 45.40625 46.390625 
L 45.40625 75.984375 
L 54.390625 75.984375 
L 54.390625 0 
L 45.40625 0 
L 45.40625 8.203125 
Q 42.578125 3.328125 38.25 0.953125 
Q 33.9375 -1.421875 27.875 -1.421875 
Q 17.96875 -1.421875 11.734375 6.484375 
Q 5.515625 14.40625 5.515625 27.296875 
Q 5.515625 40.1875 11.734375 48.09375 
Q 17.96875 56 27.875 56 
Q 33.9375 56 38.25 53.625 
Q 42.578125 51.265625 45.40625 46.390625 
M 14.796875 27.296875 
Q 14.796875 17.390625 18.875 11.75 
Q 22.953125 6.109375 30.078125 6.109375 
Q 37.203125 6.109375 41.296875 11.75 
Q 45.40625 17.390625 45.40625 27.296875 
Q 45.40625 37.203125 41.296875 42.84375 
Q 37.203125 48.484375 30.078125 48.484375 
Q 22.953125 48.484375 18.875 42.84375 
Q 14.796875 37.203125 14.796875 27.296875 
" id="BitstreamVeraSans-Roman-64"/>
      <path d="M 34.28125 27.484375 
Q 23.390625 27.484375 19.1875 25 
Q 14.984375 22.515625 14.984375 16.5 
Q 14.984375 11.71875 18.140625 8.90625 
Q 21.296875 6.109375 26.703125 6.109375 
Q 34.1875 6.109375 38.703125 11.40625 
Q 43.21875 16.703125 43.21875 25.484375 
L 43.21875 27.484375 
z
M 52.203125 31.203125 
L 52.203125 0 
L 43.21875 0 
L 43.21875 8.296875 
Q 40.140625 3.328125 35.546875 0.953125 
Q 30.953125 -1.421875 24.3125 -1.421875 
Q 15.921875 -1.421875 10.953125 3.296875 
Q 6 8.015625 6 15.921875 
Q 6 25.140625 12.171875 29.828125 
Q 18.359375 34.515625 30.609375 34.515625 
L 43.21875 34.515625 
L 43.21875 35.40625 
Q 43.21875 41.609375 39.140625 45 
Q 35.0625 48.390625 27.6875 48.390625 
Q 23 48.390625 18.546875 47.265625 
Q 14.109375 46.140625 10.015625 43.890625 
L 10.015625 52.203125 
Q 14.9375 54.109375 19.578125 55.046875 
Q 24.21875 56 28.609375 56 
Q 40.484375 56 46.34375 49.84375 
Q 52.203125 43.703125 52.203125 31.203125 
" id="BitstreamVeraSans-Roman-61"/>
      <path d="M 9.421875 75.984375 
L 18.40625 75.984375 
L 18.40625 0 
L 9.421875 0 
z
" id="BitstreamVeraSans-Roman-6c"/>
      <path d="M 4.203125 54.6875 
L 13.1875 54.6875 
L 24.421875 12.015625 
L 35.59375 54.6875 
L 46.1875 54.6875 
L 57.421875 12.015625 
L 68.609375 54.6875 
L 77.59375 54.6875 
L 63.28125 0 
L 52.6875 0 
L 40.921875 44.828125 
L 29.109375 0 
L 18.5 0 
z
" id="BitstreamVeraSans-Roman-77"/>
     </defs>
     <g transform="translate(65.964375 248.139375)rotate(-90.0)scale(0.12 -0.12)">
      <use xlink:href="#BitstreamVeraSans-Roman-64"/>
      <use x="63.4765625" xlink:href="#BitstreamVeraSans-Roman-6f"/>
      <use x="124.658203125" xlink:href="#BitstreamVeraSans-Roman-77"/>
      <use x="206.4453125" xlink:href="#BitstreamVeraSans-Roman-6e"/>
      <use x="269.82421875" xlink:href="#BitstreamVeraSans-Roman-6c"/>
      <use x="297.607421875" xlink:href="#BitstreamVeraSans-Roman-6f"/>
      <use x="358.7890625" xlink:href="#BitstreamVeraSans-Roman-61"/>
      <use x="420.068359375" xlink:href="#BitstreamVeraSans-Roman-64"/>
      <use x="483.544921875" xlink:href="#BitstreamVeraSans-Roman-73"/>
     </g>
    </g>
   </g>
   <g id="legend_1">
    <g id="line2d_40"/>
    <g id="line2d_41">
     <g>
      <use style="fill:#419487;stroke:#000000;stroke-linejoin:bevel;stroke-width:0.5;" x="567.036" xlink:href="#mbf752c02b5" y="108.3121875"/>
     </g>
    </g>
    <g id="text_24">
     <!-- (6567) Natural causes -->
     <defs>
      <path id="BitstreamVeraSans-Roman-20"/>
      <path d="M 9.8125 72.90625 
L 23.09375 72.90625 
L 55.421875 11.921875 
L 55.421875 72.90625 
L 64.984375 72.90625 
L 64.984375 0 
L 51.703125 0 
L 19.390625 60.984375 
L 19.390625 0 
L 9.8125 0 
z
" id="BitstreamVeraSans-Roman-4e"/>
      <path d="M 8.015625 75.875 
L 15.828125 75.875 
Q 23.140625 64.359375 26.78125 53.3125 
Q 30.421875 42.28125 30.421875 31.390625 
Q 30.421875 20.453125 26.78125 9.375 
Q 23.140625 -1.703125 15.828125 -13.1875 
L 8.015625 -13.1875 
Q 14.5 -2 17.703125 9.0625 
Q 20.90625 20.125 20.90625 31.390625 
Q 20.90625 42.671875 17.703125 53.65625 
Q 14.5 64.65625 8.015625 75.875 
" id="BitstreamVeraSans-Roman-29"/>
      <path d="M 31 75.875 
Q 24.46875 64.65625 21.28125 53.65625 
Q 18.109375 42.671875 18.109375 31.390625 
Q 18.109375 20.125 21.3125 9.0625 
Q 24.515625 -2 31 -13.1875 
L 23.1875 -13.1875 
Q 15.875 -1.703125 12.234375 9.375 
Q 8.59375 20.453125 8.59375 31.390625 
Q 8.59375 42.28125 12.203125 53.3125 
Q 15.828125 64.359375 23.1875 75.875 
z
" id="BitstreamVeraSans-Roman-28"/>
      <path d="M 56.203125 29.59375 
L 56.203125 25.203125 
L 14.890625 25.203125 
Q 15.484375 15.921875 20.484375 11.0625 
Q 25.484375 6.203125 34.421875 6.203125 
Q 39.59375 6.203125 44.453125 7.46875 
Q 49.3125 8.734375 54.109375 11.28125 
L 54.109375 2.78125 
Q 49.265625 0.734375 44.1875 -0.34375 
Q 39.109375 -1.421875 33.890625 -1.421875 
Q 20.796875 -1.421875 13.15625 6.1875 
Q 5.515625 13.8125 5.515625 26.8125 
Q 5.515625 40.234375 12.765625 48.109375 
Q 20.015625 56 32.328125 56 
Q 43.359375 56 49.78125 48.890625 
Q 56.203125 41.796875 56.203125 29.59375 
M 47.21875 32.234375 
Q 47.125 39.59375 43.09375 43.984375 
Q 39.0625 48.390625 32.421875 48.390625 
Q 24.90625 48.390625 20.390625 44.140625 
Q 15.875 39.890625 15.1875 32.171875 
z
" id="BitstreamVeraSans-Roman-65"/>
      <path d="M 8.5 21.578125 
L 8.5 54.6875 
L 17.484375 54.6875 
L 17.484375 21.921875 
Q 17.484375 14.15625 20.5 10.265625 
Q 23.53125 6.390625 29.59375 6.390625 
Q 36.859375 6.390625 41.078125 11.03125 
Q 45.3125 15.671875 45.3125 23.6875 
L 45.3125 54.6875 
L 54.296875 54.6875 
L 54.296875 0 
L 45.3125 0 
L 45.3125 8.40625 
Q 42.046875 3.421875 37.71875 1 
Q 33.40625 -1.421875 27.6875 -1.421875 
Q 18.265625 -1.421875 13.375 4.4375 
Q 8.5 10.296875 8.5 21.578125 
" id="BitstreamVeraSans-Roman-75"/>
      <path d="M 41.109375 46.296875 
Q 39.59375 47.171875 37.8125 47.578125 
Q 36.03125 48 33.890625 48 
Q 26.265625 48 22.1875 43.046875 
Q 18.109375 38.09375 18.109375 28.8125 
L 18.109375 0 
L 9.078125 0 
L 9.078125 54.6875 
L 18.109375 54.6875 
L 18.109375 46.1875 
Q 20.953125 51.171875 25.484375 53.578125 
Q 30.03125 56 36.53125 56 
Q 37.453125 56 38.578125 55.875 
Q 39.703125 55.765625 41.0625 55.515625 
z
" id="BitstreamVeraSans-Roman-72"/>
      <path d="M 48.78125 52.59375 
L 48.78125 44.1875 
Q 44.96875 46.296875 41.140625 47.34375 
Q 37.3125 48.390625 33.40625 48.390625 
Q 24.65625 48.390625 19.8125 42.84375 
Q 14.984375 37.3125 14.984375 27.296875 
Q 14.984375 17.28125 19.8125 11.734375 
Q 24.65625 6.203125 33.40625 6.203125 
Q 37.3125 6.203125 41.140625 7.25 
Q 44.96875 8.296875 48.78125 10.40625 
L 48.78125 2.09375 
Q 45.015625 0.34375 40.984375 -0.53125 
Q 36.96875 -1.421875 32.421875 -1.421875 
Q 20.0625 -1.421875 12.78125 6.34375 
Q 5.515625 14.109375 5.515625 27.296875 
Q 5.515625 40.671875 12.859375 48.328125 
Q 20.21875 56 33.015625 56 
Q 37.15625 56 41.109375 55.140625 
Q 45.0625 54.296875 48.78125 52.59375 
" id="BitstreamVeraSans-Roman-63"/>
     </defs>
     <g transform="translate(583.236 111.4621875)scale(0.09 -0.09)">
      <use xlink:href="#BitstreamVeraSans-Roman-28"/>
      <use x="39.013671875" xlink:href="#BitstreamVeraSans-Roman-36"/>
      <use x="102.63671875" xlink:href="#BitstreamVeraSans-Roman-35"/>
      <use x="166.259765625" xlink:href="#BitstreamVeraSans-Roman-36"/>
      <use x="229.8828125" xlink:href="#BitstreamVeraSans-Roman-37"/>
      <use x="293.505859375" xlink:href="#BitstreamVeraSans-Roman-29"/>
      <use x="332.51953125" xlink:href="#BitstreamVeraSans-Roman-20"/>
      <use x="364.306640625" xlink:href="#BitstreamVeraSans-Roman-4e"/>
      <use x="439.111328125" xlink:href="#BitstreamVeraSans-Roman-61"/>
      <use x="500.390625" xlink:href="#BitstreamVeraSans-Roman-74"/>
      <use x="539.599609375" xlink:href="#BitstreamVeraSans-Roman-75"/>
      <use x="602.978515625" xlink:href="#BitstreamVeraSans-Roman-72"/>
      <use x="644.091796875" xlink:href="#BitstreamVeraSans-Roman-61"/>
      <use x="705.37109375" xlink:href="#BitstreamVeraSans-Roman-6c"/>
      <use x="733.154296875" xlink:href="#BitstreamVeraSans-Roman-20"/>
      <use x="764.94140625" xlink:href="#BitstreamVeraSans-Roman-63"/>
      <use x="819.921875" xlink:href="#BitstreamVeraSans-Roman-61"/>
      <use x="881.201171875" xlink:href="#BitstreamVeraSans-Roman-75"/>
      <use x="944.580078125" xlink:href="#BitstreamVeraSans-Roman-73"/>
      <use x="996.6796875" xlink:href="#BitstreamVeraSans-Roman-65"/>
      <use x="1058.203125" xlink:href="#BitstreamVeraSans-Roman-73"/>
     </g>
    </g>
    <g id="line2d_42"/>
    <g id="line2d_43">
     <g>
      <use style="fill:#49a65e;stroke:#000000;stroke-linejoin:miter;stroke-width:0.5;" x="567.036" xlink:href="#m911261afbf" y="135.0225"/>
     </g>
    </g>
    <g id="text_25">
     <!-- (6466) The Talking Heads experiment -->
     <defs>
      <path d="M 9.078125 75.984375 
L 18.109375 75.984375 
L 18.109375 31.109375 
L 44.921875 54.6875 
L 56.390625 54.6875 
L 27.390625 29.109375 
L 57.625 0 
L 45.90625 0 
L 18.109375 26.703125 
L 18.109375 0 
L 9.078125 0 
z
" id="BitstreamVeraSans-Roman-6b"/>
      <path d="M 9.421875 54.6875 
L 18.40625 54.6875 
L 18.40625 0 
L 9.421875 0 
z
M 9.421875 75.984375 
L 18.40625 75.984375 
L 18.40625 64.59375 
L 9.421875 64.59375 
z
" id="BitstreamVeraSans-Roman-69"/>
      <path d="M 54.890625 54.6875 
L 35.109375 28.078125 
L 55.90625 0 
L 45.3125 0 
L 29.390625 21.484375 
L 13.484375 0 
L 2.875 0 
L 24.125 28.609375 
L 4.6875 54.6875 
L 15.28125 54.6875 
L 29.78125 35.203125 
L 44.28125 54.6875 
z
" id="BitstreamVeraSans-Roman-78"/>
      <path d="M -0.296875 72.90625 
L 61.375 72.90625 
L 61.375 64.59375 
L 35.5 64.59375 
L 35.5 0 
L 25.59375 0 
L 25.59375 64.59375 
L -0.296875 64.59375 
z
" id="BitstreamVeraSans-Roman-54"/>
      <path d="M 45.40625 27.984375 
Q 45.40625 37.75 41.375 43.109375 
Q 37.359375 48.484375 30.078125 48.484375 
Q 22.859375 48.484375 18.828125 43.109375 
Q 14.796875 37.75 14.796875 27.984375 
Q 14.796875 18.265625 18.828125 12.890625 
Q 22.859375 7.515625 30.078125 7.515625 
Q 37.359375 7.515625 41.375 12.890625 
Q 45.40625 18.265625 45.40625 27.984375 
M 54.390625 6.78125 
Q 54.390625 -7.171875 48.1875 -13.984375 
Q 42 -20.796875 29.203125 -20.796875 
Q 24.46875 -20.796875 20.265625 -20.09375 
Q 16.0625 -19.390625 12.109375 -17.921875 
L 12.109375 -9.1875 
Q 16.0625 -11.328125 19.921875 -12.34375 
Q 23.78125 -13.375 27.78125 -13.375 
Q 36.625 -13.375 41.015625 -8.765625 
Q 45.40625 -4.15625 45.40625 5.171875 
L 45.40625 9.625 
Q 42.625 4.78125 38.28125 2.390625 
Q 33.9375 0 27.875 0 
Q 17.828125 0 11.671875 7.65625 
Q 5.515625 15.328125 5.515625 27.984375 
Q 5.515625 40.671875 11.671875 48.328125 
Q 17.828125 56 27.875 56 
Q 33.9375 56 38.28125 53.609375 
Q 42.625 51.21875 45.40625 46.390625 
L 45.40625 54.6875 
L 54.390625 54.6875 
z
" id="BitstreamVeraSans-Roman-67"/>
      <path d="M 18.109375 8.203125 
L 18.109375 -20.796875 
L 9.078125 -20.796875 
L 9.078125 54.6875 
L 18.109375 54.6875 
L 18.109375 46.390625 
Q 20.953125 51.265625 25.265625 53.625 
Q 29.59375 56 35.59375 56 
Q 45.5625 56 51.78125 48.09375 
Q 58.015625 40.1875 58.015625 27.296875 
Q 58.015625 14.40625 51.78125 6.484375 
Q 45.5625 -1.421875 35.59375 -1.421875 
Q 29.59375 -1.421875 25.265625 0.953125 
Q 20.953125 3.328125 18.109375 8.203125 
M 48.6875 27.296875 
Q 48.6875 37.203125 44.609375 42.84375 
Q 40.53125 48.484375 33.40625 48.484375 
Q 26.265625 48.484375 22.1875 42.84375 
Q 18.109375 37.203125 18.109375 27.296875 
Q 18.109375 17.390625 22.1875 11.75 
Q 26.265625 6.109375 33.40625 6.109375 
Q 40.53125 6.109375 44.609375 11.75 
Q 48.6875 17.390625 48.6875 27.296875 
" id="BitstreamVeraSans-Roman-70"/>
      <path d="M 9.8125 72.90625 
L 19.671875 72.90625 
L 19.671875 43.015625 
L 55.515625 43.015625 
L 55.515625 72.90625 
L 65.375 72.90625 
L 65.375 0 
L 55.515625 0 
L 55.515625 34.71875 
L 19.671875 34.71875 
L 19.671875 0 
L 9.8125 0 
z
" id="BitstreamVeraSans-Roman-48"/>
     </defs>
     <g transform="translate(583.236 138.1725)scale(0.09 -0.09)">
      <use xlink:href="#BitstreamVeraSans-Roman-28"/>
      <use x="39.013671875" xlink:href="#BitstreamVeraSans-Roman-36"/>
      <use x="102.63671875" xlink:href="#BitstreamVeraSans-Roman-34"/>
      <use x="166.259765625" xlink:href="#BitstreamVeraSans-Roman-36"/>
      <use x="229.8828125" xlink:href="#BitstreamVeraSans-Roman-36"/>
      <use x="293.505859375" xlink:href="#BitstreamVeraSans-Roman-29"/>
      <use x="332.51953125" xlink:href="#BitstreamVeraSans-Roman-20"/>
      <use x="364.306640625" xlink:href="#BitstreamVeraSans-Roman-54"/>
      <use x="425.390625" xlink:href="#BitstreamVeraSans-Roman-68"/>
      <use x="488.76953125" xlink:href="#BitstreamVeraSans-Roman-65"/>
      <use x="550.29296875" xlink:href="#BitstreamVeraSans-Roman-20"/>
      <use x="582.080078125" xlink:href="#BitstreamVeraSans-Roman-54"/>
      <use x="642.9140625" xlink:href="#BitstreamVeraSans-Roman-61"/>
      <use x="704.193359375" xlink:href="#BitstreamVeraSans-Roman-6c"/>
      <use x="731.9765625" xlink:href="#BitstreamVeraSans-Roman-6b"/>
      <use x="789.88671875" xlink:href="#BitstreamVeraSans-Roman-69"/>
      <use x="817.669921875" xlink:href="#BitstreamVeraSans-Roman-6e"/>
      <use x="881.048828125" xlink:href="#BitstreamVeraSans-Roman-67"/>
      <use x="944.525390625" xlink:href="#BitstreamVeraSans-Roman-20"/>
      <use x="976.3125" xlink:href="#BitstreamVeraSans-Roman-48"/>
      <use x="1051.5078125" xlink:href="#BitstreamVeraSans-Roman-65"/>
      <use x="1113.03125" xlink:href="#BitstreamVeraSans-Roman-61"/>
      <use x="1174.31054688" xlink:href="#BitstreamVeraSans-Roman-64"/>
      <use x="1237.78710938" xlink:href="#BitstreamVeraSans-Roman-73"/>
      <use x="1289.88671875" xlink:href="#BitstreamVeraSans-Roman-20"/>
      <use x="1321.67382812" xlink:href="#BitstreamVeraSans-Roman-65"/>
      <use x="1383.18164062" xlink:href="#BitstreamVeraSans-Roman-78"/>
      <use x="1442.36132812" xlink:href="#BitstreamVeraSans-Roman-70"/>
      <use x="1505.83789062" xlink:href="#BitstreamVeraSans-Roman-65"/>
      <use x="1567.36132812" xlink:href="#BitstreamVeraSans-Roman-72"/>
      <use x="1608.47460938" xlink:href="#BitstreamVeraSans-Roman-69"/>
      <use x="1636.2578125" xlink:href="#BitstreamVeraSans-Roman-6d"/>
      <use x="1733.66992188" xlink:href="#BitstreamVeraSans-Roman-65"/>
      <use x="1795.19335938" xlink:href="#BitstreamVeraSans-Roman-6e"/>
      <use x="1858.57226562" xlink:href="#BitstreamVeraSans-Roman-74"/>
     </g>
    </g>
    <g id="line2d_44"/>
    <g id="line2d_45">
     <g>
      <use style="fill:#ffdd26;stroke:#000000;stroke-linejoin:miter;stroke-width:0.5;" x="567.036" xlink:href="#mc940fec689" y="161.7328125"/>
     </g>
    </g>
    <g id="text_26">
     <!-- (5521) Diversity in African languages -->
     <defs>
      <path d="M 2.984375 54.6875 
L 12.5 54.6875 
L 29.59375 8.796875 
L 46.6875 54.6875 
L 56.203125 54.6875 
L 35.6875 0 
L 23.484375 0 
z
" id="BitstreamVeraSans-Roman-76"/>
      <path d="M 19.671875 64.796875 
L 19.671875 8.109375 
L 31.59375 8.109375 
Q 46.6875 8.109375 53.6875 14.9375 
Q 60.6875 21.78125 60.6875 36.53125 
Q 60.6875 51.171875 53.6875 57.984375 
Q 46.6875 64.796875 31.59375 64.796875 
z
M 9.8125 72.90625 
L 30.078125 72.90625 
Q 51.265625 72.90625 61.171875 64.09375 
Q 71.09375 55.28125 71.09375 36.53125 
Q 71.09375 17.671875 61.125 8.828125 
Q 51.171875 0 30.078125 0 
L 9.8125 0 
z
" id="BitstreamVeraSans-Roman-44"/>
      <path d="M 37.109375 75.984375 
L 37.109375 68.5 
L 28.515625 68.5 
Q 23.6875 68.5 21.796875 66.546875 
Q 19.921875 64.59375 19.921875 59.515625 
L 19.921875 54.6875 
L 34.71875 54.6875 
L 34.71875 47.703125 
L 19.921875 47.703125 
L 19.921875 0 
L 10.890625 0 
L 10.890625 47.703125 
L 2.296875 47.703125 
L 2.296875 54.6875 
L 10.890625 54.6875 
L 10.890625 58.5 
Q 10.890625 67.625 15.140625 71.796875 
Q 19.390625 75.984375 28.609375 75.984375 
z
" id="BitstreamVeraSans-Roman-66"/>
      <path d="M 34.1875 63.1875 
L 20.796875 26.90625 
L 47.609375 26.90625 
z
M 28.609375 72.90625 
L 39.796875 72.90625 
L 67.578125 0 
L 57.328125 0 
L 50.6875 18.703125 
L 17.828125 18.703125 
L 11.1875 0 
L 0.78125 0 
z
" id="BitstreamVeraSans-Roman-41"/>
      <path d="M 32.171875 -5.078125 
Q 28.375 -14.84375 24.75 -17.8125 
Q 21.140625 -20.796875 15.09375 -20.796875 
L 7.90625 -20.796875 
L 7.90625 -13.28125 
L 13.1875 -13.28125 
Q 16.890625 -13.28125 18.9375 -11.515625 
Q 21 -9.765625 23.484375 -3.21875 
L 25.09375 0.875 
L 2.984375 54.6875 
L 12.5 54.6875 
L 29.59375 11.921875 
L 46.6875 54.6875 
L 56.203125 54.6875 
z
" id="BitstreamVeraSans-Roman-79"/>
     </defs>
     <g transform="translate(583.236 164.8828125)scale(0.09 -0.09)">
      <use xlink:href="#BitstreamVeraSans-Roman-28"/>
      <use x="39.013671875" xlink:href="#BitstreamVeraSans-Roman-35"/>
      <use x="102.63671875" xlink:href="#BitstreamVeraSans-Roman-35"/>
      <use x="166.259765625" xlink:href="#BitstreamVeraSans-Roman-32"/>
      <use x="229.8828125" xlink:href="#BitstreamVeraSans-Roman-31"/>
      <use x="293.505859375" xlink:href="#BitstreamVeraSans-Roman-29"/>
      <use x="332.51953125" xlink:href="#BitstreamVeraSans-Roman-20"/>
      <use x="364.306640625" xlink:href="#BitstreamVeraSans-Roman-44"/>
      <use x="441.30859375" xlink:href="#BitstreamVeraSans-Roman-69"/>
      <use x="469.091796875" xlink:href="#BitstreamVeraSans-Roman-76"/>
      <use x="528.271484375" xlink:href="#BitstreamVeraSans-Roman-65"/>
      <use x="589.794921875" xlink:href="#BitstreamVeraSans-Roman-72"/>
      <use x="630.908203125" xlink:href="#BitstreamVeraSans-Roman-73"/>
      <use x="683.0078125" xlink:href="#BitstreamVeraSans-Roman-69"/>
      <use x="710.791015625" xlink:href="#BitstreamVeraSans-Roman-74"/>
      <use x="750.0" xlink:href="#BitstreamVeraSans-Roman-79"/>
      <use x="809.1796875" xlink:href="#BitstreamVeraSans-Roman-20"/>
      <use x="840.966796875" xlink:href="#BitstreamVeraSans-Roman-69"/>
      <use x="868.75" xlink:href="#BitstreamVeraSans-Roman-6e"/>
      <use x="932.12890625" xlink:href="#BitstreamVeraSans-Roman-20"/>
      <use x="963.916015625" xlink:href="#BitstreamVeraSans-Roman-41"/>
      <use x="1032.27734375" xlink:href="#BitstreamVeraSans-Roman-66"/>
      <use x="1067.48242188" xlink:href="#BitstreamVeraSans-Roman-72"/>
      <use x="1108.59570312" xlink:href="#BitstreamVeraSans-Roman-69"/>
      <use x="1136.37890625" xlink:href="#BitstreamVeraSans-Roman-63"/>
      <use x="1191.359375" xlink:href="#BitstreamVeraSans-Roman-61"/>
      <use x="1252.63867188" xlink:href="#BitstreamVeraSans-Roman-6e"/>
      <use x="1316.01757812" xlink:href="#BitstreamVeraSans-Roman-20"/>
      <use x="1347.8046875" xlink:href="#BitstreamVeraSans-Roman-6c"/>
      <use x="1375.58789062" xlink:href="#BitstreamVeraSans-Roman-61"/>
      <use x="1436.8671875" xlink:href="#BitstreamVeraSans-Roman-6e"/>
      <use x="1500.24609375" xlink:href="#BitstreamVeraSans-Roman-67"/>
      <use x="1563.72265625" xlink:href="#BitstreamVeraSans-Roman-75"/>
      <use x="1627.1015625" xlink:href="#BitstreamVeraSans-Roman-61"/>
      <use x="1688.38085938" xlink:href="#BitstreamVeraSans-Roman-67"/>
      <use x="1751.85742188" xlink:href="#BitstreamVeraSans-Roman-65"/>
      <use x="1813.38085938" xlink:href="#BitstreamVeraSans-Roman-73"/>
     </g>
    </g>
    <g id="line2d_46"/>
    <g id="line2d_47">
     <g>
      <use style="fill:#a05297;stroke:#000000;stroke-width:0.5;" x="567.036" xlink:href="#m05a41c8330" y="188.443125"/>
     </g>
    </g>
    <g id="text_27">
     <!-- (5086) Advances in the study of Siouan -->
     <defs>
      <path d="M 53.515625 70.515625 
L 53.515625 60.890625 
Q 47.90625 63.578125 42.921875 64.890625 
Q 37.9375 66.21875 33.296875 66.21875 
Q 25.25 66.21875 20.875 63.09375 
Q 16.5 59.96875 16.5 54.203125 
Q 16.5 49.359375 19.40625 46.890625 
Q 22.3125 44.4375 30.421875 42.921875 
L 36.375 41.703125 
Q 47.40625 39.59375 52.65625 34.296875 
Q 57.90625 29 57.90625 20.125 
Q 57.90625 9.515625 50.796875 4.046875 
Q 43.703125 -1.421875 29.984375 -1.421875 
Q 24.8125 -1.421875 18.96875 -0.25 
Q 13.140625 0.921875 6.890625 3.21875 
L 6.890625 13.375 
Q 12.890625 10.015625 18.65625 8.296875 
Q 24.421875 6.59375 29.984375 6.59375 
Q 38.421875 6.59375 43.015625 9.90625 
Q 47.609375 13.234375 47.609375 19.390625 
Q 47.609375 24.75 44.3125 27.78125 
Q 41.015625 30.8125 33.5 32.328125 
L 27.484375 33.5 
Q 16.453125 35.6875 11.515625 40.375 
Q 6.59375 45.0625 6.59375 53.421875 
Q 6.59375 63.09375 13.40625 68.65625 
Q 20.21875 74.21875 32.171875 74.21875 
Q 37.3125 74.21875 42.625 73.28125 
Q 47.953125 72.359375 53.515625 70.515625 
" id="BitstreamVeraSans-Roman-53"/>
     </defs>
     <g transform="translate(583.236 191.593125)scale(0.09 -0.09)">
      <use xlink:href="#BitstreamVeraSans-Roman-28"/>
      <use x="39.013671875" xlink:href="#BitstreamVeraSans-Roman-35"/>
      <use x="102.63671875" xlink:href="#BitstreamVeraSans-Roman-30"/>
      <use x="166.259765625" xlink:href="#BitstreamVeraSans-Roman-38"/>
      <use x="229.8828125" xlink:href="#BitstreamVeraSans-Roman-36"/>
      <use x="293.505859375" xlink:href="#BitstreamVeraSans-Roman-29"/>
      <use x="332.51953125" xlink:href="#BitstreamVeraSans-Roman-20"/>
      <use x="364.306640625" xlink:href="#BitstreamVeraSans-Roman-41"/>
      <use x="432.69921875" xlink:href="#BitstreamVeraSans-Roman-64"/>
      <use x="496.17578125" xlink:href="#BitstreamVeraSans-Roman-76"/>
      <use x="555.35546875" xlink:href="#BitstreamVeraSans-Roman-61"/>
      <use x="616.634765625" xlink:href="#BitstreamVeraSans-Roman-6e"/>
      <use x="680.013671875" xlink:href="#BitstreamVeraSans-Roman-63"/>
      <use x="734.994140625" xlink:href="#BitstreamVeraSans-Roman-65"/>
      <use x="796.517578125" xlink:href="#BitstreamVeraSans-Roman-73"/>
      <use x="848.6171875" xlink:href="#BitstreamVeraSans-Roman-20"/>
      <use x="880.404296875" xlink:href="#BitstreamVeraSans-Roman-69"/>
      <use x="908.1875" xlink:href="#BitstreamVeraSans-Roman-6e"/>
      <use x="971.56640625" xlink:href="#BitstreamVeraSans-Roman-20"/>
      <use x="1003.35351562" xlink:href="#BitstreamVeraSans-Roman-74"/>
      <use x="1042.5625" xlink:href="#BitstreamVeraSans-Roman-68"/>
      <use x="1105.94140625" xlink:href="#BitstreamVeraSans-Roman-65"/>
      <use x="1167.46484375" xlink:href="#BitstreamVeraSans-Roman-20"/>
      <use x="1199.25195312" xlink:href="#BitstreamVeraSans-Roman-73"/>
      <use x="1251.3515625" xlink:href="#BitstreamVeraSans-Roman-74"/>
      <use x="1290.56054688" xlink:href="#BitstreamVeraSans-Roman-75"/>
      <use x="1353.93945312" xlink:href="#BitstreamVeraSans-Roman-64"/>
      <use x="1417.41601562" xlink:href="#BitstreamVeraSans-Roman-79"/>
      <use x="1476.59570312" xlink:href="#BitstreamVeraSans-Roman-20"/>
      <use x="1508.3828125" xlink:href="#BitstreamVeraSans-Roman-6f"/>
      <use x="1569.56445312" xlink:href="#BitstreamVeraSans-Roman-66"/>
      <use x="1604.76953125" xlink:href="#BitstreamVeraSans-Roman-20"/>
      <use x="1636.55664062" xlink:href="#BitstreamVeraSans-Roman-53"/>
      <use x="1700.03320312" xlink:href="#BitstreamVeraSans-Roman-69"/>
      <use x="1727.81640625" xlink:href="#BitstreamVeraSans-Roman-6f"/>
      <use x="1788.99804688" xlink:href="#BitstreamVeraSans-Roman-75"/>
      <use x="1852.37695312" xlink:href="#BitstreamVeraSans-Roman-61"/>
      <use x="1913.65625" xlink:href="#BitstreamVeraSans-Roman-6e"/>
     </g>
    </g>
    <g id="line2d_48"/>
    <g id="line2d_49">
     <g>
      <use style="fill:#67628d;stroke:#000000;stroke-linejoin:miter;stroke-width:0.5;" x="567.036" xlink:href="#ma3594b346d" y="215.1534375"/>
     </g>
    </g>
    <g id="text_28">
     <!-- (5081) A grammar of Pite Saami -->
     <defs>
      <path d="M 19.671875 64.796875 
L 19.671875 37.40625 
L 32.078125 37.40625 
Q 38.96875 37.40625 42.71875 40.96875 
Q 46.484375 44.53125 46.484375 51.125 
Q 46.484375 57.671875 42.71875 61.234375 
Q 38.96875 64.796875 32.078125 64.796875 
z
M 9.8125 72.90625 
L 32.078125 72.90625 
Q 44.34375 72.90625 50.609375 67.359375 
Q 56.890625 61.8125 56.890625 51.125 
Q 56.890625 40.328125 50.609375 34.8125 
Q 44.34375 29.296875 32.078125 29.296875 
L 19.671875 29.296875 
L 19.671875 0 
L 9.8125 0 
z
" id="BitstreamVeraSans-Roman-50"/>
     </defs>
     <g transform="translate(583.236 218.3034375)scale(0.09 -0.09)">
      <use xlink:href="#BitstreamVeraSans-Roman-28"/>
      <use x="39.013671875" xlink:href="#BitstreamVeraSans-Roman-35"/>
      <use x="102.63671875" xlink:href="#BitstreamVeraSans-Roman-30"/>
      <use x="166.259765625" xlink:href="#BitstreamVeraSans-Roman-38"/>
      <use x="229.8828125" xlink:href="#BitstreamVeraSans-Roman-31"/>
      <use x="293.505859375" xlink:href="#BitstreamVeraSans-Roman-29"/>
      <use x="332.51953125" xlink:href="#BitstreamVeraSans-Roman-20"/>
      <use x="364.306640625" xlink:href="#BitstreamVeraSans-Roman-41"/>
      <use x="432.71484375" xlink:href="#BitstreamVeraSans-Roman-20"/>
      <use x="464.501953125" xlink:href="#BitstreamVeraSans-Roman-67"/>
      <use x="527.978515625" xlink:href="#BitstreamVeraSans-Roman-72"/>
      <use x="569.091796875" xlink:href="#BitstreamVeraSans-Roman-61"/>
      <use x="630.37109375" xlink:href="#BitstreamVeraSans-Roman-6d"/>
      <use x="727.783203125" xlink:href="#BitstreamVeraSans-Roman-6d"/>
      <use x="825.1953125" xlink:href="#BitstreamVeraSans-Roman-61"/>
      <use x="886.474609375" xlink:href="#BitstreamVeraSans-Roman-72"/>
      <use x="927.587890625" xlink:href="#BitstreamVeraSans-Roman-20"/>
      <use x="959.375" xlink:href="#BitstreamVeraSans-Roman-6f"/>
      <use x="1020.55664062" xlink:href="#BitstreamVeraSans-Roman-66"/>
      <use x="1055.76171875" xlink:href="#BitstreamVeraSans-Roman-20"/>
      <use x="1087.54882812" xlink:href="#BitstreamVeraSans-Roman-50"/>
      <use x="1147.8203125" xlink:href="#BitstreamVeraSans-Roman-69"/>
      <use x="1175.60351562" xlink:href="#BitstreamVeraSans-Roman-74"/>
      <use x="1214.8125" xlink:href="#BitstreamVeraSans-Roman-65"/>
      <use x="1276.3359375" xlink:href="#BitstreamVeraSans-Roman-20"/>
      <use x="1308.12304688" xlink:href="#BitstreamVeraSans-Roman-53"/>
      <use x="1371.59960938" xlink:href="#BitstreamVeraSans-Roman-61"/>
      <use x="1432.87890625" xlink:href="#BitstreamVeraSans-Roman-61"/>
      <use x="1494.15820312" xlink:href="#BitstreamVeraSans-Roman-6d"/>
      <use x="1591.5703125" xlink:href="#BitstreamVeraSans-Roman-69"/>
     </g>
    </g>
    <g id="line2d_50"/>
    <g id="line2d_51">
     <g>
      <use style="fill:#a83d52;stroke:#000000;stroke-linejoin:bevel;stroke-width:0.5;" x="567.036" xlink:href="#m7c98f2aa5a" y="241.86375"/>
     </g>
    </g>
    <g id="text_29">
     <!-- (4760) Eyetracking and Applied Linguistics -->
     <defs>
      <path d="M 9.8125 72.90625 
L 55.90625 72.90625 
L 55.90625 64.59375 
L 19.671875 64.59375 
L 19.671875 43.015625 
L 54.390625 43.015625 
L 54.390625 34.71875 
L 19.671875 34.71875 
L 19.671875 8.296875 
L 56.78125 8.296875 
L 56.78125 0 
L 9.8125 0 
z
" id="BitstreamVeraSans-Roman-45"/>
      <path d="M 9.8125 72.90625 
L 19.671875 72.90625 
L 19.671875 8.296875 
L 55.171875 8.296875 
L 55.171875 0 
L 9.8125 0 
z
" id="BitstreamVeraSans-Roman-4c"/>
     </defs>
     <g transform="translate(583.236 245.01375)scale(0.09 -0.09)">
      <use xlink:href="#BitstreamVeraSans-Roman-28"/>
      <use x="39.013671875" xlink:href="#BitstreamVeraSans-Roman-34"/>
      <use x="102.63671875" xlink:href="#BitstreamVeraSans-Roman-37"/>
      <use x="166.259765625" xlink:href="#BitstreamVeraSans-Roman-36"/>
      <use x="229.8828125" xlink:href="#BitstreamVeraSans-Roman-30"/>
      <use x="293.505859375" xlink:href="#BitstreamVeraSans-Roman-29"/>
      <use x="332.51953125" xlink:href="#BitstreamVeraSans-Roman-20"/>
      <use x="364.306640625" xlink:href="#BitstreamVeraSans-Roman-45"/>
      <use x="427.490234375" xlink:href="#BitstreamVeraSans-Roman-79"/>
      <use x="486.669921875" xlink:href="#BitstreamVeraSans-Roman-65"/>
      <use x="548.193359375" xlink:href="#BitstreamVeraSans-Roman-74"/>
      <use x="587.40234375" xlink:href="#BitstreamVeraSans-Roman-72"/>
      <use x="628.515625" xlink:href="#BitstreamVeraSans-Roman-61"/>
      <use x="689.794921875" xlink:href="#BitstreamVeraSans-Roman-63"/>
      <use x="744.775390625" xlink:href="#BitstreamVeraSans-Roman-6b"/>
      <use x="802.685546875" xlink:href="#BitstreamVeraSans-Roman-69"/>
      <use x="830.46875" xlink:href="#BitstreamVeraSans-Roman-6e"/>
      <use x="893.84765625" xlink:href="#BitstreamVeraSans-Roman-67"/>
      <use x="957.32421875" xlink:href="#BitstreamVeraSans-Roman-20"/>
      <use x="989.111328125" xlink:href="#BitstreamVeraSans-Roman-61"/>
      <use x="1050.390625" xlink:href="#BitstreamVeraSans-Roman-6e"/>
      <use x="1113.76953125" xlink:href="#BitstreamVeraSans-Roman-64"/>
      <use x="1177.24609375" xlink:href="#BitstreamVeraSans-Roman-20"/>
      <use x="1209.03320312" xlink:href="#BitstreamVeraSans-Roman-41"/>
      <use x="1277.44140625" xlink:href="#BitstreamVeraSans-Roman-70"/>
      <use x="1340.91796875" xlink:href="#BitstreamVeraSans-Roman-70"/>
      <use x="1404.39453125" xlink:href="#BitstreamVeraSans-Roman-6c"/>
      <use x="1432.17773438" xlink:href="#BitstreamVeraSans-Roman-69"/>
      <use x="1459.9609375" xlink:href="#BitstreamVeraSans-Roman-65"/>
      <use x="1521.484375" xlink:href="#BitstreamVeraSans-Roman-64"/>
      <use x="1584.9609375" xlink:href="#BitstreamVeraSans-Roman-20"/>
      <use x="1616.74804688" xlink:href="#BitstreamVeraSans-Roman-4c"/>
      <use x="1672.4609375" xlink:href="#BitstreamVeraSans-Roman-69"/>
      <use x="1700.24414062" xlink:href="#BitstreamVeraSans-Roman-6e"/>
      <use x="1763.62304688" xlink:href="#BitstreamVeraSans-Roman-67"/>
      <use x="1827.09960938" xlink:href="#BitstreamVeraSans-Roman-75"/>
      <use x="1890.47851562" xlink:href="#BitstreamVeraSans-Roman-69"/>
      <use x="1918.26171875" xlink:href="#BitstreamVeraSans-Roman-73"/>
      <use x="1970.36132812" xlink:href="#BitstreamVeraSans-Roman-74"/>
      <use x="2009.5703125" xlink:href="#BitstreamVeraSans-Roman-69"/>
      <use x="2037.35351562" xlink:href="#BitstreamVeraSans-Roman-63"/>
      <use x="2092.33398438" xlink:href="#BitstreamVeraSans-Roman-73"/>
     </g>
    </g>
    <g id="line2d_52"/>
    <g id="line2d_53">
     <g>
      <use style="fill:#e27699;stroke:#000000;stroke-linejoin:miter;stroke-width:0.5;" x="567.036" xlink:href="#m2f7480bde3" y="268.5740625"/>
     </g>
    </g>
    <g id="text_30">
     <!-- (4384) Thoughs on grammaticalization -->
     <defs>
      <path d="M 5.515625 54.6875 
L 48.1875 54.6875 
L 48.1875 46.484375 
L 14.40625 7.171875 
L 48.1875 7.171875 
L 48.1875 0 
L 4.296875 0 
L 4.296875 8.203125 
L 38.09375 47.515625 
L 5.515625 47.515625 
z
" id="BitstreamVeraSans-Roman-7a"/>
     </defs>
     <g transform="translate(583.236 271.7240625)scale(0.09 -0.09)">
      <use xlink:href="#BitstreamVeraSans-Roman-28"/>
      <use x="39.013671875" xlink:href="#BitstreamVeraSans-Roman-34"/>
      <use x="102.63671875" xlink:href="#BitstreamVeraSans-Roman-33"/>
      <use x="166.259765625" xlink:href="#BitstreamVeraSans-Roman-38"/>
      <use x="229.8828125" xlink:href="#BitstreamVeraSans-Roman-34"/>
      <use x="293.505859375" xlink:href="#BitstreamVeraSans-Roman-29"/>
      <use x="332.51953125" xlink:href="#BitstreamVeraSans-Roman-20"/>
      <use x="364.306640625" xlink:href="#BitstreamVeraSans-Roman-54"/>
      <use x="425.390625" xlink:href="#BitstreamVeraSans-Roman-68"/>
      <use x="488.76953125" xlink:href="#BitstreamVeraSans-Roman-6f"/>
      <use x="549.951171875" xlink:href="#BitstreamVeraSans-Roman-75"/>
      <use x="613.330078125" xlink:href="#BitstreamVeraSans-Roman-67"/>
      <use x="676.806640625" xlink:href="#BitstreamVeraSans-Roman-68"/>
      <use x="740.185546875" xlink:href="#BitstreamVeraSans-Roman-73"/>
      <use x="792.28515625" xlink:href="#BitstreamVeraSans-Roman-20"/>
      <use x="824.072265625" xlink:href="#BitstreamVeraSans-Roman-6f"/>
      <use x="885.25390625" xlink:href="#BitstreamVeraSans-Roman-6e"/>
      <use x="948.6328125" xlink:href="#BitstreamVeraSans-Roman-20"/>
      <use x="980.419921875" xlink:href="#BitstreamVeraSans-Roman-67"/>
      <use x="1043.89648438" xlink:href="#BitstreamVeraSans-Roman-72"/>
      <use x="1085.00976562" xlink:href="#BitstreamVeraSans-Roman-61"/>
      <use x="1146.2890625" xlink:href="#BitstreamVeraSans-Roman-6d"/>
      <use x="1243.70117188" xlink:href="#BitstreamVeraSans-Roman-6d"/>
      <use x="1341.11328125" xlink:href="#BitstreamVeraSans-Roman-61"/>
      <use x="1402.39257812" xlink:href="#BitstreamVeraSans-Roman-74"/>
      <use x="1441.6015625" xlink:href="#BitstreamVeraSans-Roman-69"/>
      <use x="1469.38476562" xlink:href="#BitstreamVeraSans-Roman-63"/>
      <use x="1524.36523438" xlink:href="#BitstreamVeraSans-Roman-61"/>
      <use x="1585.64453125" xlink:href="#BitstreamVeraSans-Roman-6c"/>
      <use x="1613.42773438" xlink:href="#BitstreamVeraSans-Roman-69"/>
      <use x="1641.2109375" xlink:href="#BitstreamVeraSans-Roman-7a"/>
      <use x="1693.70117188" xlink:href="#BitstreamVeraSans-Roman-61"/>
      <use x="1754.98046875" xlink:href="#BitstreamVeraSans-Roman-74"/>
      <use x="1794.18945312" xlink:href="#BitstreamVeraSans-Roman-69"/>
      <use x="1821.97265625" xlink:href="#BitstreamVeraSans-Roman-6f"/>
      <use x="1883.15429688" xlink:href="#BitstreamVeraSans-Roman-6e"/>
     </g>
    </g>
    <g id="line2d_54"/>
    <g id="line2d_55">
     <g>
      <use style="fill:#599f59;stroke:#000000;stroke-linejoin:miter;stroke-width:0.5;" x="567.036" xlink:href="#m62b14721a3" y="295.644375"/>
     </g>
    </g>
    <g id="text_31">
     <!-- (4341) A aquisio de lngua materna e no materna -->
     <defs>
      <path d="M 34.28125 27.484375 
Q 23.390625 27.484375 19.1875 25 
Q 14.984375 22.515625 14.984375 16.5 
Q 14.984375 11.71875 18.140625 8.90625 
Q 21.296875 6.109375 26.703125 6.109375 
Q 34.1875 6.109375 38.703125 11.40625 
Q 43.21875 16.703125 43.21875 25.484375 
L 43.21875 27.484375 
z
M 52.203125 31.203125 
L 52.203125 0 
L 43.21875 0 
L 43.21875 8.296875 
Q 40.140625 3.328125 35.546875 0.953125 
Q 30.953125 -1.421875 24.3125 -1.421875 
Q 15.921875 -1.421875 10.953125 3.296875 
Q 6 8.015625 6 15.921875 
Q 6 25.140625 12.171875 29.828125 
Q 18.359375 34.515625 30.609375 34.515625 
L 43.21875 34.515625 
L 43.21875 35.40625 
Q 43.21875 41.609375 39.140625 45 
Q 35.0625 48.390625 27.6875 48.390625 
Q 23 48.390625 18.546875 47.265625 
Q 14.109375 46.140625 10.015625 43.890625 
L 10.015625 52.203125 
Q 14.9375 54.109375 19.578125 55.046875 
Q 24.21875 56 28.609375 56 
Q 40.484375 56 46.34375 49.84375 
Q 52.203125 43.703125 52.203125 31.203125 
M 28.8125 66.890625 
L 26.015625 69.578125 
Q 24.953125 70.5625 24.140625 71.015625 
Q 23.34375 71.484375 22.703125 71.484375 
Q 20.84375 71.484375 19.96875 69.703125 
Q 19.09375 67.921875 18.984375 63.921875 
L 12.890625 63.921875 
Q 12.984375 70.515625 15.46875 74.09375 
Q 17.96875 77.6875 22.40625 77.6875 
Q 24.265625 77.6875 25.828125 77 
Q 27.390625 76.3125 29.203125 74.703125 
L 31.984375 72.015625 
Q 33.046875 71.046875 33.859375 70.578125 
Q 34.671875 70.125 35.296875 70.125 
Q 37.15625 70.125 38.03125 71.90625 
Q 38.90625 73.6875 39.015625 77.6875 
L 45.109375 77.6875 
Q 45.015625 71.09375 42.515625 67.5 
Q 40.03125 63.921875 35.59375 63.921875 
Q 33.734375 63.921875 32.171875 64.59375 
Q 30.609375 65.28125 28.8125 66.890625 
" id="BitstreamVeraSans-Roman-e3"/>
      <path d="M 48.78125 52.59375 
L 48.78125 44.1875 
Q 44.96875 46.296875 41.140625 47.34375 
Q 37.3125 48.390625 33.40625 48.390625 
Q 24.65625 48.390625 19.8125 42.84375 
Q 14.984375 37.3125 14.984375 27.296875 
Q 14.984375 17.28125 19.8125 11.734375 
Q 24.65625 6.203125 33.40625 6.203125 
Q 37.3125 6.203125 41.140625 7.25 
Q 44.96875 8.296875 48.78125 10.40625 
L 48.78125 2.09375 
Q 45.015625 0.34375 40.984375 -0.53125 
Q 36.96875 -1.421875 32.421875 -1.421875 
Q 20.0625 -1.421875 12.78125 6.34375 
Q 5.515625 14.109375 5.515625 27.296875 
Q 5.515625 40.671875 12.859375 48.328125 
Q 20.21875 56 33.015625 56 
Q 37.15625 56 41.109375 55.140625 
Q 45.0625 54.296875 48.78125 52.59375 
M 36.109375 0 
Q 38.78125 -3.03125 40.09375 -5.59375 
Q 41.421875 -8.15625 41.421875 -10.5 
Q 41.421875 -14.84375 38.484375 -17.0625 
Q 35.5625 -19.28125 29.796875 -19.28125 
Q 27.5625 -19.28125 25.4375 -18.984375 
Q 23.3125 -18.703125 21.203125 -18.109375 
L 21.203125 -11.71875 
Q 22.875 -12.546875 24.671875 -12.90625 
Q 26.484375 -13.28125 28.78125 -13.28125 
Q 31.65625 -13.28125 33.125 -12.109375 
Q 34.59375 -10.9375 34.59375 -8.6875 
Q 34.59375 -7.234375 33.53125 -5.109375 
Q 32.484375 -2.984375 30.296875 0 
z
" id="BitstreamVeraSans-Roman-e7"/>
      <path d="M 9.421875 54.6875 
L 18.40625 54.6875 
L 18.40625 0 
L 9.421875 0 
z
M 20.65625 79.984375 
L 30.375 79.984375 
L 14.46875 61.625 
L 6.984375 61.625 
z
" id="BitstreamVeraSans-Roman-ed"/>
      <path d="M 14.796875 27.296875 
Q 14.796875 17.390625 18.875 11.75 
Q 22.953125 6.109375 30.078125 6.109375 
Q 37.203125 6.109375 41.296875 11.75 
Q 45.40625 17.390625 45.40625 27.296875 
Q 45.40625 37.203125 41.296875 42.84375 
Q 37.203125 48.484375 30.078125 48.484375 
Q 22.953125 48.484375 18.875 42.84375 
Q 14.796875 37.203125 14.796875 27.296875 
M 45.40625 8.203125 
Q 42.578125 3.328125 38.25 0.953125 
Q 33.9375 -1.421875 27.875 -1.421875 
Q 17.96875 -1.421875 11.734375 6.484375 
Q 5.515625 14.40625 5.515625 27.296875 
Q 5.515625 40.1875 11.734375 48.09375 
Q 17.96875 56 27.875 56 
Q 33.9375 56 38.25 53.625 
Q 42.578125 51.265625 45.40625 46.390625 
L 45.40625 54.6875 
L 54.390625 54.6875 
L 54.390625 -20.796875 
L 45.40625 -20.796875 
z
" id="BitstreamVeraSans-Roman-71"/>
     </defs>
     <g transform="translate(583.236 298.794375)scale(0.09 -0.09)">
      <use xlink:href="#BitstreamVeraSans-Roman-28"/>
      <use x="39.013671875" xlink:href="#BitstreamVeraSans-Roman-34"/>
      <use x="102.63671875" xlink:href="#BitstreamVeraSans-Roman-33"/>
      <use x="166.259765625" xlink:href="#BitstreamVeraSans-Roman-34"/>
      <use x="229.8828125" xlink:href="#BitstreamVeraSans-Roman-31"/>
      <use x="293.505859375" xlink:href="#BitstreamVeraSans-Roman-29"/>
      <use x="332.51953125" xlink:href="#BitstreamVeraSans-Roman-20"/>
      <use x="364.306640625" xlink:href="#BitstreamVeraSans-Roman-41"/>
      <use x="432.71484375" xlink:href="#BitstreamVeraSans-Roman-20"/>
      <use x="464.501953125" xlink:href="#BitstreamVeraSans-Roman-61"/>
      <use x="525.78125" xlink:href="#BitstreamVeraSans-Roman-71"/>
      <use x="589.2578125" xlink:href="#BitstreamVeraSans-Roman-75"/>
      <use x="652.63671875" xlink:href="#BitstreamVeraSans-Roman-69"/>
      <use x="680.419921875" xlink:href="#BitstreamVeraSans-Roman-73"/>
      <use x="732.51953125" xlink:href="#BitstreamVeraSans-Roman-69"/>
      <use x="760.302734375" xlink:href="#BitstreamVeraSans-Roman-e7"/>
      <use x="815.283203125" xlink:href="#BitstreamVeraSans-Roman-e3"/>
      <use x="876.5625" xlink:href="#BitstreamVeraSans-Roman-6f"/>
      <use x="937.744140625" xlink:href="#BitstreamVeraSans-Roman-20"/>
      <use x="969.53125" xlink:href="#BitstreamVeraSans-Roman-64"/>
      <use x="1033.0078125" xlink:href="#BitstreamVeraSans-Roman-65"/>
      <use x="1094.53125" xlink:href="#BitstreamVeraSans-Roman-20"/>
      <use x="1126.31835938" xlink:href="#BitstreamVeraSans-Roman-6c"/>
      <use x="1154.1015625" xlink:href="#BitstreamVeraSans-Roman-ed"/>
      <use x="1181.88476562" xlink:href="#BitstreamVeraSans-Roman-6e"/>
      <use x="1245.26367188" xlink:href="#BitstreamVeraSans-Roman-67"/>
      <use x="1308.74023438" xlink:href="#BitstreamVeraSans-Roman-75"/>
      <use x="1372.11914062" xlink:href="#BitstreamVeraSans-Roman-61"/>
      <use x="1433.3984375" xlink:href="#BitstreamVeraSans-Roman-20"/>
      <use x="1465.18554688" xlink:href="#BitstreamVeraSans-Roman-6d"/>
      <use x="1562.59765625" xlink:href="#BitstreamVeraSans-Roman-61"/>
      <use x="1623.87695312" xlink:href="#BitstreamVeraSans-Roman-74"/>
      <use x="1663.0859375" xlink:href="#BitstreamVeraSans-Roman-65"/>
      <use x="1724.609375" xlink:href="#BitstreamVeraSans-Roman-72"/>
      <use x="1765.70703125" xlink:href="#BitstreamVeraSans-Roman-6e"/>
      <use x="1829.0859375" xlink:href="#BitstreamVeraSans-Roman-61"/>
      <use x="1890.36523438" xlink:href="#BitstreamVeraSans-Roman-20"/>
      <use x="1922.15234375" xlink:href="#BitstreamVeraSans-Roman-65"/>
      <use x="1983.67578125" xlink:href="#BitstreamVeraSans-Roman-20"/>
      <use x="2015.46289062" xlink:href="#BitstreamVeraSans-Roman-6e"/>
      <use x="2078.84179688" xlink:href="#BitstreamVeraSans-Roman-e3"/>
      <use x="2140.12109375" xlink:href="#BitstreamVeraSans-Roman-6f"/>
      <use x="2201.30273438" xlink:href="#BitstreamVeraSans-Roman-20"/>
      <use x="2233.08984375" xlink:href="#BitstreamVeraSans-Roman-6d"/>
      <use x="2330.50195312" xlink:href="#BitstreamVeraSans-Roman-61"/>
      <use x="2391.78125" xlink:href="#BitstreamVeraSans-Roman-74"/>
      <use x="2430.99023438" xlink:href="#BitstreamVeraSans-Roman-65"/>
      <use x="2492.51367188" xlink:href="#BitstreamVeraSans-Roman-72"/>
      <use x="2533.61132812" xlink:href="#BitstreamVeraSans-Roman-6e"/>
      <use x="2596.99023438" xlink:href="#BitstreamVeraSans-Roman-61"/>
     </g>
    </g>
    <g id="line2d_56"/>
    <g id="line2d_57">
     <g>
      <use style="fill:#4eae4b;stroke:#000000;stroke-width:0.5;" x="567.036" xlink:href="#mcf4ad48d4f" y="322.3546875"/>
     </g>
    </g>
    <g id="text_32">
     <!-- (4041) On looking into words -->
     <defs>
      <path d="M 39.40625 66.21875 
Q 28.65625 66.21875 22.328125 58.203125 
Q 16.015625 50.203125 16.015625 36.375 
Q 16.015625 22.609375 22.328125 14.59375 
Q 28.65625 6.59375 39.40625 6.59375 
Q 50.140625 6.59375 56.421875 14.59375 
Q 62.703125 22.609375 62.703125 36.375 
Q 62.703125 50.203125 56.421875 58.203125 
Q 50.140625 66.21875 39.40625 66.21875 
M 39.40625 74.21875 
Q 54.734375 74.21875 63.90625 63.9375 
Q 73.09375 53.65625 73.09375 36.375 
Q 73.09375 19.140625 63.90625 8.859375 
Q 54.734375 -1.421875 39.40625 -1.421875 
Q 24.03125 -1.421875 14.8125 8.828125 
Q 5.609375 19.09375 5.609375 36.375 
Q 5.609375 53.65625 14.8125 63.9375 
Q 24.03125 74.21875 39.40625 74.21875 
" id="BitstreamVeraSans-Roman-4f"/>
     </defs>
     <g transform="translate(583.236 325.5046875)scale(0.09 -0.09)">
      <use xlink:href="#BitstreamVeraSans-Roman-28"/>
      <use x="39.013671875" xlink:href="#BitstreamVeraSans-Roman-34"/>
      <use x="102.63671875" xlink:href="#BitstreamVeraSans-Roman-30"/>
      <use x="166.259765625" xlink:href="#BitstreamVeraSans-Roman-34"/>
      <use x="229.8828125" xlink:href="#BitstreamVeraSans-Roman-31"/>
      <use x="293.505859375" xlink:href="#BitstreamVeraSans-Roman-29"/>
      <use x="332.51953125" xlink:href="#BitstreamVeraSans-Roman-20"/>
      <use x="364.306640625" xlink:href="#BitstreamVeraSans-Roman-4f"/>
      <use x="443.017578125" xlink:href="#BitstreamVeraSans-Roman-6e"/>
      <use x="506.396484375" xlink:href="#BitstreamVeraSans-Roman-20"/>
      <use x="538.18359375" xlink:href="#BitstreamVeraSans-Roman-6c"/>
      <use x="565.966796875" xlink:href="#BitstreamVeraSans-Roman-6f"/>
      <use x="627.1484375" xlink:href="#BitstreamVeraSans-Roman-6f"/>
      <use x="688.330078125" xlink:href="#BitstreamVeraSans-Roman-6b"/>
      <use x="746.240234375" xlink:href="#BitstreamVeraSans-Roman-69"/>
      <use x="774.0234375" xlink:href="#BitstreamVeraSans-Roman-6e"/>
      <use x="837.40234375" xlink:href="#BitstreamVeraSans-Roman-67"/>
      <use x="900.87890625" xlink:href="#BitstreamVeraSans-Roman-20"/>
      <use x="932.666015625" xlink:href="#BitstreamVeraSans-Roman-69"/>
      <use x="960.44921875" xlink:href="#BitstreamVeraSans-Roman-6e"/>
      <use x="1023.828125" xlink:href="#BitstreamVeraSans-Roman-74"/>
      <use x="1063.03710938" xlink:href="#BitstreamVeraSans-Roman-6f"/>
      <use x="1124.21875" xlink:href="#BitstreamVeraSans-Roman-20"/>
      <use x="1156.00585938" xlink:href="#BitstreamVeraSans-Roman-77"/>
      <use x="1237.79296875" xlink:href="#BitstreamVeraSans-Roman-6f"/>
      <use x="1298.97460938" xlink:href="#BitstreamVeraSans-Roman-72"/>
      <use x="1340.07226562" xlink:href="#BitstreamVeraSans-Roman-64"/>
      <use x="1403.54882812" xlink:href="#BitstreamVeraSans-Roman-73"/>
     </g>
    </g>
   </g>
  </g>
 </g>
 <defs>
  <clipPath id="pf7e24a6f15">
   <rect height="345.6" width="441.936" x="108.0" y="43.2"/>
  </clipPath>
 </defs>
</svg>
