<?xml version="1.0" encoding="utf-8" standalone="no"?>
<!DOCTYPE svg PUBLIC "-//W3C//DTD SVG 1.1//EN"
  "http://www.w3.org/Graphics/SVG/1.1/DTD/svg11.dtd">
<!-- Created with matplotlib (http://matplotlib.org/) -->
<svg height="432pt" version="1.1" viewBox="0 0 864 432" width="864pt" xmlns="http://www.w3.org/2000/svg" xmlns:xlink="http://www.w3.org/1999/xlink">
 <defs>
  <style type="text/css">
*{stroke-linecap:butt;stroke-linejoin:round;}
  </style>
 </defs>
 <g id="figure_1">
  <g id="patch_1">
   <path d="
M0 432
L864 432
L864 0
L0 0
z
" style="fill:#ffffff;"/>
  </g>
  <g id="axes_1">
   <g id="patch_2">
    <path d="
M108 388.8
L549.936 388.8
L549.936 43.2
L108 43.2
z
" style="fill:#ffffff;"/>
   </g>
   <g id="line2d_1">
    <path clip-path="url(#pc3677651e1)" d="
M108 328.237
L141.995 318.602
L175.99 313.252
L209.985 310.086
L243.98 176.878
L277.975 172.551
L311.97 165.722
L345.966 151.953
L379.961 139.581
L413.956 132.462
L447.951 124.181
L481.946 118.195
L515.941 111.325
L549.936 107.855" style="fill:none;stroke:#b5722a;stroke-linecap:square;stroke-width:1.5;"/>
   </g>
   <g id="line2d_2">
    <defs>
     <path d="
M0 -3
L-3 3
L3 3
z
" id="m125e017c80" style="stroke:#000000;stroke-linejoin:miter;stroke-width:0.5;"/>
    </defs>
    <g clip-path="url(#pc3677651e1)">
     <use style="fill:#b5722a;stroke:#000000;stroke-linejoin:miter;stroke-width:0.5;" x="108.0" xlink:href="#m125e017c80" y="328.237056"/>
     <use style="fill:#b5722a;stroke:#000000;stroke-linejoin:miter;stroke-width:0.5;" x="141.995076923" xlink:href="#m125e017c80" y="318.601728"/>
     <use style="fill:#b5722a;stroke:#000000;stroke-linejoin:miter;stroke-width:0.5;" x="175.990153846" xlink:href="#m125e017c80" y="313.25184"/>
     <use style="fill:#b5722a;stroke:#000000;stroke-linejoin:miter;stroke-width:0.5;" x="209.985230769" xlink:href="#m125e017c80" y="310.086144"/>
     <use style="fill:#b5722a;stroke:#000000;stroke-linejoin:miter;stroke-width:0.5;" x="243.980307692" xlink:href="#m125e017c80" y="176.87808"/>
     <use style="fill:#b5722a;stroke:#000000;stroke-linejoin:miter;stroke-width:0.5;" x="277.975384615" xlink:href="#m125e017c80" y="172.551168"/>
     <use style="fill:#b5722a;stroke:#000000;stroke-linejoin:miter;stroke-width:0.5;" x="311.970461538" xlink:href="#m125e017c80" y="165.722112"/>
     <use style="fill:#b5722a;stroke:#000000;stroke-linejoin:miter;stroke-width:0.5;" x="345.965538462" xlink:href="#m125e017c80" y="151.953408"/>
     <use style="fill:#b5722a;stroke:#000000;stroke-linejoin:miter;stroke-width:0.5;" x="379.960615385" xlink:href="#m125e017c80" y="139.580928"/>
     <use style="fill:#b5722a;stroke:#000000;stroke-linejoin:miter;stroke-width:0.5;" x="413.955692308" xlink:href="#m125e017c80" y="132.461568"/>
     <use style="fill:#b5722a;stroke:#000000;stroke-linejoin:miter;stroke-width:0.5;" x="447.950769231" xlink:href="#m125e017c80" y="124.180992"/>
     <use style="fill:#b5722a;stroke:#000000;stroke-linejoin:miter;stroke-width:0.5;" x="481.945846154" xlink:href="#m125e017c80" y="118.1952"/>
     <use style="fill:#b5722a;stroke:#000000;stroke-linejoin:miter;stroke-width:0.5;" x="515.940923077" xlink:href="#m125e017c80" y="111.324672"/>
     <use style="fill:#b5722a;stroke:#000000;stroke-linejoin:miter;stroke-width:0.5;" x="549.936" xlink:href="#m125e017c80" y="107.854848"/>
    </g>
   </g>
   <g id="line2d_3">
    <path clip-path="url(#pc3677651e1)" d="
M108 280.6
L141.995 277.392
L175.99 274.102
L209.985 271.337
L243.98 266.845
L277.975 263.389
L311.97 259.822
L345.966 253.214
L379.961 248.21
L413.956 241.077
L447.951 237.344
L481.946 232.52
L515.941 228.58
L549.936 225.055" style="fill:none;stroke:#ffc51c;stroke-linecap:square;stroke-width:1.5;"/>
   </g>
   <g id="line2d_4">
    <defs>
     <path d="
M-3.67394e-16 3
L3 -3
L-3 -3
z
" id="m791611ba42" style="stroke:#000000;stroke-linejoin:miter;stroke-width:0.5;"/>
    </defs>
    <g clip-path="url(#pc3677651e1)">
     <use style="fill:#ffc51c;stroke:#000000;stroke-linejoin:miter;stroke-width:0.5;" x="108.0" xlink:href="#m791611ba42" y="280.599552"/>
     <use style="fill:#ffc51c;stroke:#000000;stroke-linejoin:miter;stroke-width:0.5;" x="141.995076923" xlink:href="#m791611ba42" y="277.392384"/>
     <use style="fill:#ffc51c;stroke:#000000;stroke-linejoin:miter;stroke-width:0.5;" x="175.990153846" xlink:href="#m791611ba42" y="274.102272"/>
     <use style="fill:#ffc51c;stroke:#000000;stroke-linejoin:miter;stroke-width:0.5;" x="209.985230769" xlink:href="#m791611ba42" y="271.337472"/>
     <use style="fill:#ffc51c;stroke:#000000;stroke-linejoin:miter;stroke-width:0.5;" x="243.980307692" xlink:href="#m791611ba42" y="266.844672"/>
     <use style="fill:#ffc51c;stroke:#000000;stroke-linejoin:miter;stroke-width:0.5;" x="277.975384615" xlink:href="#m791611ba42" y="263.388672"/>
     <use style="fill:#ffc51c;stroke:#000000;stroke-linejoin:miter;stroke-width:0.5;" x="311.970461538" xlink:href="#m791611ba42" y="259.82208"/>
     <use style="fill:#ffc51c;stroke:#000000;stroke-linejoin:miter;stroke-width:0.5;" x="345.965538462" xlink:href="#m791611ba42" y="253.214208"/>
     <use style="fill:#ffc51c;stroke:#000000;stroke-linejoin:miter;stroke-width:0.5;" x="379.960615385" xlink:href="#m791611ba42" y="248.20992"/>
     <use style="fill:#ffc51c;stroke:#000000;stroke-linejoin:miter;stroke-width:0.5;" x="413.955692308" xlink:href="#m791611ba42" y="241.076736"/>
     <use style="fill:#ffc51c;stroke:#000000;stroke-linejoin:miter;stroke-width:0.5;" x="447.950769231" xlink:href="#m791611ba42" y="237.344256"/>
     <use style="fill:#ffc51c;stroke:#000000;stroke-linejoin:miter;stroke-width:0.5;" x="481.945846154" xlink:href="#m791611ba42" y="232.51968"/>
     <use style="fill:#ffc51c;stroke:#000000;stroke-linejoin:miter;stroke-width:0.5;" x="515.940923077" xlink:href="#m791611ba42" y="228.57984"/>
     <use style="fill:#ffc51c;stroke:#000000;stroke-linejoin:miter;stroke-width:0.5;" x="549.936" xlink:href="#m791611ba42" y="225.05472"/>
    </g>
   </g>
   <g id="line2d_5">
    <path clip-path="url(#pc3677651e1)" d="
M108 271.075
L141.995 268.932
L175.99 266.582
L209.985 264.522
L243.98 254.721
L277.975 252.15
L311.97 250.035
L345.966 247.933
L379.961 245.556
L413.956 241.713
L447.951 239.349
L481.946 237.386
L515.941 235.036
L549.936 233.985" style="fill:none;stroke:#92569c;stroke-linecap:square;stroke-width:1.5;"/>
   </g>
   <g id="line2d_6">
    <defs>
     <path d="
M-3 3
L3 3
L3 -3
L-3 -3
z
" id="m376701af58" style="stroke:#000000;stroke-linejoin:miter;stroke-width:0.5;"/>
    </defs>
    <g clip-path="url(#pc3677651e1)">
     <use style="fill:#92569c;stroke:#000000;stroke-linejoin:miter;stroke-width:0.5;" x="108.0" xlink:href="#m376701af58" y="271.074816"/>
     <use style="fill:#92569c;stroke:#000000;stroke-linejoin:miter;stroke-width:0.5;" x="141.995076923" xlink:href="#m376701af58" y="268.932096"/>
     <use style="fill:#92569c;stroke:#000000;stroke-linejoin:miter;stroke-width:0.5;" x="175.990153846" xlink:href="#m376701af58" y="266.582016"/>
     <use style="fill:#92569c;stroke:#000000;stroke-linejoin:miter;stroke-width:0.5;" x="209.985230769" xlink:href="#m376701af58" y="264.52224"/>
     <use style="fill:#92569c;stroke:#000000;stroke-linejoin:miter;stroke-width:0.5;" x="243.980307692" xlink:href="#m376701af58" y="254.721024"/>
     <use style="fill:#92569c;stroke:#000000;stroke-linejoin:miter;stroke-width:0.5;" x="277.975384615" xlink:href="#m376701af58" y="252.14976"/>
     <use style="fill:#92569c;stroke:#000000;stroke-linejoin:miter;stroke-width:0.5;" x="311.970461538" xlink:href="#m376701af58" y="250.034688"/>
     <use style="fill:#92569c;stroke:#000000;stroke-linejoin:miter;stroke-width:0.5;" x="345.965538462" xlink:href="#m376701af58" y="247.93344"/>
     <use style="fill:#92569c;stroke:#000000;stroke-linejoin:miter;stroke-width:0.5;" x="379.960615385" xlink:href="#m376701af58" y="245.555712"/>
     <use style="fill:#92569c;stroke:#000000;stroke-linejoin:miter;stroke-width:0.5;" x="413.955692308" xlink:href="#m376701af58" y="241.71264"/>
     <use style="fill:#92569c;stroke:#000000;stroke-linejoin:miter;stroke-width:0.5;" x="447.950769231" xlink:href="#m376701af58" y="239.348736"/>
     <use style="fill:#92569c;stroke:#000000;stroke-linejoin:miter;stroke-width:0.5;" x="481.945846154" xlink:href="#m376701af58" y="237.385728"/>
     <use style="fill:#92569c;stroke:#000000;stroke-linejoin:miter;stroke-width:0.5;" x="515.940923077" xlink:href="#m376701af58" y="235.035648"/>
     <use style="fill:#92569c;stroke:#000000;stroke-linejoin:miter;stroke-width:0.5;" x="549.936" xlink:href="#m376701af58" y="233.985024"/>
    </g>
   </g>
   <g id="line2d_7">
    <path clip-path="url(#pc3677651e1)" d="
M243.98 388.8
L277.975 386.671
L311.97 373.248
L345.966 363.06
L379.961 360.986
L413.956 353.521
L447.951 347.909
L481.946 342.918
L515.941 339.96
L549.936 337.748" style="fill:none;stroke:#49a65e;stroke-linecap:square;stroke-width:1.5;"/>
   </g>
   <g id="line2d_8">
    <defs>
     <path d="
M1.83697e-16 -3
L-0.673542 -0.927051
L-2.85317 -0.927051
L-1.08981 0.354102
L-1.76336 2.42705
L-2.10498e-16 1.1459
L1.76336 2.42705
L1.08981 0.354102
L2.85317 -0.927051
L0.673542 -0.927051
z
" id="m7f7428cfd7" style="stroke:#000000;stroke-linejoin:bevel;stroke-width:0.5;"/>
    </defs>
    <g clip-path="url(#pc3677651e1)">
     <use style="fill:#49a65e;stroke:#000000;stroke-linejoin:bevel;stroke-width:0.5;" x="243.980307692" xlink:href="#m7f7428cfd7" y="388.8"/>
     <use style="fill:#49a65e;stroke:#000000;stroke-linejoin:bevel;stroke-width:0.5;" x="277.975384615" xlink:href="#m7f7428cfd7" y="386.671104"/>
     <use style="fill:#49a65e;stroke:#000000;stroke-linejoin:bevel;stroke-width:0.5;" x="311.970461538" xlink:href="#m7f7428cfd7" y="373.248"/>
     <use style="fill:#49a65e;stroke:#000000;stroke-linejoin:bevel;stroke-width:0.5;" x="345.965538462" xlink:href="#m7f7428cfd7" y="363.059712"/>
     <use style="fill:#49a65e;stroke:#000000;stroke-linejoin:bevel;stroke-width:0.5;" x="379.960615385" xlink:href="#m7f7428cfd7" y="360.986112"/>
     <use style="fill:#49a65e;stroke:#000000;stroke-linejoin:bevel;stroke-width:0.5;" x="413.955692308" xlink:href="#m7f7428cfd7" y="353.521152"/>
     <use style="fill:#49a65e;stroke:#000000;stroke-linejoin:bevel;stroke-width:0.5;" x="447.950769231" xlink:href="#m7f7428cfd7" y="347.908608"/>
     <use style="fill:#49a65e;stroke:#000000;stroke-linejoin:bevel;stroke-width:0.5;" x="481.945846154" xlink:href="#m7f7428cfd7" y="342.918144"/>
     <use style="fill:#49a65e;stroke:#000000;stroke-linejoin:bevel;stroke-width:0.5;" x="515.940923077" xlink:href="#m7f7428cfd7" y="339.959808"/>
     <use style="fill:#49a65e;stroke:#000000;stroke-linejoin:bevel;stroke-width:0.5;" x="549.936" xlink:href="#m7f7428cfd7" y="337.747968"/>
    </g>
   </g>
   <g id="line2d_9">
    <path clip-path="url(#pc3677651e1)" d="
M108 380.699
L141.995 378.487
L175.99 376.538
L209.985 374.589
L243.98 367.387
L277.975 365.645
L311.97 363.986
L345.966 362.023
L379.961 359.728
L413.956 355.636
L447.951 350.798
L481.946 347.508
L515.941 342.697
L549.936 340.43" style="fill:none;stroke:#c5922c;stroke-linecap:square;stroke-width:1.5;"/>
   </g>
   <g id="line2d_10">
    <defs>
     <path d="
M0 -3
L-3 3
L3 3
z
" id="m76dc58d94b" style="stroke:#000000;stroke-linejoin:miter;stroke-width:0.5;"/>
    </defs>
    <g clip-path="url(#pc3677651e1)">
     <use style="fill:#c5922c;stroke:#000000;stroke-linejoin:miter;stroke-width:0.5;" x="108.0" xlink:href="#m76dc58d94b" y="380.699136"/>
     <use style="fill:#c5922c;stroke:#000000;stroke-linejoin:miter;stroke-width:0.5;" x="141.995076923" xlink:href="#m76dc58d94b" y="378.487296"/>
     <use style="fill:#c5922c;stroke:#000000;stroke-linejoin:miter;stroke-width:0.5;" x="175.990153846" xlink:href="#m76dc58d94b" y="376.538112"/>
     <use style="fill:#c5922c;stroke:#000000;stroke-linejoin:miter;stroke-width:0.5;" x="209.985230769" xlink:href="#m76dc58d94b" y="374.588928"/>
     <use style="fill:#c5922c;stroke:#000000;stroke-linejoin:miter;stroke-width:0.5;" x="243.980307692" xlink:href="#m76dc58d94b" y="367.386624"/>
     <use style="fill:#c5922c;stroke:#000000;stroke-linejoin:miter;stroke-width:0.5;" x="277.975384615" xlink:href="#m76dc58d94b" y="365.6448"/>
     <use style="fill:#c5922c;stroke:#000000;stroke-linejoin:miter;stroke-width:0.5;" x="311.970461538" xlink:href="#m76dc58d94b" y="363.98592"/>
     <use style="fill:#c5922c;stroke:#000000;stroke-linejoin:miter;stroke-width:0.5;" x="345.965538462" xlink:href="#m76dc58d94b" y="362.022912"/>
     <use style="fill:#c5922c;stroke:#000000;stroke-linejoin:miter;stroke-width:0.5;" x="379.960615385" xlink:href="#m76dc58d94b" y="359.728128"/>
     <use style="fill:#c5922c;stroke:#000000;stroke-linejoin:miter;stroke-width:0.5;" x="413.955692308" xlink:href="#m76dc58d94b" y="355.636224"/>
     <use style="fill:#c5922c;stroke:#000000;stroke-linejoin:miter;stroke-width:0.5;" x="447.950769231" xlink:href="#m76dc58d94b" y="350.797824"/>
     <use style="fill:#c5922c;stroke:#000000;stroke-linejoin:miter;stroke-width:0.5;" x="481.945846154" xlink:href="#m76dc58d94b" y="347.507712"/>
     <use style="fill:#c5922c;stroke:#000000;stroke-linejoin:miter;stroke-width:0.5;" x="515.940923077" xlink:href="#m76dc58d94b" y="342.69696"/>
     <use style="fill:#c5922c;stroke:#000000;stroke-linejoin:miter;stroke-width:0.5;" x="549.936" xlink:href="#m76dc58d94b" y="340.429824"/>
    </g>
   </g>
   <g id="line2d_11">
    <path clip-path="url(#pc3677651e1)" d="
M311.97 388.8
L345.966 384.598
L379.961 372.972
L413.956 365.382
L447.951 360.115
L481.946 355.83
L515.941 349.761
L549.936 343.029" style="fill:none;stroke:#b55e43;stroke-linecap:square;stroke-width:1.5;"/>
   </g>
   <g id="line2d_12">
    <defs>
     <path d="
M0 3
C0.795609 3 1.55874 2.6839 2.12132 2.12132
C2.6839 1.55874 3 0.795609 3 0
C3 -0.795609 2.6839 -1.55874 2.12132 -2.12132
C1.55874 -2.6839 0.795609 -3 0 -3
C-0.795609 -3 -1.55874 -2.6839 -2.12132 -2.12132
C-2.6839 -1.55874 -3 -0.795609 -3 0
C-3 0.795609 -2.6839 1.55874 -2.12132 2.12132
C-1.55874 2.6839 -0.795609 3 0 3
z
" id="m6b2eb6d889" style="stroke:#000000;stroke-width:0.5;"/>
    </defs>
    <g clip-path="url(#pc3677651e1)">
     <use style="fill:#b55e43;stroke:#000000;stroke-width:0.5;" x="311.970461538" xlink:href="#m6b2eb6d889" y="388.8"/>
     <use style="fill:#b55e43;stroke:#000000;stroke-width:0.5;" x="345.965538462" xlink:href="#m6b2eb6d889" y="384.597504"/>
     <use style="fill:#b55e43;stroke:#000000;stroke-width:0.5;" x="379.960615385" xlink:href="#m6b2eb6d889" y="372.97152"/>
     <use style="fill:#b55e43;stroke:#000000;stroke-width:0.5;" x="413.955692308" xlink:href="#m6b2eb6d889" y="365.382144"/>
     <use style="fill:#b55e43;stroke:#000000;stroke-width:0.5;" x="447.950769231" xlink:href="#m6b2eb6d889" y="360.1152"/>
     <use style="fill:#b55e43;stroke:#000000;stroke-width:0.5;" x="481.945846154" xlink:href="#m6b2eb6d889" y="355.82976"/>
     <use style="fill:#b55e43;stroke:#000000;stroke-width:0.5;" x="515.940923077" xlink:href="#m6b2eb6d889" y="349.761024"/>
     <use style="fill:#b55e43;stroke:#000000;stroke-width:0.5;" x="549.936" xlink:href="#m6b2eb6d889" y="343.028736"/>
    </g>
   </g>
   <g id="line2d_13">
    <path clip-path="url(#pc3677651e1)" d="
M447.951 388.8
L481.946 378.764
L515.941 371.368
L549.936 367.304" style="fill:none;stroke:#ff8101;stroke-linecap:square;stroke-width:1.5;"/>
   </g>
   <g id="line2d_14">
    <defs>
     <path d="
M1.83697e-16 -3
L-2.85317 -0.927051
L-1.76336 2.42705
L1.76336 2.42705
L2.85317 -0.927051
z
" id="m577728b34d" style="stroke:#000000;stroke-linejoin:miter;stroke-width:0.5;"/>
    </defs>
    <g clip-path="url(#pc3677651e1)">
     <use style="fill:#ff8101;stroke:#000000;stroke-linejoin:miter;stroke-width:0.5;" x="447.950769231" xlink:href="#m577728b34d" y="388.8"/>
     <use style="fill:#ff8101;stroke:#000000;stroke-linejoin:miter;stroke-width:0.5;" x="481.945846154" xlink:href="#m577728b34d" y="378.763776"/>
     <use style="fill:#ff8101;stroke:#000000;stroke-linejoin:miter;stroke-width:0.5;" x="515.940923077" xlink:href="#m577728b34d" y="371.367936"/>
     <use style="fill:#ff8101;stroke:#000000;stroke-linejoin:miter;stroke-width:0.5;" x="549.936" xlink:href="#m577728b34d" y="367.30368"/>
    </g>
   </g>
   <g id="line2d_15">
    <path clip-path="url(#pc3677651e1)" d="
M277.975 388.8
L311.97 388.786
L345.966 388.786
L379.961 388.786
L413.956 388.786
L447.951 388.786
L481.946 379.911
L515.941 375.612
L549.936 374.077" style="fill:none;stroke:#a8572c;stroke-linecap:square;stroke-width:1.5;"/>
   </g>
   <g id="line2d_16">
    <defs>
     <path d="
M-3 3
L3 3
L3 -3
L-3 -3
z
" id="mf164413a97" style="stroke:#000000;stroke-linejoin:miter;stroke-width:0.5;"/>
    </defs>
    <g clip-path="url(#pc3677651e1)">
     <use style="fill:#a8572c;stroke:#000000;stroke-linejoin:miter;stroke-width:0.5;" x="277.975384615" xlink:href="#mf164413a97" y="388.8"/>
     <use style="fill:#a8572c;stroke:#000000;stroke-linejoin:miter;stroke-width:0.5;" x="311.970461538" xlink:href="#mf164413a97" y="388.786176"/>
     <use style="fill:#a8572c;stroke:#000000;stroke-linejoin:miter;stroke-width:0.5;" x="345.965538462" xlink:href="#mf164413a97" y="388.786176"/>
     <use style="fill:#a8572c;stroke:#000000;stroke-linejoin:miter;stroke-width:0.5;" x="379.960615385" xlink:href="#mf164413a97" y="388.786176"/>
     <use style="fill:#a8572c;stroke:#000000;stroke-linejoin:miter;stroke-width:0.5;" x="413.955692308" xlink:href="#mf164413a97" y="388.786176"/>
     <use style="fill:#a8572c;stroke:#000000;stroke-linejoin:miter;stroke-width:0.5;" x="447.950769231" xlink:href="#mf164413a97" y="388.786176"/>
     <use style="fill:#a8572c;stroke:#000000;stroke-linejoin:miter;stroke-width:0.5;" x="481.945846154" xlink:href="#mf164413a97" y="379.911168"/>
     <use style="fill:#a8572c;stroke:#000000;stroke-linejoin:miter;stroke-width:0.5;" x="515.940923077" xlink:href="#mf164413a97" y="375.611904"/>
     <use style="fill:#a8572c;stroke:#000000;stroke-linejoin:miter;stroke-width:0.5;" x="549.936" xlink:href="#mf164413a97" y="374.07744"/>
    </g>
   </g>
   <g id="line2d_17">
    <path clip-path="url(#pc3677651e1)" d="
M345.966 388.8
L379.961 388.731
L413.956 385.482
L447.951 384.418
L481.946 383.215
L515.941 381.943
L549.936 381.017" style="fill:none;stroke:#a05297;stroke-linecap:square;stroke-width:1.5;"/>
   </g>
   <g id="line2d_18">
    <defs>
     <path d="
M1.83697e-16 -3
L-0.673542 -0.927051
L-2.85317 -0.927051
L-1.08981 0.354102
L-1.76336 2.42705
L-2.10498e-16 1.1459
L1.76336 2.42705
L1.08981 0.354102
L2.85317 -0.927051
L0.673542 -0.927051
z
" id="m980fca70b2" style="stroke:#000000;stroke-linejoin:bevel;stroke-width:0.5;"/>
    </defs>
    <g clip-path="url(#pc3677651e1)">
     <use style="fill:#a05297;stroke:#000000;stroke-linejoin:bevel;stroke-width:0.5;" x="345.965538462" xlink:href="#m980fca70b2" y="388.8"/>
     <use style="fill:#a05297;stroke:#000000;stroke-linejoin:bevel;stroke-width:0.5;" x="379.960615385" xlink:href="#m980fca70b2" y="388.73088"/>
     <use style="fill:#a05297;stroke:#000000;stroke-linejoin:bevel;stroke-width:0.5;" x="413.955692308" xlink:href="#m980fca70b2" y="385.48224"/>
     <use style="fill:#a05297;stroke:#000000;stroke-linejoin:bevel;stroke-width:0.5;" x="447.950769231" xlink:href="#m980fca70b2" y="384.417792"/>
     <use style="fill:#a05297;stroke:#000000;stroke-linejoin:bevel;stroke-width:0.5;" x="481.945846154" xlink:href="#m980fca70b2" y="383.215104"/>
     <use style="fill:#a05297;stroke:#000000;stroke-linejoin:bevel;stroke-width:0.5;" x="515.940923077" xlink:href="#m980fca70b2" y="381.943296"/>
     <use style="fill:#a05297;stroke:#000000;stroke-linejoin:bevel;stroke-width:0.5;" x="549.936" xlink:href="#m980fca70b2" y="381.017088"/>
    </g>
   </g>
   <g id="line2d_19">
    <path clip-path="url(#pc3677651e1)" d="
M481.946 388.8
L515.941 388.454
L549.936 385.455" style="fill:none;stroke:#ed771c;stroke-linecap:square;stroke-width:1.5;"/>
   </g>
   <g id="line2d_20">
    <defs>
     <path d="
M0 3
C0.795609 3 1.55874 2.6839 2.12132 2.12132
C2.6839 1.55874 3 0.795609 3 0
C3 -0.795609 2.6839 -1.55874 2.12132 -2.12132
C1.55874 -2.6839 0.795609 -3 0 -3
C-0.795609 -3 -1.55874 -2.6839 -2.12132 -2.12132
C-2.6839 -1.55874 -3 -0.795609 -3 0
C-3 0.795609 -2.6839 1.55874 -2.12132 2.12132
C-1.55874 2.6839 -0.795609 3 0 3
z
" id="m8420834826" style="stroke:#000000;stroke-width:0.5;"/>
    </defs>
    <g clip-path="url(#pc3677651e1)">
     <use style="fill:#ed771c;stroke:#000000;stroke-width:0.5;" x="481.945846154" xlink:href="#m8420834826" y="388.8"/>
     <use style="fill:#ed771c;stroke:#000000;stroke-width:0.5;" x="515.940923077" xlink:href="#m8420834826" y="388.4544"/>
     <use style="fill:#ed771c;stroke:#000000;stroke-width:0.5;" x="549.936" xlink:href="#m8420834826" y="385.454592"/>
    </g>
   </g>
   <g id="line2d_21">
    <path clip-path="url(#pc3677651e1)" d="
M481.946 388.8
L515.941 388.482
L549.936 387.321" style="fill:none;stroke:#f8f132;stroke-linecap:square;stroke-width:1.5;"/>
   </g>
   <g id="line2d_22">
    <defs>
     <path d="
M-3 3
L3 3
L3 -3
L-3 -3
z
" id="ma43b19a0a0" style="stroke:#000000;stroke-linejoin:miter;stroke-width:0.5;"/>
    </defs>
    <g clip-path="url(#pc3677651e1)">
     <use style="fill:#f8f132;stroke:#000000;stroke-linejoin:miter;stroke-width:0.5;" x="481.945846154" xlink:href="#ma43b19a0a0" y="388.8"/>
     <use style="fill:#f8f132;stroke:#000000;stroke-linejoin:miter;stroke-width:0.5;" x="515.940923077" xlink:href="#ma43b19a0a0" y="388.482048"/>
     <use style="fill:#f8f132;stroke:#000000;stroke-linejoin:miter;stroke-width:0.5;" x="549.936" xlink:href="#ma43b19a0a0" y="387.320832"/>
    </g>
   </g>
   <g id="matplotlib.axis_1">
    <g id="xtick_1">
     <g id="line2d_23">
      <defs>
       <path d="
M0 0
L0 -4" id="m93b0483c22" style="stroke:#000000;stroke-width:0.5;"/>
      </defs>
      <g>
       <use style="stroke:#000000;stroke-width:0.5;" x="141.995076923" xlink:href="#m93b0483c22" y="388.8"/>
      </g>
     </g>
     <g id="text_1">
      <!-- 16/07 -->
      <defs>
       <path d="
M12.4062 8.29688
L28.5156 8.29688
L28.5156 63.9219
L10.9844 60.4062
L10.9844 69.3906
L28.4219 72.9062
L38.2812 72.9062
L38.2812 8.29688
L54.3906 8.29688
L54.3906 0
L12.4062 0
z
" id="DejaVuSans-31"/>
       <path d="
M31.7812 66.4062
Q24.1719 66.4062 20.3281 58.9062
Q16.5 51.4219 16.5 36.375
Q16.5 21.3906 20.3281 13.8906
Q24.1719 6.39062 31.7812 6.39062
Q39.4531 6.39062 43.2812 13.8906
Q47.125 21.3906 47.125 36.375
Q47.125 51.4219 43.2812 58.9062
Q39.4531 66.4062 31.7812 66.4062
M31.7812 74.2188
Q44.0469 74.2188 50.5156 64.5156
Q56.9844 54.8281 56.9844 36.375
Q56.9844 17.9688 50.5156 8.26562
Q44.0469 -1.42188 31.7812 -1.42188
Q19.5312 -1.42188 13.0625 8.26562
Q6.59375 17.9688 6.59375 36.375
Q6.59375 54.8281 13.0625 64.5156
Q19.5312 74.2188 31.7812 74.2188" id="DejaVuSans-30"/>
       <path d="
M25.3906 72.9062
L33.6875 72.9062
L8.29688 -9.28125
L0 -9.28125
z
" id="DejaVuSans-2f"/>
       <path d="
M8.20312 72.9062
L55.0781 72.9062
L55.0781 68.7031
L28.6094 0
L18.3125 0
L43.2188 64.5938
L8.20312 64.5938
z
" id="DejaVuSans-37"/>
       <path d="
M33.0156 40.375
Q26.375 40.375 22.4844 35.8281
Q18.6094 31.2969 18.6094 23.3906
Q18.6094 15.5312 22.4844 10.9531
Q26.375 6.39062 33.0156 6.39062
Q39.6562 6.39062 43.5312 10.9531
Q47.4062 15.5312 47.4062 23.3906
Q47.4062 31.2969 43.5312 35.8281
Q39.6562 40.375 33.0156 40.375
M52.5938 71.2969
L52.5938 62.3125
Q48.875 64.0625 45.0938 64.9844
Q41.3125 65.9219 37.5938 65.9219
Q27.8281 65.9219 22.6719 59.3281
Q17.5312 52.7344 16.7969 39.4062
Q19.6719 43.6562 24.0156 45.9219
Q28.375 48.1875 33.5938 48.1875
Q44.5781 48.1875 50.9531 41.5156
Q57.3281 34.8594 57.3281 23.3906
Q57.3281 12.1562 50.6875 5.35938
Q44.0469 -1.42188 33.0156 -1.42188
Q20.3594 -1.42188 13.6719 8.26562
Q6.98438 17.9688 6.98438 36.375
Q6.98438 53.6562 15.1875 63.9375
Q23.3906 74.2188 37.2031 74.2188
Q40.9219 74.2188 44.7031 73.4844
Q48.4844 72.75 52.5938 71.2969" id="DejaVuSans-36"/>
      </defs>
      <g transform="translate(128.562264423 400.3984375)scale(0.1 -0.1)">
       <use xlink:href="#DejaVuSans-31"/>
       <use x="63.623046875" xlink:href="#DejaVuSans-36"/>
       <use x="127.24609375" xlink:href="#DejaVuSans-2f"/>
       <use x="160.9375" xlink:href="#DejaVuSans-30"/>
       <use x="224.560546875" xlink:href="#DejaVuSans-37"/>
      </g>
     </g>
    </g>
    <g id="xtick_2">
     <g id="line2d_24">
      <g>
       <use style="stroke:#000000;stroke-width:0.5;" x="175.990153846" xlink:href="#m93b0483c22" y="388.8"/>
      </g>
     </g>
     <g id="text_2">
      <!-- 16/08 -->
      <defs>
       <path d="
M31.7812 34.625
Q24.75 34.625 20.7188 30.8594
Q16.7031 27.0938 16.7031 20.5156
Q16.7031 13.9219 20.7188 10.1562
Q24.75 6.39062 31.7812 6.39062
Q38.8125 6.39062 42.8594 10.1719
Q46.9219 13.9688 46.9219 20.5156
Q46.9219 27.0938 42.8906 30.8594
Q38.875 34.625 31.7812 34.625
M21.9219 38.8125
Q15.5781 40.375 12.0312 44.7188
Q8.5 49.0781 8.5 55.3281
Q8.5 64.0625 14.7188 69.1406
Q20.9531 74.2188 31.7812 74.2188
Q42.6719 74.2188 48.875 69.1406
Q55.0781 64.0625 55.0781 55.3281
Q55.0781 49.0781 51.5312 44.7188
Q48 40.375 41.7031 38.8125
Q48.8281 37.1562 52.7969 32.3125
Q56.7812 27.4844 56.7812 20.5156
Q56.7812 9.90625 50.3125 4.23438
Q43.8438 -1.42188 31.7812 -1.42188
Q19.7344 -1.42188 13.25 4.23438
Q6.78125 9.90625 6.78125 20.5156
Q6.78125 27.4844 10.7812 32.3125
Q14.7969 37.1562 21.9219 38.8125
M18.3125 54.3906
Q18.3125 48.7344 21.8438 45.5625
Q25.3906 42.3906 31.7812 42.3906
Q38.1406 42.3906 41.7188 45.5625
Q45.3125 48.7344 45.3125 54.3906
Q45.3125 60.0625 41.7188 63.2344
Q38.1406 66.4062 31.7812 66.4062
Q25.3906 66.4062 21.8438 63.2344
Q18.3125 60.0625 18.3125 54.3906" id="DejaVuSans-38"/>
      </defs>
      <g transform="translate(162.472185096 400.3984375)scale(0.1 -0.1)">
       <use xlink:href="#DejaVuSans-31"/>
       <use x="63.623046875" xlink:href="#DejaVuSans-36"/>
       <use x="127.24609375" xlink:href="#DejaVuSans-2f"/>
       <use x="160.9375" xlink:href="#DejaVuSans-30"/>
       <use x="224.560546875" xlink:href="#DejaVuSans-38"/>
      </g>
     </g>
    </g>
    <g id="xtick_3">
     <g id="line2d_25">
      <g>
       <use style="stroke:#000000;stroke-width:0.5;" x="209.985230769" xlink:href="#m93b0483c22" y="388.8"/>
      </g>
     </g>
     <g id="text_3">
      <!-- 16/09 -->
      <defs>
       <path d="
M10.9844 1.51562
L10.9844 10.5
Q14.7031 8.73438 18.5 7.8125
Q22.3125 6.89062 25.9844 6.89062
Q35.75 6.89062 40.8906 13.4531
Q46.0469 20.0156 46.7812 33.4062
Q43.9531 29.2031 39.5938 26.9531
Q35.25 24.7031 29.9844 24.7031
Q19.0469 24.7031 12.6719 31.3125
Q6.29688 37.9375 6.29688 49.4219
Q6.29688 60.6406 12.9375 67.4219
Q19.5781 74.2188 30.6094 74.2188
Q43.2656 74.2188 49.9219 64.5156
Q56.5938 54.8281 56.5938 36.375
Q56.5938 19.1406 48.4062 8.85938
Q40.2344 -1.42188 26.4219 -1.42188
Q22.7031 -1.42188 18.8906 -0.6875
Q15.0938 0.046875 10.9844 1.51562
M30.6094 32.4219
Q37.25 32.4219 41.125 36.9531
Q45.0156 41.5 45.0156 49.4219
Q45.0156 57.2812 41.125 61.8438
Q37.25 66.4062 30.6094 66.4062
Q23.9688 66.4062 20.0938 61.8438
Q16.2188 57.2812 16.2188 49.4219
Q16.2188 41.5 20.0938 36.9531
Q23.9688 32.4219 30.6094 32.4219" id="DejaVuSans-39"/>
      </defs>
      <g transform="translate(196.476637019 400.3984375)scale(0.1 -0.1)">
       <use xlink:href="#DejaVuSans-31"/>
       <use x="63.623046875" xlink:href="#DejaVuSans-36"/>
       <use x="127.24609375" xlink:href="#DejaVuSans-2f"/>
       <use x="160.9375" xlink:href="#DejaVuSans-30"/>
       <use x="224.560546875" xlink:href="#DejaVuSans-39"/>
      </g>
     </g>
    </g>
    <g id="xtick_4">
     <g id="line2d_26">
      <g>
       <use style="stroke:#000000;stroke-width:0.5;" x="243.980307692" xlink:href="#m93b0483c22" y="388.8"/>
      </g>
     </g>
     <g id="text_4">
      <!-- 16/10 -->
      <g transform="translate(230.452182692 400.3984375)scale(0.1 -0.1)">
       <use xlink:href="#DejaVuSans-31"/>
       <use x="63.623046875" xlink:href="#DejaVuSans-36"/>
       <use x="127.24609375" xlink:href="#DejaVuSans-2f"/>
       <use x="160.9375" xlink:href="#DejaVuSans-31"/>
       <use x="224.560546875" xlink:href="#DejaVuSans-30"/>
      </g>
     </g>
    </g>
    <g id="xtick_5">
     <g id="line2d_27">
      <g>
       <use style="stroke:#000000;stroke-width:0.5;" x="277.975384615" xlink:href="#m93b0483c22" y="388.8"/>
      </g>
     </g>
     <g id="text_5">
      <!-- 16/11 -->
      <g transform="translate(264.576947115 400.3984375)scale(0.1 -0.1)">
       <use xlink:href="#DejaVuSans-31"/>
       <use x="63.623046875" xlink:href="#DejaVuSans-36"/>
       <use x="127.24609375" xlink:href="#DejaVuSans-2f"/>
       <use x="160.9375" xlink:href="#DejaVuSans-31"/>
       <use x="224.560546875" xlink:href="#DejaVuSans-31"/>
      </g>
     </g>
    </g>
    <g id="xtick_6">
     <g id="line2d_28">
      <g>
       <use style="stroke:#000000;stroke-width:0.5;" x="311.970461538" xlink:href="#m93b0483c22" y="388.8"/>
      </g>
     </g>
     <g id="text_6">
      <!-- 16/12 -->
      <defs>
       <path d="
M19.1875 8.29688
L53.6094 8.29688
L53.6094 0
L7.32812 0
L7.32812 8.29688
Q12.9375 14.1094 22.625 23.8906
Q32.3281 33.6875 34.8125 36.5312
Q39.5469 41.8438 41.4219 45.5312
Q43.3125 49.2188 43.3125 52.7812
Q43.3125 58.5938 39.2344 62.25
Q35.1562 65.9219 28.6094 65.9219
Q23.9688 65.9219 18.8125 64.3125
Q13.6719 62.7031 7.8125 59.4219
L7.8125 69.3906
Q13.7656 71.7812 18.9375 73
Q24.125 74.2188 28.4219 74.2188
Q39.75 74.2188 46.4844 68.5469
Q53.2188 62.8906 53.2188 53.4219
Q53.2188 48.9219 51.5312 44.8906
Q49.8594 40.875 45.4062 35.4062
Q44.1875 33.9844 37.6406 27.2188
Q31.1094 20.4531 19.1875 8.29688" id="DejaVuSans-32"/>
      </defs>
      <g transform="translate(298.611086538 400.3984375)scale(0.1 -0.1)">
       <use xlink:href="#DejaVuSans-31"/>
       <use x="63.623046875" xlink:href="#DejaVuSans-36"/>
       <use x="127.24609375" xlink:href="#DejaVuSans-2f"/>
       <use x="160.9375" xlink:href="#DejaVuSans-31"/>
       <use x="224.560546875" xlink:href="#DejaVuSans-32"/>
      </g>
     </g>
    </g>
    <g id="xtick_7">
     <g id="line2d_29">
      <g>
       <use style="stroke:#000000;stroke-width:0.5;" x="345.965538462" xlink:href="#m93b0483c22" y="388.8"/>
      </g>
     </g>
     <g id="text_7">
      <!-- 17/01 -->
      <g transform="translate(332.567100962 400.3984375)scale(0.1 -0.1)">
       <use xlink:href="#DejaVuSans-31"/>
       <use x="63.623046875" xlink:href="#DejaVuSans-37"/>
       <use x="127.24609375" xlink:href="#DejaVuSans-2f"/>
       <use x="160.9375" xlink:href="#DejaVuSans-30"/>
       <use x="224.560546875" xlink:href="#DejaVuSans-31"/>
      </g>
     </g>
    </g>
    <g id="xtick_8">
     <g id="line2d_30">
      <g>
       <use style="stroke:#000000;stroke-width:0.5;" x="379.960615385" xlink:href="#m93b0483c22" y="388.8"/>
      </g>
     </g>
     <g id="text_8">
      <!-- 17/02 -->
      <g transform="translate(366.601240385 400.3984375)scale(0.1 -0.1)">
       <use xlink:href="#DejaVuSans-31"/>
       <use x="63.623046875" xlink:href="#DejaVuSans-37"/>
       <use x="127.24609375" xlink:href="#DejaVuSans-2f"/>
       <use x="160.9375" xlink:href="#DejaVuSans-30"/>
       <use x="224.560546875" xlink:href="#DejaVuSans-32"/>
      </g>
     </g>
    </g>
    <g id="xtick_9">
     <g id="line2d_31">
      <g>
       <use style="stroke:#000000;stroke-width:0.5;" x="413.955692308" xlink:href="#m93b0483c22" y="388.8"/>
      </g>
     </g>
     <g id="text_9">
      <!-- 17/03 -->
      <defs>
       <path d="
M40.5781 39.3125
Q47.6562 37.7969 51.625 33
Q55.6094 28.2188 55.6094 21.1875
Q55.6094 10.4062 48.1875 4.48438
Q40.7656 -1.42188 27.0938 -1.42188
Q22.5156 -1.42188 17.6562 -0.515625
Q12.7969 0.390625 7.625 2.20312
L7.625 11.7188
Q11.7188 9.32812 16.5938 8.10938
Q21.4844 6.89062 26.8125 6.89062
Q36.0781 6.89062 40.9375 10.5469
Q45.7969 14.2031 45.7969 21.1875
Q45.7969 27.6406 41.2812 31.2656
Q36.7656 34.9062 28.7188 34.9062
L20.2188 34.9062
L20.2188 43.0156
L29.1094 43.0156
Q36.375 43.0156 40.2344 45.9219
Q44.0938 48.8281 44.0938 54.2969
Q44.0938 59.9062 40.1094 62.9062
Q36.1406 65.9219 28.7188 65.9219
Q24.6562 65.9219 20.0156 65.0312
Q15.375 64.1562 9.8125 62.3125
L9.8125 71.0938
Q15.4375 72.6562 20.3438 73.4375
Q25.25 74.2188 29.5938 74.2188
Q40.8281 74.2188 47.3594 69.1094
Q53.9062 64.0156 53.9062 55.3281
Q53.9062 49.2656 50.4375 45.0938
Q46.9688 40.9219 40.5781 39.3125" id="DejaVuSans-33"/>
      </defs>
      <g transform="translate(400.496317308 400.3984375)scale(0.1 -0.1)">
       <use xlink:href="#DejaVuSans-31"/>
       <use x="63.623046875" xlink:href="#DejaVuSans-37"/>
       <use x="127.24609375" xlink:href="#DejaVuSans-2f"/>
       <use x="160.9375" xlink:href="#DejaVuSans-30"/>
       <use x="224.560546875" xlink:href="#DejaVuSans-33"/>
      </g>
     </g>
    </g>
    <g id="xtick_10">
     <g id="line2d_32">
      <g>
       <use style="stroke:#000000;stroke-width:0.5;" x="447.950769231" xlink:href="#m93b0483c22" y="388.8"/>
      </g>
     </g>
     <g id="text_10">
      <!-- 17/04 -->
      <defs>
       <path d="
M37.7969 64.3125
L12.8906 25.3906
L37.7969 25.3906
z

M35.2031 72.9062
L47.6094 72.9062
L47.6094 25.3906
L58.0156 25.3906
L58.0156 17.1875
L47.6094 17.1875
L47.6094 0
L37.7969 0
L37.7969 17.1875
L4.89062 17.1875
L4.89062 26.7031
z
" id="DejaVuSans-34"/>
      </defs>
      <g transform="translate(434.371081731 400.3984375)scale(0.1 -0.1)">
       <use xlink:href="#DejaVuSans-31"/>
       <use x="63.623046875" xlink:href="#DejaVuSans-37"/>
       <use x="127.24609375" xlink:href="#DejaVuSans-2f"/>
       <use x="160.9375" xlink:href="#DejaVuSans-30"/>
       <use x="224.560546875" xlink:href="#DejaVuSans-34"/>
      </g>
     </g>
    </g>
    <g id="xtick_11">
     <g id="line2d_33">
      <g>
       <use style="stroke:#000000;stroke-width:0.5;" x="481.945846154" xlink:href="#m93b0483c22" y="388.8"/>
      </g>
     </g>
     <g id="text_11">
      <!-- 17/05 -->
      <defs>
       <path d="
M10.7969 72.9062
L49.5156 72.9062
L49.5156 64.5938
L19.8281 64.5938
L19.8281 46.7344
Q21.9688 47.4688 24.1094 47.8281
Q26.2656 48.1875 28.4219 48.1875
Q40.625 48.1875 47.75 41.5
Q54.8906 34.8125 54.8906 23.3906
Q54.8906 11.625 47.5625 5.09375
Q40.2344 -1.42188 26.9062 -1.42188
Q22.3125 -1.42188 17.5469 -0.640625
Q12.7969 0.140625 7.71875 1.70312
L7.71875 11.625
Q12.1094 9.23438 16.7969 8.0625
Q21.4844 6.89062 26.7031 6.89062
Q35.1562 6.89062 40.0781 11.3281
Q45.0156 15.7656 45.0156 23.3906
Q45.0156 31 40.0781 35.4375
Q35.1562 39.8906 26.7031 39.8906
Q22.75 39.8906 18.8125 39.0156
Q14.8906 38.1406 10.7969 36.2812
z
" id="DejaVuSans-35"/>
      </defs>
      <g transform="translate(468.522408654 400.3984375)scale(0.1 -0.1)">
       <use xlink:href="#DejaVuSans-31"/>
       <use x="63.623046875" xlink:href="#DejaVuSans-37"/>
       <use x="127.24609375" xlink:href="#DejaVuSans-2f"/>
       <use x="160.9375" xlink:href="#DejaVuSans-30"/>
       <use x="224.560546875" xlink:href="#DejaVuSans-35"/>
      </g>
     </g>
    </g>
    <g id="xtick_12">
     <g id="line2d_34">
      <g>
       <use style="stroke:#000000;stroke-width:0.5;" x="515.940923077" xlink:href="#m93b0483c22" y="388.8"/>
      </g>
     </g>
     <g id="text_12">
      <!-- 17/06 -->
      <g transform="translate(502.395610577 400.3984375)scale(0.1 -0.1)">
       <use xlink:href="#DejaVuSans-31"/>
       <use x="63.623046875" xlink:href="#DejaVuSans-37"/>
       <use x="127.24609375" xlink:href="#DejaVuSans-2f"/>
       <use x="160.9375" xlink:href="#DejaVuSans-30"/>
       <use x="224.560546875" xlink:href="#DejaVuSans-36"/>
      </g>
     </g>
    </g>
    <g id="xtick_13">
     <g id="line2d_35">
      <g>
       <use style="stroke:#000000;stroke-width:0.5;" x="549.936" xlink:href="#m93b0483c22" y="388.8"/>
      </g>
     </g>
     <g id="text_13">
      <!-- 17/07 -->
      <g transform="translate(536.5031875 400.3984375)scale(0.1 -0.1)">
       <use xlink:href="#DejaVuSans-31"/>
       <use x="63.623046875" xlink:href="#DejaVuSans-37"/>
       <use x="127.24609375" xlink:href="#DejaVuSans-2f"/>
       <use x="160.9375" xlink:href="#DejaVuSans-30"/>
       <use x="224.560546875" xlink:href="#DejaVuSans-37"/>
      </g>
     </g>
    </g>
    <g id="text_14">
     <!-- months -->
     <defs>
      <path d="
M30.6094 48.3906
Q23.3906 48.3906 19.1875 42.75
Q14.9844 37.1094 14.9844 27.2969
Q14.9844 17.4844 19.1562 11.8438
Q23.3438 6.20312 30.6094 6.20312
Q37.7969 6.20312 41.9844 11.8594
Q46.1875 17.5312 46.1875 27.2969
Q46.1875 37.0156 41.9844 42.7031
Q37.7969 48.3906 30.6094 48.3906
M30.6094 56
Q42.3281 56 49.0156 48.375
Q55.7188 40.7656 55.7188 27.2969
Q55.7188 13.875 49.0156 6.21875
Q42.3281 -1.42188 30.6094 -1.42188
Q18.8438 -1.42188 12.1719 6.21875
Q5.51562 13.875 5.51562 27.2969
Q5.51562 40.7656 12.1719 48.375
Q18.8438 56 30.6094 56" id="DejaVuSans-6f"/>
      <path d="
M52 44.1875
Q55.375 50.25 60.0625 53.125
Q64.75 56 71.0938 56
Q79.6406 56 84.2812 50.0156
Q88.9219 44.0469 88.9219 33.0156
L88.9219 0
L79.8906 0
L79.8906 32.7188
Q79.8906 40.5781 77.0938 44.375
Q74.3125 48.1875 68.6094 48.1875
Q61.625 48.1875 57.5625 43.5469
Q53.5156 38.9219 53.5156 30.9062
L53.5156 0
L44.4844 0
L44.4844 32.7188
Q44.4844 40.625 41.7031 44.4062
Q38.9219 48.1875 33.1094 48.1875
Q26.2188 48.1875 22.1562 43.5312
Q18.1094 38.875 18.1094 30.9062
L18.1094 0
L9.07812 0
L9.07812 54.6875
L18.1094 54.6875
L18.1094 46.1875
Q21.1875 51.2188 25.4844 53.6094
Q29.7812 56 35.6875 56
Q41.6562 56 45.8281 52.9688
Q50 49.9531 52 44.1875" id="DejaVuSans-6d"/>
      <path d="
M54.8906 33.0156
L54.8906 0
L45.9062 0
L45.9062 32.7188
Q45.9062 40.4844 42.875 44.3281
Q39.8438 48.1875 33.7969 48.1875
Q26.5156 48.1875 22.3125 43.5469
Q18.1094 38.9219 18.1094 30.9062
L18.1094 0
L9.07812 0
L9.07812 54.6875
L18.1094 54.6875
L18.1094 46.1875
Q21.3438 51.125 25.7031 53.5625
Q30.0781 56 35.7969 56
Q45.2188 56 50.0469 50.1719
Q54.8906 44.3438 54.8906 33.0156" id="DejaVuSans-6e"/>
      <path d="
M54.8906 33.0156
L54.8906 0
L45.9062 0
L45.9062 32.7188
Q45.9062 40.4844 42.875 44.3281
Q39.8438 48.1875 33.7969 48.1875
Q26.5156 48.1875 22.3125 43.5469
Q18.1094 38.9219 18.1094 30.9062
L18.1094 0
L9.07812 0
L9.07812 75.9844
L18.1094 75.9844
L18.1094 46.1875
Q21.3438 51.125 25.7031 53.5625
Q30.0781 56 35.7969 56
Q45.2188 56 50.0469 50.1719
Q54.8906 44.3438 54.8906 33.0156" id="DejaVuSans-68"/>
      <path d="
M18.3125 70.2188
L18.3125 54.6875
L36.8125 54.6875
L36.8125 47.7031
L18.3125 47.7031
L18.3125 18.0156
Q18.3125 11.3281 20.1406 9.42188
Q21.9688 7.51562 27.5938 7.51562
L36.8125 7.51562
L36.8125 0
L27.5938 0
Q17.1875 0 13.2344 3.875
Q9.28125 7.76562 9.28125 18.0156
L9.28125 47.7031
L2.6875 47.7031
L2.6875 54.6875
L9.28125 54.6875
L9.28125 70.2188
z
" id="DejaVuSans-74"/>
      <path d="
M44.2812 53.0781
L44.2812 44.5781
Q40.4844 46.5312 36.375 47.5
Q32.2812 48.4844 27.875 48.4844
Q21.1875 48.4844 17.8438 46.4375
Q14.5 44.3906 14.5 40.2812
Q14.5 37.1562 16.8906 35.375
Q19.2812 33.5938 26.5156 31.9844
L29.5938 31.2969
Q39.1562 29.25 43.1875 25.5156
Q47.2188 21.7812 47.2188 15.0938
Q47.2188 7.46875 41.1875 3.01562
Q35.1562 -1.42188 24.6094 -1.42188
Q20.2188 -1.42188 15.4531 -0.5625
Q10.6875 0.296875 5.42188 2
L5.42188 11.2812
Q10.4062 8.6875 15.2344 7.39062
Q20.0625 6.10938 24.8125 6.10938
Q31.1562 6.10938 34.5625 8.28125
Q37.9844 10.4531 37.9844 14.4062
Q37.9844 18.0625 35.5156 20.0156
Q33.0625 21.9688 24.7031 23.7812
L21.5781 24.5156
Q13.2344 26.2656 9.51562 29.9062
Q5.8125 33.5469 5.8125 39.8906
Q5.8125 47.6094 11.2812 51.7969
Q16.75 56 26.8125 56
Q31.7812 56 36.1719 55.2656
Q40.5781 54.5469 44.2812 53.0781" id="DejaVuSans-73"/>
     </defs>
     <g transform="translate(307.20675 416.59625)scale(0.12 -0.12)">
      <use xlink:href="#DejaVuSans-6d"/>
      <use x="97.412109375" xlink:href="#DejaVuSans-6f"/>
      <use x="158.59375" xlink:href="#DejaVuSans-6e"/>
      <use x="221.97265625" xlink:href="#DejaVuSans-74"/>
      <use x="261.181640625" xlink:href="#DejaVuSans-68"/>
      <use x="324.560546875" xlink:href="#DejaVuSans-73"/>
     </g>
    </g>
   </g>
   <g id="matplotlib.axis_2">
    <g id="ytick_1">
     <g id="line2d_36">
      <defs>
       <path d="
M0 0
L4 0" id="m728421d6d4" style="stroke:#000000;stroke-width:0.5;"/>
      </defs>
      <g>
       <use style="stroke:#000000;stroke-width:0.5;" x="108.0" xlink:href="#m728421d6d4" y="388.8"/>
      </g>
     </g>
     <g id="text_15">
      <!-- 0 -->
      <g transform="translate(97.953125 392.11125)scale(0.12 -0.12)">
       <use xlink:href="#DejaVuSans-30"/>
      </g>
     </g>
    </g>
    <g id="ytick_2">
     <g id="line2d_37">
      <g>
       <use style="stroke:#000000;stroke-width:0.5;" x="108.0" xlink:href="#m728421d6d4" y="319.68"/>
      </g>
     </g>
     <g id="text_16">
      <!-- 5000 -->
      <g transform="translate(75.183125 322.99125)scale(0.12 -0.12)">
       <use xlink:href="#DejaVuSans-35"/>
       <use x="63.623046875" xlink:href="#DejaVuSans-30"/>
       <use x="127.24609375" xlink:href="#DejaVuSans-30"/>
       <use x="190.869140625" xlink:href="#DejaVuSans-30"/>
      </g>
     </g>
    </g>
    <g id="ytick_3">
     <g id="line2d_38">
      <g>
       <use style="stroke:#000000;stroke-width:0.5;" x="108.0" xlink:href="#m728421d6d4" y="250.56"/>
      </g>
     </g>
     <g id="text_17">
      <!-- 10000 -->
      <g transform="translate(67.94 253.87125)scale(0.12 -0.12)">
       <use xlink:href="#DejaVuSans-31"/>
       <use x="63.623046875" xlink:href="#DejaVuSans-30"/>
       <use x="127.24609375" xlink:href="#DejaVuSans-30"/>
       <use x="190.869140625" xlink:href="#DejaVuSans-30"/>
       <use x="254.4921875" xlink:href="#DejaVuSans-30"/>
      </g>
     </g>
    </g>
    <g id="ytick_4">
     <g id="line2d_39">
      <g>
       <use style="stroke:#000000;stroke-width:0.5;" x="108.0" xlink:href="#m728421d6d4" y="181.44"/>
      </g>
     </g>
     <g id="text_18">
      <!-- 15000 -->
      <g transform="translate(67.94 184.75125)scale(0.12 -0.12)">
       <use xlink:href="#DejaVuSans-31"/>
       <use x="63.623046875" xlink:href="#DejaVuSans-35"/>
       <use x="127.24609375" xlink:href="#DejaVuSans-30"/>
       <use x="190.869140625" xlink:href="#DejaVuSans-30"/>
       <use x="254.4921875" xlink:href="#DejaVuSans-30"/>
      </g>
     </g>
    </g>
    <g id="ytick_5">
     <g id="line2d_40">
      <g>
       <use style="stroke:#000000;stroke-width:0.5;" x="108.0" xlink:href="#m728421d6d4" y="112.32"/>
      </g>
     </g>
     <g id="text_19">
      <!-- 20000 -->
      <g transform="translate(67.50125 115.63125)scale(0.12 -0.12)">
       <use xlink:href="#DejaVuSans-32"/>
       <use x="63.623046875" xlink:href="#DejaVuSans-30"/>
       <use x="127.24609375" xlink:href="#DejaVuSans-30"/>
       <use x="190.869140625" xlink:href="#DejaVuSans-30"/>
       <use x="254.4921875" xlink:href="#DejaVuSans-30"/>
      </g>
     </g>
    </g>
    <g id="ytick_6">
     <g id="line2d_41">
      <g>
       <use style="stroke:#000000;stroke-width:0.5;" x="108.0" xlink:href="#m728421d6d4" y="43.2"/>
      </g>
     </g>
     <g id="text_20">
      <!-- 25000 -->
      <g transform="translate(67.50125 46.51125)scale(0.12 -0.12)">
       <use xlink:href="#DejaVuSans-32"/>
       <use x="63.623046875" xlink:href="#DejaVuSans-35"/>
       <use x="127.24609375" xlink:href="#DejaVuSans-30"/>
       <use x="190.869140625" xlink:href="#DejaVuSans-30"/>
       <use x="254.4921875" xlink:href="#DejaVuSans-30"/>
      </g>
     </g>
    </g>
    <g id="text_21">
     <!-- downloads -->
     <defs>
      <path d="
M45.4062 46.3906
L45.4062 75.9844
L54.3906 75.9844
L54.3906 0
L45.4062 0
L45.4062 8.20312
Q42.5781 3.32812 38.25 0.953125
Q33.9375 -1.42188 27.875 -1.42188
Q17.9688 -1.42188 11.7344 6.48438
Q5.51562 14.4062 5.51562 27.2969
Q5.51562 40.1875 11.7344 48.0938
Q17.9688 56 27.875 56
Q33.9375 56 38.25 53.625
Q42.5781 51.2656 45.4062 46.3906
M14.7969 27.2969
Q14.7969 17.3906 18.875 11.75
Q22.9531 6.10938 30.0781 6.10938
Q37.2031 6.10938 41.2969 11.75
Q45.4062 17.3906 45.4062 27.2969
Q45.4062 37.2031 41.2969 42.8438
Q37.2031 48.4844 30.0781 48.4844
Q22.9531 48.4844 18.875 42.8438
Q14.7969 37.2031 14.7969 27.2969" id="DejaVuSans-64"/>
      <path d="
M34.2812 27.4844
Q23.3906 27.4844 19.1875 25
Q14.9844 22.5156 14.9844 16.5
Q14.9844 11.7188 18.1406 8.90625
Q21.2969 6.10938 26.7031 6.10938
Q34.1875 6.10938 38.7031 11.4062
Q43.2188 16.7031 43.2188 25.4844
L43.2188 27.4844
z

M52.2031 31.2031
L52.2031 0
L43.2188 0
L43.2188 8.29688
Q40.1406 3.32812 35.5469 0.953125
Q30.9531 -1.42188 24.3125 -1.42188
Q15.9219 -1.42188 10.9531 3.29688
Q6 8.01562 6 15.9219
Q6 25.1406 12.1719 29.8281
Q18.3594 34.5156 30.6094 34.5156
L43.2188 34.5156
L43.2188 35.4062
Q43.2188 41.6094 39.1406 45
Q35.0625 48.3906 27.6875 48.3906
Q23 48.3906 18.5469 47.2656
Q14.1094 46.1406 10.0156 43.8906
L10.0156 52.2031
Q14.9375 54.1094 19.5781 55.0469
Q24.2188 56 28.6094 56
Q40.4844 56 46.3438 49.8438
Q52.2031 43.7031 52.2031 31.2031" id="DejaVuSans-61"/>
      <path d="
M4.20312 54.6875
L13.1875 54.6875
L24.4219 12.0156
L35.5938 54.6875
L46.1875 54.6875
L57.4219 12.0156
L68.6094 54.6875
L77.5938 54.6875
L63.2812 0
L52.6875 0
L40.9219 44.8281
L29.1094 0
L18.5 0
z
" id="DejaVuSans-77"/>
      <path d="
M9.42188 75.9844
L18.4062 75.9844
L18.4062 0
L9.42188 0
z
" id="DejaVuSans-6c"/>
     </defs>
     <g transform="translate(60.005625 247.5159375)rotate(-90.0)scale(0.12 -0.12)">
      <use xlink:href="#DejaVuSans-64"/>
      <use x="63.4765625" xlink:href="#DejaVuSans-6f"/>
      <use x="124.658203125" xlink:href="#DejaVuSans-77"/>
      <use x="206.4453125" xlink:href="#DejaVuSans-6e"/>
      <use x="269.82421875" xlink:href="#DejaVuSans-6c"/>
      <use x="297.607421875" xlink:href="#DejaVuSans-6f"/>
      <use x="358.7890625" xlink:href="#DejaVuSans-61"/>
      <use x="420.068359375" xlink:href="#DejaVuSans-64"/>
      <use x="483.544921875" xlink:href="#DejaVuSans-73"/>
     </g>
    </g>
   </g>
   <g id="patch_3">
    <path d="
M108 388.8
L549.936 388.8" style="fill:none;stroke:#000000;"/>
   </g>
   <g id="patch_4">
    <path d="
M108 388.8
L108 43.2" style="fill:none;stroke:#000000;"/>
   </g>
   <g id="legend_1">
    <g id="line2d_42"/>
    <g id="line2d_43">
     <g>
      <use style="fill:#b5722a;stroke:#000000;stroke-linejoin:miter;stroke-width:0.5;" x="567.036" xlink:href="#m125e017c80" y="81.781875"/>
     </g>
    </g>
    <g id="text_22">
     <!-- (20323) The future of dialects -->
     <defs>
      <path d="
M56.2031 29.5938
L56.2031 25.2031
L14.8906 25.2031
Q15.4844 15.9219 20.4844 11.0625
Q25.4844 6.20312 34.4219 6.20312
Q39.5938 6.20312 44.4531 7.46875
Q49.3125 8.73438 54.1094 11.2812
L54.1094 2.78125
Q49.2656 0.734375 44.1875 -0.34375
Q39.1094 -1.42188 33.8906 -1.42188
Q20.7969 -1.42188 13.1562 6.1875
Q5.51562 13.8125 5.51562 26.8125
Q5.51562 40.2344 12.7656 48.1094
Q20.0156 56 32.3281 56
Q43.3594 56 49.7812 48.8906
Q56.2031 41.7969 56.2031 29.5938
M47.2188 32.2344
Q47.125 39.5938 43.0938 43.9844
Q39.0625 48.3906 32.4219 48.3906
Q24.9062 48.3906 20.3906 44.1406
Q15.875 39.8906 15.1875 32.1719
z
" id="DejaVuSans-65"/>
      <path d="
M41.1094 46.2969
Q39.5938 47.1719 37.8125 47.5781
Q36.0312 48 33.8906 48
Q26.2656 48 22.1875 43.0469
Q18.1094 38.0938 18.1094 28.8125
L18.1094 0
L9.07812 0
L9.07812 54.6875
L18.1094 54.6875
L18.1094 46.1875
Q20.9531 51.1719 25.4844 53.5781
Q30.0312 56 36.5312 56
Q37.4531 56 38.5781 55.875
Q39.7031 55.7656 41.0625 55.5156
z
" id="DejaVuSans-72"/>
      <path d="
M8.5 21.5781
L8.5 54.6875
L17.4844 54.6875
L17.4844 21.9219
Q17.4844 14.1562 20.5 10.2656
Q23.5312 6.39062 29.5938 6.39062
Q36.8594 6.39062 41.0781 11.0312
Q45.3125 15.6719 45.3125 23.6875
L45.3125 54.6875
L54.2969 54.6875
L54.2969 0
L45.3125 0
L45.3125 8.40625
Q42.0469 3.42188 37.7188 1
Q33.4062 -1.42188 27.6875 -1.42188
Q18.2656 -1.42188 13.375 4.4375
Q8.5 10.2969 8.5 21.5781
M31.1094 56
z
" id="DejaVuSans-75"/>
      <path id="DejaVuSans-20"/>
      <path d="
M9.42188 54.6875
L18.4062 54.6875
L18.4062 0
L9.42188 0
z

M9.42188 75.9844
L18.4062 75.9844
L18.4062 64.5938
L9.42188 64.5938
z
" id="DejaVuSans-69"/>
      <path d="
M37.1094 75.9844
L37.1094 68.5
L28.5156 68.5
Q23.6875 68.5 21.7969 66.5469
Q19.9219 64.5938 19.9219 59.5156
L19.9219 54.6875
L34.7188 54.6875
L34.7188 47.7031
L19.9219 47.7031
L19.9219 0
L10.8906 0
L10.8906 47.7031
L2.29688 47.7031
L2.29688 54.6875
L10.8906 54.6875
L10.8906 58.5
Q10.8906 67.625 15.1406 71.7969
Q19.3906 75.9844 28.6094 75.9844
z
" id="DejaVuSans-66"/>
      <path d="
M31 75.875
Q24.4688 64.6562 21.2812 53.6562
Q18.1094 42.6719 18.1094 31.3906
Q18.1094 20.125 21.3125 9.0625
Q24.5156 -2 31 -13.1875
L23.1875 -13.1875
Q15.875 -1.70312 12.2344 9.375
Q8.59375 20.4531 8.59375 31.3906
Q8.59375 42.2812 12.2031 53.3125
Q15.8281 64.3594 23.1875 75.875
z
" id="DejaVuSans-28"/>
      <path d="
M8.01562 75.875
L15.8281 75.875
Q23.1406 64.3594 26.7812 53.3125
Q30.4219 42.2812 30.4219 31.3906
Q30.4219 20.4531 26.7812 9.375
Q23.1406 -1.70312 15.8281 -13.1875
L8.01562 -13.1875
Q14.5 -2 17.7031 9.0625
Q20.9062 20.125 20.9062 31.3906
Q20.9062 42.6719 17.7031 53.6562
Q14.5 64.6562 8.01562 75.875" id="DejaVuSans-29"/>
      <path d="
M48.7812 52.5938
L48.7812 44.1875
Q44.9688 46.2969 41.1406 47.3438
Q37.3125 48.3906 33.4062 48.3906
Q24.6562 48.3906 19.8125 42.8438
Q14.9844 37.3125 14.9844 27.2969
Q14.9844 17.2812 19.8125 11.7344
Q24.6562 6.20312 33.4062 6.20312
Q37.3125 6.20312 41.1406 7.25
Q44.9688 8.29688 48.7812 10.4062
L48.7812 2.09375
Q45.0156 0.34375 40.9844 -0.53125
Q36.9688 -1.42188 32.4219 -1.42188
Q20.0625 -1.42188 12.7812 6.34375
Q5.51562 14.1094 5.51562 27.2969
Q5.51562 40.6719 12.8594 48.3281
Q20.2188 56 33.0156 56
Q37.1562 56 41.1094 55.1406
Q45.0625 54.2969 48.7812 52.5938" id="DejaVuSans-63"/>
      <path d="
M-0.296875 72.9062
L61.375 72.9062
L61.375 64.5938
L35.5 64.5938
L35.5 0
L25.5938 0
L25.5938 64.5938
L-0.296875 64.5938
z
" id="DejaVuSans-54"/>
     </defs>
     <g transform="translate(583.236 84.931875)scale(0.09 -0.09)">
      <use xlink:href="#DejaVuSans-28"/>
      <use x="39.013671875" xlink:href="#DejaVuSans-32"/>
      <use x="102.63671875" xlink:href="#DejaVuSans-30"/>
      <use x="166.259765625" xlink:href="#DejaVuSans-33"/>
      <use x="229.8828125" xlink:href="#DejaVuSans-32"/>
      <use x="293.505859375" xlink:href="#DejaVuSans-33"/>
      <use x="357.12890625" xlink:href="#DejaVuSans-29"/>
      <use x="396.142578125" xlink:href="#DejaVuSans-20"/>
      <use x="427.9296875" xlink:href="#DejaVuSans-54"/>
      <use x="489.013671875" xlink:href="#DejaVuSans-68"/>
      <use x="552.392578125" xlink:href="#DejaVuSans-65"/>
      <use x="613.916015625" xlink:href="#DejaVuSans-20"/>
      <use x="645.703125" xlink:href="#DejaVuSans-66"/>
      <use x="680.908203125" xlink:href="#DejaVuSans-75"/>
      <use x="744.287109375" xlink:href="#DejaVuSans-74"/>
      <use x="783.49609375" xlink:href="#DejaVuSans-75"/>
      <use x="846.875" xlink:href="#DejaVuSans-72"/>
      <use x="885.73828125" xlink:href="#DejaVuSans-65"/>
      <use x="947.26171875" xlink:href="#DejaVuSans-20"/>
      <use x="979.048828125" xlink:href="#DejaVuSans-6f"/>
      <use x="1040.23046875" xlink:href="#DejaVuSans-66"/>
      <use x="1075.43554688" xlink:href="#DejaVuSans-20"/>
      <use x="1107.22265625" xlink:href="#DejaVuSans-64"/>
      <use x="1170.69921875" xlink:href="#DejaVuSans-69"/>
      <use x="1198.48242188" xlink:href="#DejaVuSans-61"/>
      <use x="1259.76171875" xlink:href="#DejaVuSans-6c"/>
      <use x="1287.54492188" xlink:href="#DejaVuSans-65"/>
      <use x="1349.06835938" xlink:href="#DejaVuSans-63"/>
      <use x="1404.04882812" xlink:href="#DejaVuSans-74"/>
      <use x="1443.2578125" xlink:href="#DejaVuSans-73"/>
     </g>
    </g>
    <g id="line2d_44"/>
    <g id="line2d_45">
     <g>
      <use style="fill:#ffc51c;stroke:#000000;stroke-linejoin:miter;stroke-width:0.5;" x="567.036" xlink:href="#m791611ba42" y="108.4921875"/>
     </g>
    </g>
    <g id="text_23">
     <!-- (11845) New directions in corpus-based translation st -->
     <defs>
      <path d="
M9.8125 72.9062
L23.0938 72.9062
L55.4219 11.9219
L55.4219 72.9062
L64.9844 72.9062
L64.9844 0
L51.7031 0
L19.3906 60.9844
L19.3906 0
L9.8125 0
z
" id="DejaVuSans-4e"/>
      <path d="
M48.6875 27.2969
Q48.6875 37.2031 44.6094 42.8438
Q40.5312 48.4844 33.4062 48.4844
Q26.2656 48.4844 22.1875 42.8438
Q18.1094 37.2031 18.1094 27.2969
Q18.1094 17.3906 22.1875 11.75
Q26.2656 6.10938 33.4062 6.10938
Q40.5312 6.10938 44.6094 11.75
Q48.6875 17.3906 48.6875 27.2969
M18.1094 46.3906
Q20.9531 51.2656 25.2656 53.625
Q29.5938 56 35.5938 56
Q45.5625 56 51.7812 48.0938
Q58.0156 40.1875 58.0156 27.2969
Q58.0156 14.4062 51.7812 6.48438
Q45.5625 -1.42188 35.5938 -1.42188
Q29.5938 -1.42188 25.2656 0.953125
Q20.9531 3.32812 18.1094 8.20312
L18.1094 0
L9.07812 0
L9.07812 75.9844
L18.1094 75.9844
z
" id="DejaVuSans-62"/>
      <path d="
M18.1094 8.20312
L18.1094 -20.7969
L9.07812 -20.7969
L9.07812 54.6875
L18.1094 54.6875
L18.1094 46.3906
Q20.9531 51.2656 25.2656 53.625
Q29.5938 56 35.5938 56
Q45.5625 56 51.7812 48.0938
Q58.0156 40.1875 58.0156 27.2969
Q58.0156 14.4062 51.7812 6.48438
Q45.5625 -1.42188 35.5938 -1.42188
Q29.5938 -1.42188 25.2656 0.953125
Q20.9531 3.32812 18.1094 8.20312
M48.6875 27.2969
Q48.6875 37.2031 44.6094 42.8438
Q40.5312 48.4844 33.4062 48.4844
Q26.2656 48.4844 22.1875 42.8438
Q18.1094 37.2031 18.1094 27.2969
Q18.1094 17.3906 22.1875 11.75
Q26.2656 6.10938 33.4062 6.10938
Q40.5312 6.10938 44.6094 11.75
Q48.6875 17.3906 48.6875 27.2969" id="DejaVuSans-70"/>
      <path d="
M4.89062 31.3906
L31.2031 31.3906
L31.2031 23.3906
L4.89062 23.3906
z
" id="DejaVuSans-2d"/>
     </defs>
     <g transform="translate(583.236 111.6421875)scale(0.09 -0.09)">
      <use xlink:href="#DejaVuSans-28"/>
      <use x="39.013671875" xlink:href="#DejaVuSans-31"/>
      <use x="102.63671875" xlink:href="#DejaVuSans-31"/>
      <use x="166.259765625" xlink:href="#DejaVuSans-38"/>
      <use x="229.8828125" xlink:href="#DejaVuSans-34"/>
      <use x="293.505859375" xlink:href="#DejaVuSans-35"/>
      <use x="357.12890625" xlink:href="#DejaVuSans-29"/>
      <use x="396.142578125" xlink:href="#DejaVuSans-20"/>
      <use x="427.9296875" xlink:href="#DejaVuSans-4e"/>
      <use x="502.734375" xlink:href="#DejaVuSans-65"/>
      <use x="564.2578125" xlink:href="#DejaVuSans-77"/>
      <use x="646.044921875" xlink:href="#DejaVuSans-20"/>
      <use x="677.83203125" xlink:href="#DejaVuSans-64"/>
      <use x="741.30859375" xlink:href="#DejaVuSans-69"/>
      <use x="769.091796875" xlink:href="#DejaVuSans-72"/>
      <use x="807.955078125" xlink:href="#DejaVuSans-65"/>
      <use x="869.478515625" xlink:href="#DejaVuSans-63"/>
      <use x="924.458984375" xlink:href="#DejaVuSans-74"/>
      <use x="963.66796875" xlink:href="#DejaVuSans-69"/>
      <use x="991.451171875" xlink:href="#DejaVuSans-6f"/>
      <use x="1052.6328125" xlink:href="#DejaVuSans-6e"/>
      <use x="1116.01171875" xlink:href="#DejaVuSans-73"/>
      <use x="1168.11132812" xlink:href="#DejaVuSans-20"/>
      <use x="1199.8984375" xlink:href="#DejaVuSans-69"/>
      <use x="1227.68164062" xlink:href="#DejaVuSans-6e"/>
      <use x="1291.06054688" xlink:href="#DejaVuSans-20"/>
      <use x="1322.84765625" xlink:href="#DejaVuSans-63"/>
      <use x="1377.828125" xlink:href="#DejaVuSans-6f"/>
      <use x="1439.00976562" xlink:href="#DejaVuSans-72"/>
      <use x="1480.12304688" xlink:href="#DejaVuSans-70"/>
      <use x="1543.59960938" xlink:href="#DejaVuSans-75"/>
      <use x="1606.97851562" xlink:href="#DejaVuSans-73"/>
      <use x="1659.078125" xlink:href="#DejaVuSans-2d"/>
      <use x="1695.16210938" xlink:href="#DejaVuSans-62"/>
      <use x="1758.63867188" xlink:href="#DejaVuSans-61"/>
      <use x="1819.91796875" xlink:href="#DejaVuSans-73"/>
      <use x="1872.01757812" xlink:href="#DejaVuSans-65"/>
      <use x="1933.54101562" xlink:href="#DejaVuSans-64"/>
      <use x="1997.01757812" xlink:href="#DejaVuSans-20"/>
      <use x="2028.8046875" xlink:href="#DejaVuSans-74"/>
      <use x="2068.01367188" xlink:href="#DejaVuSans-72"/>
      <use x="2109.12695312" xlink:href="#DejaVuSans-61"/>
      <use x="2170.40625" xlink:href="#DejaVuSans-6e"/>
      <use x="2233.78515625" xlink:href="#DejaVuSans-73"/>
      <use x="2285.88476562" xlink:href="#DejaVuSans-6c"/>
      <use x="2313.66796875" xlink:href="#DejaVuSans-61"/>
      <use x="2374.94726562" xlink:href="#DejaVuSans-74"/>
      <use x="2414.15625" xlink:href="#DejaVuSans-69"/>
      <use x="2441.93945312" xlink:href="#DejaVuSans-6f"/>
      <use x="2503.12109375" xlink:href="#DejaVuSans-6e"/>
      <use x="2566.5" xlink:href="#DejaVuSans-20"/>
      <use x="2598.28710938" xlink:href="#DejaVuSans-73"/>
      <use x="2650.38671875" xlink:href="#DejaVuSans-74"/>
     </g>
    </g>
    <g id="line2d_46"/>
    <g id="line2d_47">
     <g>
      <use style="fill:#92569c;stroke:#000000;stroke-linejoin:miter;stroke-width:0.5;" x="567.036" xlink:href="#m376701af58" y="135.2025"/>
     </g>
    </g>
    <g id="text_24">
     <!-- (11199) The Alor-Pantar languages -->
     <defs>
      <path d="
M45.4062 27.9844
Q45.4062 37.75 41.375 43.1094
Q37.3594 48.4844 30.0781 48.4844
Q22.8594 48.4844 18.8281 43.1094
Q14.7969 37.75 14.7969 27.9844
Q14.7969 18.2656 18.8281 12.8906
Q22.8594 7.51562 30.0781 7.51562
Q37.3594 7.51562 41.375 12.8906
Q45.4062 18.2656 45.4062 27.9844
M54.3906 6.78125
Q54.3906 -7.17188 48.1875 -13.9844
Q42 -20.7969 29.2031 -20.7969
Q24.4688 -20.7969 20.2656 -20.0938
Q16.0625 -19.3906 12.1094 -17.9219
L12.1094 -9.1875
Q16.0625 -11.3281 19.9219 -12.3438
Q23.7812 -13.375 27.7812 -13.375
Q36.625 -13.375 41.0156 -8.76562
Q45.4062 -4.15625 45.4062 5.17188
L45.4062 9.625
Q42.625 4.78125 38.2812 2.39062
Q33.9375 0 27.875 0
Q17.8281 0 11.6719 7.65625
Q5.51562 15.3281 5.51562 27.9844
Q5.51562 40.6719 11.6719 48.3281
Q17.8281 56 27.875 56
Q33.9375 56 38.2812 53.6094
Q42.625 51.2188 45.4062 46.3906
L45.4062 54.6875
L54.3906 54.6875
z
" id="DejaVuSans-67"/>
      <path d="
M19.6719 64.7969
L19.6719 37.4062
L32.0781 37.4062
Q38.9688 37.4062 42.7188 40.9688
Q46.4844 44.5312 46.4844 51.125
Q46.4844 57.6719 42.7188 61.2344
Q38.9688 64.7969 32.0781 64.7969
z

M9.8125 72.9062
L32.0781 72.9062
Q44.3438 72.9062 50.6094 67.3594
Q56.8906 61.8125 56.8906 51.125
Q56.8906 40.3281 50.6094 34.8125
Q44.3438 29.2969 32.0781 29.2969
L19.6719 29.2969
L19.6719 0
L9.8125 0
z
" id="DejaVuSans-50"/>
      <path d="
M34.1875 63.1875
L20.7969 26.9062
L47.6094 26.9062
z

M28.6094 72.9062
L39.7969 72.9062
L67.5781 0
L57.3281 0
L50.6875 18.7031
L17.8281 18.7031
L11.1875 0
L0.78125 0
z
" id="DejaVuSans-41"/>
      <path d="
M7.625 37.9844
L17.5781 37.9844
L17.5781 67.8281
L6.6875 65.8281
L6.6875 71.4844
L17.9219 73.3906
L24.6094 73.3906
L24.6094 37.9844
L34.625 37.9844
L34.625 32.625
L7.625 32.625
z
" id="DejaVuSans-b9"/>
     </defs>
     <g transform="translate(583.236 138.3525)scale(0.09 -0.09)">
      <use xlink:href="#DejaVuSans-28"/>
      <use x="39.013671875" xlink:href="#DejaVuSans-31"/>
      <use x="102.63671875" xlink:href="#DejaVuSans-31"/>
      <use x="166.259765625" xlink:href="#DejaVuSans-31"/>
      <use x="229.8828125" xlink:href="#DejaVuSans-39"/>
      <use x="293.505859375" xlink:href="#DejaVuSans-39"/>
      <use x="357.12890625" xlink:href="#DejaVuSans-29"/>
      <use x="396.142578125" xlink:href="#DejaVuSans-20"/>
      <use x="427.9296875" xlink:href="#DejaVuSans-54"/>
      <use x="489.013671875" xlink:href="#DejaVuSans-68"/>
      <use x="552.392578125" xlink:href="#DejaVuSans-65"/>
      <use x="613.916015625" xlink:href="#DejaVuSans-20"/>
      <use x="645.703125" xlink:href="#DejaVuSans-41"/>
      <use x="714.111328125" xlink:href="#DejaVuSans-6c"/>
      <use x="741.89453125" xlink:href="#DejaVuSans-6f"/>
      <use x="803.076171875" xlink:href="#DejaVuSans-72"/>
      <use x="837.814453125" xlink:href="#DejaVuSans-2d"/>
      <use x="873.8984375" xlink:href="#DejaVuSans-50"/>
      <use x="929.701171875" xlink:href="#DejaVuSans-61"/>
      <use x="990.98046875" xlink:href="#DejaVuSans-6e"/>
      <use x="1054.359375" xlink:href="#DejaVuSans-74"/>
      <use x="1093.56835938" xlink:href="#DejaVuSans-61"/>
      <use x="1154.84765625" xlink:href="#DejaVuSans-72"/>
      <use x="1195.9609375" xlink:href="#DejaVuSans-20"/>
      <use x="1227.74804688" xlink:href="#DejaVuSans-6c"/>
      <use x="1255.53125" xlink:href="#DejaVuSans-61"/>
      <use x="1316.81054688" xlink:href="#DejaVuSans-6e"/>
      <use x="1380.18945312" xlink:href="#DejaVuSans-67"/>
      <use x="1443.66601562" xlink:href="#DejaVuSans-75"/>
      <use x="1507.04492188" xlink:href="#DejaVuSans-61"/>
      <use x="1568.32421875" xlink:href="#DejaVuSans-67"/>
      <use x="1631.80078125" xlink:href="#DejaVuSans-65"/>
      <use x="1693.32421875" xlink:href="#DejaVuSans-73"/>
      <use x="1745.42382812" xlink:href="#DejaVuSans-b9"/>
     </g>
    </g>
    <g id="line2d_48"/>
    <g id="line2d_49">
     <g>
      <use style="fill:#49a65e;stroke:#000000;stroke-linejoin:bevel;stroke-width:0.5;" x="567.036" xlink:href="#m7f7428cfd7" y="161.9128125"/>
     </g>
    </g>
    <g id="text_25">
     <!-- (3693) Eyetracking and Applied Linguistics -->
     <defs>
      <path d="
M9.8125 72.9062
L55.9062 72.9062
L55.9062 64.5938
L19.6719 64.5938
L19.6719 43.0156
L54.3906 43.0156
L54.3906 34.7188
L19.6719 34.7188
L19.6719 8.29688
L56.7812 8.29688
L56.7812 0
L9.8125 0
z
" id="DejaVuSans-45"/>
      <path d="
M32.1719 -5.07812
Q28.375 -14.8438 24.75 -17.8125
Q21.1406 -20.7969 15.0938 -20.7969
L7.90625 -20.7969
L7.90625 -13.2812
L13.1875 -13.2812
Q16.8906 -13.2812 18.9375 -11.5156
Q21 -9.76562 23.4844 -3.21875
L25.0938 0.875
L2.98438 54.6875
L12.5 54.6875
L29.5938 11.9219
L46.6875 54.6875
L56.2031 54.6875
z
" id="DejaVuSans-79"/>
      <path d="
M9.07812 75.9844
L18.1094 75.9844
L18.1094 31.1094
L44.9219 54.6875
L56.3906 54.6875
L27.3906 29.1094
L57.625 0
L45.9062 0
L18.1094 26.7031
L18.1094 0
L9.07812 0
z
" id="DejaVuSans-6b"/>
      <path d="
M9.8125 72.9062
L19.6719 72.9062
L19.6719 8.29688
L55.1719 8.29688
L55.1719 0
L9.8125 0
z
" id="DejaVuSans-4c"/>
     </defs>
     <g transform="translate(583.236 165.0628125)scale(0.09 -0.09)">
      <use xlink:href="#DejaVuSans-28"/>
      <use x="39.013671875" xlink:href="#DejaVuSans-33"/>
      <use x="102.63671875" xlink:href="#DejaVuSans-36"/>
      <use x="166.259765625" xlink:href="#DejaVuSans-39"/>
      <use x="229.8828125" xlink:href="#DejaVuSans-33"/>
      <use x="293.505859375" xlink:href="#DejaVuSans-29"/>
      <use x="332.51953125" xlink:href="#DejaVuSans-20"/>
      <use x="364.306640625" xlink:href="#DejaVuSans-45"/>
      <use x="427.490234375" xlink:href="#DejaVuSans-79"/>
      <use x="486.669921875" xlink:href="#DejaVuSans-65"/>
      <use x="548.193359375" xlink:href="#DejaVuSans-74"/>
      <use x="587.40234375" xlink:href="#DejaVuSans-72"/>
      <use x="628.515625" xlink:href="#DejaVuSans-61"/>
      <use x="689.794921875" xlink:href="#DejaVuSans-63"/>
      <use x="744.775390625" xlink:href="#DejaVuSans-6b"/>
      <use x="802.685546875" xlink:href="#DejaVuSans-69"/>
      <use x="830.46875" xlink:href="#DejaVuSans-6e"/>
      <use x="893.84765625" xlink:href="#DejaVuSans-67"/>
      <use x="957.32421875" xlink:href="#DejaVuSans-20"/>
      <use x="989.111328125" xlink:href="#DejaVuSans-61"/>
      <use x="1050.390625" xlink:href="#DejaVuSans-6e"/>
      <use x="1113.76953125" xlink:href="#DejaVuSans-64"/>
      <use x="1177.24609375" xlink:href="#DejaVuSans-20"/>
      <use x="1209.03320312" xlink:href="#DejaVuSans-41"/>
      <use x="1277.44140625" xlink:href="#DejaVuSans-70"/>
      <use x="1340.91796875" xlink:href="#DejaVuSans-70"/>
      <use x="1404.39453125" xlink:href="#DejaVuSans-6c"/>
      <use x="1432.17773438" xlink:href="#DejaVuSans-69"/>
      <use x="1459.9609375" xlink:href="#DejaVuSans-65"/>
      <use x="1521.484375" xlink:href="#DejaVuSans-64"/>
      <use x="1584.9609375" xlink:href="#DejaVuSans-20"/>
      <use x="1616.74804688" xlink:href="#DejaVuSans-4c"/>
      <use x="1672.4609375" xlink:href="#DejaVuSans-69"/>
      <use x="1700.24414062" xlink:href="#DejaVuSans-6e"/>
      <use x="1763.62304688" xlink:href="#DejaVuSans-67"/>
      <use x="1827.09960938" xlink:href="#DejaVuSans-75"/>
      <use x="1890.47851562" xlink:href="#DejaVuSans-69"/>
      <use x="1918.26171875" xlink:href="#DejaVuSans-73"/>
      <use x="1970.36132812" xlink:href="#DejaVuSans-74"/>
      <use x="2009.5703125" xlink:href="#DejaVuSans-69"/>
      <use x="2037.35351562" xlink:href="#DejaVuSans-63"/>
      <use x="2092.33398438" xlink:href="#DejaVuSans-73"/>
     </g>
    </g>
    <g id="line2d_50"/>
    <g id="line2d_51">
     <g>
      <use style="fill:#c5922c;stroke:#000000;stroke-linejoin:miter;stroke-width:0.5;" x="567.036" xlink:href="#m76dc58d94b" y="188.623125"/>
     </g>
    </g>
    <g id="text_26">
     <!-- (3499) Advances in the study of Siouan -->
     <defs>
      <path d="
M53.5156 70.5156
L53.5156 60.8906
Q47.9062 63.5781 42.9219 64.8906
Q37.9375 66.2188 33.2969 66.2188
Q25.25 66.2188 20.875 63.0938
Q16.5 59.9688 16.5 54.2031
Q16.5 49.3594 19.4062 46.8906
Q22.3125 44.4375 30.4219 42.9219
L36.375 41.7031
Q47.4062 39.5938 52.6562 34.2969
Q57.9062 29 57.9062 20.125
Q57.9062 9.51562 50.7969 4.04688
Q43.7031 -1.42188 29.9844 -1.42188
Q24.8125 -1.42188 18.9688 -0.25
Q13.1406 0.921875 6.89062 3.21875
L6.89062 13.375
Q12.8906 10.0156 18.6562 8.29688
Q24.4219 6.59375 29.9844 6.59375
Q38.4219 6.59375 43.0156 9.90625
Q47.6094 13.2344 47.6094 19.3906
Q47.6094 24.75 44.3125 27.7812
Q41.0156 30.8125 33.5 32.3281
L27.4844 33.5
Q16.4531 35.6875 11.5156 40.375
Q6.59375 45.0625 6.59375 53.4219
Q6.59375 63.0938 13.4062 68.6562
Q20.2188 74.2188 32.1719 74.2188
Q37.3125 74.2188 42.625 73.2812
Q47.9531 72.3594 53.5156 70.5156" id="DejaVuSans-53"/>
      <path d="
M2.98438 54.6875
L12.5 54.6875
L29.5938 8.79688
L46.6875 54.6875
L56.2031 54.6875
L35.6875 0
L23.4844 0
z
" id="DejaVuSans-76"/>
     </defs>
     <g transform="translate(583.236 191.773125)scale(0.09 -0.09)">
      <use xlink:href="#DejaVuSans-28"/>
      <use x="39.013671875" xlink:href="#DejaVuSans-33"/>
      <use x="102.63671875" xlink:href="#DejaVuSans-34"/>
      <use x="166.259765625" xlink:href="#DejaVuSans-39"/>
      <use x="229.8828125" xlink:href="#DejaVuSans-39"/>
      <use x="293.505859375" xlink:href="#DejaVuSans-29"/>
      <use x="332.51953125" xlink:href="#DejaVuSans-20"/>
      <use x="364.306640625" xlink:href="#DejaVuSans-41"/>
      <use x="430.96484375" xlink:href="#DejaVuSans-64"/>
      <use x="494.44140625" xlink:href="#DejaVuSans-76"/>
      <use x="553.62109375" xlink:href="#DejaVuSans-61"/>
      <use x="614.900390625" xlink:href="#DejaVuSans-6e"/>
      <use x="678.279296875" xlink:href="#DejaVuSans-63"/>
      <use x="733.259765625" xlink:href="#DejaVuSans-65"/>
      <use x="794.783203125" xlink:href="#DejaVuSans-73"/>
      <use x="846.8828125" xlink:href="#DejaVuSans-20"/>
      <use x="878.669921875" xlink:href="#DejaVuSans-69"/>
      <use x="906.453125" xlink:href="#DejaVuSans-6e"/>
      <use x="969.83203125" xlink:href="#DejaVuSans-20"/>
      <use x="1001.61914062" xlink:href="#DejaVuSans-74"/>
      <use x="1040.828125" xlink:href="#DejaVuSans-68"/>
      <use x="1104.20703125" xlink:href="#DejaVuSans-65"/>
      <use x="1165.73046875" xlink:href="#DejaVuSans-20"/>
      <use x="1197.51757812" xlink:href="#DejaVuSans-73"/>
      <use x="1249.6171875" xlink:href="#DejaVuSans-74"/>
      <use x="1288.82617188" xlink:href="#DejaVuSans-75"/>
      <use x="1352.20507812" xlink:href="#DejaVuSans-64"/>
      <use x="1415.68164062" xlink:href="#DejaVuSans-79"/>
      <use x="1474.86132812" xlink:href="#DejaVuSans-20"/>
      <use x="1506.6484375" xlink:href="#DejaVuSans-6f"/>
      <use x="1567.83007812" xlink:href="#DejaVuSans-66"/>
      <use x="1603.03515625" xlink:href="#DejaVuSans-20"/>
      <use x="1634.82226562" xlink:href="#DejaVuSans-53"/>
      <use x="1698.29882812" xlink:href="#DejaVuSans-69"/>
      <use x="1726.08203125" xlink:href="#DejaVuSans-6f"/>
      <use x="1787.26367188" xlink:href="#DejaVuSans-75"/>
      <use x="1850.64257812" xlink:href="#DejaVuSans-61"/>
      <use x="1911.921875" xlink:href="#DejaVuSans-6e"/>
     </g>
    </g>
    <g id="line2d_52"/>
    <g id="line2d_53">
     <g>
      <use style="fill:#b55e43;stroke:#000000;stroke-width:0.5;" x="567.036" xlink:href="#m6b2eb6d889" y="215.3334375"/>
     </g>
    </g>
    <g id="text_27">
     <!-- (3311) Diversity in African languages -->
     <defs>
      <path d="
M19.6719 64.7969
L19.6719 8.10938
L31.5938 8.10938
Q46.6875 8.10938 53.6875 14.9375
Q60.6875 21.7812 60.6875 36.5312
Q60.6875 51.1719 53.6875 57.9844
Q46.6875 64.7969 31.5938 64.7969
z

M9.8125 72.9062
L30.0781 72.9062
Q51.2656 72.9062 61.1719 64.0938
Q71.0938 55.2812 71.0938 36.5312
Q71.0938 17.6719 61.125 8.82812
Q51.1719 0 30.0781 0
L9.8125 0
z
" id="DejaVuSans-44"/>
     </defs>
     <g transform="translate(583.236 218.4834375)scale(0.09 -0.09)">
      <use xlink:href="#DejaVuSans-28"/>
      <use x="39.013671875" xlink:href="#DejaVuSans-33"/>
      <use x="102.63671875" xlink:href="#DejaVuSans-33"/>
      <use x="166.259765625" xlink:href="#DejaVuSans-31"/>
      <use x="229.8828125" xlink:href="#DejaVuSans-31"/>
      <use x="293.505859375" xlink:href="#DejaVuSans-29"/>
      <use x="332.51953125" xlink:href="#DejaVuSans-20"/>
      <use x="364.306640625" xlink:href="#DejaVuSans-44"/>
      <use x="441.30859375" xlink:href="#DejaVuSans-69"/>
      <use x="469.091796875" xlink:href="#DejaVuSans-76"/>
      <use x="528.271484375" xlink:href="#DejaVuSans-65"/>
      <use x="589.794921875" xlink:href="#DejaVuSans-72"/>
      <use x="630.908203125" xlink:href="#DejaVuSans-73"/>
      <use x="683.0078125" xlink:href="#DejaVuSans-69"/>
      <use x="710.791015625" xlink:href="#DejaVuSans-74"/>
      <use x="750.0" xlink:href="#DejaVuSans-79"/>
      <use x="809.1796875" xlink:href="#DejaVuSans-20"/>
      <use x="840.966796875" xlink:href="#DejaVuSans-69"/>
      <use x="868.75" xlink:href="#DejaVuSans-6e"/>
      <use x="932.12890625" xlink:href="#DejaVuSans-20"/>
      <use x="963.916015625" xlink:href="#DejaVuSans-41"/>
      <use x="1028.69921875" xlink:href="#DejaVuSans-66"/>
      <use x="1063.90429688" xlink:href="#DejaVuSans-72"/>
      <use x="1105.01757812" xlink:href="#DejaVuSans-69"/>
      <use x="1132.80078125" xlink:href="#DejaVuSans-63"/>
      <use x="1187.78125" xlink:href="#DejaVuSans-61"/>
      <use x="1249.06054688" xlink:href="#DejaVuSans-6e"/>
      <use x="1312.43945312" xlink:href="#DejaVuSans-20"/>
      <use x="1344.2265625" xlink:href="#DejaVuSans-6c"/>
      <use x="1372.00976562" xlink:href="#DejaVuSans-61"/>
      <use x="1433.2890625" xlink:href="#DejaVuSans-6e"/>
      <use x="1496.66796875" xlink:href="#DejaVuSans-67"/>
      <use x="1560.14453125" xlink:href="#DejaVuSans-75"/>
      <use x="1623.5234375" xlink:href="#DejaVuSans-61"/>
      <use x="1684.80273438" xlink:href="#DejaVuSans-67"/>
      <use x="1748.27929688" xlink:href="#DejaVuSans-65"/>
      <use x="1809.80273438" xlink:href="#DejaVuSans-73"/>
     </g>
    </g>
    <g id="line2d_54"/>
    <g id="line2d_55">
     <g>
      <use style="fill:#ff8101;stroke:#000000;stroke-linejoin:miter;stroke-width:0.5;" x="567.036" xlink:href="#m577728b34d" y="242.04375"/>
     </g>
    </g>
    <g id="text_28">
     <!-- (1555) On looking into words -->
     <defs>
      <path d="
M39.4062 66.2188
Q28.6562 66.2188 22.3281 58.2031
Q16.0156 50.2031 16.0156 36.375
Q16.0156 22.6094 22.3281 14.5938
Q28.6562 6.59375 39.4062 6.59375
Q50.1406 6.59375 56.4219 14.5938
Q62.7031 22.6094 62.7031 36.375
Q62.7031 50.2031 56.4219 58.2031
Q50.1406 66.2188 39.4062 66.2188
M39.4062 74.2188
Q54.7344 74.2188 63.9062 63.9375
Q73.0938 53.6562 73.0938 36.375
Q73.0938 19.1406 63.9062 8.85938
Q54.7344 -1.42188 39.4062 -1.42188
Q24.0312 -1.42188 14.8125 8.82812
Q5.60938 19.0938 5.60938 36.375
Q5.60938 53.6562 14.8125 63.9375
Q24.0312 74.2188 39.4062 74.2188" id="DejaVuSans-4f"/>
     </defs>
     <g transform="translate(583.236 245.19375)scale(0.09 -0.09)">
      <use xlink:href="#DejaVuSans-28"/>
      <use x="39.013671875" xlink:href="#DejaVuSans-31"/>
      <use x="102.63671875" xlink:href="#DejaVuSans-35"/>
      <use x="166.259765625" xlink:href="#DejaVuSans-35"/>
      <use x="229.8828125" xlink:href="#DejaVuSans-35"/>
      <use x="293.505859375" xlink:href="#DejaVuSans-29"/>
      <use x="332.51953125" xlink:href="#DejaVuSans-20"/>
      <use x="364.306640625" xlink:href="#DejaVuSans-4f"/>
      <use x="443.017578125" xlink:href="#DejaVuSans-6e"/>
      <use x="506.396484375" xlink:href="#DejaVuSans-20"/>
      <use x="538.18359375" xlink:href="#DejaVuSans-6c"/>
      <use x="565.966796875" xlink:href="#DejaVuSans-6f"/>
      <use x="627.1484375" xlink:href="#DejaVuSans-6f"/>
      <use x="688.330078125" xlink:href="#DejaVuSans-6b"/>
      <use x="746.240234375" xlink:href="#DejaVuSans-69"/>
      <use x="774.0234375" xlink:href="#DejaVuSans-6e"/>
      <use x="837.40234375" xlink:href="#DejaVuSans-67"/>
      <use x="900.87890625" xlink:href="#DejaVuSans-20"/>
      <use x="932.666015625" xlink:href="#DejaVuSans-69"/>
      <use x="960.44921875" xlink:href="#DejaVuSans-6e"/>
      <use x="1023.828125" xlink:href="#DejaVuSans-74"/>
      <use x="1063.03710938" xlink:href="#DejaVuSans-6f"/>
      <use x="1124.21875" xlink:href="#DejaVuSans-20"/>
      <use x="1156.00585938" xlink:href="#DejaVuSans-77"/>
      <use x="1237.79296875" xlink:href="#DejaVuSans-6f"/>
      <use x="1298.97460938" xlink:href="#DejaVuSans-72"/>
      <use x="1338.33789062" xlink:href="#DejaVuSans-64"/>
      <use x="1401.81445312" xlink:href="#DejaVuSans-73"/>
     </g>
    </g>
    <g id="line2d_56"/>
    <g id="line2d_57">
     <g>
      <use style="fill:#a8572c;stroke:#000000;stroke-linejoin:miter;stroke-width:0.5;" x="567.036" xlink:href="#mf164413a97" y="268.7540625"/>
     </g>
    </g>
    <g id="text_29">
     <!-- (1065) Dependencies in language -->
     <g transform="translate(583.236 271.9040625)scale(0.09 -0.09)">
      <use xlink:href="#DejaVuSans-28"/>
      <use x="39.013671875" xlink:href="#DejaVuSans-31"/>
      <use x="102.63671875" xlink:href="#DejaVuSans-30"/>
      <use x="166.259765625" xlink:href="#DejaVuSans-36"/>
      <use x="229.8828125" xlink:href="#DejaVuSans-35"/>
      <use x="293.505859375" xlink:href="#DejaVuSans-29"/>
      <use x="332.51953125" xlink:href="#DejaVuSans-20"/>
      <use x="364.306640625" xlink:href="#DejaVuSans-44"/>
      <use x="441.30859375" xlink:href="#DejaVuSans-65"/>
      <use x="502.83203125" xlink:href="#DejaVuSans-70"/>
      <use x="566.30859375" xlink:href="#DejaVuSans-65"/>
      <use x="627.83203125" xlink:href="#DejaVuSans-6e"/>
      <use x="691.2109375" xlink:href="#DejaVuSans-64"/>
      <use x="754.6875" xlink:href="#DejaVuSans-65"/>
      <use x="816.2109375" xlink:href="#DejaVuSans-6e"/>
      <use x="879.58984375" xlink:href="#DejaVuSans-63"/>
      <use x="934.5703125" xlink:href="#DejaVuSans-69"/>
      <use x="962.353515625" xlink:href="#DejaVuSans-65"/>
      <use x="1023.87695312" xlink:href="#DejaVuSans-73"/>
      <use x="1075.9765625" xlink:href="#DejaVuSans-20"/>
      <use x="1107.76367188" xlink:href="#DejaVuSans-69"/>
      <use x="1135.546875" xlink:href="#DejaVuSans-6e"/>
      <use x="1198.92578125" xlink:href="#DejaVuSans-20"/>
      <use x="1230.71289062" xlink:href="#DejaVuSans-6c"/>
      <use x="1258.49609375" xlink:href="#DejaVuSans-61"/>
      <use x="1319.77539062" xlink:href="#DejaVuSans-6e"/>
      <use x="1383.15429688" xlink:href="#DejaVuSans-67"/>
      <use x="1446.63085938" xlink:href="#DejaVuSans-75"/>
      <use x="1510.00976562" xlink:href="#DejaVuSans-61"/>
      <use x="1571.2890625" xlink:href="#DejaVuSans-67"/>
      <use x="1634.765625" xlink:href="#DejaVuSans-65"/>
     </g>
    </g>
    <g id="line2d_58"/>
    <g id="line2d_59">
     <g>
      <use style="fill:#a05297;stroke:#000000;stroke-linejoin:bevel;stroke-width:0.5;" x="567.036" xlink:href="#m980fca70b2" y="295.464375"/>
     </g>
    </g>
    <g id="text_30">
     <!-- (563) Annotation, exploitation and evaluation of pa -->
     <defs>
      <path d="
M11.7188 12.4062
L22.0156 12.4062
L22.0156 4
L14.0156 -11.625
L7.71875 -11.625
L11.7188 4
z
" id="DejaVuSans-2c"/>
      <path d="
M54.8906 54.6875
L35.1094 28.0781
L55.9062 0
L45.3125 0
L29.3906 21.4844
L13.4844 0
L2.875 0
L24.125 28.6094
L4.6875 54.6875
L15.2812 54.6875
L29.7812 35.2031
L44.2812 54.6875
z
" id="DejaVuSans-78"/>
     </defs>
     <g transform="translate(583.236 298.614375)scale(0.09 -0.09)">
      <use xlink:href="#DejaVuSans-28"/>
      <use x="39.013671875" xlink:href="#DejaVuSans-35"/>
      <use x="102.63671875" xlink:href="#DejaVuSans-36"/>
      <use x="166.259765625" xlink:href="#DejaVuSans-33"/>
      <use x="229.8828125" xlink:href="#DejaVuSans-29"/>
      <use x="268.896484375" xlink:href="#DejaVuSans-20"/>
      <use x="300.68359375" xlink:href="#DejaVuSans-41"/>
      <use x="369.091796875" xlink:href="#DejaVuSans-6e"/>
      <use x="432.470703125" xlink:href="#DejaVuSans-6e"/>
      <use x="495.849609375" xlink:href="#DejaVuSans-6f"/>
      <use x="557.03125" xlink:href="#DejaVuSans-74"/>
      <use x="596.240234375" xlink:href="#DejaVuSans-61"/>
      <use x="657.51953125" xlink:href="#DejaVuSans-74"/>
      <use x="696.728515625" xlink:href="#DejaVuSans-69"/>
      <use x="724.51171875" xlink:href="#DejaVuSans-6f"/>
      <use x="785.693359375" xlink:href="#DejaVuSans-6e"/>
      <use x="849.072265625" xlink:href="#DejaVuSans-2c"/>
      <use x="880.859375" xlink:href="#DejaVuSans-20"/>
      <use x="912.646484375" xlink:href="#DejaVuSans-65"/>
      <use x="972.419921875" xlink:href="#DejaVuSans-78"/>
      <use x="1031.59960938" xlink:href="#DejaVuSans-70"/>
      <use x="1095.07617188" xlink:href="#DejaVuSans-6c"/>
      <use x="1122.859375" xlink:href="#DejaVuSans-6f"/>
      <use x="1184.04101562" xlink:href="#DejaVuSans-69"/>
      <use x="1211.82421875" xlink:href="#DejaVuSans-74"/>
      <use x="1251.03320312" xlink:href="#DejaVuSans-61"/>
      <use x="1312.3125" xlink:href="#DejaVuSans-74"/>
      <use x="1351.52148438" xlink:href="#DejaVuSans-69"/>
      <use x="1379.3046875" xlink:href="#DejaVuSans-6f"/>
      <use x="1440.48632812" xlink:href="#DejaVuSans-6e"/>
      <use x="1503.86523438" xlink:href="#DejaVuSans-20"/>
      <use x="1535.65234375" xlink:href="#DejaVuSans-61"/>
      <use x="1596.93164062" xlink:href="#DejaVuSans-6e"/>
      <use x="1660.31054688" xlink:href="#DejaVuSans-64"/>
      <use x="1723.78710938" xlink:href="#DejaVuSans-20"/>
      <use x="1755.57421875" xlink:href="#DejaVuSans-65"/>
      <use x="1817.09765625" xlink:href="#DejaVuSans-76"/>
      <use x="1876.27734375" xlink:href="#DejaVuSans-61"/>
      <use x="1937.55664062" xlink:href="#DejaVuSans-6c"/>
      <use x="1965.33984375" xlink:href="#DejaVuSans-75"/>
      <use x="2028.71875" xlink:href="#DejaVuSans-61"/>
      <use x="2089.99804688" xlink:href="#DejaVuSans-74"/>
      <use x="2129.20703125" xlink:href="#DejaVuSans-69"/>
      <use x="2156.99023438" xlink:href="#DejaVuSans-6f"/>
      <use x="2218.171875" xlink:href="#DejaVuSans-6e"/>
      <use x="2281.55078125" xlink:href="#DejaVuSans-20"/>
      <use x="2313.33789062" xlink:href="#DejaVuSans-6f"/>
      <use x="2374.51953125" xlink:href="#DejaVuSans-66"/>
      <use x="2409.72460938" xlink:href="#DejaVuSans-20"/>
      <use x="2441.51171875" xlink:href="#DejaVuSans-70"/>
      <use x="2504.98828125" xlink:href="#DejaVuSans-61"/>
     </g>
    </g>
    <g id="line2d_60"/>
    <g id="line2d_61">
     <g>
      <use style="fill:#ed771c;stroke:#000000;stroke-width:0.5;" x="567.036" xlink:href="#m8420834826" y="322.1746875"/>
     </g>
    </g>
    <g id="text_31">
     <!-- (242) New perspectives on cohesion and coherence: I -->
     <defs>
      <path d="
M11.7188 12.4062
L22.0156 12.4062
L22.0156 0
L11.7188 0
z

M11.7188 51.7031
L22.0156 51.7031
L22.0156 39.3125
L11.7188 39.3125
z
" id="DejaVuSans-3a"/>
      <path d="
M9.8125 72.9062
L19.6719 72.9062
L19.6719 0
L9.8125 0
z
" id="DejaVuSans-49"/>
     </defs>
     <g transform="translate(583.236 325.3246875)scale(0.09 -0.09)">
      <use xlink:href="#DejaVuSans-28"/>
      <use x="39.013671875" xlink:href="#DejaVuSans-32"/>
      <use x="102.63671875" xlink:href="#DejaVuSans-34"/>
      <use x="166.259765625" xlink:href="#DejaVuSans-32"/>
      <use x="229.8828125" xlink:href="#DejaVuSans-29"/>
      <use x="268.896484375" xlink:href="#DejaVuSans-20"/>
      <use x="300.68359375" xlink:href="#DejaVuSans-4e"/>
      <use x="375.48828125" xlink:href="#DejaVuSans-65"/>
      <use x="437.01171875" xlink:href="#DejaVuSans-77"/>
      <use x="518.798828125" xlink:href="#DejaVuSans-20"/>
      <use x="550.5859375" xlink:href="#DejaVuSans-70"/>
      <use x="614.0625" xlink:href="#DejaVuSans-65"/>
      <use x="675.5859375" xlink:href="#DejaVuSans-72"/>
      <use x="716.69921875" xlink:href="#DejaVuSans-73"/>
      <use x="768.798828125" xlink:href="#DejaVuSans-70"/>
      <use x="832.275390625" xlink:href="#DejaVuSans-65"/>
      <use x="893.798828125" xlink:href="#DejaVuSans-63"/>
      <use x="948.779296875" xlink:href="#DejaVuSans-74"/>
      <use x="987.98828125" xlink:href="#DejaVuSans-69"/>
      <use x="1015.77148438" xlink:href="#DejaVuSans-76"/>
      <use x="1074.95117188" xlink:href="#DejaVuSans-65"/>
      <use x="1136.47460938" xlink:href="#DejaVuSans-73"/>
      <use x="1188.57421875" xlink:href="#DejaVuSans-20"/>
      <use x="1220.36132812" xlink:href="#DejaVuSans-6f"/>
      <use x="1281.54296875" xlink:href="#DejaVuSans-6e"/>
      <use x="1344.921875" xlink:href="#DejaVuSans-20"/>
      <use x="1376.70898438" xlink:href="#DejaVuSans-63"/>
      <use x="1431.68945312" xlink:href="#DejaVuSans-6f"/>
      <use x="1492.87109375" xlink:href="#DejaVuSans-68"/>
      <use x="1556.25" xlink:href="#DejaVuSans-65"/>
      <use x="1617.7734375" xlink:href="#DejaVuSans-73"/>
      <use x="1669.87304688" xlink:href="#DejaVuSans-69"/>
      <use x="1697.65625" xlink:href="#DejaVuSans-6f"/>
      <use x="1758.83789062" xlink:href="#DejaVuSans-6e"/>
      <use x="1822.21679688" xlink:href="#DejaVuSans-20"/>
      <use x="1854.00390625" xlink:href="#DejaVuSans-61"/>
      <use x="1915.28320312" xlink:href="#DejaVuSans-6e"/>
      <use x="1978.66210938" xlink:href="#DejaVuSans-64"/>
      <use x="2042.13867188" xlink:href="#DejaVuSans-20"/>
      <use x="2073.92578125" xlink:href="#DejaVuSans-63"/>
      <use x="2128.90625" xlink:href="#DejaVuSans-6f"/>
      <use x="2190.08789062" xlink:href="#DejaVuSans-68"/>
      <use x="2253.46679688" xlink:href="#DejaVuSans-65"/>
      <use x="2314.99023438" xlink:href="#DejaVuSans-72"/>
      <use x="2353.85351562" xlink:href="#DejaVuSans-65"/>
      <use x="2415.37695312" xlink:href="#DejaVuSans-6e"/>
      <use x="2478.75585938" xlink:href="#DejaVuSans-63"/>
      <use x="2533.73632812" xlink:href="#DejaVuSans-65"/>
      <use x="2595.25976562" xlink:href="#DejaVuSans-3a"/>
      <use x="2628.95117188" xlink:href="#DejaVuSans-20"/>
      <use x="2660.73828125" xlink:href="#DejaVuSans-49"/>
     </g>
    </g>
    <g id="line2d_62"/>
    <g id="line2d_63">
     <g>
      <use style="fill:#f8f132;stroke:#000000;stroke-linejoin:miter;stroke-width:0.5;" x="567.036" xlink:href="#ma43b19a0a0" y="348.885"/>
     </g>
    </g>
    <g id="text_32">
     <!-- (107) The Alor-Pantar languages -->
     <defs>
      <path d="
M13.0938 38.1875
L33.7969 38.1875
L33.7969 32.625
L4.59375 32.625
L4.59375 37.9844
Q6.25 39.5 9.32812 42.2344
Q26.125 57.125 26.125 61.7188
Q26.125 64.9375 23.5781 66.9062
Q21.0469 68.8906 16.8906 68.8906
Q14.3594 68.8906 11.375 68.0312
Q8.40625 67.1875 4.89062 65.4844
L4.89062 71.4844
Q8.64062 72.8594 11.8906 73.5312
Q15.1406 74.2188 17.9219 74.2188
Q25 74.2188 29.25 71
Q33.5 67.7812 33.5 62.5
Q33.5 55.7188 17.3281 41.8438
Q14.5938 39.5 13.0938 38.1875" id="DejaVuSans-b2"/>
     </defs>
     <g transform="translate(583.236 352.035)scale(0.09 -0.09)">
      <use xlink:href="#DejaVuSans-28"/>
      <use x="39.013671875" xlink:href="#DejaVuSans-31"/>
      <use x="102.63671875" xlink:href="#DejaVuSans-30"/>
      <use x="166.259765625" xlink:href="#DejaVuSans-37"/>
      <use x="229.8828125" xlink:href="#DejaVuSans-29"/>
      <use x="268.896484375" xlink:href="#DejaVuSans-20"/>
      <use x="300.68359375" xlink:href="#DejaVuSans-54"/>
      <use x="361.767578125" xlink:href="#DejaVuSans-68"/>
      <use x="425.146484375" xlink:href="#DejaVuSans-65"/>
      <use x="486.669921875" xlink:href="#DejaVuSans-20"/>
      <use x="518.45703125" xlink:href="#DejaVuSans-41"/>
      <use x="586.865234375" xlink:href="#DejaVuSans-6c"/>
      <use x="614.6484375" xlink:href="#DejaVuSans-6f"/>
      <use x="675.830078125" xlink:href="#DejaVuSans-72"/>
      <use x="710.568359375" xlink:href="#DejaVuSans-2d"/>
      <use x="746.65234375" xlink:href="#DejaVuSans-50"/>
      <use x="802.455078125" xlink:href="#DejaVuSans-61"/>
      <use x="863.734375" xlink:href="#DejaVuSans-6e"/>
      <use x="927.11328125" xlink:href="#DejaVuSans-74"/>
      <use x="966.322265625" xlink:href="#DejaVuSans-61"/>
      <use x="1027.6015625" xlink:href="#DejaVuSans-72"/>
      <use x="1068.71484375" xlink:href="#DejaVuSans-20"/>
      <use x="1100.50195312" xlink:href="#DejaVuSans-6c"/>
      <use x="1128.28515625" xlink:href="#DejaVuSans-61"/>
      <use x="1189.56445312" xlink:href="#DejaVuSans-6e"/>
      <use x="1252.94335938" xlink:href="#DejaVuSans-67"/>
      <use x="1316.41992188" xlink:href="#DejaVuSans-75"/>
      <use x="1379.79882812" xlink:href="#DejaVuSans-61"/>
      <use x="1441.078125" xlink:href="#DejaVuSans-67"/>
      <use x="1504.5546875" xlink:href="#DejaVuSans-65"/>
      <use x="1566.078125" xlink:href="#DejaVuSans-73"/>
      <use x="1618.17773438" xlink:href="#DejaVuSans-b2"/>
     </g>
    </g>
   </g>
  </g>
 </g>
 <defs>
  <clipPath id="pc3677651e1">
   <rect height="345.6" width="441.936" x="108.0" y="43.2"/>
  </clipPath>
 </defs>
</svg>
