<?xml version="1.0" encoding="utf-8" standalone="no"?>
<!DOCTYPE svg PUBLIC "-//W3C//DTD SVG 1.1//EN"
  "http://www.w3.org/Graphics/SVG/1.1/DTD/svg11.dtd">
<!-- Created with matplotlib (http://matplotlib.org/) -->
<svg height="432pt" version="1.1" viewBox="0 0 864 432" width="864pt" xmlns="http://www.w3.org/2000/svg" xmlns:xlink="http://www.w3.org/1999/xlink">
 <defs>
  <style type="text/css">
*{stroke-linecap:butt;stroke-linejoin:round;stroke-miterlimit:100000;}
  </style>
 </defs>
 <g id="figure_1">
  <g id="patch_1">
   <path d="M 0 432 
L 864 432 
L 864 0 
L 0 0 
z
" style="fill:#ffffff;"/>
  </g>
  <g id="axes_1">
   <g id="patch_2">
    <path d="M 108 388.8 
L 549.936 388.8 
L 549.936 43.2 
L 108 43.2 
z
" style="fill:#ffffff;"/>
   </g>
   <g id="line2d_1">
    <path clip-path="url(#p971b272c21)" d="M 108 384.662674 
L 141.995077 383.655497 
L 175.990154 383.20128 
L 209.985231 382.756937 
L 243.980308 379.33056 
L 277.975385 378.975086 
L 311.970462 378.353006 
L 345.965538 377.938286 
L 379.960615 377.60256 
L 413.955692 376.812617 
L 447.950769 376.072046 
L 481.945846 374.729143 
L 515.940923 374.324297 
L 549.936 88.908069 
" style="fill:none;stroke:#49a65e;stroke-linecap:square;stroke-width:1.5;"/>
   </g>
   <g id="line2d_2">
    <defs>
     <path d="M -0 3 
L 3 -3 
L -3 -3 
z
" id="m492623beaf" style="stroke:#000000;stroke-linejoin:miter;stroke-width:0.5;"/>
    </defs>
    <g clip-path="url(#p971b272c21)">
     <use style="fill:#49a65e;stroke:#000000;stroke-linejoin:miter;stroke-width:0.5;" x="108.0" xlink:href="#m492623beaf" y="384.662674286"/>
     <use style="fill:#49a65e;stroke:#000000;stroke-linejoin:miter;stroke-width:0.5;" x="141.995076923" xlink:href="#m492623beaf" y="383.655497143"/>
     <use style="fill:#49a65e;stroke:#000000;stroke-linejoin:miter;stroke-width:0.5;" x="175.990153846" xlink:href="#m492623beaf" y="383.20128"/>
     <use style="fill:#49a65e;stroke:#000000;stroke-linejoin:miter;stroke-width:0.5;" x="209.985230769" xlink:href="#m492623beaf" y="382.756937143"/>
     <use style="fill:#49a65e;stroke:#000000;stroke-linejoin:miter;stroke-width:0.5;" x="243.980307692" xlink:href="#m492623beaf" y="379.33056"/>
     <use style="fill:#49a65e;stroke:#000000;stroke-linejoin:miter;stroke-width:0.5;" x="277.975384615" xlink:href="#m492623beaf" y="378.975085714"/>
     <use style="fill:#49a65e;stroke:#000000;stroke-linejoin:miter;stroke-width:0.5;" x="311.970461538" xlink:href="#m492623beaf" y="378.353005714"/>
     <use style="fill:#49a65e;stroke:#000000;stroke-linejoin:miter;stroke-width:0.5;" x="345.965538462" xlink:href="#m492623beaf" y="377.938285714"/>
     <use style="fill:#49a65e;stroke:#000000;stroke-linejoin:miter;stroke-width:0.5;" x="379.960615385" xlink:href="#m492623beaf" y="377.60256"/>
     <use style="fill:#49a65e;stroke:#000000;stroke-linejoin:miter;stroke-width:0.5;" x="413.955692308" xlink:href="#m492623beaf" y="376.812617143"/>
     <use style="fill:#49a65e;stroke:#000000;stroke-linejoin:miter;stroke-width:0.5;" x="447.950769231" xlink:href="#m492623beaf" y="376.072045714"/>
     <use style="fill:#49a65e;stroke:#000000;stroke-linejoin:miter;stroke-width:0.5;" x="481.945846154" xlink:href="#m492623beaf" y="374.729142857"/>
     <use style="fill:#49a65e;stroke:#000000;stroke-linejoin:miter;stroke-width:0.5;" x="515.940923077" xlink:href="#m492623beaf" y="374.324297143"/>
     <use style="fill:#49a65e;stroke:#000000;stroke-linejoin:miter;stroke-width:0.5;" x="549.936" xlink:href="#m492623beaf" y="88.9080685714"/>
    </g>
   </g>
   <g id="line2d_3">
    <path clip-path="url(#p971b272c21)" d="M 108 260.157806 
L 141.995077 255.072549 
L 175.990154 249.157851 
L 209.985231 244.882286 
L 243.980308 239.974766 
L 277.975385 237.49632 
L 311.970462 234.060069 
L 345.965538 231.670491 
L 379.960615 228.658834 
L 413.955692 224.64 
L 447.950769 220.107703 
L 481.945846 216.493714 
L 515.940923 213.867154 
L 549.936 210.519771 
" style="fill:none;stroke:#b55e43;stroke-linecap:square;stroke-width:1.5;"/>
   </g>
   <g id="line2d_4">
    <defs>
     <path d="M 0 -3 
L -0.673542 -0.927051 
L -2.85317 -0.927051 
L -1.089814 0.354102 
L -1.763356 2.427051 
L -0 1.145898 
L 1.763356 2.427051 
L 1.089814 0.354102 
L 2.85317 -0.927051 
L 0.673542 -0.927051 
z
" id="m13d10fc175" style="stroke:#000000;stroke-linejoin:bevel;stroke-width:0.5;"/>
    </defs>
    <g clip-path="url(#p971b272c21)">
     <use style="fill:#b55e43;stroke:#000000;stroke-linejoin:bevel;stroke-width:0.5;" x="108.0" xlink:href="#m13d10fc175" y="260.157805714"/>
     <use style="fill:#b55e43;stroke:#000000;stroke-linejoin:bevel;stroke-width:0.5;" x="141.995076923" xlink:href="#m13d10fc175" y="255.072548571"/>
     <use style="fill:#b55e43;stroke:#000000;stroke-linejoin:bevel;stroke-width:0.5;" x="175.990153846" xlink:href="#m13d10fc175" y="249.157851429"/>
     <use style="fill:#b55e43;stroke:#000000;stroke-linejoin:bevel;stroke-width:0.5;" x="209.985230769" xlink:href="#m13d10fc175" y="244.882285714"/>
     <use style="fill:#b55e43;stroke:#000000;stroke-linejoin:bevel;stroke-width:0.5;" x="243.980307692" xlink:href="#m13d10fc175" y="239.974765714"/>
     <use style="fill:#b55e43;stroke:#000000;stroke-linejoin:bevel;stroke-width:0.5;" x="277.975384615" xlink:href="#m13d10fc175" y="237.49632"/>
     <use style="fill:#b55e43;stroke:#000000;stroke-linejoin:bevel;stroke-width:0.5;" x="311.970461538" xlink:href="#m13d10fc175" y="234.060068571"/>
     <use style="fill:#b55e43;stroke:#000000;stroke-linejoin:bevel;stroke-width:0.5;" x="345.965538462" xlink:href="#m13d10fc175" y="231.670491429"/>
     <use style="fill:#b55e43;stroke:#000000;stroke-linejoin:bevel;stroke-width:0.5;" x="379.960615385" xlink:href="#m13d10fc175" y="228.658834286"/>
     <use style="fill:#b55e43;stroke:#000000;stroke-linejoin:bevel;stroke-width:0.5;" x="413.955692308" xlink:href="#m13d10fc175" y="224.64"/>
     <use style="fill:#b55e43;stroke:#000000;stroke-linejoin:bevel;stroke-width:0.5;" x="447.950769231" xlink:href="#m13d10fc175" y="220.107702857"/>
     <use style="fill:#b55e43;stroke:#000000;stroke-linejoin:bevel;stroke-width:0.5;" x="481.945846154" xlink:href="#m13d10fc175" y="216.493714286"/>
     <use style="fill:#b55e43;stroke:#000000;stroke-linejoin:bevel;stroke-width:0.5;" x="515.940923077" xlink:href="#m13d10fc175" y="213.867154286"/>
     <use style="fill:#b55e43;stroke:#000000;stroke-linejoin:bevel;stroke-width:0.5;" x="549.936" xlink:href="#m13d10fc175" y="210.519771429"/>
    </g>
   </g>
   <g id="line2d_5">
    <path clip-path="url(#p971b272c21)" d="M 108 304.927817 
L 141.995077 297.216 
L 175.990154 291.291429 
L 209.985231 284.892891 
L 243.980308 280.014994 
L 277.975385 275.917166 
L 311.970462 272.619154 
L 345.965538 268.936046 
L 379.960615 260.552777 
L 413.955692 252.752091 
L 447.950769 248.121051 
L 481.945846 243.3024 
L 515.940923 238.789851 
L 549.936 234.000823 
" style="fill:none;stroke:#e27699;stroke-linecap:square;stroke-width:1.5;"/>
   </g>
   <g id="line2d_6">
    <defs>
     <path d="M 0 -3 
L -2.85317 -0.927051 
L -1.763356 2.427051 
L 1.763356 2.427051 
L 2.85317 -0.927051 
z
" id="m0d8a58d88b" style="stroke:#000000;stroke-linejoin:miter;stroke-width:0.5;"/>
    </defs>
    <g clip-path="url(#p971b272c21)">
     <use style="fill:#e27699;stroke:#000000;stroke-linejoin:miter;stroke-width:0.5;" x="108.0" xlink:href="#m0d8a58d88b" y="304.927817143"/>
     <use style="fill:#e27699;stroke:#000000;stroke-linejoin:miter;stroke-width:0.5;" x="141.995076923" xlink:href="#m0d8a58d88b" y="297.216"/>
     <use style="fill:#e27699;stroke:#000000;stroke-linejoin:miter;stroke-width:0.5;" x="175.990153846" xlink:href="#m0d8a58d88b" y="291.291428571"/>
     <use style="fill:#e27699;stroke:#000000;stroke-linejoin:miter;stroke-width:0.5;" x="209.985230769" xlink:href="#m0d8a58d88b" y="284.892891429"/>
     <use style="fill:#e27699;stroke:#000000;stroke-linejoin:miter;stroke-width:0.5;" x="243.980307692" xlink:href="#m0d8a58d88b" y="280.014994286"/>
     <use style="fill:#e27699;stroke:#000000;stroke-linejoin:miter;stroke-width:0.5;" x="277.975384615" xlink:href="#m0d8a58d88b" y="275.917165714"/>
     <use style="fill:#e27699;stroke:#000000;stroke-linejoin:miter;stroke-width:0.5;" x="311.970461538" xlink:href="#m0d8a58d88b" y="272.619154286"/>
     <use style="fill:#e27699;stroke:#000000;stroke-linejoin:miter;stroke-width:0.5;" x="345.965538462" xlink:href="#m0d8a58d88b" y="268.936045714"/>
     <use style="fill:#e27699;stroke:#000000;stroke-linejoin:miter;stroke-width:0.5;" x="379.960615385" xlink:href="#m0d8a58d88b" y="260.552777143"/>
     <use style="fill:#e27699;stroke:#000000;stroke-linejoin:miter;stroke-width:0.5;" x="413.955692308" xlink:href="#m0d8a58d88b" y="252.752091429"/>
     <use style="fill:#e27699;stroke:#000000;stroke-linejoin:miter;stroke-width:0.5;" x="447.950769231" xlink:href="#m0d8a58d88b" y="248.121051429"/>
     <use style="fill:#e27699;stroke:#000000;stroke-linejoin:miter;stroke-width:0.5;" x="481.945846154" xlink:href="#m0d8a58d88b" y="243.3024"/>
     <use style="fill:#e27699;stroke:#000000;stroke-linejoin:miter;stroke-width:0.5;" x="515.940923077" xlink:href="#m0d8a58d88b" y="238.789851429"/>
     <use style="fill:#e27699;stroke:#000000;stroke-linejoin:miter;stroke-width:0.5;" x="549.936" xlink:href="#m0d8a58d88b" y="234.000822857"/>
    </g>
   </g>
   <g id="line2d_7">
    <path clip-path="url(#p971b272c21)" d="M 108 337.601829 
L 141.995077 333.316389 
L 175.990154 330.591086 
L 209.985231 323.945691 
L 243.980308 318.771566 
L 277.975385 311.7312 
L 311.970462 304.977189 
L 345.965538 302.765349 
L 379.960615 300.079543 
L 413.955692 297.07776 
L 447.950769 294.648686 
L 481.945846 291.82464 
L 515.940923 289.119086 
L 549.936 286.719634 
" style="fill:none;stroke:#da6d3b;stroke-linecap:square;stroke-width:1.5;"/>
   </g>
   <g id="line2d_8">
    <defs>
     <path d="M 0 -3 
L -0.673542 -0.927051 
L -2.85317 -0.927051 
L -1.089814 0.354102 
L -1.763356 2.427051 
L -0 1.145898 
L 1.763356 2.427051 
L 1.089814 0.354102 
L 2.85317 -0.927051 
L 0.673542 -0.927051 
z
" id="mbbd99118af" style="stroke:#000000;stroke-linejoin:bevel;stroke-width:0.5;"/>
    </defs>
    <g clip-path="url(#p971b272c21)">
     <use style="fill:#da6d3b;stroke:#000000;stroke-linejoin:bevel;stroke-width:0.5;" x="108.0" xlink:href="#mbbd99118af" y="337.601828571"/>
     <use style="fill:#da6d3b;stroke:#000000;stroke-linejoin:bevel;stroke-width:0.5;" x="141.995076923" xlink:href="#mbbd99118af" y="333.316388571"/>
     <use style="fill:#da6d3b;stroke:#000000;stroke-linejoin:bevel;stroke-width:0.5;" x="175.990153846" xlink:href="#mbbd99118af" y="330.591085714"/>
     <use style="fill:#da6d3b;stroke:#000000;stroke-linejoin:bevel;stroke-width:0.5;" x="209.985230769" xlink:href="#mbbd99118af" y="323.945691429"/>
     <use style="fill:#da6d3b;stroke:#000000;stroke-linejoin:bevel;stroke-width:0.5;" x="243.980307692" xlink:href="#mbbd99118af" y="318.771565714"/>
     <use style="fill:#da6d3b;stroke:#000000;stroke-linejoin:bevel;stroke-width:0.5;" x="277.975384615" xlink:href="#mbbd99118af" y="311.7312"/>
     <use style="fill:#da6d3b;stroke:#000000;stroke-linejoin:bevel;stroke-width:0.5;" x="311.970461538" xlink:href="#mbbd99118af" y="304.977188571"/>
     <use style="fill:#da6d3b;stroke:#000000;stroke-linejoin:bevel;stroke-width:0.5;" x="345.965538462" xlink:href="#mbbd99118af" y="302.765348571"/>
     <use style="fill:#da6d3b;stroke:#000000;stroke-linejoin:bevel;stroke-width:0.5;" x="379.960615385" xlink:href="#mbbd99118af" y="300.079542857"/>
     <use style="fill:#da6d3b;stroke:#000000;stroke-linejoin:bevel;stroke-width:0.5;" x="413.955692308" xlink:href="#mbbd99118af" y="297.07776"/>
     <use style="fill:#da6d3b;stroke:#000000;stroke-linejoin:bevel;stroke-width:0.5;" x="447.950769231" xlink:href="#mbbd99118af" y="294.648685714"/>
     <use style="fill:#da6d3b;stroke:#000000;stroke-linejoin:bevel;stroke-width:0.5;" x="481.945846154" xlink:href="#mbbd99118af" y="291.82464"/>
     <use style="fill:#da6d3b;stroke:#000000;stroke-linejoin:bevel;stroke-width:0.5;" x="515.940923077" xlink:href="#mbbd99118af" y="289.119085714"/>
     <use style="fill:#da6d3b;stroke:#000000;stroke-linejoin:bevel;stroke-width:0.5;" x="549.936" xlink:href="#mbbd99118af" y="286.719634286"/>
    </g>
   </g>
   <g id="line2d_9">
    <path clip-path="url(#p971b272c21)" d="M 108 337.749943 
L 141.995077 332.654811 
L 175.990154 329.988754 
L 209.985231 326.542629 
L 243.980308 323.728457 
L 277.975385 321.210514 
L 311.970462 318.603703 
L 345.965538 316.36224 
L 379.960615 313.785051 
L 413.955692 310.368549 
L 447.950769 306.576823 
L 481.945846 303.891017 
L 515.940923 301.856914 
L 549.936 299.01312 
" style="fill:none;stroke:#a83d52;stroke-linecap:square;stroke-width:1.5;"/>
   </g>
   <g id="line2d_10">
    <defs>
     <path d="M -0 4.242641 
L 4.242641 0 
L 0 -4.242641 
L -4.242641 -0 
z
" id="m65d06f3458" style="stroke:#000000;stroke-linejoin:miter;stroke-width:0.5;"/>
    </defs>
    <g clip-path="url(#p971b272c21)">
     <use style="fill:#a83d52;stroke:#000000;stroke-linejoin:miter;stroke-width:0.5;" x="108.0" xlink:href="#m65d06f3458" y="337.749942857"/>
     <use style="fill:#a83d52;stroke:#000000;stroke-linejoin:miter;stroke-width:0.5;" x="141.995076923" xlink:href="#m65d06f3458" y="332.654811429"/>
     <use style="fill:#a83d52;stroke:#000000;stroke-linejoin:miter;stroke-width:0.5;" x="175.990153846" xlink:href="#m65d06f3458" y="329.988754286"/>
     <use style="fill:#a83d52;stroke:#000000;stroke-linejoin:miter;stroke-width:0.5;" x="209.985230769" xlink:href="#m65d06f3458" y="326.542628571"/>
     <use style="fill:#a83d52;stroke:#000000;stroke-linejoin:miter;stroke-width:0.5;" x="243.980307692" xlink:href="#m65d06f3458" y="323.728457143"/>
     <use style="fill:#a83d52;stroke:#000000;stroke-linejoin:miter;stroke-width:0.5;" x="277.975384615" xlink:href="#m65d06f3458" y="321.210514286"/>
     <use style="fill:#a83d52;stroke:#000000;stroke-linejoin:miter;stroke-width:0.5;" x="311.970461538" xlink:href="#m65d06f3458" y="318.603702857"/>
     <use style="fill:#a83d52;stroke:#000000;stroke-linejoin:miter;stroke-width:0.5;" x="345.965538462" xlink:href="#m65d06f3458" y="316.36224"/>
     <use style="fill:#a83d52;stroke:#000000;stroke-linejoin:miter;stroke-width:0.5;" x="379.960615385" xlink:href="#m65d06f3458" y="313.785051429"/>
     <use style="fill:#a83d52;stroke:#000000;stroke-linejoin:miter;stroke-width:0.5;" x="413.955692308" xlink:href="#m65d06f3458" y="310.368548571"/>
     <use style="fill:#a83d52;stroke:#000000;stroke-linejoin:miter;stroke-width:0.5;" x="447.950769231" xlink:href="#m65d06f3458" y="306.576822857"/>
     <use style="fill:#a83d52;stroke:#000000;stroke-linejoin:miter;stroke-width:0.5;" x="481.945846154" xlink:href="#m65d06f3458" y="303.891017143"/>
     <use style="fill:#a83d52;stroke:#000000;stroke-linejoin:miter;stroke-width:0.5;" x="515.940923077" xlink:href="#m65d06f3458" y="301.856914286"/>
     <use style="fill:#a83d52;stroke:#000000;stroke-linejoin:miter;stroke-width:0.5;" x="549.936" xlink:href="#m65d06f3458" y="299.01312"/>
    </g>
   </g>
   <g id="line2d_11">
    <path clip-path="url(#p971b272c21)" d="M 108 335.85408 
L 141.995077 333.109029 
L 175.990154 331.420526 
L 209.985231 330.018377 
L 243.980308 328.339749 
L 277.975385 327.589303 
L 311.970462 326.611749 
L 345.965538 324.824503 
L 379.960615 323.925943 
L 413.955692 322.72128 
L 447.950769 321.556114 
L 481.945846 320.667429 
L 515.940923 320.124343 
L 549.936 319.077669 
" style="fill:none;stroke:#dd88b4;stroke-linecap:square;stroke-width:1.5;"/>
   </g>
   <g id="line2d_12">
    <defs>
     <path d="M -0 3 
L 3 -3 
L -3 -3 
z
" id="mfaf9f2ebc1" style="stroke:#000000;stroke-linejoin:miter;stroke-width:0.5;"/>
    </defs>
    <g clip-path="url(#p971b272c21)">
     <use style="fill:#dd88b4;stroke:#000000;stroke-linejoin:miter;stroke-width:0.5;" x="108.0" xlink:href="#mfaf9f2ebc1" y="335.85408"/>
     <use style="fill:#dd88b4;stroke:#000000;stroke-linejoin:miter;stroke-width:0.5;" x="141.995076923" xlink:href="#mfaf9f2ebc1" y="333.109028571"/>
     <use style="fill:#dd88b4;stroke:#000000;stroke-linejoin:miter;stroke-width:0.5;" x="175.990153846" xlink:href="#mfaf9f2ebc1" y="331.420525714"/>
     <use style="fill:#dd88b4;stroke:#000000;stroke-linejoin:miter;stroke-width:0.5;" x="209.985230769" xlink:href="#mfaf9f2ebc1" y="330.018377143"/>
     <use style="fill:#dd88b4;stroke:#000000;stroke-linejoin:miter;stroke-width:0.5;" x="243.980307692" xlink:href="#mfaf9f2ebc1" y="328.339748571"/>
     <use style="fill:#dd88b4;stroke:#000000;stroke-linejoin:miter;stroke-width:0.5;" x="277.975384615" xlink:href="#mfaf9f2ebc1" y="327.589302857"/>
     <use style="fill:#dd88b4;stroke:#000000;stroke-linejoin:miter;stroke-width:0.5;" x="311.970461538" xlink:href="#mfaf9f2ebc1" y="326.611748571"/>
     <use style="fill:#dd88b4;stroke:#000000;stroke-linejoin:miter;stroke-width:0.5;" x="345.965538462" xlink:href="#mfaf9f2ebc1" y="324.824502857"/>
     <use style="fill:#dd88b4;stroke:#000000;stroke-linejoin:miter;stroke-width:0.5;" x="379.960615385" xlink:href="#mfaf9f2ebc1" y="323.925942857"/>
     <use style="fill:#dd88b4;stroke:#000000;stroke-linejoin:miter;stroke-width:0.5;" x="413.955692308" xlink:href="#mfaf9f2ebc1" y="322.72128"/>
     <use style="fill:#dd88b4;stroke:#000000;stroke-linejoin:miter;stroke-width:0.5;" x="447.950769231" xlink:href="#mfaf9f2ebc1" y="321.556114286"/>
     <use style="fill:#dd88b4;stroke:#000000;stroke-linejoin:miter;stroke-width:0.5;" x="481.945846154" xlink:href="#mfaf9f2ebc1" y="320.667428571"/>
     <use style="fill:#dd88b4;stroke:#000000;stroke-linejoin:miter;stroke-width:0.5;" x="515.940923077" xlink:href="#mfaf9f2ebc1" y="320.124342857"/>
     <use style="fill:#dd88b4;stroke:#000000;stroke-linejoin:miter;stroke-width:0.5;" x="549.936" xlink:href="#mfaf9f2ebc1" y="319.077668571"/>
    </g>
   </g>
   <g id="patch_3">
    <path d="M 108 388.8 
L 549.936 388.8 
" style="fill:none;stroke:#000000;stroke-linecap:square;stroke-linejoin:miter;"/>
   </g>
   <g id="patch_4">
    <path d="M 108 388.8 
L 108 43.2 
" style="fill:none;stroke:#000000;stroke-linecap:square;stroke-linejoin:miter;"/>
   </g>
   <g id="matplotlib.axis_1">
    <g id="xtick_1">
     <g id="line2d_13">
      <defs>
       <path d="M 0 0 
L 0 -4 
" id="m8e6e6387a7" style="stroke:#000000;stroke-width:0.5;"/>
      </defs>
      <g>
       <use style="stroke:#000000;stroke-width:0.5;" x="141.995076923" xlink:href="#m8e6e6387a7" y="388.8"/>
      </g>
     </g>
     <g id="text_1">
      <!-- 17/03 -->
      <defs>
       <path d="M 40.578125 39.3125 
Q 47.65625 37.796875 51.625 33 
Q 55.609375 28.21875 55.609375 21.1875 
Q 55.609375 10.40625 48.1875 4.484375 
Q 40.765625 -1.421875 27.09375 -1.421875 
Q 22.515625 -1.421875 17.65625 -0.515625 
Q 12.796875 0.390625 7.625 2.203125 
L 7.625 11.71875 
Q 11.71875 9.328125 16.59375 8.109375 
Q 21.484375 6.890625 26.8125 6.890625 
Q 36.078125 6.890625 40.9375 10.546875 
Q 45.796875 14.203125 45.796875 21.1875 
Q 45.796875 27.640625 41.28125 31.265625 
Q 36.765625 34.90625 28.71875 34.90625 
L 20.21875 34.90625 
L 20.21875 43.015625 
L 29.109375 43.015625 
Q 36.375 43.015625 40.234375 45.921875 
Q 44.09375 48.828125 44.09375 54.296875 
Q 44.09375 59.90625 40.109375 62.90625 
Q 36.140625 65.921875 28.71875 65.921875 
Q 24.65625 65.921875 20.015625 65.03125 
Q 15.375 64.15625 9.8125 62.3125 
L 9.8125 71.09375 
Q 15.4375 72.65625 20.34375 73.4375 
Q 25.25 74.21875 29.59375 74.21875 
Q 40.828125 74.21875 47.359375 69.109375 
Q 53.90625 64.015625 53.90625 55.328125 
Q 53.90625 49.265625 50.4375 45.09375 
Q 46.96875 40.921875 40.578125 39.3125 
" id="BitstreamVeraSans-Roman-33"/>
       <path d="M 31.78125 66.40625 
Q 24.171875 66.40625 20.328125 58.90625 
Q 16.5 51.421875 16.5 36.375 
Q 16.5 21.390625 20.328125 13.890625 
Q 24.171875 6.390625 31.78125 6.390625 
Q 39.453125 6.390625 43.28125 13.890625 
Q 47.125 21.390625 47.125 36.375 
Q 47.125 51.421875 43.28125 58.90625 
Q 39.453125 66.40625 31.78125 66.40625 
M 31.78125 74.21875 
Q 44.046875 74.21875 50.515625 64.515625 
Q 56.984375 54.828125 56.984375 36.375 
Q 56.984375 17.96875 50.515625 8.265625 
Q 44.046875 -1.421875 31.78125 -1.421875 
Q 19.53125 -1.421875 13.0625 8.265625 
Q 6.59375 17.96875 6.59375 36.375 
Q 6.59375 54.828125 13.0625 64.515625 
Q 19.53125 74.21875 31.78125 74.21875 
" id="BitstreamVeraSans-Roman-30"/>
       <path d="M 12.40625 8.296875 
L 28.515625 8.296875 
L 28.515625 63.921875 
L 10.984375 60.40625 
L 10.984375 69.390625 
L 28.421875 72.90625 
L 38.28125 72.90625 
L 38.28125 8.296875 
L 54.390625 8.296875 
L 54.390625 0 
L 12.40625 0 
z
" id="BitstreamVeraSans-Roman-31"/>
       <path d="M 8.203125 72.90625 
L 55.078125 72.90625 
L 55.078125 68.703125 
L 28.609375 0 
L 18.3125 0 
L 43.21875 64.59375 
L 8.203125 64.59375 
z
" id="BitstreamVeraSans-Roman-37"/>
       <path d="M 25.390625 72.90625 
L 33.6875 72.90625 
L 8.296875 -9.28125 
L 0 -9.28125 
z
" id="BitstreamVeraSans-Roman-2f"/>
      </defs>
      <g transform="translate(127.585701923 400.3984375)scale(0.1 -0.1)">
       <use xlink:href="#BitstreamVeraSans-Roman-31"/>
       <use x="63.623046875" xlink:href="#BitstreamVeraSans-Roman-37"/>
       <use x="127.24609375" xlink:href="#BitstreamVeraSans-Roman-2f"/>
       <use x="160.9375" xlink:href="#BitstreamVeraSans-Roman-30"/>
       <use x="224.560546875" xlink:href="#BitstreamVeraSans-Roman-33"/>
      </g>
     </g>
    </g>
    <g id="xtick_2">
     <g id="line2d_14">
      <g>
       <use style="stroke:#000000;stroke-width:0.5;" x="175.990153846" xlink:href="#m8e6e6387a7" y="388.8"/>
      </g>
     </g>
     <g id="text_2">
      <!-- 17/04 -->
      <defs>
       <path d="M 37.796875 64.3125 
L 12.890625 25.390625 
L 37.796875 25.390625 
z
M 35.203125 72.90625 
L 47.609375 72.90625 
L 47.609375 25.390625 
L 58.015625 25.390625 
L 58.015625 17.1875 
L 47.609375 17.1875 
L 47.609375 0 
L 37.796875 0 
L 37.796875 17.1875 
L 4.890625 17.1875 
L 4.890625 26.703125 
z
" id="BitstreamVeraSans-Roman-34"/>
      </defs>
      <g transform="translate(161.580778846 400.3984375)scale(0.1 -0.1)">
       <use xlink:href="#BitstreamVeraSans-Roman-31"/>
       <use x="63.623046875" xlink:href="#BitstreamVeraSans-Roman-37"/>
       <use x="127.24609375" xlink:href="#BitstreamVeraSans-Roman-2f"/>
       <use x="160.9375" xlink:href="#BitstreamVeraSans-Roman-30"/>
       <use x="224.560546875" xlink:href="#BitstreamVeraSans-Roman-34"/>
      </g>
     </g>
    </g>
    <g id="xtick_3">
     <g id="line2d_15">
      <g>
       <use style="stroke:#000000;stroke-width:0.5;" x="209.985230769" xlink:href="#m8e6e6387a7" y="388.8"/>
      </g>
     </g>
     <g id="text_3">
      <!-- 17/05 -->
      <defs>
       <path d="M 10.796875 72.90625 
L 49.515625 72.90625 
L 49.515625 64.59375 
L 19.828125 64.59375 
L 19.828125 46.734375 
Q 21.96875 47.46875 24.109375 47.828125 
Q 26.265625 48.1875 28.421875 48.1875 
Q 40.625 48.1875 47.75 41.5 
Q 54.890625 34.8125 54.890625 23.390625 
Q 54.890625 11.625 47.5625 5.09375 
Q 40.234375 -1.421875 26.90625 -1.421875 
Q 22.3125 -1.421875 17.546875 -0.640625 
Q 12.796875 0.140625 7.71875 1.703125 
L 7.71875 11.625 
Q 12.109375 9.234375 16.796875 8.0625 
Q 21.484375 6.890625 26.703125 6.890625 
Q 35.15625 6.890625 40.078125 11.328125 
Q 45.015625 15.765625 45.015625 23.390625 
Q 45.015625 31 40.078125 35.4375 
Q 35.15625 39.890625 26.703125 39.890625 
Q 22.75 39.890625 18.8125 39.015625 
Q 14.890625 38.140625 10.796875 36.28125 
z
" id="BitstreamVeraSans-Roman-35"/>
      </defs>
      <g transform="translate(195.575855769 400.3984375)scale(0.1 -0.1)">
       <use xlink:href="#BitstreamVeraSans-Roman-31"/>
       <use x="63.623046875" xlink:href="#BitstreamVeraSans-Roman-37"/>
       <use x="127.24609375" xlink:href="#BitstreamVeraSans-Roman-2f"/>
       <use x="160.9375" xlink:href="#BitstreamVeraSans-Roman-30"/>
       <use x="224.560546875" xlink:href="#BitstreamVeraSans-Roman-35"/>
      </g>
     </g>
    </g>
    <g id="xtick_4">
     <g id="line2d_16">
      <g>
       <use style="stroke:#000000;stroke-width:0.5;" x="243.980307692" xlink:href="#m8e6e6387a7" y="388.8"/>
      </g>
     </g>
     <g id="text_4">
      <!-- 17/06 -->
      <defs>
       <path d="M 33.015625 40.375 
Q 26.375 40.375 22.484375 35.828125 
Q 18.609375 31.296875 18.609375 23.390625 
Q 18.609375 15.53125 22.484375 10.953125 
Q 26.375 6.390625 33.015625 6.390625 
Q 39.65625 6.390625 43.53125 10.953125 
Q 47.40625 15.53125 47.40625 23.390625 
Q 47.40625 31.296875 43.53125 35.828125 
Q 39.65625 40.375 33.015625 40.375 
M 52.59375 71.296875 
L 52.59375 62.3125 
Q 48.875 64.0625 45.09375 64.984375 
Q 41.3125 65.921875 37.59375 65.921875 
Q 27.828125 65.921875 22.671875 59.328125 
Q 17.53125 52.734375 16.796875 39.40625 
Q 19.671875 43.65625 24.015625 45.921875 
Q 28.375 48.1875 33.59375 48.1875 
Q 44.578125 48.1875 50.953125 41.515625 
Q 57.328125 34.859375 57.328125 23.390625 
Q 57.328125 12.15625 50.6875 5.359375 
Q 44.046875 -1.421875 33.015625 -1.421875 
Q 20.359375 -1.421875 13.671875 8.265625 
Q 6.984375 17.96875 6.984375 36.375 
Q 6.984375 53.65625 15.1875 63.9375 
Q 23.390625 74.21875 37.203125 74.21875 
Q 40.921875 74.21875 44.703125 73.484375 
Q 48.484375 72.75 52.59375 71.296875 
" id="BitstreamVeraSans-Roman-36"/>
      </defs>
      <g transform="translate(229.570932692 400.3984375)scale(0.1 -0.1)">
       <use xlink:href="#BitstreamVeraSans-Roman-31"/>
       <use x="63.623046875" xlink:href="#BitstreamVeraSans-Roman-37"/>
       <use x="127.24609375" xlink:href="#BitstreamVeraSans-Roman-2f"/>
       <use x="160.9375" xlink:href="#BitstreamVeraSans-Roman-30"/>
       <use x="224.560546875" xlink:href="#BitstreamVeraSans-Roman-36"/>
      </g>
     </g>
    </g>
    <g id="xtick_5">
     <g id="line2d_17">
      <g>
       <use style="stroke:#000000;stroke-width:0.5;" x="277.975384615" xlink:href="#m8e6e6387a7" y="388.8"/>
      </g>
     </g>
     <g id="text_5">
      <!-- 17/07 -->
      <g transform="translate(263.566009615 400.3984375)scale(0.1 -0.1)">
       <use xlink:href="#BitstreamVeraSans-Roman-31"/>
       <use x="63.623046875" xlink:href="#BitstreamVeraSans-Roman-37"/>
       <use x="127.24609375" xlink:href="#BitstreamVeraSans-Roman-2f"/>
       <use x="160.9375" xlink:href="#BitstreamVeraSans-Roman-30"/>
       <use x="224.560546875" xlink:href="#BitstreamVeraSans-Roman-37"/>
      </g>
     </g>
    </g>
    <g id="xtick_6">
     <g id="line2d_18">
      <g>
       <use style="stroke:#000000;stroke-width:0.5;" x="311.970461538" xlink:href="#m8e6e6387a7" y="388.8"/>
      </g>
     </g>
     <g id="text_6">
      <!-- 17/08 -->
      <defs>
       <path d="M 31.78125 34.625 
Q 24.75 34.625 20.71875 30.859375 
Q 16.703125 27.09375 16.703125 20.515625 
Q 16.703125 13.921875 20.71875 10.15625 
Q 24.75 6.390625 31.78125 6.390625 
Q 38.8125 6.390625 42.859375 10.171875 
Q 46.921875 13.96875 46.921875 20.515625 
Q 46.921875 27.09375 42.890625 30.859375 
Q 38.875 34.625 31.78125 34.625 
M 21.921875 38.8125 
Q 15.578125 40.375 12.03125 44.71875 
Q 8.5 49.078125 8.5 55.328125 
Q 8.5 64.0625 14.71875 69.140625 
Q 20.953125 74.21875 31.78125 74.21875 
Q 42.671875 74.21875 48.875 69.140625 
Q 55.078125 64.0625 55.078125 55.328125 
Q 55.078125 49.078125 51.53125 44.71875 
Q 48 40.375 41.703125 38.8125 
Q 48.828125 37.15625 52.796875 32.3125 
Q 56.78125 27.484375 56.78125 20.515625 
Q 56.78125 9.90625 50.3125 4.234375 
Q 43.84375 -1.421875 31.78125 -1.421875 
Q 19.734375 -1.421875 13.25 4.234375 
Q 6.78125 9.90625 6.78125 20.515625 
Q 6.78125 27.484375 10.78125 32.3125 
Q 14.796875 37.15625 21.921875 38.8125 
M 18.3125 54.390625 
Q 18.3125 48.734375 21.84375 45.5625 
Q 25.390625 42.390625 31.78125 42.390625 
Q 38.140625 42.390625 41.71875 45.5625 
Q 45.3125 48.734375 45.3125 54.390625 
Q 45.3125 60.0625 41.71875 63.234375 
Q 38.140625 66.40625 31.78125 66.40625 
Q 25.390625 66.40625 21.84375 63.234375 
Q 18.3125 60.0625 18.3125 54.390625 
" id="BitstreamVeraSans-Roman-38"/>
      </defs>
      <g transform="translate(297.561086538 400.3984375)scale(0.1 -0.1)">
       <use xlink:href="#BitstreamVeraSans-Roman-31"/>
       <use x="63.623046875" xlink:href="#BitstreamVeraSans-Roman-37"/>
       <use x="127.24609375" xlink:href="#BitstreamVeraSans-Roman-2f"/>
       <use x="160.9375" xlink:href="#BitstreamVeraSans-Roman-30"/>
       <use x="224.560546875" xlink:href="#BitstreamVeraSans-Roman-38"/>
      </g>
     </g>
    </g>
    <g id="xtick_7">
     <g id="line2d_19">
      <g>
       <use style="stroke:#000000;stroke-width:0.5;" x="345.965538462" xlink:href="#m8e6e6387a7" y="388.8"/>
      </g>
     </g>
     <g id="text_7">
      <!-- 17/09 -->
      <defs>
       <path d="M 10.984375 1.515625 
L 10.984375 10.5 
Q 14.703125 8.734375 18.5 7.8125 
Q 22.3125 6.890625 25.984375 6.890625 
Q 35.75 6.890625 40.890625 13.453125 
Q 46.046875 20.015625 46.78125 33.40625 
Q 43.953125 29.203125 39.59375 26.953125 
Q 35.25 24.703125 29.984375 24.703125 
Q 19.046875 24.703125 12.671875 31.3125 
Q 6.296875 37.9375 6.296875 49.421875 
Q 6.296875 60.640625 12.9375 67.421875 
Q 19.578125 74.21875 30.609375 74.21875 
Q 43.265625 74.21875 49.921875 64.515625 
Q 56.59375 54.828125 56.59375 36.375 
Q 56.59375 19.140625 48.40625 8.859375 
Q 40.234375 -1.421875 26.421875 -1.421875 
Q 22.703125 -1.421875 18.890625 -0.6875 
Q 15.09375 0.046875 10.984375 1.515625 
M 30.609375 32.421875 
Q 37.25 32.421875 41.125 36.953125 
Q 45.015625 41.5 45.015625 49.421875 
Q 45.015625 57.28125 41.125 61.84375 
Q 37.25 66.40625 30.609375 66.40625 
Q 23.96875 66.40625 20.09375 61.84375 
Q 16.21875 57.28125 16.21875 49.421875 
Q 16.21875 41.5 20.09375 36.953125 
Q 23.96875 32.421875 30.609375 32.421875 
" id="BitstreamVeraSans-Roman-39"/>
      </defs>
      <g transform="translate(331.556163462 400.3984375)scale(0.1 -0.1)">
       <use xlink:href="#BitstreamVeraSans-Roman-31"/>
       <use x="63.623046875" xlink:href="#BitstreamVeraSans-Roman-37"/>
       <use x="127.24609375" xlink:href="#BitstreamVeraSans-Roman-2f"/>
       <use x="160.9375" xlink:href="#BitstreamVeraSans-Roman-30"/>
       <use x="224.560546875" xlink:href="#BitstreamVeraSans-Roman-39"/>
      </g>
     </g>
    </g>
    <g id="xtick_8">
     <g id="line2d_20">
      <g>
       <use style="stroke:#000000;stroke-width:0.5;" x="379.960615385" xlink:href="#m8e6e6387a7" y="388.8"/>
      </g>
     </g>
     <g id="text_8">
      <!-- 17/10 -->
      <g transform="translate(365.551240385 400.3984375)scale(0.1 -0.1)">
       <use xlink:href="#BitstreamVeraSans-Roman-31"/>
       <use x="63.623046875" xlink:href="#BitstreamVeraSans-Roman-37"/>
       <use x="127.24609375" xlink:href="#BitstreamVeraSans-Roman-2f"/>
       <use x="160.9375" xlink:href="#BitstreamVeraSans-Roman-31"/>
       <use x="224.560546875" xlink:href="#BitstreamVeraSans-Roman-30"/>
      </g>
     </g>
    </g>
    <g id="xtick_9">
     <g id="line2d_21">
      <g>
       <use style="stroke:#000000;stroke-width:0.5;" x="413.955692308" xlink:href="#m8e6e6387a7" y="388.8"/>
      </g>
     </g>
     <g id="text_9">
      <!-- 17/11 -->
      <g transform="translate(399.546317308 400.3984375)scale(0.1 -0.1)">
       <use xlink:href="#BitstreamVeraSans-Roman-31"/>
       <use x="63.623046875" xlink:href="#BitstreamVeraSans-Roman-37"/>
       <use x="127.24609375" xlink:href="#BitstreamVeraSans-Roman-2f"/>
       <use x="160.9375" xlink:href="#BitstreamVeraSans-Roman-31"/>
       <use x="224.560546875" xlink:href="#BitstreamVeraSans-Roman-31"/>
      </g>
     </g>
    </g>
    <g id="xtick_10">
     <g id="line2d_22">
      <g>
       <use style="stroke:#000000;stroke-width:0.5;" x="447.950769231" xlink:href="#m8e6e6387a7" y="388.8"/>
      </g>
     </g>
     <g id="text_10">
      <!-- 17/12 -->
      <defs>
       <path d="M 19.1875 8.296875 
L 53.609375 8.296875 
L 53.609375 0 
L 7.328125 0 
L 7.328125 8.296875 
Q 12.9375 14.109375 22.625 23.890625 
Q 32.328125 33.6875 34.8125 36.53125 
Q 39.546875 41.84375 41.421875 45.53125 
Q 43.3125 49.21875 43.3125 52.78125 
Q 43.3125 58.59375 39.234375 62.25 
Q 35.15625 65.921875 28.609375 65.921875 
Q 23.96875 65.921875 18.8125 64.3125 
Q 13.671875 62.703125 7.8125 59.421875 
L 7.8125 69.390625 
Q 13.765625 71.78125 18.9375 73 
Q 24.125 74.21875 28.421875 74.21875 
Q 39.75 74.21875 46.484375 68.546875 
Q 53.21875 62.890625 53.21875 53.421875 
Q 53.21875 48.921875 51.53125 44.890625 
Q 49.859375 40.875 45.40625 35.40625 
Q 44.1875 33.984375 37.640625 27.21875 
Q 31.109375 20.453125 19.1875 8.296875 
" id="BitstreamVeraSans-Roman-32"/>
      </defs>
      <g transform="translate(433.541394231 400.3984375)scale(0.1 -0.1)">
       <use xlink:href="#BitstreamVeraSans-Roman-31"/>
       <use x="63.623046875" xlink:href="#BitstreamVeraSans-Roman-37"/>
       <use x="127.24609375" xlink:href="#BitstreamVeraSans-Roman-2f"/>
       <use x="160.9375" xlink:href="#BitstreamVeraSans-Roman-31"/>
       <use x="224.560546875" xlink:href="#BitstreamVeraSans-Roman-32"/>
      </g>
     </g>
    </g>
    <g id="xtick_11">
     <g id="line2d_23">
      <g>
       <use style="stroke:#000000;stroke-width:0.5;" x="481.945846154" xlink:href="#m8e6e6387a7" y="388.8"/>
      </g>
     </g>
     <g id="text_11">
      <!-- 18/01 -->
      <g transform="translate(467.536471154 400.3984375)scale(0.1 -0.1)">
       <use xlink:href="#BitstreamVeraSans-Roman-31"/>
       <use x="63.623046875" xlink:href="#BitstreamVeraSans-Roman-38"/>
       <use x="127.24609375" xlink:href="#BitstreamVeraSans-Roman-2f"/>
       <use x="160.9375" xlink:href="#BitstreamVeraSans-Roman-30"/>
       <use x="224.560546875" xlink:href="#BitstreamVeraSans-Roman-31"/>
      </g>
     </g>
    </g>
    <g id="xtick_12">
     <g id="line2d_24">
      <g>
       <use style="stroke:#000000;stroke-width:0.5;" x="515.940923077" xlink:href="#m8e6e6387a7" y="388.8"/>
      </g>
     </g>
     <g id="text_12">
      <!-- 18/02 -->
      <g transform="translate(501.531548077 400.3984375)scale(0.1 -0.1)">
       <use xlink:href="#BitstreamVeraSans-Roman-31"/>
       <use x="63.623046875" xlink:href="#BitstreamVeraSans-Roman-38"/>
       <use x="127.24609375" xlink:href="#BitstreamVeraSans-Roman-2f"/>
       <use x="160.9375" xlink:href="#BitstreamVeraSans-Roman-30"/>
       <use x="224.560546875" xlink:href="#BitstreamVeraSans-Roman-32"/>
      </g>
     </g>
    </g>
    <g id="xtick_13">
     <g id="line2d_25">
      <g>
       <use style="stroke:#000000;stroke-width:0.5;" x="549.936" xlink:href="#m8e6e6387a7" y="388.8"/>
      </g>
     </g>
     <g id="text_13">
      <!-- 18/03 -->
      <g transform="translate(535.526625 400.3984375)scale(0.1 -0.1)">
       <use xlink:href="#BitstreamVeraSans-Roman-31"/>
       <use x="63.623046875" xlink:href="#BitstreamVeraSans-Roman-38"/>
       <use x="127.24609375" xlink:href="#BitstreamVeraSans-Roman-2f"/>
       <use x="160.9375" xlink:href="#BitstreamVeraSans-Roman-30"/>
       <use x="224.560546875" xlink:href="#BitstreamVeraSans-Roman-33"/>
      </g>
     </g>
    </g>
    <g id="text_14">
     <!-- months -->
     <defs>
      <path d="M 54.890625 33.015625 
L 54.890625 0 
L 45.90625 0 
L 45.90625 32.71875 
Q 45.90625 40.484375 42.875 44.328125 
Q 39.84375 48.1875 33.796875 48.1875 
Q 26.515625 48.1875 22.3125 43.546875 
Q 18.109375 38.921875 18.109375 30.90625 
L 18.109375 0 
L 9.078125 0 
L 9.078125 54.6875 
L 18.109375 54.6875 
L 18.109375 46.1875 
Q 21.34375 51.125 25.703125 53.5625 
Q 30.078125 56 35.796875 56 
Q 45.21875 56 50.046875 50.171875 
Q 54.890625 44.34375 54.890625 33.015625 
" id="BitstreamVeraSans-Roman-6e"/>
      <path d="M 52 44.1875 
Q 55.375 50.25 60.0625 53.125 
Q 64.75 56 71.09375 56 
Q 79.640625 56 84.28125 50.015625 
Q 88.921875 44.046875 88.921875 33.015625 
L 88.921875 0 
L 79.890625 0 
L 79.890625 32.71875 
Q 79.890625 40.578125 77.09375 44.375 
Q 74.3125 48.1875 68.609375 48.1875 
Q 61.625 48.1875 57.5625 43.546875 
Q 53.515625 38.921875 53.515625 30.90625 
L 53.515625 0 
L 44.484375 0 
L 44.484375 32.71875 
Q 44.484375 40.625 41.703125 44.40625 
Q 38.921875 48.1875 33.109375 48.1875 
Q 26.21875 48.1875 22.15625 43.53125 
Q 18.109375 38.875 18.109375 30.90625 
L 18.109375 0 
L 9.078125 0 
L 9.078125 54.6875 
L 18.109375 54.6875 
L 18.109375 46.1875 
Q 21.1875 51.21875 25.484375 53.609375 
Q 29.78125 56 35.6875 56 
Q 41.65625 56 45.828125 52.96875 
Q 50 49.953125 52 44.1875 
" id="BitstreamVeraSans-Roman-6d"/>
      <path d="M 30.609375 48.390625 
Q 23.390625 48.390625 19.1875 42.75 
Q 14.984375 37.109375 14.984375 27.296875 
Q 14.984375 17.484375 19.15625 11.84375 
Q 23.34375 6.203125 30.609375 6.203125 
Q 37.796875 6.203125 41.984375 11.859375 
Q 46.1875 17.53125 46.1875 27.296875 
Q 46.1875 37.015625 41.984375 42.703125 
Q 37.796875 48.390625 30.609375 48.390625 
M 30.609375 56 
Q 42.328125 56 49.015625 48.375 
Q 55.71875 40.765625 55.71875 27.296875 
Q 55.71875 13.875 49.015625 6.21875 
Q 42.328125 -1.421875 30.609375 -1.421875 
Q 18.84375 -1.421875 12.171875 6.21875 
Q 5.515625 13.875 5.515625 27.296875 
Q 5.515625 40.765625 12.171875 48.375 
Q 18.84375 56 30.609375 56 
" id="BitstreamVeraSans-Roman-6f"/>
      <path d="M 54.890625 33.015625 
L 54.890625 0 
L 45.90625 0 
L 45.90625 32.71875 
Q 45.90625 40.484375 42.875 44.328125 
Q 39.84375 48.1875 33.796875 48.1875 
Q 26.515625 48.1875 22.3125 43.546875 
Q 18.109375 38.921875 18.109375 30.90625 
L 18.109375 0 
L 9.078125 0 
L 9.078125 75.984375 
L 18.109375 75.984375 
L 18.109375 46.1875 
Q 21.34375 51.125 25.703125 53.5625 
Q 30.078125 56 35.796875 56 
Q 45.21875 56 50.046875 50.171875 
Q 54.890625 44.34375 54.890625 33.015625 
" id="BitstreamVeraSans-Roman-68"/>
      <path d="M 18.3125 70.21875 
L 18.3125 54.6875 
L 36.8125 54.6875 
L 36.8125 47.703125 
L 18.3125 47.703125 
L 18.3125 18.015625 
Q 18.3125 11.328125 20.140625 9.421875 
Q 21.96875 7.515625 27.59375 7.515625 
L 36.8125 7.515625 
L 36.8125 0 
L 27.59375 0 
Q 17.1875 0 13.234375 3.875 
Q 9.28125 7.765625 9.28125 18.015625 
L 9.28125 47.703125 
L 2.6875 47.703125 
L 2.6875 54.6875 
L 9.28125 54.6875 
L 9.28125 70.21875 
z
" id="BitstreamVeraSans-Roman-74"/>
      <path d="M 44.28125 53.078125 
L 44.28125 44.578125 
Q 40.484375 46.53125 36.375 47.5 
Q 32.28125 48.484375 27.875 48.484375 
Q 21.1875 48.484375 17.84375 46.4375 
Q 14.5 44.390625 14.5 40.28125 
Q 14.5 37.15625 16.890625 35.375 
Q 19.28125 33.59375 26.515625 31.984375 
L 29.59375 31.296875 
Q 39.15625 29.25 43.1875 25.515625 
Q 47.21875 21.78125 47.21875 15.09375 
Q 47.21875 7.46875 41.1875 3.015625 
Q 35.15625 -1.421875 24.609375 -1.421875 
Q 20.21875 -1.421875 15.453125 -0.5625 
Q 10.6875 0.296875 5.421875 2 
L 5.421875 11.28125 
Q 10.40625 8.6875 15.234375 7.390625 
Q 20.0625 6.109375 24.8125 6.109375 
Q 31.15625 6.109375 34.5625 8.28125 
Q 37.984375 10.453125 37.984375 14.40625 
Q 37.984375 18.0625 35.515625 20.015625 
Q 33.0625 21.96875 24.703125 23.78125 
L 21.578125 24.515625 
Q 13.234375 26.265625 9.515625 29.90625 
Q 5.8125 33.546875 5.8125 39.890625 
Q 5.8125 47.609375 11.28125 51.796875 
Q 16.75 56 26.8125 56 
Q 31.78125 56 36.171875 55.265625 
Q 40.578125 54.546875 44.28125 53.078125 
" id="BitstreamVeraSans-Roman-73"/>
     </defs>
     <g transform="translate(306.3695625 416.59625)scale(0.12 -0.12)">
      <use xlink:href="#BitstreamVeraSans-Roman-6d"/>
      <use x="97.412109375" xlink:href="#BitstreamVeraSans-Roman-6f"/>
      <use x="158.59375" xlink:href="#BitstreamVeraSans-Roman-6e"/>
      <use x="221.97265625" xlink:href="#BitstreamVeraSans-Roman-74"/>
      <use x="261.181640625" xlink:href="#BitstreamVeraSans-Roman-68"/>
      <use x="324.560546875" xlink:href="#BitstreamVeraSans-Roman-73"/>
     </g>
    </g>
   </g>
   <g id="matplotlib.axis_2">
    <g id="ytick_1">
     <g id="line2d_26">
      <defs>
       <path d="M 0 0 
L 4 0 
" id="mf7d9e7710b" style="stroke:#000000;stroke-width:0.5;"/>
      </defs>
      <g>
       <use style="stroke:#000000;stroke-width:0.5;" x="108.0" xlink:href="#mf7d9e7710b" y="388.8"/>
      </g>
     </g>
     <g id="text_15">
      <!-- 5000 -->
      <g transform="translate(73.46 392.11125)scale(0.12 -0.12)">
       <use xlink:href="#BitstreamVeraSans-Roman-35"/>
       <use x="63.623046875" xlink:href="#BitstreamVeraSans-Roman-30"/>
       <use x="127.24609375" xlink:href="#BitstreamVeraSans-Roman-30"/>
       <use x="190.869140625" xlink:href="#BitstreamVeraSans-Roman-30"/>
      </g>
     </g>
    </g>
    <g id="ytick_2">
     <g id="line2d_27">
      <g>
       <use style="stroke:#000000;stroke-width:0.5;" x="108.0" xlink:href="#mf7d9e7710b" y="339.428571429"/>
      </g>
     </g>
     <g id="text_16">
      <!-- 10000 -->
      <g transform="translate(65.825 342.739821429)scale(0.12 -0.12)">
       <use xlink:href="#BitstreamVeraSans-Roman-31"/>
       <use x="63.623046875" xlink:href="#BitstreamVeraSans-Roman-30"/>
       <use x="127.24609375" xlink:href="#BitstreamVeraSans-Roman-30"/>
       <use x="190.869140625" xlink:href="#BitstreamVeraSans-Roman-30"/>
       <use x="254.4921875" xlink:href="#BitstreamVeraSans-Roman-30"/>
      </g>
     </g>
    </g>
    <g id="ytick_3">
     <g id="line2d_28">
      <g>
       <use style="stroke:#000000;stroke-width:0.5;" x="108.0" xlink:href="#mf7d9e7710b" y="290.057142857"/>
      </g>
     </g>
     <g id="text_17">
      <!-- 15000 -->
      <g transform="translate(65.825 293.368392857)scale(0.12 -0.12)">
       <use xlink:href="#BitstreamVeraSans-Roman-31"/>
       <use x="63.623046875" xlink:href="#BitstreamVeraSans-Roman-35"/>
       <use x="127.24609375" xlink:href="#BitstreamVeraSans-Roman-30"/>
       <use x="190.869140625" xlink:href="#BitstreamVeraSans-Roman-30"/>
       <use x="254.4921875" xlink:href="#BitstreamVeraSans-Roman-30"/>
      </g>
     </g>
    </g>
    <g id="ytick_4">
     <g id="line2d_29">
      <g>
       <use style="stroke:#000000;stroke-width:0.5;" x="108.0" xlink:href="#mf7d9e7710b" y="240.685714286"/>
      </g>
     </g>
     <g id="text_18">
      <!-- 20000 -->
      <g transform="translate(65.825 243.996964286)scale(0.12 -0.12)">
       <use xlink:href="#BitstreamVeraSans-Roman-32"/>
       <use x="63.623046875" xlink:href="#BitstreamVeraSans-Roman-30"/>
       <use x="127.24609375" xlink:href="#BitstreamVeraSans-Roman-30"/>
       <use x="190.869140625" xlink:href="#BitstreamVeraSans-Roman-30"/>
       <use x="254.4921875" xlink:href="#BitstreamVeraSans-Roman-30"/>
      </g>
     </g>
    </g>
    <g id="ytick_5">
     <g id="line2d_30">
      <g>
       <use style="stroke:#000000;stroke-width:0.5;" x="108.0" xlink:href="#mf7d9e7710b" y="191.314285714"/>
      </g>
     </g>
     <g id="text_19">
      <!-- 25000 -->
      <g transform="translate(65.825 194.625535714)scale(0.12 -0.12)">
       <use xlink:href="#BitstreamVeraSans-Roman-32"/>
       <use x="63.623046875" xlink:href="#BitstreamVeraSans-Roman-35"/>
       <use x="127.24609375" xlink:href="#BitstreamVeraSans-Roman-30"/>
       <use x="190.869140625" xlink:href="#BitstreamVeraSans-Roman-30"/>
       <use x="254.4921875" xlink:href="#BitstreamVeraSans-Roman-30"/>
      </g>
     </g>
    </g>
    <g id="ytick_6">
     <g id="line2d_31">
      <g>
       <use style="stroke:#000000;stroke-width:0.5;" x="108.0" xlink:href="#mf7d9e7710b" y="141.942857143"/>
      </g>
     </g>
     <g id="text_20">
      <!-- 30000 -->
      <g transform="translate(65.825 145.254107143)scale(0.12 -0.12)">
       <use xlink:href="#BitstreamVeraSans-Roman-33"/>
       <use x="63.623046875" xlink:href="#BitstreamVeraSans-Roman-30"/>
       <use x="127.24609375" xlink:href="#BitstreamVeraSans-Roman-30"/>
       <use x="190.869140625" xlink:href="#BitstreamVeraSans-Roman-30"/>
       <use x="254.4921875" xlink:href="#BitstreamVeraSans-Roman-30"/>
      </g>
     </g>
    </g>
    <g id="ytick_7">
     <g id="line2d_32">
      <g>
       <use style="stroke:#000000;stroke-width:0.5;" x="108.0" xlink:href="#mf7d9e7710b" y="92.5714285714"/>
      </g>
     </g>
     <g id="text_21">
      <!-- 35000 -->
      <g transform="translate(65.825 95.8826785714)scale(0.12 -0.12)">
       <use xlink:href="#BitstreamVeraSans-Roman-33"/>
       <use x="63.623046875" xlink:href="#BitstreamVeraSans-Roman-35"/>
       <use x="127.24609375" xlink:href="#BitstreamVeraSans-Roman-30"/>
       <use x="190.869140625" xlink:href="#BitstreamVeraSans-Roman-30"/>
       <use x="254.4921875" xlink:href="#BitstreamVeraSans-Roman-30"/>
      </g>
     </g>
    </g>
    <g id="ytick_8">
     <g id="line2d_33">
      <g>
       <use style="stroke:#000000;stroke-width:0.5;" x="108.0" xlink:href="#mf7d9e7710b" y="43.2"/>
      </g>
     </g>
     <g id="text_22">
      <!-- 40000 -->
      <g transform="translate(65.825 46.51125)scale(0.12 -0.12)">
       <use xlink:href="#BitstreamVeraSans-Roman-34"/>
       <use x="63.623046875" xlink:href="#BitstreamVeraSans-Roman-30"/>
       <use x="127.24609375" xlink:href="#BitstreamVeraSans-Roman-30"/>
       <use x="190.869140625" xlink:href="#BitstreamVeraSans-Roman-30"/>
       <use x="254.4921875" xlink:href="#BitstreamVeraSans-Roman-30"/>
      </g>
     </g>
    </g>
    <g id="text_23">
     <!-- downloads -->
     <defs>
      <path d="M 45.40625 46.390625 
L 45.40625 75.984375 
L 54.390625 75.984375 
L 54.390625 0 
L 45.40625 0 
L 45.40625 8.203125 
Q 42.578125 3.328125 38.25 0.953125 
Q 33.9375 -1.421875 27.875 -1.421875 
Q 17.96875 -1.421875 11.734375 6.484375 
Q 5.515625 14.40625 5.515625 27.296875 
Q 5.515625 40.1875 11.734375 48.09375 
Q 17.96875 56 27.875 56 
Q 33.9375 56 38.25 53.625 
Q 42.578125 51.265625 45.40625 46.390625 
M 14.796875 27.296875 
Q 14.796875 17.390625 18.875 11.75 
Q 22.953125 6.109375 30.078125 6.109375 
Q 37.203125 6.109375 41.296875 11.75 
Q 45.40625 17.390625 45.40625 27.296875 
Q 45.40625 37.203125 41.296875 42.84375 
Q 37.203125 48.484375 30.078125 48.484375 
Q 22.953125 48.484375 18.875 42.84375 
Q 14.796875 37.203125 14.796875 27.296875 
" id="BitstreamVeraSans-Roman-64"/>
      <path d="M 34.28125 27.484375 
Q 23.390625 27.484375 19.1875 25 
Q 14.984375 22.515625 14.984375 16.5 
Q 14.984375 11.71875 18.140625 8.90625 
Q 21.296875 6.109375 26.703125 6.109375 
Q 34.1875 6.109375 38.703125 11.40625 
Q 43.21875 16.703125 43.21875 25.484375 
L 43.21875 27.484375 
z
M 52.203125 31.203125 
L 52.203125 0 
L 43.21875 0 
L 43.21875 8.296875 
Q 40.140625 3.328125 35.546875 0.953125 
Q 30.953125 -1.421875 24.3125 -1.421875 
Q 15.921875 -1.421875 10.953125 3.296875 
Q 6 8.015625 6 15.921875 
Q 6 25.140625 12.171875 29.828125 
Q 18.359375 34.515625 30.609375 34.515625 
L 43.21875 34.515625 
L 43.21875 35.40625 
Q 43.21875 41.609375 39.140625 45 
Q 35.0625 48.390625 27.6875 48.390625 
Q 23 48.390625 18.546875 47.265625 
Q 14.109375 46.140625 10.015625 43.890625 
L 10.015625 52.203125 
Q 14.9375 54.109375 19.578125 55.046875 
Q 24.21875 56 28.609375 56 
Q 40.484375 56 46.34375 49.84375 
Q 52.203125 43.703125 52.203125 31.203125 
" id="BitstreamVeraSans-Roman-61"/>
      <path d="M 9.421875 75.984375 
L 18.40625 75.984375 
L 18.40625 0 
L 9.421875 0 
z
" id="BitstreamVeraSans-Roman-6c"/>
      <path d="M 4.203125 54.6875 
L 13.1875 54.6875 
L 24.421875 12.015625 
L 35.59375 54.6875 
L 46.1875 54.6875 
L 57.421875 12.015625 
L 68.609375 54.6875 
L 77.59375 54.6875 
L 63.28125 0 
L 52.6875 0 
L 40.921875 44.828125 
L 29.109375 0 
L 18.5 0 
z
" id="BitstreamVeraSans-Roman-77"/>
     </defs>
     <g transform="translate(58.329375 248.139375)rotate(-90.0)scale(0.12 -0.12)">
      <use xlink:href="#BitstreamVeraSans-Roman-64"/>
      <use x="63.4765625" xlink:href="#BitstreamVeraSans-Roman-6f"/>
      <use x="124.658203125" xlink:href="#BitstreamVeraSans-Roman-77"/>
      <use x="206.4453125" xlink:href="#BitstreamVeraSans-Roman-6e"/>
      <use x="269.82421875" xlink:href="#BitstreamVeraSans-Roman-6c"/>
      <use x="297.607421875" xlink:href="#BitstreamVeraSans-Roman-6f"/>
      <use x="358.7890625" xlink:href="#BitstreamVeraSans-Roman-61"/>
      <use x="420.068359375" xlink:href="#BitstreamVeraSans-Roman-64"/>
      <use x="483.544921875" xlink:href="#BitstreamVeraSans-Roman-73"/>
     </g>
    </g>
   </g>
   <g id="legend_1">
    <g id="line2d_34"/>
    <g id="line2d_35">
     <g>
      <use style="fill:#49a65e;stroke:#000000;stroke-linejoin:miter;stroke-width:0.5;" x="567.036" xlink:href="#m492623beaf" y="126.05765625"/>
     </g>
    </g>
    <g id="text_24">
     <!-- (35371) The Talking Heads experiment -->
     <defs>
      <path id="BitstreamVeraSans-Roman-20"/>
      <path d="M 8.015625 75.875 
L 15.828125 75.875 
Q 23.140625 64.359375 26.78125 53.3125 
Q 30.421875 42.28125 30.421875 31.390625 
Q 30.421875 20.453125 26.78125 9.375 
Q 23.140625 -1.703125 15.828125 -13.1875 
L 8.015625 -13.1875 
Q 14.5 -2 17.703125 9.0625 
Q 20.90625 20.125 20.90625 31.390625 
Q 20.90625 42.671875 17.703125 53.65625 
Q 14.5 64.65625 8.015625 75.875 
" id="BitstreamVeraSans-Roman-29"/>
      <path d="M 31 75.875 
Q 24.46875 64.65625 21.28125 53.65625 
Q 18.109375 42.671875 18.109375 31.390625 
Q 18.109375 20.125 21.3125 9.0625 
Q 24.515625 -2 31 -13.1875 
L 23.1875 -13.1875 
Q 15.875 -1.703125 12.234375 9.375 
Q 8.59375 20.453125 8.59375 31.390625 
Q 8.59375 42.28125 12.203125 53.3125 
Q 15.828125 64.359375 23.1875 75.875 
z
" id="BitstreamVeraSans-Roman-28"/>
      <path d="M 9.078125 75.984375 
L 18.109375 75.984375 
L 18.109375 31.109375 
L 44.921875 54.6875 
L 56.390625 54.6875 
L 27.390625 29.109375 
L 57.625 0 
L 45.90625 0 
L 18.109375 26.703125 
L 18.109375 0 
L 9.078125 0 
z
" id="BitstreamVeraSans-Roman-6b"/>
      <path d="M -0.296875 72.90625 
L 61.375 72.90625 
L 61.375 64.59375 
L 35.5 64.59375 
L 35.5 0 
L 25.59375 0 
L 25.59375 64.59375 
L -0.296875 64.59375 
z
" id="BitstreamVeraSans-Roman-54"/>
      <path d="M 54.890625 54.6875 
L 35.109375 28.078125 
L 55.90625 0 
L 45.3125 0 
L 29.390625 21.484375 
L 13.484375 0 
L 2.875 0 
L 24.125 28.609375 
L 4.6875 54.6875 
L 15.28125 54.6875 
L 29.78125 35.203125 
L 44.28125 54.6875 
z
" id="BitstreamVeraSans-Roman-78"/>
      <path d="M 56.203125 29.59375 
L 56.203125 25.203125 
L 14.890625 25.203125 
Q 15.484375 15.921875 20.484375 11.0625 
Q 25.484375 6.203125 34.421875 6.203125 
Q 39.59375 6.203125 44.453125 7.46875 
Q 49.3125 8.734375 54.109375 11.28125 
L 54.109375 2.78125 
Q 49.265625 0.734375 44.1875 -0.34375 
Q 39.109375 -1.421875 33.890625 -1.421875 
Q 20.796875 -1.421875 13.15625 6.1875 
Q 5.515625 13.8125 5.515625 26.8125 
Q 5.515625 40.234375 12.765625 48.109375 
Q 20.015625 56 32.328125 56 
Q 43.359375 56 49.78125 48.890625 
Q 56.203125 41.796875 56.203125 29.59375 
M 47.21875 32.234375 
Q 47.125 39.59375 43.09375 43.984375 
Q 39.0625 48.390625 32.421875 48.390625 
Q 24.90625 48.390625 20.390625 44.140625 
Q 15.875 39.890625 15.1875 32.171875 
z
" id="BitstreamVeraSans-Roman-65"/>
      <path d="M 9.421875 54.6875 
L 18.40625 54.6875 
L 18.40625 0 
L 9.421875 0 
z
M 9.421875 75.984375 
L 18.40625 75.984375 
L 18.40625 64.59375 
L 9.421875 64.59375 
z
" id="BitstreamVeraSans-Roman-69"/>
      <path d="M 45.40625 27.984375 
Q 45.40625 37.75 41.375 43.109375 
Q 37.359375 48.484375 30.078125 48.484375 
Q 22.859375 48.484375 18.828125 43.109375 
Q 14.796875 37.75 14.796875 27.984375 
Q 14.796875 18.265625 18.828125 12.890625 
Q 22.859375 7.515625 30.078125 7.515625 
Q 37.359375 7.515625 41.375 12.890625 
Q 45.40625 18.265625 45.40625 27.984375 
M 54.390625 6.78125 
Q 54.390625 -7.171875 48.1875 -13.984375 
Q 42 -20.796875 29.203125 -20.796875 
Q 24.46875 -20.796875 20.265625 -20.09375 
Q 16.0625 -19.390625 12.109375 -17.921875 
L 12.109375 -9.1875 
Q 16.0625 -11.328125 19.921875 -12.34375 
Q 23.78125 -13.375 27.78125 -13.375 
Q 36.625 -13.375 41.015625 -8.765625 
Q 45.40625 -4.15625 45.40625 5.171875 
L 45.40625 9.625 
Q 42.625 4.78125 38.28125 2.390625 
Q 33.9375 0 27.875 0 
Q 17.828125 0 11.671875 7.65625 
Q 5.515625 15.328125 5.515625 27.984375 
Q 5.515625 40.671875 11.671875 48.328125 
Q 17.828125 56 27.875 56 
Q 33.9375 56 38.28125 53.609375 
Q 42.625 51.21875 45.40625 46.390625 
L 45.40625 54.6875 
L 54.390625 54.6875 
z
" id="BitstreamVeraSans-Roman-67"/>
      <path d="M 41.109375 46.296875 
Q 39.59375 47.171875 37.8125 47.578125 
Q 36.03125 48 33.890625 48 
Q 26.265625 48 22.1875 43.046875 
Q 18.109375 38.09375 18.109375 28.8125 
L 18.109375 0 
L 9.078125 0 
L 9.078125 54.6875 
L 18.109375 54.6875 
L 18.109375 46.1875 
Q 20.953125 51.171875 25.484375 53.578125 
Q 30.03125 56 36.53125 56 
Q 37.453125 56 38.578125 55.875 
Q 39.703125 55.765625 41.0625 55.515625 
z
" id="BitstreamVeraSans-Roman-72"/>
      <path d="M 18.109375 8.203125 
L 18.109375 -20.796875 
L 9.078125 -20.796875 
L 9.078125 54.6875 
L 18.109375 54.6875 
L 18.109375 46.390625 
Q 20.953125 51.265625 25.265625 53.625 
Q 29.59375 56 35.59375 56 
Q 45.5625 56 51.78125 48.09375 
Q 58.015625 40.1875 58.015625 27.296875 
Q 58.015625 14.40625 51.78125 6.484375 
Q 45.5625 -1.421875 35.59375 -1.421875 
Q 29.59375 -1.421875 25.265625 0.953125 
Q 20.953125 3.328125 18.109375 8.203125 
M 48.6875 27.296875 
Q 48.6875 37.203125 44.609375 42.84375 
Q 40.53125 48.484375 33.40625 48.484375 
Q 26.265625 48.484375 22.1875 42.84375 
Q 18.109375 37.203125 18.109375 27.296875 
Q 18.109375 17.390625 22.1875 11.75 
Q 26.265625 6.109375 33.40625 6.109375 
Q 40.53125 6.109375 44.609375 11.75 
Q 48.6875 17.390625 48.6875 27.296875 
" id="BitstreamVeraSans-Roman-70"/>
      <path d="M 9.8125 72.90625 
L 19.671875 72.90625 
L 19.671875 43.015625 
L 55.515625 43.015625 
L 55.515625 72.90625 
L 65.375 72.90625 
L 65.375 0 
L 55.515625 0 
L 55.515625 34.71875 
L 19.671875 34.71875 
L 19.671875 0 
L 9.8125 0 
z
" id="BitstreamVeraSans-Roman-48"/>
     </defs>
     <g transform="translate(583.236 129.20765625)scale(0.09 -0.09)">
      <use xlink:href="#BitstreamVeraSans-Roman-28"/>
      <use x="39.013671875" xlink:href="#BitstreamVeraSans-Roman-33"/>
      <use x="102.63671875" xlink:href="#BitstreamVeraSans-Roman-35"/>
      <use x="166.259765625" xlink:href="#BitstreamVeraSans-Roman-33"/>
      <use x="229.8828125" xlink:href="#BitstreamVeraSans-Roman-37"/>
      <use x="293.505859375" xlink:href="#BitstreamVeraSans-Roman-31"/>
      <use x="357.12890625" xlink:href="#BitstreamVeraSans-Roman-29"/>
      <use x="396.142578125" xlink:href="#BitstreamVeraSans-Roman-20"/>
      <use x="427.9296875" xlink:href="#BitstreamVeraSans-Roman-54"/>
      <use x="489.013671875" xlink:href="#BitstreamVeraSans-Roman-68"/>
      <use x="552.392578125" xlink:href="#BitstreamVeraSans-Roman-65"/>
      <use x="613.916015625" xlink:href="#BitstreamVeraSans-Roman-20"/>
      <use x="645.703125" xlink:href="#BitstreamVeraSans-Roman-54"/>
      <use x="706.537109375" xlink:href="#BitstreamVeraSans-Roman-61"/>
      <use x="767.81640625" xlink:href="#BitstreamVeraSans-Roman-6c"/>
      <use x="795.599609375" xlink:href="#BitstreamVeraSans-Roman-6b"/>
      <use x="853.509765625" xlink:href="#BitstreamVeraSans-Roman-69"/>
      <use x="881.29296875" xlink:href="#BitstreamVeraSans-Roman-6e"/>
      <use x="944.671875" xlink:href="#BitstreamVeraSans-Roman-67"/>
      <use x="1008.1484375" xlink:href="#BitstreamVeraSans-Roman-20"/>
      <use x="1039.93554688" xlink:href="#BitstreamVeraSans-Roman-48"/>
      <use x="1115.13085938" xlink:href="#BitstreamVeraSans-Roman-65"/>
      <use x="1176.65429688" xlink:href="#BitstreamVeraSans-Roman-61"/>
      <use x="1237.93359375" xlink:href="#BitstreamVeraSans-Roman-64"/>
      <use x="1301.41015625" xlink:href="#BitstreamVeraSans-Roman-73"/>
      <use x="1353.50976562" xlink:href="#BitstreamVeraSans-Roman-20"/>
      <use x="1385.296875" xlink:href="#BitstreamVeraSans-Roman-65"/>
      <use x="1446.8046875" xlink:href="#BitstreamVeraSans-Roman-78"/>
      <use x="1505.984375" xlink:href="#BitstreamVeraSans-Roman-70"/>
      <use x="1569.4609375" xlink:href="#BitstreamVeraSans-Roman-65"/>
      <use x="1630.984375" xlink:href="#BitstreamVeraSans-Roman-72"/>
      <use x="1672.09765625" xlink:href="#BitstreamVeraSans-Roman-69"/>
      <use x="1699.88085938" xlink:href="#BitstreamVeraSans-Roman-6d"/>
      <use x="1797.29296875" xlink:href="#BitstreamVeraSans-Roman-65"/>
      <use x="1858.81640625" xlink:href="#BitstreamVeraSans-Roman-6e"/>
      <use x="1922.1953125" xlink:href="#BitstreamVeraSans-Roman-74"/>
     </g>
    </g>
    <g id="line2d_36"/>
    <g id="line2d_37">
     <g>
      <use style="fill:#b55e43;stroke:#000000;stroke-linejoin:bevel;stroke-width:0.5;" x="567.036" xlink:href="#m13d10fc175" y="161.76796875"/>
     </g>
    </g>
    <g id="text_25">
     <!-- (23055) The future of dialects -->
     <defs>
      <path d="M 8.5 21.578125 
L 8.5 54.6875 
L 17.484375 54.6875 
L 17.484375 21.921875 
Q 17.484375 14.15625 20.5 10.265625 
Q 23.53125 6.390625 29.59375 6.390625 
Q 36.859375 6.390625 41.078125 11.03125 
Q 45.3125 15.671875 45.3125 23.6875 
L 45.3125 54.6875 
L 54.296875 54.6875 
L 54.296875 0 
L 45.3125 0 
L 45.3125 8.40625 
Q 42.046875 3.421875 37.71875 1 
Q 33.40625 -1.421875 27.6875 -1.421875 
Q 18.265625 -1.421875 13.375 4.4375 
Q 8.5 10.296875 8.5 21.578125 
" id="BitstreamVeraSans-Roman-75"/>
      <path d="M 37.109375 75.984375 
L 37.109375 68.5 
L 28.515625 68.5 
Q 23.6875 68.5 21.796875 66.546875 
Q 19.921875 64.59375 19.921875 59.515625 
L 19.921875 54.6875 
L 34.71875 54.6875 
L 34.71875 47.703125 
L 19.921875 47.703125 
L 19.921875 0 
L 10.890625 0 
L 10.890625 47.703125 
L 2.296875 47.703125 
L 2.296875 54.6875 
L 10.890625 54.6875 
L 10.890625 58.5 
Q 10.890625 67.625 15.140625 71.796875 
Q 19.390625 75.984375 28.609375 75.984375 
z
" id="BitstreamVeraSans-Roman-66"/>
      <path d="M 48.78125 52.59375 
L 48.78125 44.1875 
Q 44.96875 46.296875 41.140625 47.34375 
Q 37.3125 48.390625 33.40625 48.390625 
Q 24.65625 48.390625 19.8125 42.84375 
Q 14.984375 37.3125 14.984375 27.296875 
Q 14.984375 17.28125 19.8125 11.734375 
Q 24.65625 6.203125 33.40625 6.203125 
Q 37.3125 6.203125 41.140625 7.25 
Q 44.96875 8.296875 48.78125 10.40625 
L 48.78125 2.09375 
Q 45.015625 0.34375 40.984375 -0.53125 
Q 36.96875 -1.421875 32.421875 -1.421875 
Q 20.0625 -1.421875 12.78125 6.34375 
Q 5.515625 14.109375 5.515625 27.296875 
Q 5.515625 40.671875 12.859375 48.328125 
Q 20.21875 56 33.015625 56 
Q 37.15625 56 41.109375 55.140625 
Q 45.0625 54.296875 48.78125 52.59375 
" id="BitstreamVeraSans-Roman-63"/>
     </defs>
     <g transform="translate(583.236 164.91796875)scale(0.09 -0.09)">
      <use xlink:href="#BitstreamVeraSans-Roman-28"/>
      <use x="39.013671875" xlink:href="#BitstreamVeraSans-Roman-32"/>
      <use x="102.63671875" xlink:href="#BitstreamVeraSans-Roman-33"/>
      <use x="166.259765625" xlink:href="#BitstreamVeraSans-Roman-30"/>
      <use x="229.8828125" xlink:href="#BitstreamVeraSans-Roman-35"/>
      <use x="293.505859375" xlink:href="#BitstreamVeraSans-Roman-35"/>
      <use x="357.12890625" xlink:href="#BitstreamVeraSans-Roman-29"/>
      <use x="396.142578125" xlink:href="#BitstreamVeraSans-Roman-20"/>
      <use x="427.9296875" xlink:href="#BitstreamVeraSans-Roman-54"/>
      <use x="489.013671875" xlink:href="#BitstreamVeraSans-Roman-68"/>
      <use x="552.392578125" xlink:href="#BitstreamVeraSans-Roman-65"/>
      <use x="613.916015625" xlink:href="#BitstreamVeraSans-Roman-20"/>
      <use x="645.703125" xlink:href="#BitstreamVeraSans-Roman-66"/>
      <use x="680.908203125" xlink:href="#BitstreamVeraSans-Roman-75"/>
      <use x="744.287109375" xlink:href="#BitstreamVeraSans-Roman-74"/>
      <use x="783.49609375" xlink:href="#BitstreamVeraSans-Roman-75"/>
      <use x="846.875" xlink:href="#BitstreamVeraSans-Roman-72"/>
      <use x="887.95703125" xlink:href="#BitstreamVeraSans-Roman-65"/>
      <use x="949.48046875" xlink:href="#BitstreamVeraSans-Roman-20"/>
      <use x="981.267578125" xlink:href="#BitstreamVeraSans-Roman-6f"/>
      <use x="1042.44921875" xlink:href="#BitstreamVeraSans-Roman-66"/>
      <use x="1077.65429688" xlink:href="#BitstreamVeraSans-Roman-20"/>
      <use x="1109.44140625" xlink:href="#BitstreamVeraSans-Roman-64"/>
      <use x="1172.91796875" xlink:href="#BitstreamVeraSans-Roman-69"/>
      <use x="1200.70117188" xlink:href="#BitstreamVeraSans-Roman-61"/>
      <use x="1261.98046875" xlink:href="#BitstreamVeraSans-Roman-6c"/>
      <use x="1289.76367188" xlink:href="#BitstreamVeraSans-Roman-65"/>
      <use x="1351.28710938" xlink:href="#BitstreamVeraSans-Roman-63"/>
      <use x="1406.26757812" xlink:href="#BitstreamVeraSans-Roman-74"/>
      <use x="1445.4765625" xlink:href="#BitstreamVeraSans-Roman-73"/>
     </g>
    </g>
    <g id="line2d_38"/>
    <g id="line2d_39">
     <g>
      <use style="fill:#e27699;stroke:#000000;stroke-linejoin:miter;stroke-width:0.5;" x="567.036" xlink:href="#m0d8a58d88b" y="197.47828125"/>
     </g>
    </g>
    <g id="text_26">
     <!-- (20677) Einfhrung in die grammatische Beschreibung -->
     <defs>
      <path d="M 7.625 37.984375 
L 17.578125 37.984375 
L 17.578125 67.828125 
L 6.6875 65.828125 
L 6.6875 71.484375 
L 17.921875 73.390625 
L 24.609375 73.390625 
L 24.609375 37.984375 
L 34.625 37.984375 
L 34.625 32.625 
L 7.625 32.625 
z
" id="BitstreamVeraSans-Roman-b9"/>
      <path d="M 9.8125 72.90625 
L 55.90625 72.90625 
L 55.90625 64.59375 
L 19.671875 64.59375 
L 19.671875 43.015625 
L 54.390625 43.015625 
L 54.390625 34.71875 
L 19.671875 34.71875 
L 19.671875 8.296875 
L 56.78125 8.296875 
L 56.78125 0 
L 9.8125 0 
z
" id="BitstreamVeraSans-Roman-45"/>
      <path d="M 19.671875 34.8125 
L 19.671875 8.109375 
L 35.5 8.109375 
Q 43.453125 8.109375 47.28125 11.40625 
Q 51.125 14.703125 51.125 21.484375 
Q 51.125 28.328125 47.28125 31.5625 
Q 43.453125 34.8125 35.5 34.8125 
z
M 19.671875 64.796875 
L 19.671875 42.828125 
L 34.28125 42.828125 
Q 41.5 42.828125 45.03125 45.53125 
Q 48.578125 48.25 48.578125 53.8125 
Q 48.578125 59.328125 45.03125 62.0625 
Q 41.5 64.796875 34.28125 64.796875 
z
M 9.8125 72.90625 
L 35.015625 72.90625 
Q 46.296875 72.90625 52.390625 68.21875 
Q 58.5 63.53125 58.5 54.890625 
Q 58.5 48.1875 55.375 44.234375 
Q 52.25 40.28125 46.1875 39.3125 
Q 53.46875 37.75 57.5 32.78125 
Q 61.53125 27.828125 61.53125 20.40625 
Q 61.53125 10.640625 54.890625 5.3125 
Q 48.25 0 35.984375 0 
L 9.8125 0 
z
" id="BitstreamVeraSans-Roman-42"/>
      <path d="M 8.5 21.578125 
L 8.5 54.6875 
L 17.484375 54.6875 
L 17.484375 21.921875 
Q 17.484375 14.15625 20.5 10.265625 
Q 23.53125 6.390625 29.59375 6.390625 
Q 36.859375 6.390625 41.078125 11.03125 
Q 45.3125 15.671875 45.3125 23.6875 
L 45.3125 54.6875 
L 54.296875 54.6875 
L 54.296875 0 
L 45.3125 0 
L 45.3125 8.40625 
Q 42.046875 3.421875 37.71875 1 
Q 33.40625 -1.421875 27.6875 -1.421875 
Q 18.265625 -1.421875 13.375 4.4375 
Q 8.5 10.296875 8.5 21.578125 
M 35.59375 75.78125 
L 45.5 75.78125 
L 45.5 65.921875 
L 35.59375 65.921875 
z
M 16.5 75.78125 
L 26.40625 75.78125 
L 26.40625 65.921875 
L 16.5 65.921875 
z
" id="BitstreamVeraSans-Roman-fc"/>
      <path d="M 48.6875 27.296875 
Q 48.6875 37.203125 44.609375 42.84375 
Q 40.53125 48.484375 33.40625 48.484375 
Q 26.265625 48.484375 22.1875 42.84375 
Q 18.109375 37.203125 18.109375 27.296875 
Q 18.109375 17.390625 22.1875 11.75 
Q 26.265625 6.109375 33.40625 6.109375 
Q 40.53125 6.109375 44.609375 11.75 
Q 48.6875 17.390625 48.6875 27.296875 
M 18.109375 46.390625 
Q 20.953125 51.265625 25.265625 53.625 
Q 29.59375 56 35.59375 56 
Q 45.5625 56 51.78125 48.09375 
Q 58.015625 40.1875 58.015625 27.296875 
Q 58.015625 14.40625 51.78125 6.484375 
Q 45.5625 -1.421875 35.59375 -1.421875 
Q 29.59375 -1.421875 25.265625 0.953125 
Q 20.953125 3.328125 18.109375 8.203125 
L 18.109375 0 
L 9.078125 0 
L 9.078125 75.984375 
L 18.109375 75.984375 
z
" id="BitstreamVeraSans-Roman-62"/>
     </defs>
     <g transform="translate(583.236 200.62828125)scale(0.09 -0.09)">
      <use xlink:href="#BitstreamVeraSans-Roman-28"/>
      <use x="39.013671875" xlink:href="#BitstreamVeraSans-Roman-32"/>
      <use x="102.63671875" xlink:href="#BitstreamVeraSans-Roman-30"/>
      <use x="166.259765625" xlink:href="#BitstreamVeraSans-Roman-36"/>
      <use x="229.8828125" xlink:href="#BitstreamVeraSans-Roman-37"/>
      <use x="293.505859375" xlink:href="#BitstreamVeraSans-Roman-37"/>
      <use x="357.12890625" xlink:href="#BitstreamVeraSans-Roman-29"/>
      <use x="396.142578125" xlink:href="#BitstreamVeraSans-Roman-20"/>
      <use x="427.9296875" xlink:href="#BitstreamVeraSans-Roman-45"/>
      <use x="491.11328125" xlink:href="#BitstreamVeraSans-Roman-69"/>
      <use x="518.896484375" xlink:href="#BitstreamVeraSans-Roman-6e"/>
      <use x="582.275390625" xlink:href="#BitstreamVeraSans-Roman-66"/>
      <use x="617.48046875" xlink:href="#BitstreamVeraSans-Roman-fc"/>
      <use x="680.859375" xlink:href="#BitstreamVeraSans-Roman-68"/>
      <use x="744.23828125" xlink:href="#BitstreamVeraSans-Roman-72"/>
      <use x="785.3515625" xlink:href="#BitstreamVeraSans-Roman-75"/>
      <use x="848.73046875" xlink:href="#BitstreamVeraSans-Roman-6e"/>
      <use x="912.109375" xlink:href="#BitstreamVeraSans-Roman-67"/>
      <use x="975.5859375" xlink:href="#BitstreamVeraSans-Roman-20"/>
      <use x="1007.37304688" xlink:href="#BitstreamVeraSans-Roman-69"/>
      <use x="1035.15625" xlink:href="#BitstreamVeraSans-Roman-6e"/>
      <use x="1098.53515625" xlink:href="#BitstreamVeraSans-Roman-20"/>
      <use x="1130.32226562" xlink:href="#BitstreamVeraSans-Roman-64"/>
      <use x="1193.79882812" xlink:href="#BitstreamVeraSans-Roman-69"/>
      <use x="1221.58203125" xlink:href="#BitstreamVeraSans-Roman-65"/>
      <use x="1283.10546875" xlink:href="#BitstreamVeraSans-Roman-20"/>
      <use x="1314.89257812" xlink:href="#BitstreamVeraSans-Roman-67"/>
      <use x="1378.36914062" xlink:href="#BitstreamVeraSans-Roman-72"/>
      <use x="1419.48242188" xlink:href="#BitstreamVeraSans-Roman-61"/>
      <use x="1480.76171875" xlink:href="#BitstreamVeraSans-Roman-6d"/>
      <use x="1578.17382812" xlink:href="#BitstreamVeraSans-Roman-6d"/>
      <use x="1675.5859375" xlink:href="#BitstreamVeraSans-Roman-61"/>
      <use x="1736.86523438" xlink:href="#BitstreamVeraSans-Roman-74"/>
      <use x="1776.07421875" xlink:href="#BitstreamVeraSans-Roman-69"/>
      <use x="1803.85742188" xlink:href="#BitstreamVeraSans-Roman-73"/>
      <use x="1855.95703125" xlink:href="#BitstreamVeraSans-Roman-63"/>
      <use x="1910.9375" xlink:href="#BitstreamVeraSans-Roman-68"/>
      <use x="1974.31640625" xlink:href="#BitstreamVeraSans-Roman-65"/>
      <use x="2035.83984375" xlink:href="#BitstreamVeraSans-Roman-20"/>
      <use x="2067.62695312" xlink:href="#BitstreamVeraSans-Roman-42"/>
      <use x="2136.23046875" xlink:href="#BitstreamVeraSans-Roman-65"/>
      <use x="2197.75390625" xlink:href="#BitstreamVeraSans-Roman-73"/>
      <use x="2249.85351562" xlink:href="#BitstreamVeraSans-Roman-63"/>
      <use x="2304.83398438" xlink:href="#BitstreamVeraSans-Roman-68"/>
      <use x="2368.21289062" xlink:href="#BitstreamVeraSans-Roman-72"/>
      <use x="2409.29492188" xlink:href="#BitstreamVeraSans-Roman-65"/>
      <use x="2470.81835938" xlink:href="#BitstreamVeraSans-Roman-69"/>
      <use x="2498.6015625" xlink:href="#BitstreamVeraSans-Roman-62"/>
      <use x="2562.078125" xlink:href="#BitstreamVeraSans-Roman-75"/>
      <use x="2625.45703125" xlink:href="#BitstreamVeraSans-Roman-6e"/>
      <use x="2688.8359375" xlink:href="#BitstreamVeraSans-Roman-67"/>
      <use x="2752.3125" xlink:href="#BitstreamVeraSans-Roman-b9"/>
     </g>
    </g>
    <g id="line2d_40"/>
    <g id="line2d_41">
     <g>
      <use style="fill:#da6d3b;stroke:#000000;stroke-linejoin:bevel;stroke-width:0.5;" x="567.036" xlink:href="#mbbd99118af" y="233.18859375"/>
     </g>
    </g>
    <g id="text_27">
     <!-- (15338) Grammatical Theory -->
     <defs>
      <path d="M 59.515625 10.40625 
L 59.515625 29.984375 
L 43.40625 29.984375 
L 43.40625 38.09375 
L 69.28125 38.09375 
L 69.28125 6.78125 
Q 63.578125 2.734375 56.6875 0.65625 
Q 49.8125 -1.421875 42 -1.421875 
Q 24.90625 -1.421875 15.25 8.5625 
Q 5.609375 18.5625 5.609375 36.375 
Q 5.609375 54.25 15.25 64.234375 
Q 24.90625 74.21875 42 74.21875 
Q 49.125 74.21875 55.546875 72.453125 
Q 61.96875 70.703125 67.390625 67.28125 
L 67.390625 56.78125 
Q 61.921875 61.421875 55.765625 63.765625 
Q 49.609375 66.109375 42.828125 66.109375 
Q 29.4375 66.109375 22.71875 58.640625 
Q 16.015625 51.171875 16.015625 36.375 
Q 16.015625 21.625 22.71875 14.15625 
Q 29.4375 6.6875 42.828125 6.6875 
Q 48.046875 6.6875 52.140625 7.59375 
Q 56.25 8.5 59.515625 10.40625 
" id="BitstreamVeraSans-Roman-47"/>
      <path d="M 32.171875 -5.078125 
Q 28.375 -14.84375 24.75 -17.8125 
Q 21.140625 -20.796875 15.09375 -20.796875 
L 7.90625 -20.796875 
L 7.90625 -13.28125 
L 13.1875 -13.28125 
Q 16.890625 -13.28125 18.9375 -11.515625 
Q 21 -9.765625 23.484375 -3.21875 
L 25.09375 0.875 
L 2.984375 54.6875 
L 12.5 54.6875 
L 29.59375 11.921875 
L 46.6875 54.6875 
L 56.203125 54.6875 
z
" id="BitstreamVeraSans-Roman-79"/>
     </defs>
     <g transform="translate(583.236 236.33859375)scale(0.09 -0.09)">
      <use xlink:href="#BitstreamVeraSans-Roman-28"/>
      <use x="39.013671875" xlink:href="#BitstreamVeraSans-Roman-31"/>
      <use x="102.63671875" xlink:href="#BitstreamVeraSans-Roman-35"/>
      <use x="166.259765625" xlink:href="#BitstreamVeraSans-Roman-33"/>
      <use x="229.8828125" xlink:href="#BitstreamVeraSans-Roman-33"/>
      <use x="293.505859375" xlink:href="#BitstreamVeraSans-Roman-38"/>
      <use x="357.12890625" xlink:href="#BitstreamVeraSans-Roman-29"/>
      <use x="396.142578125" xlink:href="#BitstreamVeraSans-Roman-20"/>
      <use x="427.9296875" xlink:href="#BitstreamVeraSans-Roman-47"/>
      <use x="505.419921875" xlink:href="#BitstreamVeraSans-Roman-72"/>
      <use x="546.533203125" xlink:href="#BitstreamVeraSans-Roman-61"/>
      <use x="607.8125" xlink:href="#BitstreamVeraSans-Roman-6d"/>
      <use x="705.224609375" xlink:href="#BitstreamVeraSans-Roman-6d"/>
      <use x="802.63671875" xlink:href="#BitstreamVeraSans-Roman-61"/>
      <use x="863.916015625" xlink:href="#BitstreamVeraSans-Roman-74"/>
      <use x="903.125" xlink:href="#BitstreamVeraSans-Roman-69"/>
      <use x="930.908203125" xlink:href="#BitstreamVeraSans-Roman-63"/>
      <use x="985.888671875" xlink:href="#BitstreamVeraSans-Roman-61"/>
      <use x="1047.16796875" xlink:href="#BitstreamVeraSans-Roman-6c"/>
      <use x="1074.95117188" xlink:href="#BitstreamVeraSans-Roman-20"/>
      <use x="1106.73828125" xlink:href="#BitstreamVeraSans-Roman-54"/>
      <use x="1167.82226562" xlink:href="#BitstreamVeraSans-Roman-68"/>
      <use x="1231.20117188" xlink:href="#BitstreamVeraSans-Roman-65"/>
      <use x="1292.72460938" xlink:href="#BitstreamVeraSans-Roman-6f"/>
      <use x="1353.90625" xlink:href="#BitstreamVeraSans-Roman-72"/>
      <use x="1395.01953125" xlink:href="#BitstreamVeraSans-Roman-79"/>
     </g>
    </g>
    <g id="line2d_42"/>
    <g id="line2d_43">
     <g>
      <use style="fill:#a83d52;stroke:#000000;stroke-linejoin:miter;stroke-width:0.5;" x="567.036" xlink:href="#m65d06f3458" y="268.89890625"/>
     </g>
    </g>
    <g id="text_28">
     <!-- (14093) New directions in corpus-based translation st -->
     <defs>
      <path d="M 9.8125 72.90625 
L 23.09375 72.90625 
L 55.421875 11.921875 
L 55.421875 72.90625 
L 64.984375 72.90625 
L 64.984375 0 
L 51.703125 0 
L 19.390625 60.984375 
L 19.390625 0 
L 9.8125 0 
z
" id="BitstreamVeraSans-Roman-4e"/>
      <path d="M 4.890625 31.390625 
L 31.203125 31.390625 
L 31.203125 23.390625 
L 4.890625 23.390625 
z
" id="BitstreamVeraSans-Roman-2d"/>
     </defs>
     <g transform="translate(583.236 272.04890625)scale(0.09 -0.09)">
      <use xlink:href="#BitstreamVeraSans-Roman-28"/>
      <use x="39.013671875" xlink:href="#BitstreamVeraSans-Roman-31"/>
      <use x="102.63671875" xlink:href="#BitstreamVeraSans-Roman-34"/>
      <use x="166.259765625" xlink:href="#BitstreamVeraSans-Roman-30"/>
      <use x="229.8828125" xlink:href="#BitstreamVeraSans-Roman-39"/>
      <use x="293.505859375" xlink:href="#BitstreamVeraSans-Roman-33"/>
      <use x="357.12890625" xlink:href="#BitstreamVeraSans-Roman-29"/>
      <use x="396.142578125" xlink:href="#BitstreamVeraSans-Roman-20"/>
      <use x="427.9296875" xlink:href="#BitstreamVeraSans-Roman-4e"/>
      <use x="502.734375" xlink:href="#BitstreamVeraSans-Roman-65"/>
      <use x="564.2578125" xlink:href="#BitstreamVeraSans-Roman-77"/>
      <use x="646.044921875" xlink:href="#BitstreamVeraSans-Roman-20"/>
      <use x="677.83203125" xlink:href="#BitstreamVeraSans-Roman-64"/>
      <use x="741.30859375" xlink:href="#BitstreamVeraSans-Roman-69"/>
      <use x="769.091796875" xlink:href="#BitstreamVeraSans-Roman-72"/>
      <use x="810.173828125" xlink:href="#BitstreamVeraSans-Roman-65"/>
      <use x="871.697265625" xlink:href="#BitstreamVeraSans-Roman-63"/>
      <use x="926.677734375" xlink:href="#BitstreamVeraSans-Roman-74"/>
      <use x="965.88671875" xlink:href="#BitstreamVeraSans-Roman-69"/>
      <use x="993.669921875" xlink:href="#BitstreamVeraSans-Roman-6f"/>
      <use x="1054.8515625" xlink:href="#BitstreamVeraSans-Roman-6e"/>
      <use x="1118.23046875" xlink:href="#BitstreamVeraSans-Roman-73"/>
      <use x="1170.33007812" xlink:href="#BitstreamVeraSans-Roman-20"/>
      <use x="1202.1171875" xlink:href="#BitstreamVeraSans-Roman-69"/>
      <use x="1229.90039062" xlink:href="#BitstreamVeraSans-Roman-6e"/>
      <use x="1293.27929688" xlink:href="#BitstreamVeraSans-Roman-20"/>
      <use x="1325.06640625" xlink:href="#BitstreamVeraSans-Roman-63"/>
      <use x="1380.046875" xlink:href="#BitstreamVeraSans-Roman-6f"/>
      <use x="1441.22851562" xlink:href="#BitstreamVeraSans-Roman-72"/>
      <use x="1482.34179688" xlink:href="#BitstreamVeraSans-Roman-70"/>
      <use x="1545.81835938" xlink:href="#BitstreamVeraSans-Roman-75"/>
      <use x="1609.19726562" xlink:href="#BitstreamVeraSans-Roman-73"/>
      <use x="1661.296875" xlink:href="#BitstreamVeraSans-Roman-2d"/>
      <use x="1697.38085938" xlink:href="#BitstreamVeraSans-Roman-62"/>
      <use x="1760.85742188" xlink:href="#BitstreamVeraSans-Roman-61"/>
      <use x="1822.13671875" xlink:href="#BitstreamVeraSans-Roman-73"/>
      <use x="1874.23632812" xlink:href="#BitstreamVeraSans-Roman-65"/>
      <use x="1935.75976562" xlink:href="#BitstreamVeraSans-Roman-64"/>
      <use x="1999.23632812" xlink:href="#BitstreamVeraSans-Roman-20"/>
      <use x="2031.0234375" xlink:href="#BitstreamVeraSans-Roman-74"/>
      <use x="2070.23242188" xlink:href="#BitstreamVeraSans-Roman-72"/>
      <use x="2111.34570312" xlink:href="#BitstreamVeraSans-Roman-61"/>
      <use x="2172.625" xlink:href="#BitstreamVeraSans-Roman-6e"/>
      <use x="2236.00390625" xlink:href="#BitstreamVeraSans-Roman-73"/>
      <use x="2288.10351562" xlink:href="#BitstreamVeraSans-Roman-6c"/>
      <use x="2315.88671875" xlink:href="#BitstreamVeraSans-Roman-61"/>
      <use x="2377.16601562" xlink:href="#BitstreamVeraSans-Roman-74"/>
      <use x="2416.375" xlink:href="#BitstreamVeraSans-Roman-69"/>
      <use x="2444.15820312" xlink:href="#BitstreamVeraSans-Roman-6f"/>
      <use x="2505.33984375" xlink:href="#BitstreamVeraSans-Roman-6e"/>
      <use x="2568.71875" xlink:href="#BitstreamVeraSans-Roman-20"/>
      <use x="2600.50585938" xlink:href="#BitstreamVeraSans-Roman-73"/>
      <use x="2652.60546875" xlink:href="#BitstreamVeraSans-Roman-74"/>
     </g>
    </g>
    <g id="line2d_44"/>
    <g id="line2d_45">
     <g>
      <use style="fill:#dd88b4;stroke:#000000;stroke-linejoin:miter;stroke-width:0.5;" x="567.036" xlink:href="#mfaf9f2ebc1" y="304.60921875"/>
     </g>
    </g>
    <g id="text_29">
     <!-- (12061) The Alor-Pantar languages -->
     <defs>
      <path d="M 19.671875 64.796875 
L 19.671875 37.40625 
L 32.078125 37.40625 
Q 38.96875 37.40625 42.71875 40.96875 
Q 46.484375 44.53125 46.484375 51.125 
Q 46.484375 57.671875 42.71875 61.234375 
Q 38.96875 64.796875 32.078125 64.796875 
z
M 9.8125 72.90625 
L 32.078125 72.90625 
Q 44.34375 72.90625 50.609375 67.359375 
Q 56.890625 61.8125 56.890625 51.125 
Q 56.890625 40.328125 50.609375 34.8125 
Q 44.34375 29.296875 32.078125 29.296875 
L 19.671875 29.296875 
L 19.671875 0 
L 9.8125 0 
z
" id="BitstreamVeraSans-Roman-50"/>
      <path d="M 34.1875 63.1875 
L 20.796875 26.90625 
L 47.609375 26.90625 
z
M 28.609375 72.90625 
L 39.796875 72.90625 
L 67.578125 0 
L 57.328125 0 
L 50.6875 18.703125 
L 17.828125 18.703125 
L 11.1875 0 
L 0.78125 0 
z
" id="BitstreamVeraSans-Roman-41"/>
     </defs>
     <g transform="translate(583.236 307.75921875)scale(0.09 -0.09)">
      <use xlink:href="#BitstreamVeraSans-Roman-28"/>
      <use x="39.013671875" xlink:href="#BitstreamVeraSans-Roman-31"/>
      <use x="102.63671875" xlink:href="#BitstreamVeraSans-Roman-32"/>
      <use x="166.259765625" xlink:href="#BitstreamVeraSans-Roman-30"/>
      <use x="229.8828125" xlink:href="#BitstreamVeraSans-Roman-36"/>
      <use x="293.505859375" xlink:href="#BitstreamVeraSans-Roman-31"/>
      <use x="357.12890625" xlink:href="#BitstreamVeraSans-Roman-29"/>
      <use x="396.142578125" xlink:href="#BitstreamVeraSans-Roman-20"/>
      <use x="427.9296875" xlink:href="#BitstreamVeraSans-Roman-54"/>
      <use x="489.013671875" xlink:href="#BitstreamVeraSans-Roman-68"/>
      <use x="552.392578125" xlink:href="#BitstreamVeraSans-Roman-65"/>
      <use x="613.916015625" xlink:href="#BitstreamVeraSans-Roman-20"/>
      <use x="645.703125" xlink:href="#BitstreamVeraSans-Roman-41"/>
      <use x="714.111328125" xlink:href="#BitstreamVeraSans-Roman-6c"/>
      <use x="741.89453125" xlink:href="#BitstreamVeraSans-Roman-6f"/>
      <use x="803.076171875" xlink:href="#BitstreamVeraSans-Roman-72"/>
      <use x="844.095703125" xlink:href="#BitstreamVeraSans-Roman-2d"/>
      <use x="880.1796875" xlink:href="#BitstreamVeraSans-Roman-50"/>
      <use x="940.419921875" xlink:href="#BitstreamVeraSans-Roman-61"/>
      <use x="1001.69921875" xlink:href="#BitstreamVeraSans-Roman-6e"/>
      <use x="1065.078125" xlink:href="#BitstreamVeraSans-Roman-74"/>
      <use x="1104.28710938" xlink:href="#BitstreamVeraSans-Roman-61"/>
      <use x="1165.56640625" xlink:href="#BitstreamVeraSans-Roman-72"/>
      <use x="1206.6796875" xlink:href="#BitstreamVeraSans-Roman-20"/>
      <use x="1238.46679688" xlink:href="#BitstreamVeraSans-Roman-6c"/>
      <use x="1266.25" xlink:href="#BitstreamVeraSans-Roman-61"/>
      <use x="1327.52929688" xlink:href="#BitstreamVeraSans-Roman-6e"/>
      <use x="1390.90820312" xlink:href="#BitstreamVeraSans-Roman-67"/>
      <use x="1454.38476562" xlink:href="#BitstreamVeraSans-Roman-75"/>
      <use x="1517.76367188" xlink:href="#BitstreamVeraSans-Roman-61"/>
      <use x="1579.04296875" xlink:href="#BitstreamVeraSans-Roman-67"/>
      <use x="1642.51953125" xlink:href="#BitstreamVeraSans-Roman-65"/>
      <use x="1704.04296875" xlink:href="#BitstreamVeraSans-Roman-73"/>
      <use x="1756.14257812" xlink:href="#BitstreamVeraSans-Roman-b9"/>
     </g>
    </g>
   </g>
  </g>
 </g>
 <defs>
  <clipPath id="p971b272c21">
   <rect height="345.6" width="441.936" x="108.0" y="43.2"/>
  </clipPath>
 </defs>
</svg>
