<?xml version="1.0" encoding="utf-8"?>
<!-- Generator: Adobe Illustrator 16.0.0, SVG Export Plug-In . SVG Version: 6.00 Build 0)  -->
<!DOCTYPE svg PUBLIC "-//W3C//DTD SVG 1.1//EN" "http://www.w3.org/Graphics/SVG/1.1/DTD/svg11.dtd">
<svg version="1.1" id="Layer_1" xmlns="http://www.w3.org/2000/svg" xmlns:xlink="http://www.w3.org/1999/xlink" x="0px" y="0px"
	 width="800px" height="600px" viewBox="0 0 800 600" enable-background="new 0 0 800 600" xml:space="preserve">
<g>
	<defs>
		<rect id="SVGID_1_" width="800" height="600"/>
	</defs>
	<clipPath id="SVGID_2_">
		<use xlink:href="#SVGID_1_"  overflow="visible"/>
	</clipPath>
	<g clip-path="url(#SVGID_2_)">
		<defs>
			<rect id="SVGID_3_" width="800" height="600"/>
		</defs>
		<clipPath id="SVGID_4_">
			<use xlink:href="#SVGID_3_"  overflow="visible"/>
		</clipPath>
		<polyline clip-path="url(#SVGID_4_)" fill="#00A6DB" points="700,522.098 780,522.098 780,550 700,550 		"/>
		<polyline clip-path="url(#SVGID_4_)" fill="#005780" points="700,466.315 780,466.315 780,494.218 700,494.218 		"/>
		<polyline clip-path="url(#SVGID_4_)" fill="#F29400" points="700,382.632 780,382.632 780,410.533 700,410.533 		"/>
		<polyline clip-path="url(#SVGID_4_)" fill="#FCC400" points="700,410.534 780,410.534 780,438.436 700,438.436 		"/>
		<polyline clip-path="url(#SVGID_4_)" fill="#DB0030" points="700,298.97 780,298.97 780,326.871 700,326.871 		"/>
		<polyline clip-path="url(#SVGID_4_)" fill="#E85712" points="700,326.826 780,326.826 780,354.729 700,354.729 		"/>
		<polyline clip-path="url(#SVGID_4_)" fill="#B3C900" points="700,159.467 780,159.467 780,187.369 700,187.369 		"/>
		<polyline clip-path="url(#SVGID_4_)" fill="#7DAD38" points="700,131.564 780,131.564 780,159.467 700,159.467 		"/>
		<polyline clip-path="url(#SVGID_4_)" fill="#578730" points="700,103.662 780,103.662 780,131.565 700,131.565 		"/>
		<polyline clip-path="url(#SVGID_4_)" fill="#ED7503" points="700,354.729 780,354.729 780,382.631 700,382.631 		"/>
		<polyline clip-path="url(#SVGID_4_)" fill="#C2D163" points="700,187.369 780,187.369 780,215.272 700,215.272 		"/>
		<polyline clip-path="url(#SVGID_4_)" fill="#007026" points="700,75.805 780,75.805 780,103.707 700,103.707 		"/>
		<polyline clip-path="url(#SVGID_4_)" fill="#006121" points="700,47.902 780,47.902 780,75.806 700,75.806 		"/>
		<polyline clip-path="url(#SVGID_4_)" fill="#00471A" points="700,20 780,20 780,47.903 700,47.903 		"/>
		<polyline clip-path="url(#SVGID_4_)" fill="#007AB8" points="700,494.241 780,494.241 780,522.143 700,522.143 		"/>
		<polyline clip-path="url(#SVGID_4_)" fill="#00304A" points="700,438.436 780,438.436 780,466.338 700,466.338 		"/>
		<polyline clip-path="url(#SVGID_4_)" fill="#821F40" points="700,243.21 780,243.21 780,271.112 700,271.112 		"/>
		<polyline clip-path="url(#SVGID_4_)" fill="#611C30" points="700,215.308 780,215.308 780,243.21 700,243.21 		"/>
		<polyline clip-path="url(#SVGID_4_)" fill="#B50F47" points="700,271.067 780,271.067 780,298.969 700,298.969 		"/>
		<polyline clip-path="url(#SVGID_4_)" fill="none" stroke="#63BEE1" points="216.991,382.298 222.468,386.515 216.991,390.732 		
			"/>
	</g>
</g>
<rect x="10" y="10" fill="#63BEE1" width="780" height="580"/>
<g>
	<defs>
		<rect id="SVGID_5_" width="800" height="600"/>
	</defs>
	<clipPath id="SVGID_6_">
		<use xlink:href="#SVGID_5_"  overflow="visible"/>
	</clipPath>
	<rect x="10" y="10" clip-path="url(#SVGID_6_)" fill="none" stroke="#FFFFFF" stroke-width="20" width="780" height="580"/>
</g>
<polyline fill="#00A6DB" points="367.282,20 367.282,108 344.381,108 344.381,20 "/>
<polyline fill="#005780" points="413.065,20 413.065,108 390.164,108 390.164,20 "/>
<polyline fill="#F29400" points="481.75,20 481.75,108 458.849,108 458.849,20 "/>
<polyline fill="#FCC400" points="458.849,20 458.849,108 435.947,108 435.947,20 "/>
<polyline fill="#DB0030" points="550.416,20 550.416,108 527.515,108 527.515,20 "/>
<polyline fill="#E85712" points="527.552,20 527.552,108 504.65,108 504.65,20 "/>
<polyline fill="#B3C900" points="664.913,20 664.913,108 642.012,108 642.012,20 "/>
<polyline fill="#7DAD38" points="687.814,20 687.814,108 664.913,108 664.913,20 "/>
<polyline fill="#578730" points="710.715,20 710.715,108 687.814,108 687.814,20 "/>
<polyline fill="#ED7503" points="504.65,20 504.65,108 481.75,108 481.75,20 "/>
<polyline fill="#C2D163" points="642.012,20 642.012,108 619.11,108 619.11,20 "/>
<polyline fill="#007026" points="733.578,20 733.578,108 710.678,108 710.678,20 "/>
<polyline fill="#006121" points="756.479,20 756.479,108 733.579,108 733.579,20 "/>
<polyline fill="#00471A" points="779.381,20 779.381,108 756.48,108 756.48,20 "/>
<polyline fill="#007AB8" points="390.146,20 390.146,108 367.245,108 367.245,20 "/>
<polyline fill="#00304A" points="435.947,20 435.947,108 413.047,108 413.047,20 "/>
<polyline fill="#821F40" points="596.18,20 596.18,108 573.279,108 573.279,20 "/>
<polyline fill="#611C30" points="619.081,20 619.081,108 596.18,108 596.18,20 "/>
<polyline fill="#B50F47" points="573.316,20 573.316,108 550.415,108 550.415,20 "/>
<g>
	<defs>
		<rect id="SVGID_7_" width="800" height="600"/>
	</defs>
	<clipPath id="SVGID_8_">
		<use xlink:href="#SVGID_7_"  overflow="visible"/>
	</clipPath>
	<g clip-path="url(#SVGID_8_)">
		<text transform="matrix(1 0 0 1.0917 105.4111 48.6924)" fill="#005680" font-family="'DIN-Regular'" font-size="9.3546">la</text>
	</g>
	<g clip-path="url(#SVGID_8_)">
		<text transform="matrix(1 0 0 1.0917 113.2974 48.6924)" fill="#005680" font-family="'DIN-Regular'" font-size="9.3546">ng</text>
	</g>
	<g clip-path="url(#SVGID_8_)">
		<text transform="matrix(1 0 0 1.0917 123.8213 48.6924)" fill="#005680" font-family="'DIN-Regular'" font-size="9.3546">u</text>
	</g>
	<g clip-path="url(#SVGID_8_)">
		<text transform="matrix(1 0 0 1.0917 129.2656 48.6924)" fill="#005680" font-family="'DIN-Regular'" font-size="9.3546">age</text>
	</g>
	<g clip-path="url(#SVGID_8_)">
		<text transform="matrix(1 0 0 1.0442 105.4111 60.8188)" fill="#005680" font-family="'DIN-Regular'" font-size="9.7798">scienc</text>
	</g>
	<g clip-path="url(#SVGID_8_)">
		<text transform="matrix(1 0 0 1.0442 134.1738 60.8188)" fill="#005680" font-family="'DIN-Regular'" font-size="9.7798">e</text>
	</g>
	<g clip-path="url(#SVGID_8_)">
		<text transform="matrix(1 0 0 1.0442 105.4111 72.9409)" fill="#005680" font-family="'DIN-Regular'" font-size="9.7798">pr</text>
	</g>
	<g clip-path="url(#SVGID_8_)">
		<text transform="matrix(1 0 0 1.0442 114.5259 72.9409)" fill="#005680" font-family="'DIN-Regular'" font-size="9.7798">es</text>
	</g>
	<g clip-path="url(#SVGID_8_)">
		<text transform="matrix(1 0 0 1.0442 124.4038 72.9409)" fill="#005680" font-family="'DIN-Regular'" font-size="9.7798">s</text>
	</g>
</g>
<rect x="72.557" y="36.687" fill="#005680" width="9.515" height="54.313"/>
<rect x="82.706" y="47.599" fill="#005680" width="9.515" height="43.401"/>
<rect x="92.855" y="36.687" fill="#005680" width="9.515" height="54.313"/>
<rect x="62.408" y="36.687" fill="#005680" width="9.515" height="54.313"/>
<polygon fill="#005680" points="53.451,36.502 36,87.666 44.963,91 62.414,39.836 "/>
</svg>
