<?xml version="1.0" encoding="UTF-8" standalone="no"?>
<!-- Created with Inkscape (http://www.inkscape.org/) -->

<svg
   version="1.1"
   id="svg2"
   width="117.00119"
   height="56.666664"
   viewBox="0 0 117.00119 56.666664"
   xmlns="http://www.w3.org/2000/svg"
   xmlns:svg="http://www.w3.org/2000/svg">
  <defs
     id="defs6">
    <clipPath
       clipPathUnits="userSpaceOnUse"
       id="clipPath20">
      <path
         d="M 0,0 H 878.734 V 425 H 0 Z"
         id="path18" />
    </clipPath>
  </defs>
  <g
     id="g10"
     transform="matrix(1.3333333,0,0,-1.3333333,0,56.666665)">
    <g
       id="g12"
       transform="scale(0.1)">
      <g
         id="g14">
        <g
           id="g16"
           clip-path="url(#clipPath20)">
          <g
             id="g22"
             transform="scale(10)">
            <text
               xml:space="preserve"
               transform="matrix(0.956279,0,0,-1,56.2289,32.991)"
               style="font-variant:normal;font-weight:normal;font-size:7.99119px;font-family:DIN;-inkscape-font-specification:DIN-Regular;writing-mode:lr-tb;fill:#000000;fill-opacity:1;fill-rule:nonzero;stroke:none"
               id="text26"><tspan
                 x="0 2.3651245 6.7207913 11.363215 15.695188 20.337612 24.532743 28.863695"
                 y="0"
                 id="tspan24">language</tspan></text>
            <text
               xml:space="preserve"
               transform="matrix(0.99974,0,0,-1,56.2289,23.5176)"
               style="font-variant:normal;font-weight:normal;font-size:7.99119px;font-family:DIN;-inkscape-font-specification:DIN-Regular;writing-mode:lr-tb;fill:#000000;fill-opacity:1;fill-rule:nonzero;stroke:none"
               id="text32"><tspan
                 x="0 4.1155252 8.1829872 10.356208 14.743287 19.3859 23.453363"
                 y="0"
                 id="tspan28">science</tspan><tspan
                 x="0 4.3468285 7.4306445 11.657336 15.4845"
                 y="9.4738302"
                 id="tspan30">press</tspan></text>
          </g>
          <path
             d="m 295.758,0 h 74.8906 V 424.277 H 295.758 Z"
             style="fill:#000000;fill-opacity:1;fill-rule:nonzero;stroke:none"
             id="path34" />
          <path
             d="m 380.637,0 h 74.8984 V 339.629 H 380.637 Z"
             style="fill:#000000;fill-opacity:1;fill-rule:nonzero;stroke:none"
             id="path36" />
          <path
             d="m 465.527,0 h 74.8867 V 424.277 H 465.527 Z"
             style="fill:#000000;fill-opacity:1;fill-rule:nonzero;stroke:none"
             id="path38" />
          <path
             d="m 210.863,0 h 74.9023 V 424.277 H 210.863 Z"
             style="fill:#000000;fill-opacity:1;fill-rule:nonzero;stroke:none"
             id="path40" />
          <path
             d="M 140.199,425.195 0,24.7578 70.6836,0 210.883,400.418 140.199,425.195"
             style="fill:#000000;fill-opacity:1;fill-rule:nonzero;stroke:none"
             id="path42" />
        </g>
      </g>
    </g>
  </g>
</svg>
