<?xml version="1.0" encoding="UTF-8" standalone="no"?>
<!-- Created with Inkscape (http://www.inkscape.org/) -->

<svg
   version="1.1"
   id="svg1"
   width="116.52343"
   height="56.666668"
   viewBox="0 0 116.52343 56.666668"
   sodipodi:docname="langsci_logo_nocolor_white.svg"
   inkscape:version="1.4.3 (0d15f75042, 2025-12-25)"
   xmlns:inkscape="http://www.inkscape.org/namespaces/inkscape"
   xmlns:sodipodi="http://sodipodi.sourceforge.net/DTD/sodipodi-0.dtd"
   xmlns="http://www.w3.org/2000/svg"
   xmlns:svg="http://www.w3.org/2000/svg">
  <defs
     id="defs1">
    <clipPath
       clipPathUnits="userSpaceOnUse"
       id="clipPath8">
      <path
         d="M 0,-2.5000001e-6 H 878.73402 V 425.00001 H 0 Z"
         id="path8" />
    </clipPath>
  </defs>
  <sodipodi:namedview
     id="namedview1"
     pagecolor="#ffffff"
     bordercolor="#000000"
     borderopacity="0.25"
     inkscape:showpageshadow="2"
     inkscape:pageopacity="0.0"
     inkscape:pagecheckerboard="0"
     inkscape:deskcolor="#d1d1d1"
     inkscape:zoom="5.9883585"
     inkscape:cx="37.656396"
     inkscape:cy="30.475797"
     inkscape:window-width="1707"
     inkscape:window-height="924"
     inkscape:window-x="0"
     inkscape:window-y="0"
     inkscape:window-maximized="1"
     inkscape:current-layer="g1">
    <inkscape:page
       x="0"
       y="1.2515604e-10"
       inkscape:label="1"
       id="page1"
       width="116.52343"
       height="56.666668"
       margin="0"
       bleed="0" />
  </sodipodi:namedview>
  <g
     id="g1"
     inkscape:groupmode="layer"
     inkscape:label="1"
     transform="translate(0,-0.02666642)">
    <path
       id="path1"
       d="M 2.0279359,0.00121776 V -0.46945081 H 1.7232484 c -0.375,0 -0.5039062,-0.19050871 -0.5039062,-0.54911329 V -5.44509 H 0.66856094 v 4.44893865 c 0,0.57152612 0.3046875,0.99736911 0.96093746,0.99736911 z m 3.609375,0 V -2.5538402 c 0,-0.8180668 -0.5039062,-1.2551162 -1.5117187,-1.2551162 -0.609375,0 -0.9960938,0.1232704 -1.3242188,0.5603197 l 0.375,0.3473983 c 0.2109375,-0.3137791 0.4570313,-0.425843 0.9375,-0.425843 0.6914063,0 0.9726563,0.2689535 0.9726563,0.8180668 V -2.15041 H 3.9498109 c -0.84375,0 -1.3007812,0.4370494 -1.3007812,1.0870203 0,0.30257263 0.1054687,0.5827325 0.28125,0.76203481 0.2460937,0.24654068 0.5507812,0.34739823 1.0664062,0.34739823 0.5039063,0 0.7851563,-0.10085755 1.0898438,-0.4034302 V 0.00121776 Z M 5.0865297,-1.3323432 c 0,0.3137791 -0.070312,0.52670056 -0.1992188,0.6499709 -0.234375,0.23533428 -0.515625,0.25774707 -0.8320312,0.25774707 -0.5976563,0 -0.8671875,-0.2129215 -0.8671875,-0.63876447 0,-0.4370494 0.2695312,-0.6723837 0.84375,-0.6723837 H 5.0865297 Z M 10.072858,0.00121776 V -2.4081571 c 0,-0.4370493 -0.1171877,-0.7844476 -0.3867189,-1.0421947 -0.234375,-0.2353342 -0.5625,-0.3586046 -0.9609375,-0.3586046 -0.421875,0 -0.796875,0.1568895 -1.0546875,0.4594622 V -3.7641308 H 7.1197328 V 0.00121776 H 7.6705141 V -2.3185059 c 0,-0.6499709 0.3632812,-0.9973691 0.9257812,-0.9973691 0.5625,0 0.9257813,0.3361918 0.9257813,0.9973691 v 2.31972366 z m 4.250976,0.11206395 V -3.7641308 h -0.539062 v 0.4482558 c -0.304688,-0.3922238 -0.644531,-0.4930814 -1.054688,-0.4930814 -0.386718,0 -0.714843,0.1344768 -0.914062,0.3361919 -0.375,0.369811 -0.457031,0.9525435 -0.457031,1.5576888 0,0.6163517 0.08203,1.19908421 0.457031,1.56889523 0.199219,0.2017151 0.527344,0.33619184 0.902344,0.33619184 0.410156,0 0.75,-0.10085755 1.054687,-0.48187497 v 0.58273252 c 0,0.63876449 -0.304687,1.15425868 -1.03125,1.15425868 -0.433594,0 -0.621094,-0.1232704 -0.902344,-0.36981107 L 11.487897,1.2227148 c 0.398437,0.3586046 0.703125,0.5042877 1.277344,0.5042877 0.984375,0 1.558593,-0.68359 1.558593,-1.61372079 z M 13.773053,-1.9150757 c 0,0.7060029 -0.105469,1.41200571 -0.925781,1.41200571 -0.820313,0 -0.9375,-0.70600281 -0.9375,-1.41200571 0,-0.6947965 0.117187,-1.4007993 0.9375,-1.4007993 0.820312,0 0.925781,0.7060028 0.925781,1.4007993 z m 4.845703,1.91629346 V -3.7641308 h -0.550781 v 2.3197237 c 0,0.66117724 -0.375,0.99736908 -0.9375,0.99736908 -0.574219,0 -0.925781,-0.33619184 -0.925781,-0.99736908 v -2.3197237 h -0.550782 v 2.4093748 c 0,0.42584302 0.117188,0.79565403 0.386719,1.05340111 0.234375,0.22412789 0.5625,0.34739823 0.972656,0.34739823 0.421875,0 0.796875,-0.15688952 1.054688,-0.47066857 v 0.42584299 z m 4.204102,0 V -2.5538402 c 0,-0.8180668 -0.503906,-1.2551162 -1.511719,-1.2551162 -0.609375,0 -0.996094,0.1232704 -1.324219,0.5603197 l 0.375,0.3473983 c 0.210938,-0.3137791 0.457032,-0.425843 0.9375,-0.425843 0.691407,0 0.972657,0.2689535 0.972657,0.8180668 V -2.15041 h -1.136719 c -0.84375,0 -1.300781,0.4370494 -1.300781,1.0870203 0,0.30257263 0.105468,0.5827325 0.28125,0.76203481 0.246093,0.24654068 0.550781,0.34739823 1.066406,0.34739823 0.503906,0 0.785156,-0.10085755 1.089844,-0.4034302 V 0.00121776 Z M 22.272077,-1.3323432 c 0,0.3137791 -0.07031,0.52670056 -0.199219,0.6499709 -0.234375,0.23533428 -0.515625,0.25774707 -0.832031,0.25774707 -0.597657,0 -0.867188,-0.2129215 -0.867188,-0.63876447 0,-0.4370494 0.269531,-0.6723837 0.84375,-0.6723837 h 1.054688 z m 4.646484,1.44562491 V -3.7641308 h -0.539063 v 0.4482558 c -0.304687,-0.3922238 -0.644531,-0.4930814 -1.054687,-0.4930814 -0.386719,0 -0.714844,0.1344768 -0.914063,0.3361919 -0.375,0.369811 -0.457031,0.9525435 -0.457031,1.5576888 0,0.6163517 0.08203,1.19908421 0.457031,1.56889523 0.199219,0.2017151 0.527344,0.33619184 0.902344,0.33619184 0.410156,0 0.75,-0.10085755 1.054688,-0.48187497 v 0.58273252 c 0,0.63876449 -0.304688,1.15425868 -1.03125,1.15425868 -0.433594,0 -0.621094,-0.1232704 -0.902344,-0.36981107 L 24.082623,1.2227148 c 0.398438,0.3586046 0.703125,0.5042877 1.277344,0.5042877 0.984375,0 1.558594,-0.68359 1.558594,-1.61372079 z M 26.36778,-1.9150757 c 0,0.7060029 -0.105469,1.41200571 -0.925782,1.41200571 -0.820312,0 -0.9375,-0.70600281 -0.9375,-1.41200571 0,-0.6947965 0.117188,-1.4007993 0.9375,-1.4007993 0.820313,0 0.925782,0.7060028 0.925782,1.4007993 z m 4.795898,0.1793023 v -0.2465407 c 0,-1.1206394 -0.5625,-1.8266423 -1.535156,-1.8266423 -0.960938,0 -1.546875,0.7172093 -1.546875,1.9274999 0,1.33356093 0.644531,1.92749984 1.640625,1.92749984 0.644531,0 0.996094,-0.2017151 1.382812,-0.58273252 l -0.375,-0.32498544 c -0.304687,0.30257265 -0.550781,0.42584299 -0.984375,0.42584299 -0.726562,0 -1.113281,-0.47066857 -1.113281,-1.29994177 z M 30.624616,-2.15041 h -1.992188 c 0.01172,-0.3025726 0.03516,-0.4146366 0.117188,-0.6275581 0.140625,-0.3361918 0.480468,-0.5603197 0.878906,-0.5603197 0.398437,0 0.726562,0.2241279 0.878906,0.5603197 0.08203,0.2129215 0.09375,0.3249855 0.117188,0.6275581 z m 0,0"
       style="fill:#ffffff;fill-opacity:1;fill-rule:nonzero;stroke:none"
       aria-label="language"
       transform="matrix(1.3333333,0,0,1.3942932,74.971867,12.705333)" />
    <path
       id="path2"
       d="m 3.5513734,-1.1485857 c 0,-0.7380893 -0.46875,-0.9958347 -1.1484375,-1.0661289 l -0.6328125,-0.058579 c -0.5039062,-0.035147 -0.6914062,-0.234314 -0.6914062,-0.5740694 0,-0.3983339 0.3046875,-0.6443637 0.8789062,-0.6443637 0.4101563,0 0.7734375,0.093726 1.0429688,0.316324 l 0.375,-0.3749025 c -0.3515625,-0.2928926 -0.84375,-0.433481 -1.40625,-0.433481 -0.84375,0 -1.45312501,0.433481 -1.45312501,1.1598546 0,0.6443637 0.41015625,0.9841191 1.18359371,1.0544133 l 0.6445313,0.046863 c 0.4570312,0.046863 0.65625,0.234314 0.65625,0.5740694 0,0.46862816 -0.3984375,0.70294222 -1.0546875,0.70294222 -0.4804688,0 -0.9023438,-0.12887273 -1.21875001,-0.45691242 l -0.38671875,0.3866182 c 0.43359375,0.41004961 0.94921876,0.56235375 1.61718746,0.56235375 0.9492188,0 1.59375,-0.43348101 1.59375,-1.19500155 z m 4.1015625,0.6092166 -0.3867187,-0.3749025 c -0.3046875,0.32803968 -0.5273438,0.44519672 -0.9023438,0.44519672 -0.3867187,0 -0.703125,-0.15230414 -0.9140625,-0.44519672 -0.1875,-0.2577455 -0.2578125,-0.550638 -0.2578125,-1.0544133 0,-0.4920595 0.070312,-0.7966678 0.2578125,-1.0544133 0.2109375,-0.2928925 0.5273438,-0.4451967 0.9140625,-0.4451967 0.375,0 0.5976563,0.117157 0.9023438,0.4451967 l 0.3867187,-0.3749025 c -0.4101562,-0.433481 -0.75,-0.5857851 -1.2890625,-0.5857851 -0.9960937,0 -1.7460937,0.6795108 -1.7460937,2.0151009 0,1.34730588 0.75,2.01510095 1.7460937,2.01510095 0.5390625,0 0.8789063,-0.14058843 1.2890625,-0.58578515 z M 9.5162172,-5.0499148 V -5.6942785 H 8.8716859 v 0.6443637 z M 9.4693422,-4.4675881e-4 V -3.936923 H 8.8951234 V -4.4675881e-4 Z M 14.08067,-1.8163807 v -0.2577455 c 0,-1.1715703 -0.597656,-1.9096596 -1.605468,-1.9096596 -1.007813,0 -1.617188,0.749805 -1.617188,2.0151009 0,1.39416869 0.679688,2.01510095 1.722656,2.01510095 0.667969,0 1.03125,-0.21088265 1.429688,-0.60921656 L 13.623639,-0.9025559 c -0.316406,0.31632398 -0.574219,0.44519672 -1.03125,0.44519672 -0.75,0 -1.160156,-0.49205953 -1.160156,-1.35902152 z m -0.574218,-0.4334811 h -2.074219 c 0.01172,-0.3163239 0.03516,-0.433481 0.117187,-0.6560793 0.152344,-0.3514711 0.503907,-0.5857852 0.925782,-0.5857852 0.410156,0 0.761718,0.2343141 0.914062,0.5857852 0.09375,0.2225983 0.105469,0.3397554 0.117188,0.6560793 z m 5.041992,2.24941504119 V -2.5193229 c 0,-0.4569125 -0.128907,-0.8200992 -0.398438,-1.0895604 -0.246094,-0.2460298 -0.585937,-0.3749025 -1.007812,-0.3749025 -0.445313,0 -0.832032,0.1640198 -1.113282,0.4803438 v -0.433481 h -0.574218 v 3.93647624119 h 0.574218 V -2.4255973 c 0,-0.6795108 0.386719,-1.0426976 0.984375,-1.0426976 0.585938,0 0.960938,0.3514711 0.960938,1.0426976 V -4.4675881e-4 Z M 22.919537,-0.5393691 22.532819,-0.9142716 c -0.304688,0.32803968 -0.527344,0.44519672 -0.902344,0.44519672 -0.386719,0 -0.703125,-0.15230414 -0.914063,-0.44519672 -0.1875,-0.2577455 -0.257812,-0.550638 -0.257812,-1.0544133 0,-0.4920595 0.07031,-0.7966678 0.257812,-1.0544133 0.210938,-0.2928925 0.527344,-0.4451967 0.914063,-0.4451967 0.375,0 0.597656,0.117157 0.902344,0.4451967 l 0.386718,-0.3749025 c -0.410156,-0.433481 -0.75,-0.5857851 -1.289062,-0.5857851 -0.996094,0 -1.746094,0.6795108 -1.746094,2.0151009 0,1.34730588 0.75,2.01510095 1.746094,2.01510095 0.539062,0 0.878906,-0.14058843 1.289062,-0.58578515 z m 4.253907,-1.2770116 v -0.2577455 c 0,-1.1715703 -0.597657,-1.9096596 -1.605469,-1.9096596 -1.007813,0 -1.617188,0.749805 -1.617188,2.0151009 0,1.39416869 0.679688,2.01510095 1.722657,2.01510095 0.667968,0 1.03125,-0.21088265 1.429687,-0.60921656 L 26.716412,-0.9025559 c -0.316406,0.31632398 -0.574218,0.44519672 -1.03125,0.44519672 -0.75,0 -1.160156,-0.49205953 -1.160156,-1.35902152 z m -0.574219,-0.4334811 h -2.074219 c 0.01172,-0.3163239 0.03516,-0.433481 0.117188,-0.6560793 0.152343,-0.3514711 0.503906,-0.5857852 0.925781,-0.5857852 0.410156,0 0.761719,0.2343141 0.914062,0.5857852 0.09375,0.2225983 0.105469,0.3397554 0.117188,0.6560793 z M 3.8443422,7.5034611 c 0,-0.6092166 -0.082031,-1.2652959 -0.4804688,-1.6636299 -0.2109375,-0.2108826 -0.5625,-0.351471 -0.9609375,-0.351471 -0.4335937,0 -0.7851562,0.1054413 -1.1132812,0.5154909 V 5.535223 H 0.71543594 v 5.693832 H 1.2896547 V 9.0030711 c 0.328125,0.4100496 0.6796875,0.5154909 1.1132812,0.5154909 0.3984375,0 0.75,-0.1405884 0.9609375,-0.3397554 C 3.7623109,8.7804727 3.8443422,8.1243934 3.8443422,7.5034611 Z m -0.5742188,0 c 0,0.7732364 -0.1289062,1.49961 -0.984375,1.49961 -0.8554687,0 -0.9960937,-0.7263736 -0.9960937,-1.49961 0,-0.7615207 0.140625,-1.49961 0.9960937,-1.49961 0.8554688,0 0.984375,0.7380893 0.984375,1.49961 z M 7.6851625,5.8632627 c -0.28125,-0.2811769 -0.5625,-0.3749025 -0.9375,-0.3749025 -0.4570313,0 -0.890625,0.1991669 -1.1132813,0.5272066 V 5.535223 H 5.0601625 V 9.4716992 H 5.6343812 V 7.0582644 c 0,-0.5975009 0.375,-1.0544133 0.9492188,-1.0544133 0.3046875,0 0.46875,0.070294 0.6796875,0.2928926 z M 11.153912,7.6557652 V 7.3980198 c 0,-1.1715703 -0.597656,-1.9096596 -1.6054683,-1.9096596 -1.0078125,0 -1.6171875,0.749805 -1.6171875,2.0151009 0,1.3941687 0.6796875,2.0151009 1.7226563,2.0151009 0.6679685,0 1.0312495,-0.2108826 1.4296875,-0.6092165 L 10.696881,8.5695901 c -0.316406,0.316324 -0.574219,0.4451967 -1.0312498,0.4451967 -0.75,0 -1.1601562,-0.4920595 -1.1601562,-1.3590216 z M 10.579694,7.2222842 H 8.505475 C 8.517194,6.9059602 8.540631,6.7888032 8.6226625,6.5662048 8.7750062,6.2147337 9.1265687,5.9804197 9.5484437,5.9804197 c 0.4101563,0 0.7617183,0.234314 0.9140623,0.5857851 0.09375,0.2225984 0.105469,0.3397554 0.117188,0.6560794 z m 4.625976,1.1012761 c 0,-0.7380893 -0.46875,-0.9958348 -1.148437,-1.066129 L 13.42442,7.1988528 c -0.503906,-0.035147 -0.691406,-0.2343141 -0.691406,-0.5740694 0,-0.3983339 0.304688,-0.6443637 0.878906,-0.6443637 0.410157,0 0.773438,0.093726 1.042969,0.316324 l 0.375,-0.3749025 c -0.351562,-0.2928926 -0.84375,-0.433481 -1.40625,-0.433481 -0.84375,0 -1.453125,0.433481 -1.453125,1.1598546 0,0.6443636 0.410156,0.984119 1.183594,1.0544132 l 0.644531,0.046863 c 0.457031,0.046863 0.65625,0.234314 0.65625,0.5740694 0,0.4686281 -0.398437,0.7029422 -1.054687,0.7029422 -0.480469,0 -0.902344,-0.1288727 -1.21875,-0.4569124 l -0.386719,0.3866182 c 0.433594,0.4100496 0.949219,0.5623537 1.617187,0.5623537 0.949219,0 1.59375,-0.433481 1.59375,-1.1950018 z m 3.826172,0 c 0,-0.7380893 -0.46875,-0.9958348 -1.148437,-1.066129 l -0.632813,-0.058579 c -0.503906,-0.035147 -0.691406,-0.2343141 -0.691406,-0.5740694 0,-0.3983339 0.304687,-0.6443637 0.878906,-0.6443637 0.410156,0 0.773438,0.093726 1.042969,0.316324 l 0.375,-0.3749025 c -0.351563,-0.2928926 -0.84375,-0.433481 -1.40625,-0.433481 -0.84375,0 -1.453125,0.433481 -1.453125,1.1598546 0,0.6443636 0.410156,0.984119 1.183594,1.0544132 l 0.644531,0.046863 c 0.457031,0.046863 0.65625,0.234314 0.65625,0.5740694 0,0.4686281 -0.398438,0.7029422 -1.054688,0.7029422 -0.480468,0 -0.902343,-0.1288727 -1.21875,-0.4569124 l -0.386718,0.3866182 c 0.433593,0.4100496 0.949218,0.5623537 1.617187,0.5623537 0.949219,0 1.59375,-0.433481 1.59375,-1.1950013 z m 0,0"
       style="fill:#ffffff;fill-opacity:1;fill-rule:nonzero;stroke:none"
       aria-label="science&#10;press"
       transform="matrix(1.3333333,0,0,1.3336801,74.971867,25.336533)" />
    <path
       id="path3"
       d="m 295.758,0 h 74.8906 V 424.277 H 295.758 Z"
       style="fill:#ffffff;fill-opacity:1;fill-rule:nonzero;stroke:none"
       transform="matrix(0.13333333,0,0,-0.13333333,0,56.693333)" />
    <path
       id="path4"
       d="m 380.637,0 h 74.8984 V 339.629 H 380.637 Z"
       style="fill:#ffffff;fill-opacity:1;fill-rule:nonzero;stroke:none"
       transform="matrix(0.13333333,0,0,-0.13333333,0,56.693333)" />
    <path
       id="path5"
       d="m 465.527,0 h 74.8867 V 424.277 H 465.527 Z"
       style="fill:#ffffff;fill-opacity:1;fill-rule:nonzero;stroke:none"
       transform="matrix(0.13333333,0,0,-0.13333333,0,56.693333)" />
    <path
       id="path6"
       d="m 210.863,0 h 74.9023 V 424.277 H 210.863 Z"
       style="fill:#ffffff;fill-opacity:1;fill-rule:nonzero;stroke:none"
       transform="matrix(0.13333333,0,0,-0.13333333,0,56.693333)" />
    <path
       id="path7"
       d="M 140.199,425.195 0,24.7578 70.6836,0 210.883,400.418 140.199,425.195"
       style="fill:#ffffff;fill-opacity:1;fill-rule:nonzero;stroke:none"
       transform="matrix(0.13333333,0,0,-0.13333333,0,56.693333)"
       clip-path="url(#clipPath8)" />
  </g>
</svg>
