<?xml version="1.0" encoding="utf-8"?>
<!-- Generator: Adobe Illustrator 16.0.0, SVG Export Plug-In . SVG Version: 6.00 Build 0)  -->
<!DOCTYPE svg PUBLIC "-//W3C//DTD SVG 1.1//EN" "http://www.w3.org/Graphics/SVG/1.1/DTD/svg11.dtd">
<svg version="1.1" id="Layer_1" xmlns="http://www.w3.org/2000/svg" xmlns:xlink="http://www.w3.org/1999/xlink" x="0px" y="0px"
	 width="612px" height="792px" viewBox="0 0 612 792" enable-background="new 0 0 612 792" xml:space="preserve">
<text transform="matrix(0.9565 0 0 1 326.7959 373.0146)" fill="#005780" font-family="'DIN-Regular'" font-size="15.4179">l</text>
<text transform="matrix(0.9565 0 0 1 331.1758 373.0146)" fill="#005780" font-family="'DIN-Regular'" font-size="15.4179">an</text>
<text transform="matrix(0.9565 0 0 1 347.8105 373.0146)" fill="#005780" font-family="'DIN-Regular'" font-size="15.4179">g</text>
<text transform="matrix(0.9565 0 0 1 355.8184 373.0146)" fill="#005780" font-family="'DIN-Regular'" font-size="15.4179">u</text>
<text transform="matrix(0.9565 0 0 1 364.4014 373.0146)" fill="#005780" font-family="'DIN-Regular'" font-size="15.4179">age</text>
<text transform="matrix(1 0 0 1 326.7959 391.3232)" fill="#005780" font-family="'DIN-Regular'" font-size="15.4179">scienc</text>
<text transform="matrix(1 0 0 1 372.1396 391.3232)" fill="#005780" font-family="'DIN-Regular'" font-size="15.4179">e</text>
<text transform="matrix(1 0 0 1 326.7959 409.6318)" fill="#005780" font-family="'DIN-Regular'" font-size="15.4179">press</text>
<rect x="275.001" y="354.89" fill="#005780" width="15" height="82"/>
<rect x="291.001" y="371.364" fill="#005780" width="15" height="65.525"/>
<rect x="307.001" y="354.89" fill="#005780" width="15" height="82"/>
<rect x="259.001" y="354.89" fill="#005780" width="15" height="82"/>
<rect x="197.191" y="388.25" transform="matrix(0.3355 -0.942 0.942 0.3355 -214.5354 487.3595)" fill="#005780" width="81.999" height="15"/>
</svg>
